# Blender 5.1.1
# www.blender.org
mtllib Lights.mtl
o Cube.009
v -0.786302 -0.573634 1.191259
v -0.722577 -0.573634 1.254984
v -0.722577 -0.637360 1.191259
v -0.777789 -0.573634 1.223080
v -0.777789 -0.605455 1.191259
v -0.769519 -0.604109 1.221733
v -0.722577 -0.605455 1.246471
v -0.754398 -0.573634 1.246471
v -0.753051 -0.604109 1.238201
v -0.754398 -0.628846 1.191259
v -0.722577 -0.628846 1.223080
v -0.753051 -0.620577 1.221733
v -0.786302 -0.573634 -1.191259
v -0.722577 -0.573634 -1.254984
v -0.722577 -0.637360 -1.191259
v -0.777789 -0.573634 -1.223080
v -0.777789 -0.605455 -1.191259
v -0.769519 -0.604109 -1.221733
v -0.722577 -0.605455 -1.246471
v -0.754398 -0.573634 -1.246471
v -0.753051 -0.604109 -1.238201
v -0.754398 -0.628846 -1.191259
v -0.722577 -0.628846 -1.223080
v -0.753051 -0.620577 -1.221733
v 0.722577 -0.573634 1.254984
v 0.786302 -0.573634 1.191259
v 0.722577 -0.637360 1.191259
v 0.754398 -0.573634 1.246471
v 0.722577 -0.605455 1.246471
v 0.753051 -0.604109 1.238201
v 0.777789 -0.605455 1.191259
v 0.777789 -0.573634 1.223080
v 0.769519 -0.604109 1.221733
v 0.722577 -0.628846 1.223080
v 0.754398 -0.628846 1.191259
v 0.753051 -0.620577 1.221733
v 0.722577 -0.573634 -1.254984
v 0.786302 -0.573634 -1.191259
v 0.722577 -0.637360 -1.191259
v 0.754398 -0.573634 -1.246471
v 0.722577 -0.605455 -1.246471
v 0.753051 -0.604109 -1.238201
v 0.777789 -0.605455 -1.191259
v 0.777789 -0.573634 -1.223080
v 0.769519 -0.604109 -1.221733
v 0.722577 -0.628846 -1.223080
v 0.754398 -0.628846 -1.191259
v 0.753051 -0.620577 -1.221733
v -0.611518 -0.007427 1.080199
v -0.631053 -0.041915 1.163461
v -0.694779 -0.041915 1.099735
v -0.617718 -0.012483 1.109064
v -0.640382 -0.012483 1.086400
v -0.642447 -0.015791 1.111129
v -0.654934 -0.034656 1.146839
v -0.624853 -0.025080 1.139476
v -0.647094 -0.022934 1.130405
v -0.670794 -0.025080 1.093535
v -0.678157 -0.034656 1.123616
v -0.661723 -0.022934 1.115776
v -0.688089 -0.098950 1.220496
v -0.722577 -0.182212 1.254984
v -0.786302 -0.182212 1.191259
v -0.751814 -0.098950 1.156771
v -0.699033 -0.122933 1.237330
v -0.711970 -0.091691 1.203874
v -0.733238 -0.121440 1.225239
v -0.753855 -0.182212 1.245529
v -0.711632 -0.153350 1.249930
v -0.747335 -0.151844 1.239104
v -0.781248 -0.153350 1.180314
v -0.776847 -0.182212 1.222537
v -0.770422 -0.151844 1.216017
v -0.735192 -0.091691 1.180652
v -0.768648 -0.122933 1.167715
v -0.756557 -0.121440 1.201921
v -0.611518 -0.007427 -1.080199
v -0.631053 -0.041915 -1.163461
v -0.694779 -0.041915 -1.099735
v -0.617718 -0.012483 -1.109064
v -0.640382 -0.012483 -1.086400
v -0.642447 -0.015791 -1.111129
v -0.654934 -0.034656 -1.146839
v -0.624853 -0.025080 -1.139476
v -0.647094 -0.022934 -1.130405
v -0.670794 -0.025080 -1.093535
v -0.678157 -0.034656 -1.123616
v -0.661723 -0.022934 -1.115776
v -0.688089 -0.098950 -1.220496
v -0.722577 -0.182212 -1.254984
v -0.786302 -0.182212 -1.191259
v -0.751814 -0.098950 -1.156771
v -0.699033 -0.122933 -1.237330
v -0.711970 -0.091691 -1.203874
v -0.733238 -0.121440 -1.225239
v -0.753855 -0.182212 -1.245529
v -0.711632 -0.153350 -1.249930
v -0.747335 -0.151844 -1.239104
v -0.781248 -0.153350 -1.180314
v -0.776847 -0.182212 -1.222537
v -0.770422 -0.151844 -1.216017
v -0.735192 -0.091691 -1.180652
v -0.768648 -0.122933 -1.167715
v -0.756557 -0.121440 -1.201921
v 0.611518 -0.007427 1.080199
v 0.694779 -0.041915 1.099735
v 0.631053 -0.041915 1.163461
v 0.640382 -0.012483 1.086400
v 0.617718 -0.012483 1.109064
v 0.642447 -0.015791 1.111129
v 0.678157 -0.034656 1.123616
v 0.670794 -0.025080 1.093535
v 0.661723 -0.022934 1.115776
v 0.624853 -0.025080 1.139476
v 0.654934 -0.034656 1.146839
v 0.647094 -0.022934 1.130405
v 0.751814 -0.098950 1.156771
v 0.786302 -0.182212 1.191259
v 0.722577 -0.182212 1.254984
v 0.688089 -0.098950 1.220496
v 0.768648 -0.122933 1.167715
v 0.735192 -0.091691 1.180652
v 0.756557 -0.121440 1.201920
v 0.776847 -0.182212 1.222537
v 0.781248 -0.153350 1.180314
v 0.770422 -0.151844 1.216017
v 0.711632 -0.153350 1.249930
v 0.753855 -0.182212 1.245529
v 0.747335 -0.151844 1.239104
v 0.711970 -0.091691 1.203874
v 0.699033 -0.122933 1.237330
v 0.733239 -0.121440 1.225239
v 0.611518 -0.007427 -1.080199
v 0.694779 -0.041915 -1.099735
v 0.631053 -0.041915 -1.163461
v 0.640382 -0.012483 -1.086400
v 0.617718 -0.012483 -1.109064
v 0.642447 -0.015791 -1.111129
v 0.678157 -0.034656 -1.123616
v 0.670794 -0.025080 -1.093535
v 0.661723 -0.022934 -1.115776
v 0.624853 -0.025080 -1.139476
v 0.654934 -0.034656 -1.146839
v 0.647094 -0.022934 -1.130405
v 0.751814 -0.098950 -1.156771
v 0.786302 -0.182212 -1.191259
v 0.722577 -0.182212 -1.254984
v 0.688089 -0.098950 -1.220496
v 0.768648 -0.122933 -1.167715
v 0.735192 -0.091691 -1.180652
v 0.756557 -0.121440 -1.201920
v 0.776847 -0.182212 -1.222537
v 0.781248 -0.153350 -1.180314
v 0.770422 -0.151844 -1.216017
v 0.711632 -0.153350 -1.249930
v 0.753855 -0.182212 -1.245529
v 0.747335 -0.151844 -1.239104
v 0.711970 -0.091691 -1.203874
v 0.699033 -0.122933 -1.237330
v 0.733239 -0.121440 -1.225239
v -0.722577 -0.637360 0.000000
v -0.754398 -0.628846 0.000000
v -0.777789 -0.605455 0.000000
v -0.786302 -0.573634 0.000000
v 0.722577 -0.637360 0.000000
v 0.754398 -0.628846 0.000000
v 0.777789 -0.605455 0.000000
v 0.786302 -0.573634 0.000000
v -0.611518 -0.007427 0.000000
v -0.640382 -0.012483 0.000000
v -0.670794 -0.025080 0.000000
v -0.694779 -0.041915 0.000000
v -0.786302 -0.182212 0.000000
v -0.781248 -0.153350 0.000000
v -0.768648 -0.122933 0.000000
v -0.751814 -0.098950 0.000000
v 0.611518 -0.007427 0.000000
v 0.640382 -0.012483 0.000000
v 0.670794 -0.025080 0.000000
v 0.694779 -0.041915 0.000000
v 0.786302 -0.182212 0.000000
v 0.781248 -0.153350 0.000000
v 0.768648 -0.122933 0.000000
v 0.751814 -0.098950 0.000000
vn -0.8604 -0.1204 0.4952
vn -0.7744 -0.4473 0.4473
vn -0.4473 -0.4473 0.7744
vn -0.4952 -0.1204 0.8604
vn -0.1296 -0.9831 0.1296
vn -0.1216 -0.8623 0.4915
vn -0.4473 -0.7744 0.4473
vn -0.4915 -0.8623 0.1216
vn -0.8623 -0.4915 0.1216
vn 0.4952 -0.1204 0.8604
vn 0.4473 -0.4473 0.7744
vn 0.7744 -0.4474 0.4473
vn 0.8604 -0.1204 0.4952
vn 0.9826 -0.1293 0.1336
vn 0.8623 -0.4915 0.1216
vn 0.1336 -0.1293 0.9826
vn 0.1216 -0.4915 0.8623
vn -0.9826 -0.1293 -0.1336
vn -0.8604 -0.1204 -0.4952
vn -0.7744 -0.4473 -0.4473
vn -0.8623 -0.4915 -0.1216
vn -0.4952 -0.1204 -0.8604
vn -0.4473 -0.4473 -0.7744
vn -0.1336 -0.1293 -0.9826
vn -0.1216 -0.4915 -0.8623
vn -0.1216 -0.8623 -0.4915
vn -0.4473 -0.7744 -0.4473
vn -0.1296 -0.9831 -0.1296
vn -0.4915 -0.8623 -0.1216
vn 0.1216 -0.8623 0.4915
vn 0.4473 -0.7744 0.4473
vn -0.0735 0.9946 0.0735
vn -0.2581 0.9645 0.0553
vn -0.2090 0.9553 0.2090
vn -0.0553 0.9645 0.2581
vn -0.2233 0.8859 0.4066
vn -0.0538 0.8768 0.4779
vn -0.1276 0.5247 0.8416
vn -0.4111 0.6062 0.6808
vn -0.4705 0.4017 0.7857
vn -0.1332 0.3247 0.9364
vn -0.1540 0.1139 0.9815
vn -0.5083 0.1412 0.8495
vn -0.4066 0.8859 0.2233
vn -0.1189 0.6787 0.7247
vn -0.3406 0.7540 0.5616
vn 0.1336 -0.1293 -0.9826
vn 0.4952 -0.1204 -0.8604
vn 0.4473 -0.4474 -0.7744
vn 0.1216 -0.4915 -0.8623
vn 0.8604 -0.1204 -0.4952
vn 0.7744 -0.4474 -0.4473
vn 0.9826 -0.1293 -0.1336
vn 0.8623 -0.4915 -0.1216
vn 0.4915 -0.8623 -0.1216
vn 0.4473 -0.7744 -0.4473
vn 0.1296 -0.9831 -0.1296
vn 0.1216 -0.8623 -0.4915
vn -0.7857 0.4017 0.4705
vn -0.8495 0.1412 0.5083
vn -0.9364 0.3247 0.1332
vn -0.6808 0.6062 0.4111
vn -0.8417 0.5247 0.1276
vn -0.7247 0.6787 0.1189
vn -0.5616 0.7540 0.3406
vn 0.6252 0.7774 0.0698
vn 0.4779 0.8768 0.0538
vn 0.4066 0.8859 0.2233
vn 0.4990 0.8230 0.2713
vn 0.2233 0.8859 0.4066
vn 0.2713 0.8230 0.4990
vn 0.0735 0.9946 0.0735
vn 0.0553 0.9645 0.2581
vn 0.2090 0.9553 0.2090
vn 0.2581 0.9645 0.0553
vn 0.7247 0.6787 0.1189
vn 0.5616 0.7540 0.3406
vn 0.6808 0.6062 0.4111
vn 0.8416 0.5247 0.1276
vn 0.1540 0.1139 0.9815
vn 0.5083 0.1412 0.8495
vn 0.4705 0.4017 0.7857
vn 0.1332 0.3247 0.9364
vn 0.4111 0.6062 0.6808
vn 0.1276 0.5247 0.8416
vn 0.1296 -0.9831 0.1296
vn -0.1216 -0.4915 0.8623
vn -0.0866 0.9962 -0.0000
vn -0.2793 0.9602 -0.0000
vn -0.4815 0.8765 -0.0000
vn -0.4779 0.8768 0.0538
vn 0.7071 -0.7071 -0.0000
vn 0.4915 -0.8623 0.1216
vn 0.9660 -0.2585 -0.0000
vn 0.9915 -0.1303 -0.0000
vn -0.0735 0.9946 -0.0735
vn -0.0553 0.9645 -0.2581
vn -0.2090 0.9553 -0.2090
vn -0.2581 0.9645 -0.0553
vn -0.0538 0.8768 -0.4779
vn -0.2233 0.8859 -0.4066
vn -0.0698 0.7774 -0.6252
vn -0.2713 0.8230 -0.4990
vn -0.4990 0.8230 -0.2713
vn -0.4066 0.8859 -0.2233
vn -0.6252 0.7774 -0.0698
vn -0.4779 0.8768 -0.0538
vn -0.1189 0.6787 -0.7247
vn -0.1276 0.5247 -0.8416
vn -0.4111 0.6062 -0.6808
vn -0.3406 0.7540 -0.5616
vn -0.1332 0.3247 -0.9364
vn -0.4705 0.4017 -0.7857
vn -0.1540 0.1139 -0.9815
vn -0.5083 0.1412 -0.8495
vn -0.8495 0.1412 -0.5083
vn -0.7857 0.4017 -0.4705
vn -0.9815 0.1139 -0.1540
vn -0.9364 0.3247 -0.1332
vn -0.8417 0.5247 -0.1276
vn -0.6808 0.6062 -0.4111
vn -0.7247 0.6787 -0.1189
vn -0.5616 0.7540 -0.3406
vn -0.4990 0.8230 0.2713
vn -0.6252 0.7774 0.0698
vn -0.0698 0.7774 0.6252
vn 0.0698 0.7774 0.6252
vn 0.0538 0.8768 0.4779
vn 0.1189 0.6787 0.7247
vn 0.9962 0.0866 -0.0000
vn 0.9602 0.2793 -0.0000
vn 0.9364 0.3247 0.1332
vn 0.9815 0.1139 0.1540
vn 0.8495 0.1412 0.5083
vn -0.6432 0.7657 -0.0000
vn -0.7657 0.6432 -0.0000
vn 0.2793 0.9602 -0.0000
vn 0.0866 0.9962 -0.0000
vn -0.8764 0.4815 -0.0000
vn -0.2585 -0.9660 -0.0000
vn -0.1303 -0.9915 -0.0000
vn 0.1303 -0.9915 -0.0000
vn -0.9826 -0.1293 0.1336
vn -0.9915 -0.1303 -0.0000
vn -0.9660 -0.2585 -0.0000
vn -0.7071 -0.7071 -0.0000
vn 0.0735 0.9946 -0.0735
vn 0.2581 0.9645 -0.0553
vn 0.2090 0.9553 -0.2090
vn 0.0553 0.9645 -0.2581
vn 0.4779 0.8768 -0.0538
vn 0.4066 0.8859 -0.2233
vn 0.6252 0.7774 -0.0698
vn 0.4990 0.8230 -0.2713
vn 0.2713 0.8230 -0.4990
vn 0.2233 0.8859 -0.4066
vn 0.0698 0.7774 -0.6252
vn 0.0538 0.8768 -0.4779
vn 0.7247 0.6787 -0.1189
vn 0.8416 0.5247 -0.1276
vn 0.6808 0.6062 -0.4111
vn 0.5616 0.7540 -0.3406
vn 0.9364 0.3247 -0.1332
vn 0.7857 0.4017 -0.4705
vn 0.9815 0.1139 -0.1540
vn 0.8495 0.1412 -0.5083
vn 0.5083 0.1412 -0.8495
vn 0.4705 0.4017 -0.7857
vn 0.1540 0.1139 -0.9815
vn 0.1332 0.3247 -0.9364
vn 0.1276 0.5247 -0.8416
vn 0.4111 0.6062 -0.6808
vn 0.1189 0.6787 -0.7247
vn 0.3406 0.7540 -0.5616
vn -0.1336 -0.1293 0.9826
vn 0.2585 -0.9660 -0.0000
vn 0.7857 0.4017 0.4705
vn 0.3406 0.7540 0.5616
vn -0.2713 0.8230 0.4990
vn -0.9602 0.2793 -0.0000
vn -0.9815 0.1139 0.1540
vn -0.9962 0.0866 -0.0000
vn 0.8764 0.4815 -0.0000
vn 0.7657 0.6432 -0.0000
vn 0.6432 0.7657 -0.0000
vn 0.4815 0.8765 -0.0000
vt 0.400291 0.246475
vt 0.375000 0.246326
vt 0.375000 0.255286
vt 0.400380 0.255072
vt 0.135131 0.507041
vt 0.135131 0.503525
vt 0.130286 0.503674
vt 0.130072 0.507041
vt 0.125000 0.503674
vt 0.125000 0.507041
vt 0.401782 0.494928
vt 0.372357 0.497357
vt 0.384849 0.503674
vt 0.401872 0.503525
vt 0.401872 0.507041
vt 0.388453 0.507041
vt 0.130286 0.500000
vt 0.401725 0.489869
vt 0.369935 0.494935
vt 0.400291 0.242959
vt 0.375000 0.242959
vt 0.400437 0.260131
vt 0.375000 0.260131
vt 0.135131 0.500000
vt 0.364869 0.503525
vt 0.369714 0.503674
vt 0.847214 0.519311
vt 0.851803 0.518626
vt 0.852131 0.515894
vt 0.848200 0.516122
vt 0.852642 0.512987
vt 0.848882 0.512367
vt 0.575684 0.263873
vt 0.579988 0.252575
vt 0.567879 0.254207
vt 0.567613 0.261870
vt 0.556015 0.260131
vt 0.555809 0.255158
vt 0.856314 0.515381
vt 0.858099 0.503811
vt 0.862643 0.505130
vt 0.865896 0.502306
vt 0.859045 0.500000
vt 0.369928 0.507041
vt 0.364869 0.507041
vt 0.567685 0.245695
vt 0.555634 0.246415
vt 0.567088 0.241750
vt 0.574990 0.244137
vt 0.574990 0.240358
vt 0.869517 0.510851
vt 0.875000 0.509642
vt 0.875000 0.505863
vt 0.867619 0.508213
vt 0.629284 0.517153
vt 0.638604 0.517838
vt 0.641165 0.515381
vt 0.634737 0.514514
vt 0.644837 0.512987
vt 0.639601 0.511431
vt 0.652786 0.519311
vt 0.651800 0.516122
vt 0.647869 0.515894
vt 0.648197 0.518626
vt 0.603241 0.510851
vt 0.608693 0.508213
vt 0.595833 0.503215
vt 0.593922 0.509642
vt 0.566545 0.489869
vt 0.566751 0.494842
vt 0.579474 0.493805
vt 0.578571 0.488130
vt 0.592132 0.495782
vt 0.595123 0.493063
vt 0.847214 0.631415
vt 0.851803 0.631418
vt 0.857206 0.631421
vt 0.857206 0.517838
vt 0.369928 0.631456
vt 0.388453 0.631456
vt 0.401872 0.631456
vt 0.849402 0.510112
vt 0.853688 0.511431
vt 0.858552 0.514514
vt 0.860450 0.517153
vt 0.555634 0.242959
vt 0.640333 0.510112
vt 0.646928 0.512367
vt 0.614659 0.503810
vt 0.566926 0.631456
vt 0.579096 0.631452
vt 0.579096 0.508250
vt 0.566926 0.507041
vt 0.566926 0.503585
vt 0.860450 0.631423
vt 0.869517 0.631444
vt 0.648197 0.631418
vt 0.652786 0.631415
vt 0.875000 0.631448
vt 0.130072 0.631456
vt 0.135131 0.631456
vt 0.364869 0.631456
vt 0.400291 0.118544
vt 0.375000 0.118544
vt 0.125000 0.631456
vt 0.579708 0.502598
vt 0.613669 0.505130
vt 0.574990 0.118552
vt 0.567088 0.118548
vt 0.555634 0.118544
vt 0.593922 0.631448
vt 0.603241 0.631444
vt 0.629284 0.631423
vt 0.638604 0.631421
s 1
f 4/1/1 6/2/2 9/3/3 8/4/4
f 3/5/5 11/6/6 12/7/7 10/8/8
f 10/8/8 12/7/7 6/9/2 5/10/9
f 28/11/10 30/12/11 33/13/12 32/14/13
f 26/15/14 32/14/13 33/13/12 31/16/15
f 6/9/2 12/7/7 9/17/3
f 25/18/16 29/19/17 30/12/11 28/11/10
f 13/20/18 16/1/19 18/2/20 17/21/21
f 16/1/19 20/4/22 21/3/23 18/2/20
f 14/22/24 19/23/25 21/3/23 20/4/22
f 19/24/25 23/6/26 24/7/27 21/17/23
f 15/5/28 22/8/29 24/7/27 23/6/26
f 22/8/29 17/10/21 18/9/20 24/7/27
f 18/9/20 21/17/23 24/7/27
f 34/25/30 36/26/31 30/12/11 29/19/17
f 49/27/32 53/28/33 54/29/34 52/30/35
f 52/30/35 54/29/34 57/31/36 56/32/37
f 65/33/38 67/34/39 70/35/40 69/36/41
f 62/37/42 69/36/41 70/35/40 68/38/43
f 54/29/34 60/39/44 57/31/36
f 61/40/45 66/41/46 67/42/39 65/43/38
f 37/18/47 40/11/48 42/12/49 41/19/50
f 40/11/48 44/14/51 45/13/52 42/12/49
f 38/15/53 43/16/54 45/13/52 44/14/51
f 43/16/54 47/44/55 48/26/56 45/13/52
f 39/45/57 46/25/58 48/26/56 47/44/55
f 46/25/58 41/19/50 42/12/49 48/26/56
f 42/12/49 45/13/52 48/26/56
f 68/38/43 70/35/40 73/46/59 72/47/60
f 71/48/61 73/46/59 76/49/62 75/50/63
f 64/51/64 75/52/63 76/53/62 74/54/65
f 106/55/66 112/56/67 113/57/68 111/58/69
f 111/58/69 113/57/68 116/59/70 115/60/71
f 105/61/72 109/62/73 110/63/74 108/64/75
f 108/64/75 110/63/74 113/57/68 112/56/67
f 117/65/76 122/66/77 123/67/78 121/68/79
f 119/69/80 128/70/81 129/71/82 127/72/83
f 127/72/83 129/71/82 132/73/84 131/74/85
f 27/45/86 34/25/30 11/6/6 3/5/5
f 34/25/30 29/19/17 7/24/87 11/6/6
f 169/75/88 170/76/89 53/28/33 49/27/32
f 170/76/89 171/77/90 58/78/91 53/28/33
f 166/79/92 167/80/92 31/16/15 35/44/93
f 167/80/94 168/81/95 26/15/14 31/16/15
f 77/27/96 80/30/97 82/29/98 81/28/99
f 80/30/97 84/32/100 85/31/101 82/29/98
f 78/82/102 83/83/103 85/31/101 84/32/100
f 83/83/103 87/84/104 88/39/105 85/31/101
f 79/85/106 86/78/107 88/39/105 87/84/104
f 86/78/107 81/28/99 82/29/98 88/39/105
f 82/29/98 85/31/101 88/39/105
f 89/40/108 93/43/109 95/42/110 94/41/111
f 93/33/109 97/36/112 98/35/113 95/34/110
f 90/37/114 96/38/115 98/35/113 97/36/112
f 96/38/115 100/47/116 101/46/117 98/35/113
f 91/86/118 99/48/119 101/46/117 100/47/116
f 99/48/119 103/50/120 104/49/121 101/46/117
f 92/51/122 102/54/123 104/53/121 103/52/120
f 102/54/123 94/41/111 95/42/110 104/53/121
f 95/34/110 98/35/113 101/46/117 104/49/121
f 59/84/124 51/85/125 64/51/64 74/54/65
f 56/32/37 50/82/126 107/87/127 114/88/128
f 106/55/66 111/58/69 122/66/77 117/65/76
f 131/74/85 120/89/129 61/40/45 65/43/38
f 181/90/130 182/91/131 125/92/132 118/93/133
f 119/69/80 127/72/83 69/36/41 62/37/42
f 127/72/83 131/74/85 65/33/38 69/36/41
f 124/94/134 128/70/81 28/11/10 32/14/13
f 172/95/135 176/96/136 64/51/64 51/85/125
f 50/82/126 61/40/45 120/89/129 107/87/127
f 105/61/72 108/64/75 178/97/137 177/98/138
f 75/52/63 64/51/64 176/96/136 175/99/139
f 3/5/5 10/8/8 162/100/140 161/101/141
f 3/5/5 161/101/141 165/102/142 27/45/86
f 5/21/9 1/20/143 164/103/144 163/104/145
f 10/8/8 5/10/9 163/105/146 162/100/146
f 133/61/147 136/64/148 138/63/149 137/62/150
f 136/64/148 140/56/151 141/57/152 138/63/149
f 134/55/153 139/58/154 141/57/152 140/56/151
f 139/58/154 143/60/155 144/59/156 141/57/152
f 135/87/157 142/88/158 144/59/156 143/60/155
f 142/88/158 137/62/150 138/63/149 144/59/156
f 138/63/149 141/57/152 144/59/156
f 145/65/159 149/68/160 151/67/161 150/66/162
f 149/68/160 153/92/163 154/106/164 151/67/161
f 146/93/165 152/94/166 154/106/164 153/92/163
f 152/94/166 156/70/167 157/71/168 154/106/164
f 147/69/169 155/72/170 157/71/168 156/70/167
f 155/72/170 159/74/171 160/73/172 157/71/168
f 148/89/173 158/107/174 160/73/172 159/74/171
f 158/107/174 150/66/162 151/67/161 160/73/172
f 151/67/161 154/106/164 157/71/168 160/73/172
f 2/22/175 8/4/4 9/3/3 7/23/87
f 7/24/87 9/17/3 12/7/7 11/6/6
f 1/20/143 5/21/9 6/2/2 4/1/1
f 39/45/57 15/5/28 23/6/26 46/25/58
f 46/25/58 23/6/26 19/24/25 41/19/50
f 41/19/50 19/23/25 14/22/24 37/18/47
f 165/102/142 39/45/57 47/44/55 166/79/176
f 166/79/92 47/44/55 43/16/54 167/80/92
f 167/80/94 43/16/54 38/15/53 168/81/95
f 51/85/125 59/84/124 60/39/44 58/78/91
f 58/78/91 60/39/44 54/29/34 53/28/33
f 30/12/11 36/26/31 33/13/12
f 110/63/74 116/59/70 113/57/68
f 124/94/134 126/106/177 129/71/82 128/70/81
f 118/93/133 125/92/132 126/106/177 124/94/134
f 169/75/88 77/27/96 81/28/99 170/76/89
f 170/76/89 81/28/99 86/78/107 171/77/90
f 171/77/90 86/78/107 79/85/106 172/95/135
f 78/82/102 89/40/108 94/41/111 83/83/103
f 83/83/103 94/41/111 102/54/123 87/84/104
f 87/84/104 102/54/123 92/51/122 79/85/106
f 130/107/178 132/73/84 123/67/78 122/66/77
f 123/67/78 132/73/84 129/71/82 126/106/177
f 121/68/79 123/67/78 126/106/177 125/92/132
f 77/27/96 133/61/147 137/62/150 80/30/97
f 80/30/97 137/62/150 142/88/158 84/32/100
f 84/32/100 142/88/158 135/87/157 78/82/102
f 134/55/153 145/65/159 150/66/162 139/58/154
f 139/58/154 150/66/162 158/107/174 143/60/155
f 143/60/155 158/107/174 148/89/173 135/87/157
f 147/69/169 90/37/114 97/36/112 155/72/170
f 155/72/170 97/36/112 93/33/109 159/74/171
f 159/74/171 93/43/109 89/40/108 148/89/173
f 55/83/179 59/84/124 74/54/65 66/41/46
f 111/58/69 115/60/71 130/107/178 122/66/77
f 115/60/71 107/87/127 120/89/129 130/107/178
f 118/93/133 124/94/134 32/14/13 26/15/14
f 71/48/61 75/50/63 175/108/139 174/109/180
f 63/86/181 71/48/61 174/109/180 173/110/182
f 181/90/130 146/93/165 153/92/163 182/91/131
f 182/91/131 153/92/163 149/68/160 183/111/183
f 183/111/183 149/68/160 145/65/159 184/112/184
f 50/82/126 55/83/179 66/41/46 61/40/45
f 52/30/35 56/32/37 114/88/128 109/62/73
f 49/27/32 52/30/35 109/62/73 105/61/72
f 164/103/144 1/20/143 63/86/181 173/110/182
f 2/22/175 25/18/16 119/69/80 62/37/42
f 72/47/60 63/86/181 1/20/143 4/1/1
f 112/56/67 106/55/66 180/113/185 179/114/186
f 108/64/75 112/56/67 179/114/186 178/97/137
f 128/70/81 119/69/80 25/18/16 28/11/10
f 120/89/129 131/74/85 132/73/84 130/107/178
f 165/102/142 166/79/176 35/44/93 27/45/86
f 29/19/17 25/18/16 2/22/175 7/23/87
f 90/37/114 14/22/24 20/4/22 96/38/115
f 96/38/115 20/4/22 16/1/19 100/47/116
f 100/47/116 16/1/19 13/20/18 91/86/118
f 146/93/165 38/15/53 44/14/51 152/94/166
f 152/94/166 44/14/51 40/11/48 156/70/167
f 156/70/167 40/11/48 37/18/47 147/69/169
f 164/103/144 173/110/182 91/86/118 13/20/18
f 31/16/15 33/13/12 36/26/31 35/44/93
f 183/111/183 184/112/184 117/65/76 121/68/79
f 14/22/24 90/37/114 147/69/169 37/18/47
f 62/37/42 68/38/43 8/4/4 2/22/175
f 182/91/131 183/111/183 121/68/79 125/92/132
f 172/95/135 79/85/106 92/51/122 176/96/136
f 171/77/90 172/95/135 51/85/125 58/78/91
f 78/82/102 135/87/157 148/89/173 89/40/108
f 68/38/43 72/47/60 4/1/1 8/4/4
f 105/61/72 177/98/138 169/75/88 49/27/32
f 26/15/14 168/81/95 181/90/130 118/93/133
f 106/55/66 117/65/76 184/112/184 180/113/185
f 134/55/153 180/113/185 184/112/184 145/65/159
f 140/56/151 179/114/186 180/113/185 134/55/153
f 136/64/148 178/97/137 179/114/186 140/56/151
f 133/61/147 177/98/138 178/97/137 136/64/148
f 103/52/120 175/99/139 176/96/136 92/51/122
f 99/48/119 174/109/180 175/108/139 103/50/120
f 91/86/118 173/110/182 174/109/180 99/48/119
f 107/87/127 115/60/71 116/59/70 114/88/128
f 74/54/65 76/53/62 67/42/39 66/41/46
f 67/34/39 76/49/62 73/46/59 70/35/40
f 63/86/181 72/47/60 73/46/59 71/48/61
f 133/61/147 77/27/96 169/75/88 177/98/138
f 38/15/53 146/93/165 181/90/130 168/81/95
f 27/45/86 35/44/93 36/26/31 34/25/30
f 50/82/126 56/32/37 57/31/36 55/83/179
f 55/83/179 57/31/36 60/39/44 59/84/124
f 114/88/128 116/59/70 110/63/74 109/62/73
f 17/21/21 163/104/145 164/103/144 13/20/18
f 22/8/29 162/100/146 163/105/146 17/10/21
f 15/5/28 161/101/141 162/100/140 22/8/29
f 15/5/28 39/45/57 165/102/142 161/101/141
