# Blender 5.1.1
# www.blender.org
mtllib Lights.mtl
o Cube.011
v -0.240630 -0.004244 -0.934857
v -0.207434 -0.004244 -0.968054
v -0.236183 -0.004244 -0.951456
v -0.224032 -0.004244 -0.963606
v 0.207434 -0.004244 -0.968054
v 0.240630 -0.004244 -0.934857
v 0.224032 -0.004244 -0.963606
v 0.236183 -0.004244 -0.951456
v -0.207434 -0.004244 -0.771359
v -0.240630 -0.004244 -0.804555
v -0.224032 -0.004244 -0.775806
v -0.236183 -0.004244 -0.787957
v 0.240630 -0.004244 -0.804555
v 0.207434 -0.004244 -0.771359
v 0.236183 -0.004244 -0.787957
v 0.224032 -0.004244 -0.775806
v -0.209890 0.055080 -0.835296
v -0.176693 0.055080 -0.802099
v -0.169777 0.079472 -0.842212
v -0.203007 0.058908 -0.821024
v -0.199674 0.067001 -0.837494
v -0.195497 0.068035 -0.824442
v -0.174495 0.067001 -0.812315
v -0.190965 0.058908 -0.808982
v -0.187547 0.068035 -0.816492
v -0.185062 0.075887 -0.840013
v -0.171976 0.075887 -0.826927
v -0.185676 0.073454 -0.826313
v -0.209890 0.055080 -0.904117
v -0.169777 0.079472 -0.897201
v -0.176693 0.055080 -0.937314
v -0.199674 0.067001 -0.901919
v -0.203007 0.058908 -0.918388
v -0.195497 0.068035 -0.914971
v -0.171976 0.075887 -0.912486
v -0.185062 0.075887 -0.899399
v -0.185676 0.073454 -0.913100
v -0.190965 0.058908 -0.930430
v -0.174495 0.067001 -0.927098
v -0.187547 0.068035 -0.922920
v 0.176693 0.055080 -0.937314
v 0.169777 0.079472 -0.897201
v 0.209890 0.055080 -0.904117
v 0.174495 0.067001 -0.927098
v 0.190965 0.058908 -0.930430
v 0.187547 0.068035 -0.922920
v 0.185062 0.075887 -0.899399
v 0.171976 0.075887 -0.912486
v 0.185676 0.073454 -0.913100
v 0.203007 0.058908 -0.918388
v 0.199674 0.067001 -0.901919
v 0.195497 0.068035 -0.914970
v 0.209890 0.055080 -0.835296
v 0.169777 0.079472 -0.842212
v 0.176693 0.055080 -0.802099
v 0.199674 0.067001 -0.837494
v 0.203007 0.058908 -0.821024
v 0.195497 0.068035 -0.824442
v 0.171976 0.075887 -0.826927
v 0.185062 0.075887 -0.840013
v 0.185676 0.073454 -0.826313
v 0.190965 0.058908 -0.808982
v 0.174495 0.067001 -0.812315
v 0.187547 0.068035 -0.816492
vn -0.8452 0.5148 -0.1438
vn -0.1438 0.5148 -0.8452
vn -0.6907 0.5844 -0.4260
vn -0.4260 0.5844 -0.6907
vn 0.1438 0.5148 -0.8452
vn 0.8452 0.5148 -0.1438
vn 0.4260 0.5844 -0.6907
vn 0.6907 0.5844 -0.4260
vn -0.1438 0.5148 0.8452
vn -0.8452 0.5148 0.1438
vn -0.4260 0.5844 0.6907
vn -0.6907 0.5844 0.4260
vn 0.8452 0.5148 0.1438
vn 0.1438 0.5148 0.8452
vn 0.6907 0.5844 0.4260
vn 0.4260 0.5844 0.6907
vn -0.8159 0.5705 0.0940
vn -0.0940 0.5705 0.8159
vn -0.1003 0.9899 0.1003
vn -0.6838 0.6258 0.3751
vn -0.6448 0.7607 0.0742
vn -0.5641 0.7654 0.3097
vn -0.0742 0.7607 0.6448
vn -0.3751 0.6258 0.6838
vn -0.3097 0.7654 0.5641
vn -0.3552 0.9316 0.0767
vn -0.0767 0.9316 0.3552
vn -0.2944 0.9092 0.2944
vn -0.8159 0.5705 -0.0940
vn -0.1003 0.9899 -0.1003
vn -0.0940 0.5705 -0.8159
vn -0.6448 0.7607 -0.0742
vn -0.6838 0.6258 -0.3751
vn -0.5641 0.7654 -0.3097
vn -0.0767 0.9316 -0.3552
vn -0.3552 0.9316 -0.0767
vn -0.2944 0.9092 -0.2944
vn -0.3751 0.6258 -0.6838
vn -0.0742 0.7607 -0.6448
vn -0.3097 0.7654 -0.5641
vn 0.0940 0.5705 -0.8159
vn 0.1003 0.9899 -0.1003
vn 0.8159 0.5705 -0.0940
vn 0.0742 0.7607 -0.6448
vn 0.3751 0.6258 -0.6838
vn 0.3097 0.7654 -0.5641
vn 0.3552 0.9316 -0.0767
vn 0.0767 0.9316 -0.3552
vn 0.2944 0.9092 -0.2944
vn 0.6838 0.6258 -0.3751
vn 0.6448 0.7607 -0.0742
vn 0.5641 0.7654 -0.3097
vn 0.8159 0.5705 0.0940
vn 0.1003 0.9899 0.1003
vn 0.0940 0.5705 0.8159
vn 0.6448 0.7607 0.0742
vn 0.6838 0.6258 0.3751
vn 0.5641 0.7654 0.3097
vn 0.0767 0.9316 0.3552
vn 0.3552 0.9316 0.0767
vn 0.2944 0.9092 0.2944
vn 0.3751 0.6258 0.6838
vn 0.0742 0.7607 0.6448
vn 0.3097 0.7654 0.5641
vt 0.834795 0.594975
vt 0.833575 0.603109
vt 0.831426 0.601161
vt 0.831954 0.593722
vt 0.827149 0.612173
vt 0.825768 0.609142
vt 0.821384 0.613895
vt 0.820496 0.609887
vt 0.819478 0.599745
vt 0.825013 0.600095
vt 0.818590 0.591033
vt 0.824765 0.592286
vt 0.834795 0.555751
vt 0.831954 0.557004
vt 0.831426 0.549565
vt 0.833575 0.547617
vt 0.824765 0.558440
vt 0.825013 0.550632
vt 0.818590 0.559693
vt 0.819478 0.550982
vt 0.820495 0.540839
vt 0.825769 0.541584
vt 0.821384 0.536831
vt 0.827149 0.538553
vt 0.678616 0.536832
vt 0.679504 0.540839
vt 0.674232 0.541584
vt 0.672851 0.538553
vt 0.680522 0.550982
vt 0.674987 0.550632
vt 0.681410 0.559693
vt 0.675235 0.558440
vt 0.668046 0.557004
vt 0.668574 0.549566
vt 0.665205 0.555751
vt 0.666425 0.547618
vt 0.665205 0.594975
vt 0.668046 0.593722
vt 0.668574 0.601161
vt 0.666425 0.603109
vt 0.675235 0.592286
vt 0.674987 0.600095
vt 0.681410 0.591033
vt 0.680522 0.599745
vt 0.679504 0.609887
vt 0.674232 0.609142
vt 0.678616 0.613895
vt 0.672851 0.612173
vt 0.833803 0.631415
vt 0.840508 0.630879
vt 0.846834 0.621955
vt 0.847214 0.612495
vt 0.833803 0.519311
vt 0.840508 0.519848
vt 0.846834 0.528771
vt 0.847214 0.538231
vt 0.652786 0.538231
vt 0.653166 0.528771
vt 0.659492 0.519848
vt 0.666197 0.519311
vt 0.666197 0.631415
vt 0.659492 0.630879
vt 0.653166 0.621955
vt 0.652786 0.612495
s 1
f 17/1/17 20/2/20 22/3/22 21/4/21
f 20/2/20 24/5/24 25/6/25 22/3/22
f 18/7/18 23/8/23 25/6/25 24/5/24
f 23/8/23 27/9/27 28/10/28 25/6/25
f 19/11/19 26/12/26 28/10/28 27/9/27
f 26/12/26 21/4/21 22/3/22 28/10/28
f 22/3/22 25/6/25 28/10/28
f 29/13/29 32/14/32 34/15/34 33/16/33
f 32/14/32 36/17/36 37/18/37 34/15/34
f 30/19/30 35/20/35 37/18/37 36/17/36
f 35/20/35 39/21/39 40/22/40 37/18/37
f 31/23/31 38/24/38 40/22/40 39/21/39
f 38/24/38 33/16/33 34/15/34 40/22/40
f 34/15/34 37/18/37 40/22/40
f 41/25/41 44/26/44 46/27/46 45/28/45
f 44/26/44 48/29/48 49/30/49 46/27/46
f 42/31/42 47/32/47 49/30/49 48/29/48
f 47/32/47 51/33/51 52/34/52 49/30/49
f 43/35/43 50/36/50 52/34/52 51/33/51
f 50/36/50 45/28/45 46/27/46 52/34/52
f 46/27/46 49/30/49 52/34/52
f 53/37/53 56/38/56 58/39/58 57/40/57
f 56/38/56 60/41/60 61/42/61 58/39/58
f 54/43/54 59/44/59 61/42/61 60/41/60
f 59/44/59 63/45/63 64/46/64 61/42/61
f 55/47/55 62/48/62 64/46/64 63/45/63
f 62/48/62 57/40/57 58/39/58 64/46/64
f 58/39/58 61/42/61 64/46/64
f 19/11/19 30/19/30 36/17/36 26/12/26
f 26/12/26 36/17/36 32/14/32 21/4/21
f 21/4/21 32/14/32 29/13/29 17/1/17
f 30/19/30 42/31/42 48/29/48 35/20/35
f 35/20/35 48/29/48 44/26/44 39/21/39
f 39/21/39 44/26/44 41/25/41 31/23/31
f 42/31/42 54/43/54 60/41/60 47/32/47
f 47/32/47 60/41/60 56/38/56 51/33/51
f 51/33/51 56/38/56 53/37/53 43/35/43
f 18/7/18 55/47/55 63/45/63 23/8/23
f 23/8/23 63/45/63 59/44/59 27/9/27
f 27/9/27 59/44/59 54/43/54 19/11/19
f 9/49/9 18/7/18 24/5/24 11/50/11
f 11/50/11 24/5/24 20/2/20 12/51/12
f 12/51/12 20/2/20 17/1/17 10/52/10
f 31/23/31 2/53/2 4/54/4 38/24/38
f 38/24/38 4/54/4 3/55/3 33/16/33
f 33/16/33 3/55/3 1/56/1 29/13/29
f 43/35/43 6/57/6 8/58/8 50/36/50
f 50/36/50 8/58/8 7/59/7 45/28/45
f 45/28/45 7/59/7 5/60/5 41/25/41
f 55/47/55 14/61/14 16/62/16 62/48/62
f 62/48/62 16/62/16 15/63/15 57/40/57
f 57/40/57 15/63/15 13/64/13 53/37/53
f 17/1/17 29/13/29 1/56/1 10/52/10
f 31/23/31 41/25/41 5/60/5 2/53/2
f 43/35/43 53/37/53 13/64/13 6/57/6
f 55/47/55 18/7/18 9/49/9 14/61/14
f 42/31/42 30/19/30 19/11/19 54/43/54
o Cube.012
v -0.207434 -0.004244 0.968054
v -0.240630 -0.004244 0.934857
v -0.224032 -0.004244 0.963606
v -0.236183 -0.004244 0.951456
v 0.240630 -0.004244 0.934857
v 0.207434 -0.004244 0.968054
v 0.236183 -0.004244 0.951456
v 0.224032 -0.004244 0.963606
v -0.240630 -0.004244 0.804555
v -0.207434 -0.004244 0.771359
v -0.236183 -0.004244 0.787957
v -0.224032 -0.004244 0.775806
v 0.207434 -0.004244 0.771359
v 0.240630 -0.004244 0.804555
v 0.224032 -0.004244 0.775806
v 0.236183 -0.004244 0.787957
v -0.209890 0.055080 0.835296
v -0.169777 0.079472 0.842212
v -0.176693 0.055080 0.802099
v -0.199674 0.067001 0.837494
v -0.203007 0.058908 0.821024
v -0.195497 0.068035 0.824442
v -0.171976 0.075887 0.826927
v -0.185062 0.075887 0.840013
v -0.185676 0.073454 0.826313
v -0.190965 0.058908 0.808982
v -0.174495 0.067001 0.812315
v -0.187547 0.068035 0.816492
v -0.209890 0.055080 0.904117
v -0.176693 0.055080 0.937314
v -0.169777 0.079472 0.897201
v -0.203007 0.058908 0.918388
v -0.199674 0.067001 0.901919
v -0.195497 0.068035 0.914970
v -0.174495 0.067001 0.927098
v -0.190965 0.058908 0.930430
v -0.187547 0.068035 0.922920
v -0.185062 0.075887 0.899399
v -0.171976 0.075887 0.912486
v -0.185676 0.073454 0.913100
v 0.176693 0.055080 0.937314
v 0.209890 0.055080 0.904117
v 0.169777 0.079472 0.897201
v 0.190965 0.058908 0.930430
v 0.174495 0.067001 0.927098
v 0.187547 0.068035 0.922920
v 0.199674 0.067001 0.901919
v 0.203007 0.058908 0.918388
v 0.195497 0.068035 0.914971
v 0.171976 0.075887 0.912486
v 0.185062 0.075887 0.899399
v 0.185676 0.073454 0.913100
v 0.209890 0.055080 0.835296
v 0.176693 0.055080 0.802099
v 0.169777 0.079472 0.842212
v 0.203007 0.058908 0.821024
v 0.199674 0.067001 0.837494
v 0.195497 0.068035 0.824442
v 0.174495 0.067001 0.812315
v 0.190965 0.058908 0.808982
v 0.187547 0.068035 0.816492
v 0.185062 0.075887 0.840013
v 0.171976 0.075887 0.826927
v 0.185676 0.073454 0.826313
vn -0.1438 0.5148 0.8452
vn -0.8452 0.5148 0.1438
vn -0.4260 0.5844 0.6907
vn -0.6907 0.5844 0.4260
vn 0.8452 0.5148 0.1438
vn 0.1438 0.5148 0.8452
vn 0.6907 0.5844 0.4260
vn 0.4260 0.5844 0.6907
vn -0.8452 0.5148 -0.1438
vn -0.1438 0.5148 -0.8452
vn -0.6907 0.5844 -0.4260
vn -0.4260 0.5844 -0.6907
vn 0.1438 0.5148 -0.8452
vn 0.8452 0.5148 -0.1438
vn 0.4260 0.5844 -0.6907
vn 0.6907 0.5844 -0.4260
vn -0.8159 0.5705 -0.0940
vn -0.1003 0.9899 -0.1003
vn -0.0940 0.5705 -0.8159
vn -0.6448 0.7607 -0.0742
vn -0.6838 0.6258 -0.3751
vn -0.5641 0.7654 -0.3097
vn -0.0767 0.9316 -0.3552
vn -0.3552 0.9316 -0.0767
vn -0.2944 0.9092 -0.2944
vn -0.3751 0.6258 -0.6838
vn -0.0742 0.7607 -0.6448
vn -0.3097 0.7654 -0.5641
vn -0.8159 0.5705 0.0940
vn -0.0940 0.5705 0.8159
vn -0.1003 0.9899 0.1003
vn -0.6838 0.6258 0.3751
vn -0.6448 0.7607 0.0742
vn -0.5641 0.7654 0.3097
vn -0.0742 0.7607 0.6448
vn -0.3751 0.6258 0.6838
vn -0.3097 0.7654 0.5641
vn -0.3552 0.9316 0.0767
vn -0.0767 0.9316 0.3552
vn -0.2944 0.9092 0.2944
vn 0.0940 0.5705 0.8159
vn 0.8159 0.5705 0.0940
vn 0.1003 0.9899 0.1003
vn 0.3751 0.6258 0.6838
vn 0.0742 0.7607 0.6448
vn 0.3097 0.7654 0.5641
vn 0.6448 0.7607 0.0742
vn 0.6838 0.6258 0.3751
vn 0.5641 0.7654 0.3097
vn 0.0767 0.9316 0.3552
vn 0.3552 0.9316 0.0767
vn 0.2944 0.9092 0.2944
vn 0.8159 0.5705 -0.0940
vn 0.0940 0.5705 -0.8159
vn 0.1003 0.9899 -0.1003
vn 0.6838 0.6258 -0.3751
vn 0.6448 0.7607 -0.0742
vn 0.5641 0.7654 -0.3097
vn 0.0742 0.7607 -0.6448
vn 0.3751 0.6258 -0.6838
vn 0.3097 0.7654 -0.5641
vn 0.3552 0.9316 -0.0767
vn 0.0767 0.9316 -0.3552
vn 0.2944 0.9092 -0.2944
vt 0.834795 0.594975
vt 0.831954 0.593722
vt 0.831426 0.601161
vt 0.833575 0.603109
vt 0.824765 0.592286
vt 0.825013 0.600095
vt 0.818590 0.591033
vt 0.819478 0.599745
vt 0.820495 0.609887
vt 0.825768 0.609142
vt 0.821384 0.613895
vt 0.827149 0.612173
vt 0.834795 0.555751
vt 0.833575 0.547618
vt 0.831426 0.549566
vt 0.831954 0.557004
vt 0.827149 0.538553
vt 0.825769 0.541584
vt 0.821384 0.536831
vt 0.820496 0.540839
vt 0.819478 0.550982
vt 0.825013 0.550632
vt 0.818590 0.559693
vt 0.824765 0.558440
vt 0.678616 0.536831
vt 0.672851 0.538553
vt 0.674232 0.541584
vt 0.679504 0.540840
vt 0.666425 0.547618
vt 0.668574 0.549566
vt 0.665205 0.555752
vt 0.668046 0.557004
vt 0.675235 0.558440
vt 0.674987 0.550632
vt 0.681410 0.559693
vt 0.680522 0.550982
vt 0.665205 0.594975
vt 0.666425 0.603109
vt 0.668574 0.601161
vt 0.668046 0.593722
vt 0.672851 0.612174
vt 0.674232 0.609142
vt 0.678616 0.613895
vt 0.679504 0.609887
vt 0.680522 0.599745
vt 0.674987 0.600095
vt 0.681410 0.591033
vt 0.675235 0.592286
vt 0.847214 0.612495
vt 0.846834 0.621955
vt 0.840508 0.630879
vt 0.833803 0.631415
vt 0.847214 0.538231
vt 0.846834 0.528771
vt 0.840508 0.519848
vt 0.833803 0.519311
vt 0.666197 0.519311
vt 0.659492 0.519848
vt 0.653166 0.528771
vt 0.652786 0.538231
vt 0.652786 0.612495
vt 0.653166 0.621955
vt 0.659492 0.630879
vt 0.666197 0.631415
s 1
f 81/65/81 84/66/84 86/67/86 85/68/85
f 84/66/84 88/69/88 89/70/89 86/67/86
f 82/71/82 87/72/87 89/70/89 88/69/88
f 87/72/87 91/73/91 92/74/92 89/70/89
f 83/75/83 90/76/90 92/74/92 91/73/91
f 90/76/90 85/68/85 86/67/86 92/74/92
f 86/67/86 89/70/89 92/74/92
f 93/77/93 96/78/96 98/79/98 97/80/97
f 96/78/96 100/81/100 101/82/101 98/79/98
f 94/83/94 99/84/99 101/82/101 100/81/100
f 99/84/99 103/85/103 104/86/104 101/82/101
f 95/87/95 102/88/102 104/86/104 103/85/103
f 102/88/102 97/80/97 98/79/98 104/86/104
f 98/79/98 101/82/101 104/86/104
f 105/89/105 108/90/108 110/91/110 109/92/109
f 108/90/108 112/93/112 113/94/113 110/91/110
f 106/95/106 111/96/111 113/94/113 112/93/112
f 111/96/111 115/97/115 116/98/116 113/94/113
f 107/99/107 114/100/114 116/98/116 115/97/115
f 114/100/114 109/92/109 110/91/110 116/98/116
f 110/91/110 113/94/113 116/98/116
f 117/101/117 120/102/120 122/103/122 121/104/121
f 120/102/120 124/105/124 125/106/125 122/103/122
f 118/107/118 123/108/123 125/106/125 124/105/124
f 123/108/123 127/109/127 128/110/128 125/106/125
f 119/111/119 126/112/126 128/110/128 127/109/127
f 126/112/126 121/104/121 122/103/122 128/110/128
f 122/103/122 125/106/125 128/110/128
f 81/65/81 93/77/93 97/80/97 84/66/84
f 84/66/84 97/80/97 102/88/102 88/69/88
f 88/69/88 102/88/102 95/87/95 82/71/82
f 94/83/94 105/89/105 109/92/109 99/84/99
f 99/84/99 109/92/109 114/100/114 103/85/103
f 103/85/103 114/100/114 107/99/107 95/87/95
f 106/95/106 117/101/117 121/104/121 111/96/111
f 111/96/111 121/104/121 126/112/126 115/97/115
f 115/97/115 126/112/126 119/111/119 107/99/107
f 82/71/82 119/111/119 127/109/127 87/72/87
f 87/72/87 127/109/127 123/108/123 91/73/91
f 91/73/91 123/108/123 118/107/118 83/75/83
f 73/113/73 81/65/81 85/68/85 75/114/75
f 75/114/75 85/68/85 90/76/90 76/115/76
f 76/115/76 90/76/90 83/75/83 74/116/74
f 93/77/93 66/117/66 68/118/68 96/78/96
f 96/78/96 68/118/68 67/119/67 100/81/100
f 100/81/100 67/119/67 65/120/65 94/83/94
f 105/89/105 70/121/70 72/122/72 108/90/108
f 108/90/108 72/122/72 71/123/71 112/93/112
f 112/93/112 71/123/71 69/124/69 106/95/106
f 117/101/117 78/125/78 80/126/80 120/102/120
f 120/102/120 80/126/80 79/127/79 124/105/124
f 124/105/124 79/127/79 77/128/77 118/107/118
f 81/65/81 73/113/73 66/117/66 93/77/93
f 94/83/94 65/120/65 70/121/70 105/89/105
f 106/95/106 69/124/69 78/125/78 117/101/117
f 118/107/118 77/128/77 74/116/74 83/75/83
f 107/99/107 119/111/119 82/71/82 95/87/95
