# Blender 5.1.1
# www.blender.org
mtllib Lights.mtl
o Cylinder.004
v 0.195274 -0.007427 -0.626363
v 0.195274 0.066541 -0.670698
v 0.256253 0.053552 -0.608497
v 0.195274 0.003854 -0.662018
v 0.225196 0.001615 -0.620655
v 0.224221 0.010621 -0.657654
v 0.225196 0.067313 -0.660033
v 0.195274 0.029778 -0.677557
v 0.224221 0.030437 -0.669531
v 0.247211 0.023630 -0.614205
v 0.247211 0.062623 -0.637576
v 0.240437 0.028694 -0.649970
v -0.195274 -0.007427 -0.626363
v -0.256253 0.053552 -0.608497
v -0.195274 0.066541 -0.670698
v -0.225195 0.001615 -0.620655
v -0.195274 0.003854 -0.662019
v -0.224220 0.010621 -0.657654
v -0.247211 0.062623 -0.637576
v -0.247211 0.023631 -0.614205
v -0.240437 0.028694 -0.649971
v -0.195274 0.029778 -0.677557
v -0.225195 0.067313 -0.660033
v -0.224220 0.030437 -0.669531
v 0.256253 0.091438 -0.588247
v 0.195274 0.125480 -0.639194
v 0.248084 0.108459 -0.613721
v 0.225764 0.120919 -0.632369
v -0.256253 0.091438 -0.588247
v -0.195274 0.125480 -0.639194
v -0.248083 0.108459 -0.613721
v -0.225763 0.120919 -0.632369
v 0.256253 0.198647 -0.500263
v 0.195274 0.241974 -0.543590
v 0.248084 0.220310 -0.521926
v 0.225764 0.236169 -0.537785
v -0.256253 0.198647 -0.500263
v -0.195274 0.241974 -0.543590
v -0.248083 0.220311 -0.521926
v -0.225763 0.236169 -0.537785
v 0.256253 0.286631 -0.393054
v 0.195274 0.337578 -0.427096
v 0.248084 0.312105 -0.410075
v 0.225764 0.330753 -0.422535
v -0.256253 0.286631 -0.393054
v -0.195274 0.337578 -0.427096
v -0.248083 0.312105 -0.410075
v -0.225763 0.330753 -0.422535
v 0.256253 0.352009 -0.270740
v 0.195274 0.408619 -0.294189
v 0.248084 0.380314 -0.282465
v 0.225764 0.401034 -0.291047
v -0.256253 0.352009 -0.270740
v -0.195274 0.408619 -0.294189
v -0.248083 0.380314 -0.282465
v -0.225763 0.401035 -0.291047
v 0.256253 0.392268 -0.138022
v 0.195274 0.452365 -0.149976
v 0.248084 0.422317 -0.143999
v 0.225764 0.444314 -0.148375
v -0.256253 0.392268 -0.138022
v -0.195274 0.452365 -0.149976
v -0.248083 0.422317 -0.143999
v -0.225763 0.444314 -0.148375
v 0.256253 0.405862 0.000000
v 0.195274 0.467137 0.000000
v 0.248084 0.436499 0.000000
v 0.225764 0.458927 0.000000
v -0.256253 0.405862 -0.000000
v -0.195274 0.467137 -0.000000
v -0.248083 0.436500 -0.000000
v -0.225763 0.458927 -0.000000
v 0.256253 0.392268 0.138022
v 0.195274 0.452365 0.149976
v 0.248084 0.422317 0.143999
v 0.225764 0.444314 0.148375
v -0.256253 0.392268 0.138022
v -0.195274 0.452365 0.149976
v -0.248083 0.422317 0.143999
v -0.225764 0.444314 0.148375
v 0.256253 0.352009 0.270740
v 0.195274 0.408619 0.294189
v 0.248084 0.380314 0.282465
v 0.225764 0.401034 0.291047
v -0.256253 0.352009 0.270740
v -0.195274 0.408619 0.294189
v -0.248083 0.380314 0.282465
v -0.225764 0.401035 0.291047
v 0.256253 0.286631 0.393054
v 0.195274 0.337578 0.427096
v 0.248084 0.312105 0.410075
v 0.225764 0.330753 0.422535
v -0.256253 0.286631 0.393054
v -0.195274 0.337578 0.427096
v -0.248084 0.312105 0.410075
v -0.225764 0.330753 0.422535
v 0.256253 0.198647 0.500263
v 0.195274 0.241974 0.543590
v 0.248084 0.220310 0.521926
v 0.225764 0.236169 0.537785
v -0.256253 0.198647 0.500263
v -0.195274 0.241974 0.543590
v -0.248084 0.220311 0.521926
v -0.225764 0.236169 0.537785
v 0.256253 0.091438 0.588247
v 0.195274 0.125480 0.639194
v 0.248084 0.108459 0.613721
v 0.225764 0.120919 0.632369
v -0.256253 0.091438 0.588247
v -0.195274 0.125480 0.639194
v -0.248084 0.108459 0.613721
v -0.225764 0.120919 0.632369
v 0.256253 0.053552 0.608497
v 0.195274 0.066541 0.670698
v 0.195274 -0.007427 0.626363
v 0.247211 0.062623 0.637576
v 0.247211 0.023630 0.614205
v 0.240437 0.028694 0.649971
v 0.195274 0.029778 0.677557
v 0.225196 0.067313 0.660033
v 0.224220 0.030437 0.669531
v 0.225196 0.001615 0.620655
v 0.195274 0.003854 0.662019
v 0.224220 0.010621 0.657654
v -0.256253 0.053552 0.608497
v -0.195274 -0.007427 0.626363
v -0.195274 0.066541 0.670698
v -0.247211 0.023631 0.614205
v -0.247211 0.062623 0.637576
v -0.240437 0.028694 0.649970
v -0.195274 0.003854 0.662018
v -0.225196 0.001615 0.620655
v -0.224220 0.010621 0.657654
v -0.225196 0.067313 0.660033
v -0.195274 0.029778 0.677557
v -0.224220 0.030437 0.669531
vn 0.1462 -0.9779 -0.1496
vn 0.1441 -0.9477 -0.2849
vn 0.5065 -0.6873 -0.5207
vn 0.5229 -0.8441 -0.1188
vn 0.1172 -0.5106 -0.8518
vn 0.5065 -0.1352 -0.8516
vn 0.1427 0.3277 -0.9339
vn 0.5190 0.2882 -0.8047
vn 0.1441 0.1955 -0.9701
vn 0.8754 0.1060 -0.4716
vn 0.8462 -0.2740 -0.4571
vn 0.9857 -0.0913 -0.1417
vn 0.8743 -0.4700 -0.1212
vn -0.1462 -0.9779 -0.1496
vn -0.5229 -0.8441 -0.1188
vn -0.5065 -0.6873 -0.5207
vn -0.1441 -0.9477 -0.2849
vn -0.8743 -0.4700 -0.1212
vn -0.8462 -0.2740 -0.4571
vn -0.9857 -0.0913 -0.1417
vn -0.8754 0.1060 -0.4716
vn -0.5190 0.2882 -0.8047
vn -0.5065 -0.1352 -0.8516
vn -0.1427 0.3277 -0.9339
vn -0.1441 0.1955 -0.9701
vn -0.1172 -0.5106 -0.8518
vn 0.9857 -0.0913 0.1417
vn 0.8754 0.1060 0.4716
vn 0.8462 -0.2740 0.4571
vn 0.8743 -0.4700 0.1212
vn 0.5190 0.2882 0.8047
vn 0.5065 -0.1352 0.8516
vn 0.1427 0.3277 0.9339
vn 0.1441 0.1955 0.9701
vn 0.1172 -0.5106 0.8518
vn 0.5065 -0.6873 0.5207
vn 0.1462 -0.9779 0.1496
vn 0.5229 -0.8441 0.1188
vn 0.1441 -0.9477 0.2849
vn -0.9857 -0.0913 0.1417
vn -0.8743 -0.4700 0.1212
vn -0.8462 -0.2740 0.4571
vn -0.8754 0.1060 0.4716
vn -0.5229 -0.8441 0.1188
vn -0.5065 -0.6873 0.5207
vn -0.1462 -0.9779 0.1496
vn -0.1441 -0.9477 0.2849
vn -0.1172 -0.5106 0.8518
vn -0.5065 -0.1352 0.8516
vn -0.1427 0.3277 0.9339
vn -0.5190 0.2882 0.8047
vn -0.1441 0.1955 0.9701
vn 0.1341 0.5490 -0.8250
vn 0.4989 0.4762 -0.7241
vn 0.8585 0.2784 -0.4306
vn 0.9899 0.0760 -0.1195
vn -0.1341 0.5490 -0.8250
vn -0.4989 0.4762 -0.7241
vn -0.8585 0.2784 -0.4306
vn -0.9899 0.0760 -0.1195
vn 0.1301 0.7011 -0.7011
vn 0.4947 0.6145 -0.6145
vn 0.8600 0.3609 -0.3609
vn 0.9904 0.0975 -0.0975
vn -0.1301 0.7011 -0.7011
vn -0.4947 0.6145 -0.6145
vn -0.8600 0.3609 -0.3609
vn -0.9904 0.0975 -0.0975
vn 0.1301 0.8244 -0.5509
vn 0.4947 0.7226 -0.4828
vn 0.8600 0.4243 -0.2835
vn 0.9904 0.1147 -0.0766
vn -0.1301 0.8244 -0.5509
vn -0.4947 0.7226 -0.4828
vn -0.8600 0.4243 -0.2835
vn -0.9904 0.1147 -0.0766
vn 0.1301 0.9160 -0.3794
vn 0.4947 0.8029 -0.3326
vn 0.8600 0.4715 -0.1953
vn 0.9904 0.1274 -0.0528
vn -0.1301 0.9160 -0.3794
vn -0.4947 0.8029 -0.3326
vn -0.8600 0.4715 -0.1953
vn -0.9904 0.1274 -0.0528
vn 0.1301 0.9725 -0.1934
vn 0.4947 0.8524 -0.1695
vn 0.8600 0.5006 -0.0996
vn 0.9904 0.1352 -0.0269
vn -0.1301 0.9725 -0.1934
vn -0.4947 0.8524 -0.1695
vn -0.8600 0.5006 -0.0996
vn -0.9904 0.1352 -0.0269
vn 0.1301 0.9915 -0.0000
vn 0.4947 0.8691 -0.0000
vn 0.8600 0.5104 -0.0000
vn 0.9904 0.1379 -0.0000
vn -0.1301 0.9915 -0.0000
vn -0.4947 0.8691 -0.0000
vn -0.8600 0.5104 -0.0000
vn -0.9904 0.1379 -0.0000
vn 0.1301 0.9725 0.1934
vn 0.4947 0.8524 0.1695
vn 0.8600 0.5006 0.0996
vn 0.9904 0.1352 0.0269
vn -0.1301 0.9725 0.1934
vn -0.4947 0.8524 0.1695
vn -0.8600 0.5006 0.0996
vn -0.9904 0.1352 0.0269
vn 0.1301 0.9160 0.3794
vn 0.4947 0.8029 0.3326
vn 0.8600 0.4715 0.1953
vn 0.9904 0.1274 0.0528
vn -0.1301 0.9160 0.3794
vn -0.4947 0.8029 0.3326
vn -0.8600 0.4715 0.1953
vn -0.9904 0.1274 0.0528
vn 0.1301 0.8244 0.5509
vn 0.4947 0.7226 0.4828
vn 0.8600 0.4243 0.2835
vn 0.9904 0.1147 0.0766
vn -0.1301 0.8244 0.5509
vn -0.4947 0.7226 0.4828
vn -0.8600 0.4243 0.2835
vn -0.9904 0.1147 0.0766
vn 0.1301 0.7011 0.7011
vn 0.4947 0.6145 0.6145
vn 0.8600 0.3609 0.3609
vn 0.9904 0.0975 0.0975
vn -0.1301 0.7011 0.7011
vn -0.4947 0.6145 0.6145
vn -0.8600 0.3609 0.3609
vn -0.9904 0.0975 0.0975
vn 0.1341 0.5490 0.8250
vn 0.4989 0.4762 0.7241
vn 0.8585 0.2784 0.4306
vn 0.9899 0.0760 0.1195
vn -0.1341 0.5490 0.8250
vn -0.4989 0.4762 0.7241
vn -0.8585 0.2784 0.4306
vn -0.9899 0.0760 0.1195
vt 0.915358 0.559491
vt 0.924771 0.559491
vt 0.923619 0.531251
vt 0.913851 0.530300
vt 0.927502 0.559491
vt 0.926597 0.531251
vt 0.920108 0.559491
vt 0.918924 0.530300
vt 0.912340 0.500000
vt 0.918670 0.500000
vt 0.905932 0.500000
vt 0.909895 0.500000
vt 0.915358 0.940509
vt 0.913851 0.969700
vt 0.923619 0.968749
vt 0.924771 0.940509
vt 0.909895 1.000000
vt 0.918670 1.000000
vt 0.905931 1.000000
vt 0.912340 1.000000
vt 0.918925 0.969700
vt 0.926597 0.968749
vt 0.920108 0.940509
vt 0.927502 0.940509
vt 0.594068 0.500000
vt 0.587660 0.500000
vt 0.581330 0.500000
vt 0.590105 0.500000
vt 0.581076 0.530300
vt 0.573403 0.531251
vt 0.579892 0.559491
vt 0.572498 0.559491
vt 0.575229 0.559491
vt 0.576381 0.531251
vt 0.584642 0.559491
vt 0.586149 0.530300
vt 0.594068 1.000000
vt 0.590105 1.000000
vt 0.581330 1.000000
vt 0.587660 1.000000
vt 0.586149 0.969700
vt 0.576381 0.968749
vt 0.584642 0.940509
vt 0.575229 0.940509
vt 0.572498 0.940509
vt 0.573403 0.968749
vt 0.579892 0.940509
vt 0.581076 0.969700
vt 0.906250 0.559491
vt 0.906250 0.529746
vt 0.902085 0.500000
vt 0.897592 0.500000
vt 0.906250 0.940509
vt 0.906250 0.970254
vt 0.902085 1.000000
vt 0.897592 1.000000
vt 0.875000 0.559491
vt 0.875000 0.529746
vt 0.871775 0.500000
vt 0.868426 0.500000
vt 0.875000 0.940509
vt 0.875000 0.970254
vt 0.871775 1.000000
vt 0.868426 1.000000
vt 0.843750 0.559491
vt 0.843750 0.529746
vt 0.841369 0.500000
vt 0.838934 0.500000
vt 0.843750 0.940509
vt 0.843750 0.970254
vt 0.841369 1.000000
vt 0.838934 1.000000
vt 0.812500 0.559491
vt 0.812500 0.529746
vt 0.810927 0.500000
vt 0.809332 0.500000
vt 0.812500 0.940509
vt 0.812500 0.970254
vt 0.810927 1.000000
vt 0.809332 1.000000
vt 0.781250 0.559491
vt 0.781250 0.529746
vt 0.780468 0.500000
vt 0.779677 0.500000
vt 0.781250 0.940509
vt 0.781250 0.970254
vt 0.780468 1.000000
vt 0.779677 1.000000
vt 0.750000 0.559491
vt 0.750000 0.529746
vt 0.750000 0.500000
vt 0.750000 0.500000
vt 0.750000 0.940509
vt 0.750000 0.970254
vt 0.750000 1.000000
vt 0.750000 1.000000
vt 0.718750 0.559491
vt 0.718750 0.529746
vt 0.719532 0.500000
vt 0.720323 0.500000
vt 0.718750 0.940509
vt 0.718750 0.970254
vt 0.719532 1.000000
vt 0.720323 1.000000
vt 0.687500 0.559491
vt 0.687500 0.529746
vt 0.689073 0.500000
vt 0.690668 0.500000
vt 0.687500 0.940509
vt 0.687500 0.970254
vt 0.689073 1.000000
vt 0.690668 1.000000
vt 0.656250 0.559491
vt 0.656250 0.529746
vt 0.658631 0.500000
vt 0.661066 0.500000
vt 0.656250 0.940509
vt 0.656250 0.970254
vt 0.658631 1.000000
vt 0.661066 1.000000
vt 0.625000 0.559491
vt 0.625000 0.529746
vt 0.628225 0.500000
vt 0.631574 0.500000
vt 0.625000 0.940509
vt 0.625000 0.970254
vt 0.628225 1.000000
vt 0.631574 1.000000
vt 0.593750 0.559491
vt 0.593750 0.529746
vt 0.597915 0.500000
vt 0.602408 0.500000
vt 0.593750 0.940509
vt 0.593750 0.970254
vt 0.597915 1.000000
vt 0.602408 1.000000
s 1
f 1/1/1 4/2/2 6/3/3 5/4/4
f 4/2/5 8/5/5 9/6/6 6/3/3
f 2/7/7 7/8/8 9/6/6 8/5/9
f 7/8/8 11/9/10 12/10/11 9/6/6
f 3/11/12 10/12/13 12/10/11 11/9/10
f 10/12/13 5/4/4 6/3/3 12/10/11
f 6/3/3 9/6/6 12/10/11
f 13/13/14 16/14/15 18/15/16 17/16/17
f 16/14/15 20/17/18 21/18/19 18/15/16
f 14/19/20 19/20/21 21/18/19 20/17/18
f 19/20/21 23/21/22 24/22/23 21/18/19
f 15/23/24 22/24/25 24/22/23 23/21/22
f 22/24/26 17/16/26 18/15/16 24/22/23
f 18/15/16 21/18/19 24/22/23
f 113/25/27 116/26/28 118/27/29 117/28/30
f 116/26/28 120/29/31 121/30/32 118/27/29
f 114/31/33 119/32/34 121/30/32 120/29/31
f 119/32/35 123/33/35 124/34/36 121/30/32
f 115/35/37 122/36/38 124/34/36 123/33/39
f 122/36/38 117/28/30 118/27/29 124/34/36
f 118/27/29 121/30/32 124/34/36
f 125/37/40 128/38/41 130/39/42 129/40/43
f 128/38/41 132/41/44 133/42/45 130/39/42
f 126/43/46 131/44/47 133/42/45 132/41/44
f 131/44/48 135/45/48 136/46/49 133/42/45
f 127/47/50 134/48/51 136/46/49 135/45/52
f 134/48/51 129/40/43 130/39/42 136/46/49
f 130/39/42 133/42/45 136/46/49
f 15/23/24 2/7/7 8/5/9 22/24/25
f 22/24/26 8/5/5 4/2/5 17/16/26
f 17/16/17 4/2/2 1/1/1 13/13/14
f 2/7/7 26/49/53 28/50/54 7/8/8
f 7/8/8 28/50/54 27/51/55 11/9/10
f 11/9/10 27/51/55 25/52/56 3/11/12
f 30/53/57 15/23/24 23/21/22 32/54/58
f 32/54/58 23/21/22 19/20/21 31/55/59
f 31/55/59 19/20/21 14/19/20 29/56/60
f 26/49/53 34/57/61 36/58/62 28/50/54
f 28/50/54 36/58/62 35/59/63 27/51/55
f 27/51/55 35/59/63 33/60/64 25/52/56
f 38/61/65 30/53/57 32/54/58 40/62/66
f 40/62/66 32/54/58 31/55/59 39/63/67
f 39/63/67 31/55/59 29/56/60 37/64/68
f 34/57/61 42/65/69 44/66/70 36/58/62
f 36/58/62 44/66/70 43/67/71 35/59/63
f 35/59/63 43/67/71 41/68/72 33/60/64
f 46/69/73 38/61/65 40/62/66 48/70/74
f 48/70/74 40/62/66 39/63/67 47/71/75
f 47/71/75 39/63/67 37/64/68 45/72/76
f 42/65/69 50/73/77 52/74/78 44/66/70
f 44/66/70 52/74/78 51/75/79 43/67/71
f 43/67/71 51/75/79 49/76/80 41/68/72
f 54/77/81 46/69/73 48/70/74 56/78/82
f 56/78/82 48/70/74 47/71/75 55/79/83
f 55/79/83 47/71/75 45/72/76 53/80/84
f 50/73/77 58/81/85 60/82/86 52/74/78
f 52/74/78 60/82/86 59/83/87 51/75/79
f 51/75/79 59/83/87 57/84/88 49/76/80
f 62/85/89 54/77/81 56/78/82 64/86/90
f 64/86/90 56/78/82 55/79/83 63/87/91
f 63/87/91 55/79/83 53/80/84 61/88/92
f 58/81/85 66/89/93 68/90/94 60/82/86
f 60/82/86 68/90/94 67/91/95 59/83/87
f 59/83/87 67/91/95 65/92/96 57/84/88
f 70/93/97 62/85/89 64/86/90 72/94/98
f 72/94/98 64/86/90 63/87/91 71/95/99
f 71/95/99 63/87/91 61/88/92 69/96/100
f 66/89/93 74/97/101 76/98/102 68/90/94
f 68/90/94 76/98/102 75/99/103 67/91/95
f 67/91/95 75/99/103 73/100/104 65/92/96
f 78/101/105 70/93/97 72/94/98 80/102/106
f 80/102/106 72/94/98 71/95/99 79/103/107
f 79/103/107 71/95/99 69/96/100 77/104/108
f 74/97/101 82/105/109 84/106/110 76/98/102
f 76/98/102 84/106/110 83/107/111 75/99/103
f 75/99/103 83/107/111 81/108/112 73/100/104
f 86/109/113 78/101/105 80/102/106 88/110/114
f 88/110/114 80/102/106 79/103/107 87/111/115
f 87/111/115 79/103/107 77/104/108 85/112/116
f 82/105/109 90/113/117 92/114/118 84/106/110
f 84/106/110 92/114/118 91/115/119 83/107/111
f 83/107/111 91/115/119 89/116/120 81/108/112
f 94/117/121 86/109/113 88/110/114 96/118/122
f 96/118/122 88/110/114 87/111/115 95/119/123
f 95/119/123 87/111/115 85/112/116 93/120/124
f 90/113/117 98/121/125 100/122/126 92/114/118
f 92/114/118 100/122/126 99/123/127 91/115/119
f 91/115/119 99/123/127 97/124/128 89/116/120
f 102/125/129 94/117/121 96/118/122 104/126/130
f 104/126/130 96/118/122 95/119/123 103/127/131
f 103/127/131 95/119/123 93/120/124 101/128/132
f 98/121/125 106/129/133 108/130/134 100/122/126
f 100/122/126 108/130/134 107/131/135 99/123/127
f 99/123/127 107/131/135 105/132/136 97/124/128
f 110/133/137 102/125/129 104/126/130 112/134/138
f 112/134/138 104/126/130 103/127/131 111/135/139
f 111/135/139 103/127/131 101/128/132 109/136/140
f 106/129/133 114/31/33 120/29/31 108/130/134
f 108/130/134 120/29/31 116/26/28 107/131/135
f 107/131/135 116/26/28 113/25/27 105/132/136
f 127/47/50 110/133/137 112/134/138 134/48/51
f 134/48/51 112/134/138 111/135/139 129/40/43
f 129/40/43 111/135/139 109/136/140 125/37/40
f 126/43/46 115/35/37 123/33/39 131/44/47
f 131/44/48 123/33/35 119/32/35 135/45/48
f 135/45/52 119/32/34 114/31/33 127/47/50
f 13/13/14 126/43/46 132/41/44 16/14/15
f 16/14/15 132/41/44 128/38/41 20/17/18
f 20/17/18 128/38/41 125/37/40 14/19/20
f 3/11/12 113/25/27 117/28/30 10/12/13
f 10/12/13 117/28/30 122/36/38 5/4/4
f 5/4/4 122/36/38 115/35/37 1/1/1
f 1/1/1 115/35/37 126/43/46 13/13/14
f 2/7/7 15/23/24 30/53/57 26/49/53
f 3/11/12 25/52/56 33/60/64 41/68/72 49/76/80 57/84/88 65/92/96 73/100/104 81/108/112 89/116/120 97/124/128 105/132/136 113/25/27
f 29/56/60 14/19/20 125/37/40 109/136/140 101/128/132 93/120/124 85/112/116 77/104/108 69/96/100 61/88/92 53/80/84 45/72/76 37/64/68
f 26/49/53 30/53/57 38/61/65 34/57/61
f 34/57/61 38/61/65 46/69/73 42/65/69
f 42/65/69 46/69/73 54/77/81 50/73/77
f 50/73/77 54/77/81 62/85/89 58/81/85
f 58/81/85 62/85/89 70/93/97 66/89/93
f 66/89/93 70/93/97 78/101/105 74/97/101
f 74/97/101 78/101/105 86/109/113 82/105/109
f 82/105/109 86/109/113 94/117/121 90/113/117
f 90/113/117 94/117/121 102/125/129 98/121/125
f 98/121/125 102/125/129 110/133/137 106/129/133
f 106/129/133 110/133/137 127/47/50 114/31/33
