# Blender 5.1.1
# www.blender.org
mtllib Lights.mtl
o Cylinder.005
v -0.452590 0.100005 0.075791
v -0.301008 0.100005 0.075791
v -0.301008 0.100005 -0.075791
v -0.452590 0.100005 -0.075791
v -0.487338 0.489095 0.101054
v -0.313975 0.577757 0.101054
v -0.313975 0.577757 -0.101055
v -0.487338 0.489095 -0.101055
v -0.725909 0.747257 0.101054
v -0.552546 0.835919 0.101054
v -0.552546 0.835919 -0.101055
v -0.725909 0.747257 -0.101055
v -0.690726 1.294435 0.101054
v -0.561767 1.165475 0.101054
v -0.561767 1.165475 -0.101055
v -0.690726 1.294435 -0.101055
v 0.399594 0.100005 0.075791
v 0.248012 0.100005 0.075791
v 0.248012 0.100005 -0.075791
v 0.399594 0.100005 -0.075791
v 0.000000 1.373124 0.101054
v -0.000000 1.171015 0.101054
v -0.000000 1.171015 -0.101055
v 0.000000 1.373124 -0.101055
v 0.436418 0.486047 0.101054
v 0.267736 0.580806 0.101054
v 0.267735 0.580806 -0.101055
v 0.436418 0.486047 -0.101055
v 0.719152 0.744209 0.101054
v 0.550470 0.838968 0.101054
v 0.550470 0.838968 -0.101055
v 0.719152 0.744209 -0.101055
v 0.690727 1.294435 0.101054
v 0.561767 1.165475 0.101054
v 0.561767 1.165475 -0.101055
v 0.690727 1.294435 -0.101055
v -0.476007 0.289482 0.101054
v -0.277592 0.304820 0.101054
v -0.277592 0.304820 -0.101055
v -0.476007 0.289482 -0.101055
v -0.589367 0.593396 0.101054
v -0.450517 0.733315 0.101054
v -0.450517 0.733315 -0.101055
v -0.589367 0.593396 -0.101055
v -0.757359 1.023624 0.101054
v -0.568810 1.015143 0.101054
v -0.568810 1.015143 -0.101055
v -0.757359 1.023624 -0.101055
v 0.422699 0.288902 0.101054
v 0.224907 0.305400 0.101054
v 0.224907 0.305400 -0.101055
v 0.422699 0.288902 -0.101055
v -0.453966 1.368191 0.101054
v -0.430147 1.175948 0.101054
v -0.430147 1.175948 -0.101055
v -0.453966 1.368191 -0.101055
v -0.221028 1.373124 0.101054
v -0.221028 1.171015 0.101054
v -0.221028 1.171015 -0.101055
v -0.221028 1.373124 -0.101055
v 0.557861 0.589323 0.101054
v 0.429026 0.737388 0.101054
v 0.429026 0.737388 -0.101055
v 0.557861 0.589323 -0.101055
v 0.757048 1.023044 0.101054
v 0.569121 1.015723 0.101054
v 0.569121 1.015723 -0.101055
v 0.757048 1.023044 -0.101055
v 0.453966 1.368191 0.101054
v 0.430147 1.175948 0.101054
v 0.430147 1.175948 -0.101055
v 0.453966 1.368191 -0.101055
v 0.221028 1.373124 0.101054
v 0.221028 1.171015 0.101054
v 0.221028 1.171015 -0.101055
v 0.221028 1.373124 -0.101055
v -0.469199 0.085604 -0.000000
v -0.376799 0.085604 -0.092399
v -0.284400 0.085604 -0.000000
v -0.376799 0.085604 0.092399
v 0.416203 0.085604 -0.000000
v 0.323803 0.085604 0.092399
v 0.231404 0.085604 -0.000000
v 0.323803 0.085604 -0.092399
v -0.473295 0.173077 0.096727
v -0.280303 0.174995 0.096727
v -0.376799 0.297151 0.138950
v -0.280303 0.174995 -0.096727
v -0.240389 0.307696 -0.000000
v -0.473295 0.173077 -0.096727
v -0.376799 0.297151 -0.138950
v -0.513209 0.286606 -0.000000
v -0.474652 0.401504 0.101054
v -0.284911 0.449014 0.101054
v -0.400656 0.533426 0.138950
v -0.284911 0.449014 -0.101055
v -0.281469 0.594382 -0.000000
v -0.474652 0.401504 -0.101055
v -0.400656 0.533426 -0.138950
v -0.519844 0.472471 -0.000000
v -0.526787 0.546095 0.101054
v -0.375918 0.670627 0.101054
v -0.519942 0.663355 0.138950
v -0.375918 0.670627 -0.101055
v -0.424482 0.759550 -0.000000
v -0.526787 0.546095 -0.101055
v -0.519942 0.663355 -0.138950
v -0.615401 0.567161 -0.000000
v -0.663966 0.655872 0.101054
v -0.513097 0.780404 0.101054
v -0.639228 0.791588 0.138950
v -0.513097 0.780404 -0.101055
v -0.520040 0.852544 -0.000000
v -0.663966 0.655872 -0.101055
v -0.639228 0.791588 -0.138950
v -0.758415 0.730633 -0.000000
v -0.754357 0.873886 0.101054
v -0.565848 0.918418 0.101054
v -0.663085 1.019384 0.138950
v -0.565848 0.918418 -0.101055
v -0.533457 1.013553 -0.000000
v -0.754357 0.873886 -0.101055
v -0.663085 1.019384 -0.138950
v -0.792712 1.025214 -0.000000
v -0.743016 1.175848 0.101054
v -0.573944 1.105076 0.101054
v -0.626247 1.229955 0.138950
v -0.573944 1.105076 -0.101055
v -0.537587 1.141295 -0.000000
v -0.743016 1.175848 -0.101055
v -0.626247 1.229955 -0.138950
v -0.714907 1.318615 -0.000000
v 0.420260 0.173005 0.096727
v 0.323803 0.297151 0.138950
v 0.227346 0.175067 0.096727
v 0.187821 0.308493 -0.000000
v 0.227346 0.175067 -0.096727
v 0.323803 0.297151 -0.138950
v 0.420260 0.173005 -0.096727
v 0.459785 0.285809 -0.000000
v 0.421177 0.399745 0.101054
v 0.352077 0.533426 0.138950
v 0.233498 0.450772 0.101054
v 0.236108 0.598573 -0.000000
v 0.233498 0.450772 -0.101055
v 0.352077 0.533426 -0.138950
v 0.421177 0.399745 -0.101055
v 0.468046 0.468280 -0.000000
v -0.584311 1.351572 0.101054
v -0.511621 1.182038 0.101054
v -0.442056 1.272069 0.138950
v -0.511621 1.182038 -0.101055
v -0.425681 1.139902 -0.000000
v -0.584311 1.351572 -0.101055
v -0.442056 1.272069 -0.138950
v -0.458432 1.404236 -0.000000
v -0.333031 1.372507 0.101054
v -0.330054 1.171631 0.101054
v -0.221028 1.272069 0.138950
v -0.330054 1.171631 -0.101055
v -0.221028 1.133119 -0.000000
v -0.333031 1.372507 -0.101055
v -0.221028 1.272069 -0.138950
v -0.221028 1.411019 -0.000000
v -0.110514 1.373124 0.101054
v -0.110514 1.171015 0.101054
v -0.000000 1.272069 0.138950
v -0.110514 1.171015 -0.101055
v -0.000000 1.133119 -0.000000
v -0.110514 1.373124 -0.101055
v -0.000000 1.272069 -0.138950
v 0.000000 1.411019 -0.000000
v 0.483507 0.542261 0.101054
v 0.493444 0.663355 0.138950
v 0.340808 0.674460 0.101054
v 0.404870 0.765150 -0.000000
v 0.340808 0.674460 -0.101055
v 0.493444 0.663355 -0.138950
v 0.483507 0.542261 -0.101055
v 0.582018 0.561561 -0.000000
v 0.646079 0.652038 0.101054
v 0.634811 0.791588 0.138950
v 0.503381 0.784238 0.101054
v 0.518842 0.856735 -0.000000
v 0.503381 0.784238 -0.101055
v 0.634811 0.791588 -0.138950
v 0.646079 0.652038 -0.101055
v 0.750780 0.726442 -0.000000
v 0.752773 0.872127 0.101054
v 0.663085 1.019384 0.138950
v 0.566328 0.920177 0.101054
v 0.533885 1.014350 -0.000000
v 0.566328 0.920177 -0.101055
v 0.663085 1.019384 -0.138950
v 0.752773 0.872127 -0.101055
v 0.792284 1.024417 -0.000000
v 0.742977 1.175776 0.101054
v 0.626247 1.229955 0.138950
v 0.573983 1.105148 0.101054
v 0.537587 1.141295 -0.000000
v 0.573983 1.105148 -0.101055
v 0.626247 1.229955 -0.138950
v 0.742977 1.175776 -0.101055
v 0.714906 1.318615 -0.000000
v 0.584311 1.351572 0.101054
v 0.442056 1.272069 0.138950
v 0.511621 1.182038 0.101054
v 0.425681 1.139902 -0.000000
v 0.511621 1.182038 -0.101055
v 0.442056 1.272069 -0.138950
v 0.584311 1.351572 -0.101055
v 0.458432 1.404237 -0.000000
v 0.333031 1.372507 0.101054
v 0.221028 1.272069 0.138950
v 0.330054 1.171632 0.101054
v 0.221028 1.133119 -0.000000
v 0.330054 1.171631 -0.101055
v 0.221028 1.272069 -0.138950
v 0.333031 1.372507 -0.101055
v 0.221028 1.411019 -0.000000
v 0.110514 1.373124 0.101054
v 0.110514 1.171015 0.101054
v 0.110514 1.171015 -0.101055
v 0.110514 1.373124 -0.101055
v -0.376799 0.055383 -0.000000
v 0.323803 0.055383 -0.000000
v -0.376799 0.172616 0.133102
v -0.244015 0.173934 -0.000000
v -0.376799 0.172616 -0.133102
v -0.509584 0.171298 -0.000000
v -0.379781 0.425259 0.138950
v -0.249334 0.457922 -0.000000
v -0.379781 0.425259 -0.138950
v -0.510229 0.392596 -0.000000
v -0.451353 0.608361 0.138950
v -0.347630 0.693977 -0.000000
v -0.451353 0.608361 -0.138950
v -0.555075 0.522745 -0.000000
v -0.588531 0.718138 0.138950
v -0.484809 0.803754 -0.000000
v -0.588531 0.718138 -0.138950
v -0.692254 0.632522 -0.000000
v -0.660102 0.896152 0.138950
v -0.530503 0.926768 -0.000000
v -0.660102 0.896152 -0.138950
v -0.789702 0.865536 -0.000000
v -0.658480 1.140462 0.138950
v -0.542243 1.091806 -0.000000
v -0.658480 1.140462 -0.138950
v -0.774717 1.189118 -0.000000
v 0.323803 0.172616 0.133102
v 0.191072 0.174034 -0.000000
v 0.323803 0.172616 -0.133102
v 0.456534 0.171198 -0.000000
v 0.327337 0.425259 0.138950
v 0.198308 0.460340 -0.000000
v 0.327337 0.425259 -0.138950
v 0.456366 0.390178 -0.000000
v -0.547966 1.266805 0.138950
v -0.497992 1.150251 -0.000000
v -0.547966 1.266805 -0.138950
v -0.597940 1.383359 -0.000000
v -0.331542 1.272069 0.138950
v -0.329495 1.133967 -0.000000
v -0.331542 1.272069 -0.138950
v -0.333589 1.410171 -0.000000
v -0.110514 1.272069 0.138950
v -0.110514 1.133119 -0.000000
v -0.110514 1.272069 -0.138950
v -0.110514 1.411019 -0.000000
v 0.412158 0.608361 0.138950
v 0.314053 0.699248 -0.000000
v 0.412158 0.608361 -0.138950
v 0.510263 0.517474 -0.000000
v 0.574730 0.718138 0.138950
v 0.476625 0.809025 -0.000000
v 0.574730 0.718138 -0.138950
v 0.672835 0.627251 -0.000000
v 0.659550 0.896152 0.138950
v 0.531369 0.929186 -0.000000
v 0.659550 0.896152 -0.138950
v 0.787732 0.863118 -0.000000
v 0.658480 1.140462 0.138950
v 0.542296 1.091906 -0.000000
v 0.658480 1.140462 -0.138950
v 0.774663 1.189019 -0.000000
v 0.547966 1.266805 0.138950
v 0.497992 1.150251 -0.000000
v 0.547966 1.266805 -0.138950
v 0.597940 1.383359 -0.000000
v 0.331542 1.272069 0.138950
v 0.329495 1.133967 -0.000000
v 0.331542 1.272069 -0.138950
v 0.333589 1.410171 -0.000000
v 0.110514 1.272069 0.138950
v 0.110514 1.133119 -0.000000
v 0.110514 1.272069 -0.138950
v 0.110514 1.411019 -0.000000
vn -0.5470 -0.6332 0.5476
vn 0.5508 -0.6296 0.5480
vn 0.5508 -0.6296 -0.5480
vn -0.5470 -0.6332 -0.5476
vn -0.6336 -0.2487 0.7326
vn 0.6763 0.2900 0.6772
vn 0.6763 0.2900 -0.6772
vn -0.6336 -0.2487 -0.7326
vn -0.6762 -0.2924 0.6762
vn 0.6306 0.2578 0.7320
vn 0.6306 0.2578 -0.7320
vn -0.6762 -0.2924 -0.6762
vn -0.5577 0.5160 0.6501
vn 0.4738 -0.4181 0.7751
vn 0.4738 -0.4181 -0.7751
vn -0.5577 0.5160 -0.6501
vn 0.5470 -0.6332 0.5476
vn -0.5511 -0.6293 0.5480
vn -0.5511 -0.6293 -0.5480
vn 0.5470 -0.6332 -0.5476
vn -0.0000 0.7071 0.7071
vn -0.0000 -0.7071 0.7071
vn -0.0000 -0.7071 -0.7071
vn -0.0000 0.7071 -0.7071
vn 0.6130 -0.2852 0.7368
vn -0.6619 0.3279 0.6741
vn -0.6619 0.3279 -0.6741
vn 0.6130 -0.2852 -0.7368
vn 0.6615 -0.3306 0.6731
vn -0.6093 0.2950 0.7361
vn -0.6093 0.2950 -0.7361
vn 0.6615 -0.3306 -0.6731
vn 0.5579 0.5159 0.6501
vn -0.4737 -0.4184 0.7749
vn -0.4737 -0.4184 -0.7749
vn 0.5579 0.5159 -0.6501
vn -0.7125 -0.0165 0.7015
vn 0.7150 -0.0005 0.6991
vn 0.7150 -0.0005 -0.6991
vn -0.7125 -0.0165 -0.7015
vn -0.4481 -0.5637 0.6939
vn 0.4481 0.5640 0.6936
vn 0.4481 0.5640 -0.6936
vn -0.4481 -0.5637 -0.6939
vn -0.7333 0.0269 0.6794
vn 0.7306 0.0335 0.6820
vn 0.7306 0.0335 -0.6820
vn -0.7333 0.0269 -0.6794
vn 0.7135 -0.0151 0.7005
vn -0.7162 0.0033 0.6979
vn -0.7162 0.0033 -0.6979
vn 0.7135 -0.0151 -0.7005
vn -0.0586 0.7234 0.6880
vn -0.0448 -0.7253 0.6869
vn -0.0448 -0.7253 -0.6869
vn -0.0586 0.7234 -0.6880
vn -0.0019 0.7078 0.7064
vn -0.0020 -0.7078 0.7064
vn -0.0020 -0.7078 -0.7064
vn -0.0019 0.7078 -0.7064
vn 0.4021 -0.6000 0.6916
vn -0.4021 0.6002 0.6914
vn -0.4021 0.6002 -0.6914
vn 0.4021 -0.6000 -0.6916
vn 0.7347 0.0232 0.6780
vn -0.7315 0.0319 0.6811
vn -0.7315 0.0319 -0.6811
vn 0.7347 0.0232 -0.6780
vn 0.0586 0.7234 0.6880
vn 0.0448 -0.7253 0.6869
vn 0.0448 -0.7253 -0.6869
vn 0.0586 0.7234 -0.6880
vn 0.0019 0.7078 0.7064
vn 0.0020 -0.7078 0.7064
vn 0.0020 -0.7078 -0.7064
vn 0.0019 0.7078 -0.7064
vn -0.6698 -0.7426 -0.0000
vn 0.0012 -0.7417 -0.6707
vn 0.6734 -0.7392 -0.0000
vn 0.0012 -0.7417 0.6707
vn 0.6698 -0.7425 -0.0000
vn -0.0012 -0.7417 0.6707
vn -0.6738 -0.7390 -0.0000
vn -0.0012 -0.7417 -0.6707
vn -0.6913 -0.2191 0.6885
vn 0.6940 -0.2134 0.6876
vn 0.0029 -0.0196 0.9998
vn 0.6940 -0.2134 -0.6876
vn 0.9999 0.0132 -0.0000
vn -0.6913 -0.2191 -0.6885
vn 0.0029 -0.0196 -0.9998
vn -1.0000 -0.0076 -0.0000
vn -0.7066 -0.0464 0.7061
vn 0.7201 0.0989 0.6868
vn 0.0434 0.0170 0.9989
vn 0.7201 0.0989 -0.6868
vn 0.9173 0.3982 -0.0000
vn -0.7066 -0.0464 -0.7061
vn 0.0434 0.0170 -0.9989
vn -0.9342 -0.3567 -0.0000
vn -0.4998 -0.4794 0.7214
vn 0.5450 0.4877 0.6820
vn 0.0001 0.0002 1.0000
vn 0.5450 0.4877 -0.6820
vn 0.6222 0.7829 -0.0000
vn -0.4998 -0.4794 -0.7214
vn 0.0001 0.0002 -1.0000
vn -0.6224 -0.7827 -0.0000
vn -0.5426 -0.4900 0.6822
vn 0.4970 0.4837 0.7204
vn -0.0439 -0.0169 0.9989
vn 0.4970 0.4837 -0.7204
vn 0.9282 0.3721 -0.0000
vn -0.5426 -0.4900 -0.6822
vn -0.0439 -0.0169 -0.9989
vn -0.9164 -0.4004 -0.0000
vn -0.7272 -0.0879 0.6808
vn 0.7103 0.0673 0.7007
vn -0.0060 0.0078 1.0000
vn 0.7103 0.0673 -0.7007
vn 0.9984 0.0568 -0.0000
vn -0.7272 -0.0879 -0.6808
vn -0.0060 0.0078 -1.0000
vn -0.9991 0.0414 -0.0000
vn -0.7263 0.1893 0.6608
vn 0.7235 -0.0485 0.6886
vn -0.0719 0.0623 0.9955
vn 0.7235 -0.0485 -0.6886
vn 0.7550 -0.6558 -0.0000
vn -0.7263 0.1893 -0.6608
vn -0.0719 0.0623 -0.9955
vn -0.7316 0.6818 -0.0000
vn 0.6918 -0.2183 0.6883
vn -0.0034 -0.0190 0.9998
vn -0.6946 -0.2123 0.6873
vn -0.9998 0.0190 -0.0000
vn -0.6946 -0.2123 -0.6873
vn -0.0034 -0.0190 -0.9998
vn 0.6918 -0.2183 -0.6883
vn 1.0000 -0.0048 -0.0000
vn 0.7050 -0.0567 0.7070
vn -0.0474 0.0219 0.9986
vn -0.7203 0.1151 0.6840
vn -0.8945 0.4471 -0.0000
vn -0.7203 0.1151 -0.6840
vn -0.0474 0.0219 -0.9986
vn 0.7050 -0.0567 -0.7070
vn 0.9099 -0.4148 -0.0000
vn -0.2287 0.7125 0.6634
vn 0.0844 -0.7032 0.7060
vn -0.0133 0.0026 0.9999
vn 0.0844 -0.7032 -0.7060
vn -0.0781 -0.9969 -0.0000
vn -0.2287 0.7125 -0.6634
vn -0.0133 0.0026 -0.9999
vn -0.0902 0.9959 -0.0000
vn -0.0146 0.7123 0.7017
vn -0.0177 -0.7132 0.7007
vn -0.0005 -0.0000 1.0000
vn -0.0177 -0.7132 -0.7007
vn -0.0034 -1.0000 -0.0000
vn -0.0146 0.7123 -0.7017
vn -0.0005 -0.0000 -1.0000
vn -0.0033 1.0000 -0.0000
vn -0.0000 -0.0000 1.0000
vn -0.0000 -1.0000 -0.0000
vn -0.0000 -0.0000 -1.0000
vn -0.0000 1.0000 -0.0000
vn 0.4580 -0.5235 0.7185
vn -0.0001 0.0002 1.0000
vn -0.5073 0.5294 0.6799
vn -0.5569 0.8306 -0.0000
vn -0.5073 0.5294 -0.6799
vn -0.0001 0.0002 -1.0000
vn 0.4580 -0.5235 -0.7185
vn 0.5571 -0.8305 -0.0000
vn 0.5047 -0.5317 0.6802
vn 0.0479 -0.0218 0.9986
vn -0.4547 0.5279 0.7173
vn -0.9022 0.4314 -0.0000
vn -0.4547 0.5279 -0.7173
vn 0.0479 -0.0218 -0.9986
vn 0.5047 -0.5317 -0.6802
vn 0.8932 -0.4496 -0.0000
vn 0.7277 -0.1043 0.6779
vn 0.0066 0.0071 1.0000
vn -0.7081 0.0783 0.7017
vn -0.9985 0.0538 -0.0000
vn -0.7081 0.0783 -0.7017
vn 0.0066 0.0071 -1.0000
vn 0.7277 -0.1043 -0.6779
vn 0.9994 0.0357 -0.0000
vn 0.7269 0.1885 0.6604
vn 0.0719 0.0623 0.9955
vn -0.7238 -0.0497 0.6882
vn -0.7546 -0.6562 -0.0000
vn -0.7238 -0.0497 -0.6882
vn 0.0719 0.0623 -0.9955
vn 0.7269 0.1885 -0.6604
vn 0.7317 0.6816 -0.0000
vn 0.2287 0.7125 0.6634
vn 0.0133 0.0026 0.9999
vn -0.0844 -0.7032 0.7060
vn 0.0781 -0.9969 -0.0000
vn -0.0844 -0.7032 -0.7060
vn 0.0133 0.0026 -0.9999
vn 0.2287 0.7125 -0.6634
vn 0.0902 0.9959 -0.0000
vn 0.0146 0.7123 0.7017
vn 0.0005 -0.0000 1.0000
vn 0.0177 -0.7132 0.7007
vn 0.0034 -1.0000 -0.0000
vn 0.0177 -0.7132 -0.7007
vn 0.0005 -0.0000 -1.0000
vn 0.0146 0.7123 -0.7017
vn 0.0033 1.0000 -0.0000
vn 0.0017 -0.2161 0.9764
vn 0.9788 -0.2048 -0.0000
vn 0.0017 -0.2161 -0.9764
vn -0.9772 -0.2123 -0.0000
vn 0.0177 0.0060 0.9998
vn 0.9898 0.1425 -0.0000
vn 0.0177 0.0060 -0.9998
vn -0.9986 -0.0531 -0.0000
vn 0.0262 0.0222 0.9994
vn 0.7475 0.6643 -0.0000
vn 0.0262 0.0222 -0.9994
vn -0.7167 -0.6974 -0.0000
vn -0.0255 -0.0217 0.9994
vn 0.7111 0.7031 -0.0000
vn -0.0255 -0.0217 -0.9994
vn -0.7446 -0.6675 -0.0000
vn -0.0197 -0.0021 0.9998
vn 0.9960 0.0894 -0.0000
vn -0.0197 -0.0021 -0.9998
vn -0.9923 -0.1240 -0.0000
vn -0.0310 0.0161 0.9994
vn 0.9997 -0.0258 -0.0000
vn -0.0310 0.0161 -0.9994
vn -0.9644 0.2645 -0.0000
vn -0.0018 -0.2159 0.9764
vn -0.9792 -0.2031 -0.0000
vn -0.0018 -0.2159 -0.9764
vn 0.9775 -0.2110 -0.0000
vn -0.0209 0.0069 0.9998
vn -0.9863 0.1647 -0.0000
vn -0.0209 0.0069 -0.9998
vn 0.9978 -0.0657 -0.0000
vn -0.0206 0.0404 0.9990
vn 0.0718 -0.9974 -0.0000
vn -0.0206 0.0404 -0.9990
vn -0.3166 0.9486 -0.0000
vn -0.0043 -0.0003 1.0000
vn -0.0292 -0.9996 -0.0000
vn -0.0043 -0.0003 -1.0000
vn -0.0241 0.9997 -0.0000
vn -0.0244 0.0242 0.9994
vn -0.6952 0.7188 -0.0000
vn -0.0244 0.0242 -0.9994
vn 0.6511 -0.7590 -0.0000
vn 0.0238 -0.0235 0.9994
vn -0.6448 0.7644 -0.0000
vn 0.0238 -0.0235 -0.9994
vn 0.6920 -0.7219 -0.0000
vn 0.0233 -0.0031 0.9997
vn -0.9946 0.1034 -0.0000
vn 0.0233 -0.0031 -0.9997
vn 0.9892 -0.1465 -0.0000
vn 0.0312 0.0159 0.9994
vn -0.9996 -0.0281 -0.0000
vn 0.0312 0.0159 -0.9994
vn 0.9648 0.2631 -0.0000
vn 0.0206 0.0404 0.9990
vn -0.0718 -0.9974 -0.0000
vn 0.0206 0.0404 -0.9990
vn 0.3166 0.9486 -0.0000
vn 0.0043 -0.0003 1.0000
vn 0.0292 -0.9996 -0.0000
vn 0.0043 -0.0003 -1.0000
vn 0.0241 0.9997 -0.0000
s 1
f 4//4 78//78 225//166 77//77
f 78//78 3//3 79//79 225//166
f 225//166 79//79 2//2 80//80
f 77//77 225//166 80//80 1//1
f 17//17 82//82 226//166 81//81
f 82//82 18//18 83//83 226//166
f 226//166 83//83 19//19 84//84
f 81//81 226//166 84//84 20//20
f 1//1 80//80 227//217 85//85
f 80//80 2//2 86//86 227//217
f 227//217 86//86 38//38 87//87
f 85//85 227//217 87//87 37//37
f 2//2 79//79 228//218 86//86
f 79//79 3//3 88//88 228//218
f 228//218 88//88 39//39 89//89
f 86//86 228//218 89//89 38//38
f 3//3 78//78 229//219 88//88
f 78//78 4//4 90//90 229//219
f 229//219 90//90 40//40 91//91
f 88//88 229//219 91//91 39//39
f 4//4 77//77 230//220 90//90
f 77//77 1//1 85//85 230//220
f 230//220 85//85 37//37 92//92
f 90//90 230//220 92//92 40//40
f 37//37 87//87 231//221 93//93
f 87//87 38//38 94//94 231//221
f 231//221 94//94 6//6 95//95
f 93//93 231//221 95//95 5//5
f 38//38 89//89 232//222 94//94
f 89//89 39//39 96//96 232//222
f 232//222 96//96 7//7 97//97
f 94//94 232//222 97//97 6//6
f 39//39 91//91 233//223 96//96
f 91//91 40//40 98//98 233//223
f 233//223 98//98 8//8 99//99
f 96//96 233//223 99//99 7//7
f 40//40 92//92 234//224 98//98
f 92//92 37//37 93//93 234//224
f 234//224 93//93 5//5 100//100
f 98//98 234//224 100//100 8//8
f 5//5 95//95 235//225 101//101
f 95//95 6//6 102//102 235//225
f 235//225 102//102 42//42 103//103
f 101//101 235//225 103//103 41//41
f 6//6 97//97 236//226 102//102
f 97//97 7//7 104//104 236//226
f 236//226 104//104 43//43 105//105
f 102//102 236//226 105//105 42//42
f 7//7 99//99 237//227 104//104
f 99//99 8//8 106//106 237//227
f 237//227 106//106 44//44 107//107
f 104//104 237//227 107//107 43//43
f 8//8 100//100 238//228 106//106
f 100//100 5//5 101//101 238//228
f 238//228 101//101 41//41 108//108
f 106//106 238//228 108//108 44//44
f 41//41 103//103 239//229 109//109
f 103//103 42//42 110//110 239//229
f 239//229 110//110 10//10 111//111
f 109//109 239//229 111//111 9//9
f 42//42 105//105 240//230 110//110
f 105//105 43//43 112//112 240//230
f 240//230 112//112 11//11 113//113
f 110//110 240//230 113//113 10//10
f 43//43 107//107 241//231 112//112
f 107//107 44//44 114//114 241//231
f 241//231 114//114 12//12 115//115
f 112//112 241//231 115//115 11//11
f 44//44 108//108 242//232 114//114
f 108//108 41//41 109//109 242//232
f 242//232 109//109 9//9 116//116
f 114//114 242//232 116//116 12//12
f 9//9 111//111 243//233 117//117
f 111//111 10//10 118//118 243//233
f 243//233 118//118 46//46 119//119
f 117//117 243//233 119//119 45//45
f 10//10 113//113 244//234 118//118
f 113//113 11//11 120//120 244//234
f 244//234 120//120 47//47 121//121
f 118//118 244//234 121//121 46//46
f 11//11 115//115 245//235 120//120
f 115//115 12//12 122//122 245//235
f 245//235 122//122 48//48 123//123
f 120//120 245//235 123//123 47//47
f 12//12 116//116 246//236 122//122
f 116//116 9//9 117//117 246//236
f 246//236 117//117 45//45 124//124
f 122//122 246//236 124//124 48//48
f 45//45 119//119 247//237 125//125
f 119//119 46//46 126//126 247//237
f 247//237 126//126 14//14 127//127
f 125//125 247//237 127//127 13//13
f 46//46 121//121 248//238 126//126
f 121//121 47//47 128//128 248//238
f 248//238 128//128 15//15 129//129
f 126//126 248//238 129//129 14//14
f 47//47 123//123 249//239 128//128
f 123//123 48//48 130//130 249//239
f 249//239 130//130 16//16 131//131
f 128//128 249//239 131//131 15//15
f 48//48 124//124 250//240 130//130
f 124//124 45//45 125//125 250//240
f 250//240 125//125 13//13 132//132
f 130//130 250//240 132//132 16//16
f 49//49 134//134 251//241 133//133
f 134//134 50//50 135//135 251//241
f 251//241 135//135 18//18 82//82
f 133//133 251//241 82//82 17//17
f 50//50 136//136 252//242 135//135
f 136//136 51//51 137//137 252//242
f 252//242 137//137 19//19 83//83
f 135//135 252//242 83//83 18//18
f 51//51 138//138 253//243 137//137
f 138//138 52//52 139//139 253//243
f 253//243 139//139 20//20 84//84
f 137//137 253//243 84//84 19//19
f 52//52 140//140 254//244 139//139
f 140//140 49//49 133//133 254//244
f 254//244 133//133 17//17 81//81
f 139//139 254//244 81//81 20//20
f 25//25 142//142 255//245 141//141
f 142//142 26//26 143//143 255//245
f 255//245 143//143 50//50 134//134
f 141//141 255//245 134//134 49//49
f 26//26 144//144 256//246 143//143
f 144//144 27//27 145//145 256//246
f 256//246 145//145 51//51 136//136
f 143//143 256//246 136//136 50//50
f 27//27 146//146 257//247 145//145
f 146//146 28//28 147//147 257//247
f 257//247 147//147 52//52 138//138
f 145//145 257//247 138//138 51//51
f 28//28 148//148 258//248 147//147
f 148//148 25//25 141//141 258//248
f 258//248 141//141 49//49 140//140
f 147//147 258//248 140//140 52//52
f 13//13 127//127 259//249 149//149
f 127//127 14//14 150//150 259//249
f 259//249 150//150 54//54 151//151
f 149//149 259//249 151//151 53//53
f 14//14 129//129 260//250 150//150
f 129//129 15//15 152//152 260//250
f 260//250 152//152 55//55 153//153
f 150//150 260//250 153//153 54//54
f 15//15 131//131 261//251 152//152
f 131//131 16//16 154//154 261//251
f 261//251 154//154 56//56 155//155
f 152//152 261//251 155//155 55//55
f 16//16 132//132 262//252 154//154
f 132//132 13//13 149//149 262//252
f 262//252 149//149 53//53 156//156
f 154//154 262//252 156//156 56//56
f 53//53 151//151 263//253 157//157
f 151//151 54//54 158//158 263//253
f 263//253 158//158 58//58 159//159
f 157//157 263//253 159//159 57//57
f 54//54 153//153 264//254 158//158
f 153//153 55//55 160//160 264//254
f 264//254 160//160 59//59 161//161
f 158//158 264//254 161//161 58//58
f 55//55 155//155 265//255 160//160
f 155//155 56//56 162//162 265//255
f 265//255 162//162 60//60 163//163
f 160//160 265//255 163//163 59//59
f 56//56 156//156 266//256 162//162
f 156//156 53//53 157//157 266//256
f 266//256 157//157 57//57 164//164
f 162//162 266//256 164//164 60//60
f 57//57 159//159 267//165 165//21
f 159//159 58//58 166//22 267//165
f 267//165 166//22 22//22 167//165
f 165//21 267//165 167//165 21//21
f 58//58 161//161 268//166 166//22
f 161//161 59//59 168//23 268//166
f 268//166 168//23 23//23 169//166
f 166//22 268//166 169//166 22//22
f 59//59 163//163 269//167 168//23
f 163//163 60//60 170//24 269//167
f 269//167 170//24 24//24 171//167
f 168//23 269//167 171//167 23//23
f 60//60 164//164 270//168 170//24
f 164//164 57//57 165//21 270//168
f 270//168 165//21 21//21 172//168
f 170//24 270//168 172//168 24//24
f 61//61 174//170 271//257 173//169
f 174//170 62//62 175//171 271//257
f 271//257 175//171 26//26 142//142
f 173//169 271//257 142//142 25//25
f 62//62 176//172 272//258 175//171
f 176//172 63//63 177//173 272//258
f 272//258 177//173 27//27 144//144
f 175//171 272//258 144//144 26//26
f 63//63 178//174 273//259 177//173
f 178//174 64//64 179//175 273//259
f 273//259 179//175 28//28 146//146
f 177//173 273//259 146//146 27//27
f 64//64 180//176 274//260 179//175
f 180//176 61//61 173//169 274//260
f 274//260 173//169 25//25 148//148
f 179//175 274//260 148//148 28//28
f 29//29 182//178 275//261 181//177
f 182//178 30//30 183//179 275//261
f 275//261 183//179 62//62 174//170
f 181//177 275//261 174//170 61//61
f 30//30 184//180 276//262 183//179
f 184//180 31//31 185//181 276//262
f 276//262 185//181 63//63 176//172
f 183//179 276//262 176//172 62//62
f 31//31 186//182 277//263 185//181
f 186//182 32//32 187//183 277//263
f 277//263 187//183 64//64 178//174
f 185//181 277//263 178//174 63//63
f 32//32 188//184 278//264 187//183
f 188//184 29//29 181//177 278//264
f 278//264 181//177 61//61 180//176
f 187//183 278//264 180//176 64//64
f 65//65 190//186 279//265 189//185
f 190//186 66//66 191//187 279//265
f 279//265 191//187 30//30 182//178
f 189//185 279//265 182//178 29//29
f 66//66 192//188 280//266 191//187
f 192//188 67//67 193//189 280//266
f 280//266 193//189 31//31 184//180
f 191//187 280//266 184//180 30//30
f 67//67 194//190 281//267 193//189
f 194//190 68//68 195//191 281//267
f 281//267 195//191 32//32 186//182
f 193//189 281//267 186//182 31//31
f 68//68 196//192 282//268 195//191
f 196//192 65//65 189//185 282//268
f 282//268 189//185 29//29 188//184
f 195//191 282//268 188//184 32//32
f 33//33 198//194 283//269 197//193
f 198//194 34//34 199//195 283//269
f 283//269 199//195 66//66 190//186
f 197//193 283//269 190//186 65//65
f 34//34 200//196 284//270 199//195
f 200//196 35//35 201//197 284//270
f 284//270 201//197 67//67 192//188
f 199//195 284//270 192//188 66//66
f 35//35 202//198 285//271 201//197
f 202//198 36//36 203//199 285//271
f 285//271 203//199 68//68 194//190
f 201//197 285//271 194//190 67//67
f 36//36 204//200 286//272 203//199
f 204//200 33//33 197//193 286//272
f 286//272 197//193 65//65 196//192
f 203//199 286//272 196//192 68//68
f 69//69 206//202 287//273 205//201
f 206//202 70//70 207//203 287//273
f 287//273 207//203 34//34 198//194
f 205//201 287//273 198//194 33//33
f 70//70 208//204 288//274 207//203
f 208//204 71//71 209//205 288//274
f 288//274 209//205 35//35 200//196
f 207//203 288//274 200//196 34//34
f 71//71 210//206 289//275 209//205
f 210//206 72//72 211//207 289//275
f 289//275 211//207 36//36 202//198
f 209//205 289//275 202//198 35//35
f 72//72 212//208 290//276 211//207
f 212//208 69//69 205//201 290//276
f 290//276 205//201 33//33 204//200
f 211//207 290//276 204//200 36//36
f 73//73 214//210 291//277 213//209
f 214//210 74//74 215//211 291//277
f 291//277 215//211 70//70 206//202
f 213//209 291//277 206//202 69//69
f 74//74 216//212 292//278 215//211
f 216//212 75//75 217//213 292//278
f 292//278 217//213 71//71 208//204
f 215//211 292//278 208//204 70//70
f 75//75 218//214 293//279 217//213
f 218//214 76//76 219//215 293//279
f 293//279 219//215 72//72 210//206
f 217//213 293//279 210//206 71//71
f 76//76 220//216 294//280 219//215
f 220//216 73//73 213//209 294//280
f 294//280 213//209 69//69 212//208
f 219//215 294//280 212//208 72//72
f 21//21 167//165 295//165 221//21
f 167//165 22//22 222//22 295//165
f 295//165 222//22 74//74 214//210
f 221//21 295//165 214//210 73//73
f 22//22 169//166 296//166 222//22
f 169//166 23//23 223//23 296//166
f 296//166 223//23 75//75 216//212
f 222//22 296//166 216//212 74//74
f 23//23 171//167 297//167 223//23
f 171//167 24//24 224//24 297//167
f 297//167 224//24 76//76 218//214
f 223//23 297//167 218//214 75//75
f 24//24 172//168 298//168 224//24
f 172//168 21//21 221//21 298//168
f 298//168 221//21 73//73 220//216
f 224//24 298//168 220//216 76//76
