# Blender 5.1.0
# www.blender.org
mtllib Lights.mtl
o Cylinder.001
v 0.378963 -0.272322 1.023997
v 0.378963 -0.272322 1.260066
v 0.514182 -0.099624 1.260066
v 0.514182 -0.099624 1.023997
v -0.378963 -0.272322 1.023997
v -0.378963 -0.272322 1.260066
v -0.514182 -0.099624 1.260066
v -0.514182 -0.099624 1.023997
v -0.637528 -1.004613 1.002018
v -0.686061 -1.052469 1.219305
v -0.836317 -0.887589 1.240695
v -0.787784 -0.839733 1.023408
v -0.845114 -1.066469 0.906549
v -0.991715 -1.137063 1.063411
v -1.064157 -0.920749 1.105888
v -0.917557 -0.850155 0.949026
v -0.995328 -1.068655 0.569593
v -1.212694 -1.142714 0.619365
v -1.284511 -0.918563 0.635809
v -1.067145 -0.844504 0.586038
v -1.022115 -1.068655 0.280733
v -1.245171 -1.142714 0.294807
v -1.318868 -0.918563 0.299457
v -1.095812 -0.844504 0.285383
v -0.637528 -1.004613 -1.002018
v -0.686061 -1.052469 -1.219305
v -0.836317 -0.887589 -1.240695
v -0.787784 -0.839733 -1.023408
v -0.845114 -1.066469 -0.906549
v -0.991715 -1.137063 -1.063411
v -1.064157 -0.920749 -1.105888
v -0.917557 -0.850155 -0.949026
v -0.995328 -1.068655 -0.569593
v -1.212694 -1.142714 -0.619365
v -1.284511 -0.918563 -0.635809
v -1.067145 -0.844504 -0.586038
v -1.022115 -1.068655 -0.280733
v -1.245171 -1.142714 -0.294807
v -1.318868 -0.918563 -0.299457
v -1.095812 -0.844504 -0.285383
v 0.637528 -1.004613 1.002018
v 0.686061 -1.052469 1.219305
v 0.836317 -0.887589 1.240695
v 0.787784 -0.839733 1.023408
v 0.845114 -1.066469 0.906549
v 0.991715 -1.137063 1.063411
v 1.064157 -0.920749 1.105888
v 0.917557 -0.850155 0.949026
v 0.995328 -1.068655 0.569593
v 1.212694 -1.142714 0.619365
v 1.284511 -0.918563 0.635809
v 1.067145 -0.844504 0.586038
v 1.022115 -1.068655 0.280733
v 1.245171 -1.142714 0.294807
v 1.318868 -0.918563 0.299457
v 1.095812 -0.844504 0.285383
v -0.378963 -0.272322 -1.023997
v -0.378963 -0.272322 -1.260066
v -0.514182 -0.099624 -1.260066
v -0.514182 -0.099624 -1.023997
v 0.637528 -1.004613 -1.002018
v 0.686061 -1.052469 -1.219305
v 0.836317 -0.887589 -1.240695
v 0.787784 -0.839733 -1.023408
v 0.845114 -1.066469 -0.906549
v 0.991715 -1.137063 -1.063411
v 1.064157 -0.920749 -1.105888
v 0.917557 -0.850155 -0.949026
v 0.995328 -1.068655 -0.569593
v 1.212694 -1.142714 -0.619365
v 1.284511 -0.918563 -0.635809
v 1.067145 -0.844504 -0.586038
v 1.022115 -1.068655 -0.280733
v 1.245171 -1.142714 -0.294807
v 1.318868 -0.918563 -0.299457
v 1.095812 -0.844504 -0.285383
v 0.378963 -0.272322 -1.023997
v 0.378963 -0.272322 -1.260066
v 0.514182 -0.099624 -1.260066
v 0.514182 -0.099624 -1.023997
v 1.025744 -1.068655 0.000000
v 1.249844 -1.142714 0.000000
v 1.323887 -0.918563 0.000000
v 1.099786 -0.844504 0.000000
v -1.025744 -1.068655 0.000000
v -1.249844 -1.142714 0.000000
v -1.323887 -0.918563 0.000000
v -1.099786 -0.844504 0.000000
v 0.935299 -1.068655 0.762577
v 1.136598 -1.142714 0.853941
v 1.203107 -0.918563 0.884128
v 1.001808 -0.844504 0.792763
v -0.935299 -1.068655 0.762577
v -1.136598 -1.142714 0.853941
v -1.203107 -0.918563 0.884128
v -1.001808 -0.844504 0.792763
v -0.935299 -1.068655 -0.762577
v -1.136598 -1.142714 -0.853942
v -1.203107 -0.918563 -0.884128
v -1.001808 -0.844504 -0.792763
v 0.935299 -1.068655 -0.762577
v 1.136598 -1.142714 -0.853942
v 1.203107 -0.918563 -0.884128
v 1.001808 -0.844504 -0.792763
v 0.518920 -0.742477 -1.023109
v 0.524393 -0.751355 -1.257770
v 0.741189 -0.674645 -1.260954
v 0.735715 -0.665766 -1.026293
v 0.452003 -0.462597 -1.023997
v 0.452003 -0.462597 -1.260066
v 0.667239 -0.384429 -1.260066
v 0.667239 -0.384429 -1.023997
v -0.518920 -0.742477 -1.023109
v -0.524393 -0.751355 -1.257770
v -0.741189 -0.674645 -1.260954
v -0.735715 -0.665766 -1.026293
v -0.452003 -0.462597 -1.023997
v -0.452003 -0.462597 -1.260066
v -0.667239 -0.384429 -1.260066
v -0.667239 -0.384429 -1.023997
v 0.518920 -0.742477 1.023109
v 0.524393 -0.751355 1.257770
v 0.741189 -0.674645 1.260954
v 0.735715 -0.665766 1.026293
v 0.452003 -0.462597 1.023997
v 0.452003 -0.462597 1.260066
v 0.667239 -0.384429 1.260066
v 0.667239 -0.384429 1.023997
v -0.518920 -0.742477 1.023109
v -0.524393 -0.751355 1.257770
v -0.741189 -0.674645 1.260954
v -0.735715 -0.665766 1.026293
v -0.452003 -0.462597 1.023997
v -0.452003 -0.462597 1.260066
v -0.667239 -0.384429 1.260066
v -0.667239 -0.384429 1.023997
v 0.150935 -0.252316 1.023997
v 0.150935 -0.252316 1.260066
v 0.175190 -0.024613 1.260066
v 0.175190 -0.024613 1.023997
v -0.150935 -0.252316 1.023997
v -0.150935 -0.252316 1.260066
v -0.175190 -0.024613 1.260066
v -0.175190 -0.024613 1.023997
v -0.150935 -0.252316 -1.023997
v -0.150935 -0.252316 -1.260066
v -0.175190 -0.024613 -1.260066
v -0.175190 -0.024613 -1.023997
v 0.150935 -0.252316 -1.023997
v 0.150935 -0.252316 -1.260066
v 0.175190 -0.024613 -1.260066
v 0.175190 -0.024613 -1.023997
v 0.504731 -1.079650 -0.086041
v 0.504731 -1.079650 0.086041
v 0.504731 -0.907568 0.086041
v 0.504731 -0.907568 -0.086041
v 0.744018 -1.055457 0.963112
v 0.904831 -1.142325 0.977016
v 0.840662 -1.118012 1.154173
v 0.633621 -1.059456 1.106651
v 1.055423 -1.042142 1.114061
v 0.946385 -0.919884 1.188792
v 0.770289 -0.979002 1.270741
v 1.004440 -0.844893 1.035421
v 0.849742 -0.857329 0.997731
v 0.840224 -0.832746 1.136062
v 0.853848 -0.945075 0.898376
v 0.703556 -0.913200 0.971972
v -0.504731 -1.079650 -0.086041
v -0.504731 -1.079650 0.086041
v -0.504731 -0.907568 0.086041
v -0.504731 -0.907568 -0.086041
v -0.744018 -1.055457 0.963112
v -0.904831 -1.142325 0.977016
v -0.840662 -1.118012 1.154173
v -0.633621 -1.059456 1.106651
v -1.055423 -1.042142 1.114061
v -0.946385 -0.919884 1.188792
v -0.770289 -0.979002 1.270741
v -1.004440 -0.844893 1.035421
v -0.849742 -0.857329 0.997731
v -0.840224 -0.832746 1.136062
v -0.853848 -0.945075 0.898376
v -0.703556 -0.913200 0.971972
v -0.966934 -1.068655 0.677055
v -1.090546 -1.147713 0.591396
v -1.178879 -1.142714 0.745801
v -1.023479 -1.147713 0.802599
v -1.289359 -1.044524 0.636919
v -1.248905 -0.918563 0.768515
v -1.207596 -1.044524 0.886166
v -1.189294 -0.839505 0.614007
v -1.036960 -0.844504 0.699769
v -1.114928 -0.839505 0.844106
v -0.990481 -0.942693 0.568484
v -0.930810 -0.942693 0.760539
v -0.902961 -1.068382 0.838756
v -1.084176 -1.142008 0.960562
v -1.147049 -0.918836 0.999638
v -0.965834 -0.845210 0.877831
v -1.013261 -1.068655 -0.431423
v -1.090546 -1.147713 -0.591396
v -1.234134 -1.142714 -0.461765
v -1.119825 -1.147713 -0.286898
v -1.289359 -1.044524 -0.636919
v -1.307110 -0.918563 -0.471790
v -1.323843 -1.044524 -0.299771
v -1.189294 -0.839505 -0.614007
v 0.966934 -1.068655 0.677055
v 1.090546 -1.147713 0.591396
v 1.178879 -1.142714 0.745801
v 1.023479 -1.147713 0.802599
v 1.289359 -1.044524 0.636919
v 1.248905 -0.918563 0.768515
v 1.207596 -1.044524 0.886166
v 1.189294 -0.839505 0.614007
v 1.036960 -0.844504 0.699769
v 1.114928 -0.839505 0.844106
v 0.990481 -0.942693 0.568484
v 0.930810 -0.942693 0.760539
v 0.902961 -1.068382 0.838756
v 1.084176 -1.142008 0.960562
v 1.147049 -0.918836 0.999638
v 0.965834 -0.845210 0.877831
v 1.013261 -1.068655 -0.431423
v 1.090546 -1.147713 -0.591396
v 1.234134 -1.142714 -0.461765
v 1.119825 -1.147713 -0.286898
v 1.289359 -1.044524 -0.636919
v 1.307110 -0.918563 -0.471790
v 1.323843 -1.044524 -0.299771
v 1.189294 -0.839505 -0.614007
v 1.086237 -0.844504 -0.441448
v 1.221159 -0.839505 -0.293292
v 0.990481 -0.942693 -0.568483
v 1.017141 -0.942693 -0.280419
v -1.086237 -0.844504 -0.441448
v -1.221159 -0.839505 -0.293292
v -0.990481 -0.942693 -0.568483
v -1.017141 -0.942693 -0.280419
v -1.013261 -1.068655 0.431423
v -1.119825 -1.147713 0.286898
v -1.234134 -1.142714 0.461765
v -1.323843 -1.044524 0.299771
v -1.307110 -0.918563 0.471790
v -1.221159 -0.839505 0.293292
v -1.086237 -0.844504 0.441448
v -1.017141 -0.942693 0.280419
v -0.744018 -1.055457 -0.963112
v -0.633621 -1.059456 -1.106651
v -0.840662 -1.118011 -1.154173
v -0.904831 -1.142325 -0.977016
v -0.770289 -0.979002 -1.270741
v -0.946385 -0.919884 -1.188792
v -1.055423 -1.042142 -1.114061
v -0.840224 -0.832746 -1.136062
v -0.849742 -0.857329 -0.997731
v -1.004440 -0.844893 -1.035421
v -0.703556 -0.913200 -0.971972
v -0.853848 -0.945075 -0.898376
v -0.966934 -1.068655 -0.677055
v -1.023479 -1.147713 -0.802599
v -1.178879 -1.142714 -0.745801
v -1.207596 -1.044524 -0.886166
v -1.248905 -0.918563 -0.768515
v -1.114928 -0.839505 -0.844106
v -1.036960 -0.844504 -0.699769
v -0.930810 -0.942693 -0.760539
v 1.013261 -1.068655 0.431423
v 1.119825 -1.147713 0.286898
v 1.234134 -1.142714 0.461765
v 1.323843 -1.044524 0.299771
v 1.307110 -0.918563 0.471790
v 1.221159 -0.839505 0.293292
v 1.086237 -0.844504 0.441448
v 1.017141 -0.942693 0.280419
v 0.744018 -1.055457 -0.963112
v 0.633621 -1.059456 -1.106651
v 0.840662 -1.118011 -1.154173
v 0.904831 -1.142325 -0.977016
v 0.770289 -0.979002 -1.270741
v 0.946385 -0.919884 -1.188792
v 1.055423 -1.042142 -1.114061
v 0.840224 -0.832746 -1.136062
v 0.849742 -0.857329 -0.997731
v 1.004440 -0.844893 -1.035421
v 0.703556 -0.913200 -0.971972
v 0.853848 -0.945075 -0.898376
v -0.902961 -1.068382 -0.838756
v -1.084176 -1.142008 -0.960562
v -1.147049 -0.918836 -0.999638
v -0.965834 -0.845210 -0.877831
v 0.966934 -1.068655 -0.677055
v 1.023479 -1.147713 -0.802599
v 1.178879 -1.142714 -0.745801
v 1.207596 -1.044524 -0.886166
v 1.248905 -0.918563 -0.768515
v 1.114928 -0.839505 -0.844106
v 1.036960 -0.844504 -0.699769
v 0.930810 -0.942693 -0.760539
v 0.902961 -1.068382 -0.838756
v 1.084176 -1.142008 -0.960562
v 1.147049 -0.918836 -0.999638
v 0.965834 -0.845210 -0.877831
v 0.565339 -0.890541 -1.019140
v 0.481007 -0.761299 -1.139843
v 0.584405 -0.917608 -1.249518
v 0.633817 -0.714665 -1.303361
v 0.774311 -0.799752 -1.259754
v 0.779101 -0.655822 -1.144221
v 0.755245 -0.772684 -1.029376
v 0.626291 -0.702457 -0.980702
v 0.481552 -0.596397 -1.023886
v 0.411646 -0.477254 -1.142032
v 0.482236 -0.597507 -1.259779
v 0.559621 -0.423513 -1.304329
v 0.708123 -0.535676 -1.260177
v 0.707596 -0.369772 -1.142032
v 0.707439 -0.534567 -1.024284
v 0.559621 -0.423513 -0.979734
v 0.426916 -0.348075 -1.023997
v 0.353609 -0.304702 -1.142032
v 0.426916 -0.348075 -1.260066
v 0.446572 -0.185973 -1.304329
v 0.611239 -0.225780 -1.260066
v 0.539536 -0.067243 -1.142032
v 0.611239 -0.225780 -1.023997
v 0.446572 -0.185973 -0.979734
v -0.565339 -0.890541 -1.019140
v -0.481007 -0.761299 -1.139843
v -0.584405 -0.917608 -1.249518
v -0.633817 -0.714665 -1.303361
v -0.774311 -0.799752 -1.259754
v -0.779101 -0.655822 -1.144221
v -0.755245 -0.772684 -1.029376
v -0.626291 -0.702457 -0.980702
v -0.481552 -0.596397 -1.023886
v -0.411646 -0.477254 -1.142032
v -0.482236 -0.597507 -1.259779
v -0.559621 -0.423513 -1.304329
v -0.708123 -0.535676 -1.260177
v -0.707596 -0.369772 -1.142032
v -0.707439 -0.534567 -1.024284
v -0.559621 -0.423513 -0.979734
v -0.426916 -0.348075 -1.023997
v -0.353609 -0.304702 -1.142032
v -0.426916 -0.348075 -1.260066
v -0.446572 -0.185973 -1.304329
v -0.611239 -0.225780 -1.260066
v -0.539536 -0.067243 -1.142032
v -0.611239 -0.225780 -1.023997
v -0.446572 -0.185973 -0.979734
v 1.025303 -1.068655 -0.137264
v 1.249254 -1.142714 -0.142125
v 1.123911 -1.147713 0.000000
v 1.323247 -0.918563 -0.143731
v 1.328884 -1.044524 0.000000
v 1.099296 -0.844504 -0.138870
v 1.225719 -0.839505 0.000000
v 1.020746 -0.942693 0.000000
v -1.025303 -1.068655 -0.137264
v -1.249254 -1.142714 -0.142125
v -1.123911 -1.147713 0.000000
v -1.323247 -0.918563 -0.143731
v -1.328884 -1.044524 0.000000
v -1.099296 -0.844504 -0.138870
v -1.225719 -0.839505 0.000000
v -1.020746 -0.942693 0.000000
v 0.565339 -0.890540 1.019140
v 0.584405 -0.917608 1.249518
v 0.481007 -0.761299 1.139843
v 0.774311 -0.799752 1.259754
v 0.633817 -0.714665 1.303361
v 0.755245 -0.772684 1.029376
v 0.779101 -0.655822 1.144221
v 0.626291 -0.702457 0.980702
v 0.481552 -0.596397 1.023886
v 0.482236 -0.597507 1.259779
v 0.411646 -0.477254 1.142031
v 0.708123 -0.535676 1.260177
v 0.559621 -0.423513 1.304329
v 0.707439 -0.534567 1.024284
v 0.707596 -0.369772 1.142032
v 0.559621 -0.423513 0.979734
v 0.426916 -0.348075 1.023997
v 0.426916 -0.348075 1.260066
v 0.353609 -0.304702 1.142031
v 0.611239 -0.225780 1.260066
v 0.446572 -0.185973 1.304329
v 0.611239 -0.225780 1.023997
v 0.539536 -0.067243 1.142032
v 0.446572 -0.185973 0.979734
v -0.565339 -0.890540 1.019140
v -0.584405 -0.917608 1.249518
v -0.481007 -0.761299 1.139843
v -0.774311 -0.799752 1.259754
v -0.633817 -0.714665 1.303361
v -0.755245 -0.772684 1.029376
v -0.779101 -0.655822 1.144221
v -0.626291 -0.702457 0.980702
v -0.481552 -0.596397 1.023886
v -0.482236 -0.597507 1.259779
v -0.411646 -0.477254 1.142031
v -0.708123 -0.535676 1.260177
v -0.559621 -0.423513 1.304329
v -0.707439 -0.534567 1.024284
v -0.707596 -0.369772 1.142032
v -0.559621 -0.423513 0.979734
v -0.426916 -0.348075 1.023997
v -0.426916 -0.348075 1.260066
v -0.353609 -0.304702 1.142031
v -0.611239 -0.225780 1.260066
v -0.446572 -0.185973 1.304329
v -0.611239 -0.225780 1.023997
v -0.539536 -0.067243 1.142032
v -0.446572 -0.185973 0.979734
v 0.283543 -0.248542 1.023997
v 0.283543 -0.248542 1.260066
v 0.146387 -0.295011 1.142031
v 0.358053 -0.040264 1.260066
v 0.163063 -0.138465 1.304329
v 0.358053 -0.040264 1.023997
v 0.179738 0.018081 1.142032
v 0.163063 -0.138465 0.979734
v 0.000000 -0.255454 1.023997
v 0.000000 -0.255454 1.260066
v -0.283543 -0.248542 1.023997
v 0.000000 -0.021476 1.260066
v -0.283543 -0.248542 1.260066
v 0.000000 -0.021476 1.023997
v -0.146387 -0.295011 1.142031
v -0.358053 -0.040264 1.260066
v -0.163063 -0.138465 1.304329
v -0.358053 -0.040264 1.023997
v -0.179738 0.018081 1.142032
v -0.163063 -0.138465 0.979734
v -0.146387 -0.295011 -1.142032
v 0.000000 -0.255454 -1.023997
v 0.000000 -0.255454 -1.260066
v 0.146387 -0.295011 -1.142032
v 0.000000 -0.021476 -1.260066
v 0.163063 -0.138465 -1.304329
v 0.000000 -0.021476 -1.023997
v 0.179738 0.018081 -1.142032
v 0.163063 -0.138465 -0.979734
v 0.283543 -0.248542 -1.023997
v 0.283543 -0.248542 -1.260066
v 0.358053 -0.040264 -1.260066
v 0.358053 -0.040264 -1.023997
v 1.025303 -1.068655 0.137264
v 1.249254 -1.142714 0.142125
v 1.323247 -0.918563 0.143731
v 1.099296 -0.844504 0.138870
v 1.101083 -0.993609 -0.118307
v 0.504731 -1.111916 0.000000
v 1.101083 -0.875302 0.000000
v 0.504731 -0.993609 0.118307
v 1.101083 -0.993609 0.118307
v 0.504731 -0.875302 0.000000
v 0.504731 -0.993609 -0.118307
v 1.101083 -1.111916 0.000000
v 0.772517 -1.123883 1.052151
v 0.911644 -1.030677 1.207307
v 0.917886 -0.851457 1.099753
v 0.778759 -0.944664 0.944597
v -0.163063 -0.138465 -1.304329
v -0.179738 0.018081 -1.142032
v -0.163063 -0.138465 -0.979734
v -0.283543 -0.248542 -1.023997
v -0.283543 -0.248542 -1.260066
v -0.358053 -0.040264 -1.260066
v -0.358053 -0.040264 -1.023997
v -1.025303 -1.068655 0.137264
v -1.249254 -1.142714 0.142125
v -1.323247 -0.918563 0.143731
v -1.099296 -0.844504 0.138870
v -1.101083 -0.993609 -0.118307
v -0.504731 -1.111916 0.000000
v -1.101083 -0.875302 0.000000
v -0.504731 -0.993609 0.118307
v 1.059777 -1.147713 0.707170
v 1.253632 -1.044524 0.770048
v 1.156062 -0.839505 0.738401
v 0.962207 -0.942693 0.675522
v 0.981779 -1.147039 0.892332
v 1.149590 -1.044227 1.002939
v 1.068231 -0.840178 0.946061
v 0.900420 -0.942991 0.835455
v 1.110015 -1.147713 -0.444714
v 1.312036 -1.044524 -0.472467
v 1.210356 -0.839505 -0.458499
v 1.008335 -0.942693 -0.430746
v -1.101083 -0.993609 0.118307
v -0.504731 -0.875302 0.000000
v -0.504731 -0.993609 -0.118307
v -1.101083 -1.111916 0.000000
v -0.772517 -1.123883 1.052151
v -0.911644 -1.030677 1.207307
v -0.917886 -0.851457 1.099753
v -0.778759 -0.944664 0.944597
v -1.059777 -1.147713 0.707170
v -1.253632 -1.044524 0.770048
v -1.156062 -0.839505 0.738401
v -0.962207 -0.942693 0.675522
v -0.981779 -1.147039 0.892332
v -1.149590 -1.044227 1.002939
v -1.068231 -0.840178 0.946061
v -0.900420 -0.942991 0.835455
v 1.110015 -1.147713 0.444714
v 1.312036 -1.044524 0.472467
v 1.210356 -0.839505 0.458499
v 1.008335 -0.942693 0.430746
v 0.772517 -1.123883 -1.052151
v 0.911644 -1.030676 -1.207307
v 0.917886 -0.851457 -1.099753
v 0.778759 -0.944664 -0.944597
v -1.110015 -1.147713 -0.444714
v -1.312036 -1.044524 -0.472467
v -1.210356 -0.839505 -0.458499
v -1.008335 -0.942693 -0.430746
v 1.059777 -1.147713 -0.707170
v 1.253632 -1.044524 -0.770048
v 1.156063 -0.839505 -0.738401
v 0.962207 -0.942693 -0.675522
v 0.981779 -1.147039 -0.892332
v 1.149590 -1.044227 -1.002939
v 1.068231 -0.840178 -0.946061
v 0.900420 -0.942991 -0.835455
v 0.539265 -0.926172 -1.132410
v 0.682933 -0.863755 -1.297832
v 0.800385 -0.764120 -1.146484
v 0.656717 -0.826537 -0.981062
v 0.439541 -0.608546 -1.141758
v 0.595308 -0.566800 -1.304208
v 0.750135 -0.523528 -1.142305
v 0.594367 -0.565274 -0.979855
v 0.392355 -0.371006 -1.142032
v 0.519077 -0.286927 -1.304329
v 0.645800 -0.202849 -1.142032
v 0.519077 -0.286927 -0.979734
v -1.110015 -1.147713 0.444714
v -1.312036 -1.044524 0.472467
v -1.210356 -0.839505 0.458499
v -1.008335 -0.942693 0.430746
v -0.772517 -1.123883 -1.052151
v -0.911644 -1.030676 -1.207307
v -0.917886 -0.851457 -1.099753
v -0.778759 -0.944664 -0.944597
v -1.059777 -1.147713 -0.707170
v -1.253632 -1.044524 -0.770048
v -1.156063 -0.839505 -0.738401
v -0.962207 -0.942693 -0.675522
v 1.123405 -1.147713 -0.139394
v 1.328241 -1.044524 -0.143840
v 1.225145 -0.839505 -0.141602
v 1.020308 -0.942693 -0.137156
v -0.981779 -1.147039 -0.892332
v -1.149590 -1.044227 -1.002939
v -1.068231 -0.840178 -0.946061
v -0.900420 -0.942991 -0.835455
v 0.539265 -0.926173 1.132410
v 0.682933 -0.863755 1.297832
v 0.800385 -0.764120 1.146484
v 0.656717 -0.826537 0.981062
v 0.439541 -0.608546 1.141758
v 0.595308 -0.566800 1.304208
v 0.750135 -0.523528 1.142305
v 0.594367 -0.565274 0.979855
v 0.392355 -0.371006 1.142032
v 0.519077 -0.286927 1.304329
v 0.645800 -0.202849 1.142031
v 0.519077 -0.286927 0.979734
v -0.539265 -0.926172 -1.132410
v -0.682933 -0.863755 -1.297832
v -0.800385 -0.764120 -1.146484
v -0.656717 -0.826537 -0.981062
v -0.439541 -0.608546 -1.141758
v -0.595308 -0.566800 -1.304208
v -0.750135 -0.523528 -1.142305
v -0.594367 -0.565274 -0.979855
v -0.392355 -0.371006 -1.142032
v -0.519077 -0.286927 -1.304329
v -0.645800 -0.202849 -1.142032
v -0.519077 -0.286927 -0.979734
v 0.269573 -0.287595 1.142032
v 0.320798 -0.144403 1.304329
v 0.372024 -0.001212 1.142031
v 0.320798 -0.144403 0.979734
v 0.000000 -0.299325 1.142032
v 0.000000 -0.138465 1.304329
v 0.000000 0.022395 1.142031
v 0.000000 -0.138465 0.979734
v -1.123405 -1.147713 -0.139394
v -1.328241 -1.044524 -0.143840
v -1.225145 -0.839505 -0.141602
v -1.020308 -0.942693 -0.137156
v -0.539265 -0.926173 1.132410
v -0.682933 -0.863755 1.297832
v -0.800385 -0.764120 1.146484
v -0.656717 -0.826537 0.981062
v 0.000000 -0.299325 -1.142032
v 0.000000 -0.138465 -1.304329
v 0.000000 0.022395 -1.142032
v 0.000000 -0.138465 -0.979734
v 0.269573 -0.287595 -1.142032
v 0.320798 -0.144403 -1.304329
v 0.372024 -0.001212 -1.142032
v 0.320798 -0.144403 -0.979734
v 1.123405 -1.147713 0.139394
v 1.328241 -1.044524 0.143840
v 1.225145 -0.839505 0.141602
v 1.020308 -0.942693 0.137156
v 1.101083 -0.907568 -0.086041
v 1.101083 -0.907568 0.086041
v 1.101083 -1.079650 0.086041
v 1.101083 -1.079650 -0.086041
v -0.439541 -0.608546 1.141758
v -0.595308 -0.566800 1.304208
v -0.750135 -0.523528 1.142305
v -0.594367 -0.565274 0.979855
v -0.392355 -0.371006 1.142032
v -0.519077 -0.286927 1.304329
v -0.645800 -0.202849 1.142031
v -0.519077 -0.286927 0.979734
v -0.269573 -0.287595 1.142032
v -0.320798 -0.144403 1.304329
v -0.372024 -0.001212 1.142031
v -0.320798 -0.144403 0.979734
v -0.269573 -0.287595 -1.142032
v -0.320798 -0.144403 -1.304329
v -0.372024 -0.001212 -1.142032
v -0.320798 -0.144403 -0.979734
v -1.123405 -1.147713 0.139394
v -1.328241 -1.044524 0.143840
v -1.225145 -0.839505 0.141602
v -1.020308 -0.942693 0.137156
v -1.101083 -0.907568 -0.086041
v -1.101083 -0.907568 0.086041
v -1.101083 -1.079650 0.086041
v -1.101083 -1.079650 -0.086041
vn -0.3852 -0.5343 -0.7525
vn -0.3852 -0.5343 0.7525
vn 0.4475 0.6021 0.6612
vn 0.4475 0.6021 -0.6612
vn 0.3852 -0.5343 -0.7525
vn 0.3852 -0.5343 0.7525
vn -0.4475 0.6021 0.6612
vn -0.4475 0.6021 -0.6612
vn 0.5974 -0.4283 -0.6780
vn 0.3395 -0.7102 0.6167
vn -0.5452 0.3070 0.7800
vn -0.3378 0.6523 -0.6785
vn 0.5930 -0.4625 -0.6592
vn -0.2548 -0.8827 0.3948
vn -0.6179 0.4154 0.6675
vn 0.3153 0.9171 -0.2438
vn 0.8737 -0.4553 -0.1714
vn -0.4547 -0.8859 0.0914
vn -0.8792 0.4420 0.1778
vn 0.4288 0.8994 -0.0848
vn 0.8920 -0.4506 -0.0365
vn -0.4540 -0.8907 0.0214
vn -0.8937 0.4466 0.0427
vn 0.4461 0.8948 -0.0186
vn 0.5974 -0.4283 0.6780
vn 0.3395 -0.7102 -0.6167
vn -0.5452 0.3070 -0.7800
vn -0.3378 0.6523 0.6785
vn 0.5930 -0.4625 0.6592
vn -0.2548 -0.8827 -0.3948
vn -0.6179 0.4154 -0.6675
vn 0.3153 0.9171 0.2438
vn 0.8737 -0.4553 0.1714
vn -0.4547 -0.8859 -0.0914
vn -0.8792 0.4420 -0.1778
vn 0.4288 0.8994 0.0848
vn 0.8920 -0.4506 0.0365
vn -0.4540 -0.8907 -0.0214
vn -0.8937 0.4466 -0.0427
vn 0.4461 0.8948 0.0186
vn -0.5974 -0.4283 -0.6780
vn -0.3395 -0.7102 0.6167
vn 0.5452 0.3070 0.7800
vn 0.3378 0.6523 -0.6785
vn -0.5930 -0.4625 -0.6592
vn 0.2548 -0.8827 0.3948
vn 0.6179 0.4154 0.6675
vn -0.3153 0.9171 -0.2438
vn -0.8737 -0.4553 -0.1714
vn 0.4547 -0.8859 0.0914
vn 0.8792 0.4420 0.1778
vn -0.4288 0.8994 -0.0848
vn -0.8920 -0.4506 -0.0365
vn 0.4540 -0.8907 0.0214
vn 0.8937 0.4466 0.0427
vn -0.4461 0.8948 -0.0186
vn -0.5974 -0.4283 0.6780
vn -0.3395 -0.7102 -0.6167
vn 0.5452 0.3070 -0.7800
vn 0.3378 0.6523 0.6785
vn -0.5930 -0.4625 0.6592
vn 0.2548 -0.8827 -0.3948
vn 0.6179 0.4154 -0.6675
vn -0.3153 0.9171 0.2438
vn -0.8737 -0.4553 0.1714
vn 0.4547 -0.8859 -0.0914
vn 0.8792 0.4420 -0.1778
vn -0.4288 0.8994 0.0848
vn -0.8920 -0.4506 0.0365
vn 0.4540 -0.8907 -0.0214
vn 0.8937 0.4466 -0.0427
vn -0.4461 0.8948 0.0186
vn -0.8931 -0.4498 -0.0000
vn 0.4506 -0.8927 -0.0000
vn 0.8935 0.4490 -0.0000
vn -0.4490 0.8936 -0.0000
vn 0.8931 -0.4498 -0.0000
vn -0.4506 -0.8927 -0.0000
vn -0.8935 0.4490 -0.0000
vn 0.4490 0.8936 -0.0000
vn -0.8313 -0.4468 -0.3306
vn 0.4206 -0.8874 0.1887
vn 0.8216 0.4408 0.3614
vn -0.4187 0.8935 -0.1626
vn 0.8313 -0.4468 -0.3306
vn -0.4206 -0.8874 0.1887
vn -0.8216 0.4408 0.3614
vn 0.4187 0.8935 -0.1626
vn 0.8313 -0.4468 0.3306
vn -0.4206 -0.8874 -0.1887
vn -0.8216 0.4408 -0.3614
vn 0.4187 0.8935 0.1626
vn -0.8313 -0.4468 0.3306
vn 0.4206 -0.8874 -0.1887
vn 0.8216 0.4408 -0.3614
vn -0.4187 0.8935 0.1626
vn -0.6923 -0.1925 0.6955
vn -0.6780 -0.2312 -0.6977
vn 0.6948 0.1637 -0.7003
vn 0.7030 0.1363 0.6980
vn -0.7027 -0.1539 0.6947
vn -0.7023 -0.1553 -0.6947
vn 0.6890 0.2142 -0.6924
vn 0.6894 0.2131 0.6924
vn 0.6923 -0.1925 0.6955
vn 0.6780 -0.2312 -0.6977
vn -0.6948 0.1637 -0.7003
vn -0.7030 0.1363 0.6980
vn 0.7027 -0.1539 0.6947
vn 0.7023 -0.1553 -0.6947
vn -0.6890 0.2142 -0.6924
vn -0.6894 0.2131 0.6924
vn -0.6923 -0.1925 -0.6955
vn -0.6780 -0.2312 0.6977
vn 0.6948 0.1637 0.7003
vn 0.7030 0.1363 -0.6980
vn -0.7027 -0.1539 -0.6947
vn -0.7023 -0.1553 0.6947
vn 0.6890 0.2142 0.6924
vn 0.6894 0.2131 -0.6924
vn 0.6923 -0.1925 -0.6955
vn 0.6780 -0.2312 0.6977
vn -0.6948 0.1637 0.7003
vn -0.7030 0.1363 -0.6980
vn 0.7027 -0.1539 -0.6947
vn 0.7023 -0.1553 0.6947
vn -0.6890 0.2142 0.6924
vn -0.6894 0.2131 -0.6924
vn 0.0183 -0.7195 -0.6942
vn 0.0183 -0.7195 0.6942
vn 0.0371 0.7204 0.6926
vn 0.0371 0.7204 -0.6926
vn -0.0183 -0.7195 -0.6942
vn -0.0183 -0.7195 0.6942
vn -0.0371 0.7204 0.6926
vn -0.0371 0.7204 -0.6926
vn -0.0000 -0.7071 -0.7071
vn -0.0000 -0.7071 0.7071
vn -0.0000 0.7071 0.7071
vn -0.0000 0.7071 -0.7071
vn -0.4877 -0.4830 -0.7273
vn -0.2314 -0.9586 -0.1660
vn 0.0193 -0.8683 0.4956
vn -0.6444 -0.7645 -0.0185
vn 0.6108 -0.3391 0.7155
vn 0.5001 0.3997 0.7682
vn 0.1389 -0.2970 0.9447
vn 0.2134 0.9389 0.2700
vn -0.1248 0.8998 -0.4181
vn 0.6363 0.7651 0.0990
vn -0.6408 0.3602 -0.6780
vn -0.1701 0.1505 -0.9739
vn 0.4877 -0.4830 -0.7273
vn 0.2314 -0.9586 -0.1660
vn -0.0193 -0.8683 0.4956
vn 0.6444 -0.7645 -0.0185
vn -0.6108 -0.3391 0.7155
vn -0.5001 0.3997 0.7682
vn -0.1389 -0.2970 0.9447
vn -0.2134 0.9389 0.2700
vn 0.1248 0.8998 -0.4181
vn -0.6363 0.7651 0.0990
vn 0.6408 0.3602 -0.6780
vn 0.1701 0.1505 -0.9739
vn 0.8498 -0.4528 -0.2697
vn 0.2960 -0.9534 -0.0587
vn -0.4396 -0.8864 0.1449
vn 0.2884 -0.9506 -0.1151
vn -0.9323 -0.3086 0.1886
vn -0.8518 0.4419 0.2814
vn -0.8691 -0.3097 0.3858
vn -0.3210 0.9449 0.0644
vn 0.4198 0.8977 -0.1338
vn -0.2953 0.9464 0.1307
vn 0.9307 0.3170 -0.1825
vn 0.8844 0.3129 -0.3464
vn 0.7638 -0.4556 -0.4571
vn -0.3848 -0.8808 0.2761
vn -0.7625 0.4277 0.4854
vn 0.3852 0.9039 -0.1863
vn 0.8881 -0.4519 0.0839
vn 0.2960 -0.9534 0.0587
vn -0.4558 -0.8889 -0.0462
vn 0.3104 -0.9505 0.0130
vn -0.9323 -0.3086 -0.1886
vn -0.8910 0.4446 -0.0915
vn -0.9491 -0.3116 -0.0455
vn -0.3210 0.9449 -0.0644
vn -0.8498 -0.4528 -0.2697
vn -0.2960 -0.9534 -0.0587
vn 0.4396 -0.8864 0.1449
vn -0.2884 -0.9506 -0.1151
vn 0.9323 -0.3086 0.1886
vn 0.8518 0.4419 0.2814
vn 0.8691 -0.3097 0.3858
vn 0.3210 0.9449 0.0644
vn -0.4198 0.8977 -0.1338
vn 0.2953 0.9464 0.1307
vn -0.9307 0.3170 -0.1825
vn -0.8844 0.3129 -0.3464
vn -0.7638 -0.4556 -0.4571
vn 0.3848 -0.8808 0.2761
vn 0.7625 0.4277 0.4854
vn -0.3852 0.9039 -0.1863
vn -0.8881 -0.4519 0.0839
vn -0.2960 -0.9534 0.0587
vn 0.4558 -0.8889 -0.0462
vn -0.3104 -0.9505 0.0130
vn 0.9323 -0.3086 -0.1886
vn 0.8910 0.4446 -0.0915
vn 0.9491 -0.3116 -0.0455
vn 0.3210 0.9449 -0.0644
vn -0.4415 0.8962 0.0424
vn 0.3180 0.9480 -0.0150
vn -0.9307 0.3170 0.1825
vn -0.9486 0.3141 0.0387
vn 0.4415 0.8962 0.0424
vn -0.3180 0.9480 -0.0150
vn 0.9307 0.3170 0.1825
vn 0.9486 0.3141 0.0387
vn 0.8881 -0.4519 -0.0839
vn 0.3104 -0.9505 -0.0130
vn -0.4558 -0.8889 0.0462
vn -0.9491 -0.3116 0.0455
vn -0.8910 0.4446 0.0915
vn -0.3180 0.9480 0.0150
vn 0.4415 0.8962 -0.0424
vn 0.9486 0.3141 -0.0387
vn 0.4877 -0.4830 0.7273
vn 0.6444 -0.7645 0.0185
vn -0.0193 -0.8683 -0.4956
vn 0.2314 -0.9586 0.1660
vn -0.1389 -0.2970 -0.9447
vn -0.5001 0.3997 -0.7682
vn -0.6108 -0.3391 -0.7155
vn -0.6363 0.7651 -0.0990
vn 0.1248 0.8998 0.4181
vn -0.2134 0.9389 -0.2700
vn 0.1701 0.1505 0.9739
vn 0.6408 0.3602 0.6780
vn 0.8498 -0.4528 0.2697
vn 0.2884 -0.9506 0.1151
vn -0.4396 -0.8864 -0.1449
vn -0.8691 -0.3097 -0.3858
vn -0.8518 0.4419 -0.2814
vn -0.2953 0.9464 -0.1307
vn 0.4198 0.8977 0.1338
vn 0.8844 0.3129 0.3464
vn -0.8881 -0.4519 -0.0839
vn -0.3104 -0.9505 -0.0130
vn 0.4558 -0.8889 0.0462
vn 0.9491 -0.3116 0.0455
vn 0.8910 0.4446 0.0915
vn 0.3180 0.9480 0.0150
vn -0.4415 0.8962 -0.0424
vn -0.9486 0.3141 -0.0387
vn -0.4877 -0.4830 0.7273
vn -0.6444 -0.7645 0.0185
vn 0.0193 -0.8683 -0.4956
vn -0.2314 -0.9586 0.1660
vn 0.1389 -0.2970 -0.9447
vn 0.5001 0.3997 -0.7682
vn 0.6108 -0.3391 -0.7155
vn 0.6363 0.7651 -0.0990
vn -0.1248 0.8998 0.4181
vn 0.2134 0.9389 -0.2700
vn -0.1701 0.1505 0.9739
vn -0.6408 0.3602 0.6780
vn 0.7638 -0.4556 0.4571
vn -0.3848 -0.8808 -0.2761
vn -0.7625 0.4277 -0.4854
vn 0.3852 0.9039 0.1863
vn -0.8498 -0.4528 0.2697
vn -0.2884 -0.9506 0.1151
vn 0.4396 -0.8864 -0.1449
vn 0.8691 -0.3097 -0.3858
vn 0.8518 0.4419 -0.2814
vn 0.2953 0.9464 -0.1307
vn -0.4198 0.8977 0.1338
vn -0.8844 0.3129 0.3464
vn -0.7638 -0.4556 0.4571
vn 0.3848 -0.8808 -0.2761
vn 0.7625 0.4277 -0.4854
vn -0.3852 0.9039 0.1863
vn -0.6868 -0.2704 0.6746
vn -0.9554 -0.2951 -0.0156
vn -0.6048 -0.4090 -0.6833
vn -0.0109 -0.0283 -0.9995
vn 0.6481 0.2172 -0.7299
vn 0.9776 0.2097 0.0164
vn 0.6566 0.2535 0.7104
vn 0.0161 -0.0075 0.9998
vn -0.6945 -0.1656 0.7001
vn -0.9787 -0.2051 -0.0006
vn -0.6920 -0.1752 -0.7003
vn 0.0013 0.0080 -1.0000
vn 0.6919 0.1753 -0.7004
vn 0.9532 0.3023 0.0005
vn 0.6946 0.1645 0.7003
vn 0.0023 0.0082 1.0000
vn -0.6484 -0.2664 0.7132
vn -0.5809 -0.8140 -0.0000
vn -0.6484 -0.2664 -0.7132
vn 0.0432 0.0603 -0.9972
vn 0.6503 0.3537 -0.6723
vn 0.5983 0.8013 -0.0000
vn 0.6503 0.3537 0.6723
vn 0.0432 0.0603 0.9972
vn 0.6868 -0.2704 0.6746
vn 0.9554 -0.2951 -0.0156
vn 0.6048 -0.4090 -0.6833
vn 0.0109 -0.0283 -0.9995
vn -0.6481 0.2172 -0.7299
vn -0.9776 0.2097 0.0164
vn -0.6566 0.2535 0.7104
vn -0.0161 -0.0075 0.9998
vn 0.6945 -0.1656 0.7001
vn 0.9787 -0.2051 -0.0006
vn 0.6920 -0.1752 -0.7003
vn -0.0013 0.0080 -1.0000
vn -0.6919 0.1753 -0.7004
vn -0.9532 0.3023 0.0005
vn -0.6946 0.1645 0.7003
vn -0.0023 0.0082 1.0000
vn 0.6484 -0.2664 0.7132
vn 0.5809 -0.8140 -0.0000
vn 0.6484 -0.2664 -0.7132
vn -0.0432 0.0603 -0.9972
vn -0.6503 0.3537 -0.6723
vn -0.5983 0.8013 -0.0000
vn -0.6503 0.3537 0.6723
vn -0.0432 0.0603 0.9972
vn -0.8928 -0.4503 0.0115
vn 0.4522 -0.8919 -0.0072
vn -0.3131 -0.9497 -0.0000
vn 0.8939 0.4480 -0.0144
vn 0.9497 -0.3133 -0.0000
vn -0.4477 0.8942 0.0059
vn 0.3146 0.9492 -0.0000
vn -0.9495 0.3138 -0.0000
vn 0.8928 -0.4503 0.0115
vn -0.4522 -0.8919 -0.0072
vn 0.3131 -0.9497 -0.0000
vn -0.8939 0.4480 -0.0144
vn -0.9497 -0.3133 -0.0000
vn 0.4477 0.8942 0.0059
vn -0.3146 0.9492 -0.0000
vn 0.9495 0.3138 -0.0000
vn -0.6868 -0.2704 -0.6746
vn -0.6048 -0.4090 0.6833
vn -0.9554 -0.2951 0.0156
vn 0.6481 0.2172 0.7299
vn -0.0109 -0.0283 0.9995
vn 0.6566 0.2535 -0.7104
vn 0.9776 0.2097 -0.0164
vn 0.0161 -0.0075 -0.9998
vn -0.6945 -0.1656 -0.7002
vn -0.6920 -0.1752 0.7003
vn -0.9787 -0.2051 0.0006
vn 0.6919 0.1753 0.7004
vn 0.0013 0.0080 1.0000
vn 0.6946 0.1645 -0.7003
vn 0.9532 0.3023 -0.0005
vn 0.0023 0.0082 -1.0000
vn 0.6868 -0.2704 -0.6746
vn 0.6048 -0.4090 0.6833
vn 0.9554 -0.2951 0.0156
vn -0.6481 0.2172 0.7299
vn 0.0109 -0.0283 0.9995
vn -0.6566 0.2535 -0.7104
vn -0.9776 0.2097 -0.0164
vn -0.0161 -0.0075 -0.9998
vn 0.6945 -0.1656 -0.7002
vn 0.6920 -0.1752 0.7003
vn 0.9787 -0.2051 0.0006
vn -0.6919 0.1753 0.7004
vn -0.0013 0.0080 1.0000
vn -0.6946 0.1645 -0.7003
vn -0.9532 0.3023 -0.0005
vn -0.0023 0.0082 -1.0000
vn -0.0762 -0.7055 -0.7047
vn -0.0762 -0.7055 0.7047
vn 0.0341 -0.9994 -0.0000
vn 0.1650 0.7210 0.6730
vn 0.0071 0.0028 1.0000
vn 0.1650 0.7210 -0.6730
vn 0.0573 0.9984 -0.0000
vn 0.0071 0.0028 -1.0000
vn -0.0000 -0.7152 -0.6989
vn -0.0000 -0.7152 0.6989
vn 0.0762 -0.7055 -0.7047
vn -0.0000 0.7144 0.6997
vn 0.0762 -0.7055 0.7047
vn -0.0000 0.7144 -0.6997
vn -0.0341 -0.9994 -0.0000
vn -0.1650 0.7210 0.6730
vn -0.0071 0.0028 1.0000
vn -0.1650 0.7210 -0.6730
vn -0.0573 0.9984 -0.0000
vn -0.0071 0.0028 -1.0000
vn -0.8928 -0.4503 -0.0115
vn 0.4522 -0.8919 0.0072
vn 0.8939 0.4480 0.0144
vn -0.4477 0.8942 -0.0059
vn -0.0000 -0.0000 -1.0000
vn -0.0000 -1.0000 -0.0000
vn -0.0000 1.0000 -0.0000
vn -0.0000 -0.0000 1.0000
vn -0.3369 -0.9326 -0.1291
vn 0.3798 -0.3567 0.8535
vn 0.2442 0.9386 0.2437
vn -0.3763 0.3000 -0.8766
vn 0.8928 -0.4503 -0.0115
vn -0.4522 -0.8919 0.0072
vn -0.8939 0.4480 0.0144
vn 0.4477 0.8942 -0.0059
vn -0.2904 -0.9524 -0.0927
vn 0.9032 -0.3084 0.2985
vn 0.3099 0.9453 0.1022
vn -0.9046 0.3152 -0.2868
vn -0.2519 -0.9579 -0.1376
vn 0.7918 -0.3178 0.5217
vn 0.2760 0.9422 0.1898
vn -0.8228 0.3349 -0.4591
vn -0.3065 -0.9514 0.0295
vn 0.9457 -0.3102 -0.0972
vn 0.3203 0.9468 -0.0324
vn -0.9450 0.3148 0.0891
vn 0.3369 -0.9326 -0.1291
vn -0.3798 -0.3567 0.8535
vn -0.2442 0.9386 0.2437
vn 0.3762 0.3000 -0.8766
vn 0.2904 -0.9524 -0.0927
vn -0.9032 -0.3084 0.2985
vn -0.3099 0.9453 0.1022
vn 0.9046 0.3152 -0.2868
vn 0.2519 -0.9579 -0.1376
vn -0.7918 -0.3178 0.5217
vn -0.2760 0.9422 0.1898
vn 0.8228 0.3349 -0.4591
vn -0.3065 -0.9514 -0.0295
vn 0.9457 -0.3102 0.0972
vn 0.3203 0.9468 0.0324
vn -0.9450 0.3148 -0.0891
vn -0.3369 -0.9326 0.1291
vn 0.3798 -0.3567 -0.8535
vn 0.2442 0.9386 -0.2437
vn -0.3763 0.3000 0.8766
vn 0.3065 -0.9514 0.0295
vn -0.9457 -0.3102 -0.0972
vn -0.3203 0.9468 -0.0324
vn 0.9450 0.3148 0.0891
vn -0.2904 -0.9524 0.0927
vn 0.9032 -0.3084 -0.2985
vn 0.3099 0.9453 -0.1022
vn -0.9046 0.3152 0.2868
vn -0.2519 -0.9579 0.1376
vn 0.7918 -0.3178 -0.5217
vn 0.2760 0.9422 -0.1898
vn -0.8228 0.3349 0.4591
vn -0.8862 -0.4623 -0.0303
vn -0.0021 -0.1259 -0.9920
vn 0.9355 0.3530 0.0149
vn -0.0192 0.0395 0.9990
vn -0.9716 -0.2365 -0.0042
vn -0.0037 -0.0032 -1.0000
vn 0.9707 0.2401 0.0046
vn 0.0052 -0.0017 1.0000
vn -0.9341 -0.3571 -0.0000
vn 0.0320 0.0214 -0.9993
vn 0.8744 0.4852 -0.0000
vn 0.0320 0.0214 0.9993
vn 0.3065 -0.9514 -0.0295
vn -0.9457 -0.3102 0.0972
vn -0.3203 0.9468 0.0324
vn 0.9450 0.3148 -0.0891
vn 0.3369 -0.9326 0.1291
vn -0.3798 -0.3567 -0.8535
vn -0.2442 0.9386 -0.2437
vn 0.3763 0.3000 0.8766
vn 0.2904 -0.9524 0.0927
vn -0.9032 -0.3084 -0.2985
vn -0.3099 0.9453 -0.1022
vn 0.9046 0.3152 0.2868
vn -0.3119 -0.9501 0.0041
vn 0.9497 -0.3127 -0.0153
vn 0.3162 0.9487 -0.0050
vn -0.9493 0.3141 0.0122
vn 0.2519 -0.9579 0.1376
vn -0.7918 -0.3178 -0.5217
vn -0.2760 0.9422 -0.1898
vn 0.8228 0.3349 0.4591
vn -0.8862 -0.4623 0.0303
vn -0.0021 -0.1259 0.9920
vn 0.9355 0.3530 -0.0149
vn -0.0192 0.0395 -0.9990
vn -0.9716 -0.2365 0.0042
vn -0.0037 -0.0032 1.0000
vn 0.9707 0.2401 -0.0046
vn 0.0052 -0.0017 -1.0000
vn 0.8862 -0.4623 -0.0303
vn 0.0021 -0.1259 -0.9920
vn -0.9355 0.3530 0.0149
vn 0.0192 0.0395 0.9990
vn 0.9716 -0.2365 -0.0042
vn 0.0037 -0.0032 -1.0000
vn -0.9707 0.2401 0.0046
vn -0.0052 -0.0017 1.0000
vn 0.9341 -0.3571 -0.0000
vn -0.0320 0.0214 -0.9993
vn -0.8744 0.4852 -0.0000
vn -0.0320 0.0214 0.9993
vn -0.0828 -0.9966 -0.0000
vn 0.0112 0.0297 0.9995
vn 0.2325 0.9726 -0.0000
vn 0.0112 0.0297 -0.9995
vn -0.0000 -0.0002 1.0000
vn -0.0000 -0.0002 -1.0000
vn 0.3119 -0.9501 0.0041
vn -0.9497 -0.3127 -0.0153
vn -0.3162 0.9487 -0.0050
vn 0.9493 0.3141 0.0122
vn 0.8862 -0.4623 0.0303
vn 0.0021 -0.1259 0.9920
vn -0.9355 0.3530 -0.0149
vn 0.0192 0.0395 -0.9990
vn -0.3119 -0.9501 -0.0041
vn 0.9497 -0.3127 0.0153
vn 0.3162 0.9487 0.0050
vn -0.9493 0.3141 -0.0122
vn 0.9716 -0.2365 0.0042
vn 0.0037 -0.0032 1.0000
vn -0.9707 0.2401 -0.0046
vn -0.0052 -0.0017 -1.0000
vn 0.0828 -0.9966 -0.0000
vn -0.0112 0.0297 0.9995
vn -0.2325 0.9726 -0.0000
vn -0.0112 0.0297 -0.9995
vn 0.3119 -0.9501 -0.0041
vn -0.9497 -0.3127 0.0153
vn -0.3162 0.9487 0.0050
vn 0.9493 0.3141 -0.0122
s 1
f 45//45 158//142 462//409 157//141
f 158//142 46//46 159//143 462//409
f 462//409 159//143 42//42 160//144
f 157//141 462//409 160//144 41//41
f 46//46 161//145 463//410 159//143
f 161//145 47//47 162//146 463//410
f 463//410 162//146 43//43 163//147
f 159//143 463//410 163//147 42//42
f 47//47 164//148 464//411 162//146
f 164//148 48//48 165//149 464//411
f 464//411 165//149 44//44 166//150
f 162//146 464//411 166//150 43//43
f 48//48 167//151 465//412 165//149
f 167//151 45//45 157//141 465//412
f 465//412 157//141 41//41 168//152
f 165//149 465//412 168//152 44//44
f 501//433 188//168 94//86 187//167
f 185//165 93//85 188//168 501//433
f 186//166 501//433 187//167 18//18
f 17//17 185//165 501//433 186//166
f 502//434 191//171 95//87 190//170
f 187//167 94//86 191//171 502//434
f 189//169 502//434 190//170 19//19
f 18//18 187//167 502//434 189//169
f 503//435 194//174 96//88 193//173
f 190//170 95//87 194//174 503//435
f 192//172 503//435 193//173 20//20
f 19//19 190//170 503//435 192//172
f 504//436 196//176 93//85 185//165
f 193//173 96//88 196//176 504//436
f 195//175 504//436 185//165 17//17
f 20//20 193//173 504//436 195//175
f 505//437 174//154 14//14 198//178
f 197//177 13//13 174//154 505//437
f 188//168 505//437 198//178 94//86
f 93//85 197//177 505//437 188//168
f 506//438 177//157 15//15 199//179
f 198//178 14//14 177//157 506//438
f 191//171 506//438 199//179 95//87
f 94//86 198//178 506//438 191//171
f 507//439 180//160 16//16 200//180
f 199//179 15//15 180//160 507//439
f 194//174 507//439 200//180 96//88
f 95//87 199//179 507//439 194//174
f 508//440 183//163 13//13 197//177
f 200//180 16//16 183//163 508//440
f 196//176 508//440 197//177 93//85
f 96//88 200//180 508//440 196//176
f 517//449 204//184 38//38 203//183
f 201//181 37//37 204//184 517//449
f 202//182 517//449 203//183 34//34
f 33//33 201//181 517//449 202//182
f 518//450 207//187 39//39 206//186
f 203//183 38//38 207//187 518//450
f 205//185 518//450 206//186 35//35
f 34//34 203//183 518//450 205//185
f 519//451 238//218 40//40 237//217
f 206//186 39//39 238//218 519//451
f 208//188 519//451 237//217 36//36
f 35//35 206//186 519//451 208//188
f 520//452 240//220 37//37 201//181
f 237//217 40//40 240//220 520//452
f 239//219 520//452 201//181 33//33
f 36//36 237//217 520//452 239//219
f 541//473 186//166 18//18 243//223
f 241//221 17//17 186//166 541//473
f 242//222 541//473 243//223 22//22
f 21//21 241//221 541//473 242//222
f 542//474 189//169 19//19 245//225
f 243//223 18//18 189//169 542//474
f 244//224 542//474 245//225 23//23
f 22//22 243//223 542//474 244//224
f 543//475 192//172 20//20 247//227
f 245//225 19//19 192//172 543//475
f 246//226 543//475 247//227 24//24
f 23//23 245//225 543//475 246//226
f 544//476 195//175 17//17 241//221
f 247//227 20//20 195//175 544//476
f 248//228 544//476 241//221 21//21
f 24//24 247//227 544//476 248//228
f 49//49 210//190 481//417 209//189
f 210//190 50//50 211//191 481//417
f 481//417 211//191 90//82 212//192
f 209//189 481//417 212//192 89//81
f 50//50 213//193 482//418 211//191
f 213//193 51//51 214//194 482//418
f 482//418 214//194 91//83 215//195
f 211//191 482//418 215//195 90//82
f 51//51 216//196 483//419 214//194
f 216//196 52//52 217//197 483//419
f 483//419 217//197 92//84 218//198
f 214//194 483//419 218//198 91//83
f 52//52 219//199 484//420 217//197
f 219//199 49//49 209//189 484//420
f 484//420 209//189 89//81 220//200
f 217//197 484//420 220//200 92//84
f 89//81 212//192 485//421 221//201
f 212//192 90//82 222//202 485//421
f 485//421 222//202 46//46 158//142
f 221//201 485//421 158//142 45//45
f 90//82 215//195 486//422 222//202
f 215//195 91//83 223//203 486//422
f 486//422 223//203 47//47 161//145
f 222//202 486//422 161//145 46//46
f 91//83 218//198 487//423 223//203
f 218//198 92//84 224//204 487//423
f 487//423 224//204 48//48 164//148
f 223//203 487//423 164//148 47//47
f 92//84 220//200 488//424 224//204
f 220//200 89//81 221//201 488//424
f 488//424 221//201 45//45 167//151
f 224//204 488//424 167//151 48//48
f 69//65 226//206 489//425 225//205
f 226//206 70//66 227//207 489//425
f 489//425 227//207 74//70 228//208
f 225//205 489//425 228//208 73//69
f 70//66 229//209 490//426 227//207
f 229//209 71//67 230//210 490//426
f 490//426 230//210 75//71 231//211
f 227//207 490//426 231//211 74//70
f 71//67 232//212 491//427 230//210
f 232//212 72//68 233//213 491//427
f 491//427 233//213 76//72 234//214
f 230//210 491//427 234//214 75//71
f 72//68 235//215 492//428 233//213
f 235//215 69//65 225//205 492//428
f 492//428 225//205 73//69 236//216
f 233//213 492//428 236//216 76//72
f 545//477 252//232 30//30 251//231
f 249//229 29//29 252//232 545//477
f 250//230 545//477 251//231 26//26
f 25//25 249//229 545//477 250//230
f 546//478 255//235 31//31 254//234
f 251//231 30//30 255//235 546//478
f 253//233 546//478 254//234 27//27
f 26//26 251//231 546//478 253//233
f 547//479 258//238 32//32 257//237
f 254//234 31//31 258//238 547//479
f 256//236 547//479 257//237 28//28
f 27//27 254//234 547//479 256//236
f 548//480 260//240 29//29 249//229
f 257//237 32//32 260//240 548//480
f 259//239 548//480 249//229 25//25
f 28//28 257//237 548//480 259//239
f 549//481 202//182 34//34 263//243
f 261//241 33//33 202//182 549//481
f 262//242 549//481 263//243 98//90
f 97//89 261//241 549//481 262//242
f 550//482 205//185 35//35 265//245
f 263//243 34//34 205//185 550//482
f 264//244 550//482 265//245 99//91
f 98//90 263//243 550//482 264//244
f 551//483 208//188 36//36 267//247
f 265//245 35//35 208//188 551//483
f 266//246 551//483 267//247 100//92
f 99//91 265//245 551//483 266//246
f 552//484 239//219 33//33 261//241
f 267//247 36//36 239//219 552//484
f 268//248 552//484 261//241 97//89
f 100//92 267//247 552//484 268//248
f 557//489 262//242 98//90 290//270
f 289//269 97//89 262//242 557//489
f 252//232 557//489 290//270 30//30
f 29//29 289//269 557//489 252//232
f 558//490 264//244 99//91 291//271
f 290//270 98//90 264//244 558//490
f 255//235 558//490 291//271 31//31
f 30//30 290//270 558//490 255//235
f 559//491 266//246 100//92 292//272
f 291//271 99//91 266//246 559//491
f 258//238 559//491 292//272 32//32
f 31//31 291//271 559//491 258//238
f 560//492 268//248 97//89 289//269
f 292//272 100//92 268//248 560//492
f 260//240 560//492 289//269 29//29
f 32//32 292//272 560//492 260//240
f 573//501 250//230 26//26 331//311
f 329//309 25//25 250//230 573//501
f 330//310 573//501 331//311 114//106
f 113//105 329//309 573//501 330//310
f 574//502 253//233 27//27 333//313
f 331//311 26//26 253//233 574//502
f 332//312 574//502 333//313 115//107
f 114//106 331//311 574//502 332//312
f 575//503 256//236 28//28 335//315
f 333//313 27//27 256//236 575//503
f 334//314 575//503 335//315 116//108
f 115//107 333//313 575//503 334//314
f 576//504 259//239 25//25 329//309
f 335//315 28//28 259//239 576//504
f 336//316 576//504 329//309 113//105
f 116//108 335//315 576//504 336//316
f 53//53 270//250 509//441 269//249
f 270//250 54//54 271//251 509//441
f 509//441 271//251 50//50 210//190
f 269//249 509//441 210//190 49//49
f 54//54 272//252 510//442 271//251
f 272//252 55//55 273//253 510//442
f 510//442 273//253 51//51 213//193
f 271//251 510//442 213//193 50//50
f 55//55 274//254 511//443 273//253
f 274//254 56//56 275//255 511//443
f 511//443 275//255 52//52 216//196
f 273//253 511//443 216//196 51//51
f 56//56 276//256 512//444 275//255
f 276//256 53//53 269//249 512//444
f 512//444 269//249 49//49 219//199
f 275//255 512//444 219//199 52//52
f 61//57 278//258 513//445 277//257
f 278//258 62//58 279//259 513//445
f 513//445 279//259 66//62 280//260
f 277//257 513//445 280//260 65//61
f 62//58 281//261 514//446 279//259
f 281//261 63//59 282//262 514//446
f 514//446 282//262 67//63 283//263
f 279//259 514//446 283//263 66//62
f 63//59 284//264 515//447 282//262
f 284//264 64//60 285//265 515//447
f 515//447 285//265 68//64 286//266
f 282//262 515//447 286//266 67//63
f 64//60 287//267 516//448 285//265
f 287//267 61//57 277//257 516//448
f 516//448 277//257 65//61 288//268
f 285//265 516//448 288//268 68//64
f 577//505 330//310 114//106 339//319
f 337//317 113//105 330//310 577//505
f 338//318 577//505 339//319 118//110
f 117//109 337//317 577//505 338//318
f 578//506 332//312 115//107 341//321
f 339//319 114//106 332//312 578//506
f 340//320 578//506 341//321 119//111
f 118//110 339//319 578//506 340//320
f 579//507 334//314 116//108 343//323
f 341//321 115//107 334//314 579//507
f 342//322 579//507 343//323 120//112
f 119//111 341//321 579//507 342//322
f 580//508 336//316 113//105 337//317
f 343//323 116//108 336//316 580//508
f 344//324 580//508 337//317 117//109
f 120//112 343//323 580//508 344//324
f 101//93 294//274 521//453 293//273
f 294//274 102//94 295//275 521//453
f 521//453 295//275 70//66 226//206
f 293//273 521//453 226//206 69//65
f 102//94 296//276 522//454 295//275
f 296//276 103//95 297//277 522//454
f 522//454 297//277 71//67 229//209
f 295//275 522//454 229//209 70//66
f 103//95 298//278 523//455 297//277
f 298//278 104//96 299//279 523//455
f 523//455 299//279 72//68 232//212
f 297//277 523//455 232//212 71//67
f 104//96 300//280 524//456 299//279
f 300//280 101//93 293//273 524//456
f 524//456 293//273 69//65 235//215
f 299//279 524//456 235//215 72//68
f 65//61 280//260 525//457 301//281
f 280//260 66//62 302//282 525//457
f 525//457 302//282 102//94 294//274
f 301//281 525//457 294//274 101//93
f 66//62 283//263 526//458 302//282
f 283//263 67//63 303//283 526//458
f 526//458 303//283 103//95 296//276
f 302//282 526//458 296//276 102//94
f 67//63 286//266 527//459 303//283
f 286//266 68//64 304//284 527//459
f 527//459 304//284 104//96 298//278
f 303//283 527//459 298//278 103//95
f 68//64 288//268 528//460 304//284
f 288//268 65//61 301//281 528//460
f 528//460 301//281 101//93 300//280
f 304//284 528//460 300//280 104//96
f 105//97 306//286 529//461 305//285
f 306//286 106//98 307//287 529//461
f 529//461 307//287 62//58 278//258
f 305//285 529//461 278//258 61//57
f 106//98 308//288 530//462 307//287
f 308//288 107//99 309//289 530//462
f 530//462 309//289 63//59 281//261
f 307//287 530//462 281//261 62//58
f 107//99 310//290 531//463 309//289
f 310//290 108//100 311//291 531//463
f 531//463 311//291 64//60 284//264
f 309//289 531//463 284//264 63//59
f 108//100 312//292 532//464 311//291
f 312//292 105//97 305//285 532//464
f 532//464 305//285 61//57 287//267
f 311//291 532//464 287//267 64//60
f 109//101 314//294 533//465 313//293
f 314//294 110//102 315//295 533//465
f 533//465 315//295 106//98 306//286
f 313//293 533//465 306//286 105//97
f 110//102 316//296 534//466 315//295
f 316//296 111//103 317//297 534//466
f 534//466 317//297 107//99 308//288
f 315//295 534//466 308//288 106//98
f 111//103 318//298 535//467 317//297
f 318//298 112//104 319//299 535//467
f 535//467 319//299 108//100 310//290
f 317//297 535//467 310//290 107//99
f 112//104 320//300 536//468 319//299
f 320//300 109//101 313//293 536//468
f 536//468 313//293 105//97 312//292
f 319//299 536//468 312//292 108//100
f 77//2 322//302 537//469 321//301
f 322//302 78//1 323//303 537//469
f 537//469 323//303 110//102 314//294
f 321//301 537//469 314//294 109//101
f 78//1 324//304 538//470 323//303
f 324//304 79//4 325//305 538//470
f 538//470 325//305 111//103 316//296
f 323//303 538//470 316//296 110//102
f 79//4 326//306 539//471 325//305
f 326//306 80//3 327//307 539//471
f 539//471 327//307 112//104 318//298
f 325//305 539//471 318//298 111//103
f 80//3 328//308 540//472 327//307
f 328//308 77//2 321//301 540//472
f 540//472 321//301 109//101 320//300
f 327//307 540//472 320//300 112//104
f 581//509 338//318 118//110 347//327
f 345//325 117//109 338//318 581//509
f 346//326 581//509 347//327 58//5
f 57//6 345//325 581//509 346//326
f 582//510 340//320 119//111 349//329
f 347//327 118//110 340//320 582//510
f 348//328 582//510 349//329 59//8
f 58//5 347//327 582//510 348//328
f 583//511 342//322 120//112 351//331
f 349//329 119//111 342//322 583//511
f 350//330 583//511 351//331 60//7
f 59//8 349//329 583//511 350//330
f 584//512 344//324 117//109 345//325
f 351//331 120//112 344//324 584//512
f 352//332 584//512 345//325 57//6
f 60//7 351//331 584//512 352//332
f 593//519 363//343 86//78 362//342
f 361//341 85//77 363//343 593//519
f 204//184 593//519 362//342 38//38
f 37//37 361//341 593//519 204//184
f 594//520 365//345 87//79 364//344
f 362//342 86//78 365//345 594//520
f 207//187 594//520 364//344 39//39
f 38//38 362//342 594//520 207//187
f 595//521 367//347 88//80 366//346
f 364//344 87//79 367//347 595//521
f 238//218 595//521 366//346 40//40
f 39//39 364//344 595//521 238//218
f 596//522 368//348 85//77 361//341
f 366//346 88//80 368//348 596//522
f 240//220 596//522 361//341 37//37
f 40//40 366//346 596//522 240//220
f 597//523 395//367 130//122 394//366
f 393//365 129//121 395//367 597//523
f 176//156 597//523 394//366 10//10
f 9//9 393//365 597//523 176//156
f 598//524 397//369 131//123 396//368
f 394//366 130//122 397//369 598//524
f 179//159 598//524 396//368 11//11
f 10//10 394//366 598//524 179//159
f 599//525 399//371 132//124 398//370
f 396//368 131//123 399//371 599//525
f 182//162 599//525 398//370 12//12
f 11//11 396//368 599//525 182//162
f 600//526 400//372 129//121 393//365
f 398//370 132//124 400//372 600//526
f 184//164 600//526 393//365 9//9
f 12//12 398//370 600//526 184//164
f 73//69 228//208 553//485 353//333
f 228//208 74//70 354//334 553//485
f 553//485 354//334 82//74 355//335
f 353//333 553//485 355//335 81//73
f 74//70 231//211 554//486 354//334
f 231//211 75//71 356//336 554//486
f 554//486 356//336 83//75 357//337
f 354//334 554//486 357//337 82//74
f 75//71 234//214 555//487 356//336
f 234//214 76//72 358//338 555//487
f 555//487 358//338 84//76 359//339
f 356//336 555//487 359//339 83//75
f 76//72 236//216 556//488 358//338
f 236//216 73//69 353//333 556//488
f 556//488 353//333 81//73 360//340
f 358//338 556//488 360//340 84//76
f 617//531 403//375 134//126 402//374
f 401//373 133//125 403//375 617//531
f 395//367 617//531 402//374 130//122
f 129//121 401//373 617//531 395//367
f 618//532 405//377 135//127 404//376
f 402//374 134//126 405//377 618//532
f 397//369 618//532 404//376 131//123
f 130//122 402//374 618//532 397//369
f 619//533 407//379 136//128 406//378
f 404//376 135//127 407//379 619//533
f 399//371 619//533 406//378 132//124
f 131//123 404//376 619//533 399//371
f 620//534 408//380 133//125 401//373
f 406//378 136//128 408//380 620//534
f 400//372 620//534 401//373 129//121
f 132//124 406//378 620//534 400//372
f 41//41 160//144 561//493 369//349
f 160//144 42//42 370//350 561//493
f 561//493 370//350 122//114 371//351
f 369//349 561//493 371//351 121//113
f 42//42 163//147 562//494 370//350
f 163//147 43//43 372//352 562//494
f 562//494 372//352 123//115 373//353
f 370//350 562//494 373//353 122//114
f 43//43 166//150 563//495 372//352
f 166//150 44//44 374//354 563//495
f 563//495 374//354 124//116 375//355
f 372//352 563//495 375//355 123//115
f 44//44 168//152 564//496 374//354
f 168//152 41//41 369//349 564//496
f 564//496 369//349 121//113 376//356
f 374//354 564//496 376//356 124//116
f 121//113 371//351 565//497 377//357
f 371//351 122//114 378//358 565//497
f 565//497 378//358 126//118 379//359
f 377//357 565//497 379//359 125//117
f 122//114 373//353 566//498 378//358
f 373//353 123//115 380//360 566//498
f 566//498 380//360 127//119 381//361
f 378//358 566//498 381//361 126//118
f 123//115 375//355 567//499 380//360
f 375//355 124//116 382//362 567//499
f 567//499 382//362 128//120 383//363
f 380//360 567//499 383//363 127//119
f 124//116 376//356 568//500 382//362
f 376//356 121//113 377//357 568//500
f 568//500 377//357 125//117 384//364
f 382//362 568//500 384//364 128//120
f 125//117 379//359 569//469 385//303
f 379//359 126//118 386//301 569//469
f 569//469 386//301 2//2 387//302
f 385//303 569//469 387//302 1//1
f 126//118 381//361 570//472 386//301
f 381//361 127//119 388//307 570//472
f 570//472 388//307 3//3 389//308
f 386//301 570//472 389//308 2//2
f 127//119 383//363 571//471 388//307
f 383//363 128//120 390//305 571//471
f 571//471 390//305 4//4 391//306
f 388//307 571//471 391//306 3//3
f 128//120 384//364 572//470 390//305
f 384//364 125//117 385//303 572//470
f 572//470 385//303 1//1 392//304
f 390//305 572//470 392//304 4//4
f 621//509 411//326 6//6 410//325
f 409//327 5//5 411//326 621//509
f 403//375 621//509 410//325 134//126
f 133//125 409//327 621//509 403//375
f 622//512 413//332 7//7 412//331
f 410//325 6//6 413//332 622//512
f 405//377 622//512 412//331 135//127
f 134//126 410//325 622//512 405//377
f 623//511 415//330 8//8 414//329
f 412//331 7//7 415//330 623//511
f 407//379 623//511 414//329 136//128
f 135//127 412//331 623//511 407//379
f 624//510 416//328 5//5 409//327
f 414//329 8//8 416//328 624//510
f 408//380 624//510 409//327 133//125
f 136//128 414//329 624//510 408//380
f 625//535 431//395 142//134 429//393
f 427//391 141//133 431//395 625//535
f 411//326 625//535 429//393 6//6
f 5//5 427//391 625//535 411//326
f 626//536 433//397 143//135 432//396
f 429//393 142//134 433//397 626//536
f 413//332 626//536 432//396 7//7
f 6//6 429//393 626//536 413//332
f 627//537 435//399 144//136 434//398
f 432//396 143//135 435//399 627//537
f 415//330 627//537 434//398 8//8
f 7//7 432//396 627//537 415//330
f 628//538 436//400 141//133 427//391
f 434//398 144//136 436//400 628//538
f 416//328 628//538 427//391 5//5
f 8//8 434//398 628//538 416//328
f 142//134 426//390 590//517 433//397
f 433//397 590//517 428//392 143//135
f 431//395 589//406 426//390 142//134
f 141//133 425//389 589//406 431//395
f 144//136 430//394 592//518 436//400
f 436//400 592//518 425//389 141//133
f 435//399 591//407 430//394 144//136
f 143//135 428//392 591//407 435//399
f 602//518 466//400 147//136 441//394
f 439//389 146//133 466//400 602//518
f 438//390 145//134 437//395 601//406
f 601//406 437//395 146//133 439//389
f 604//517 468//397 145//134 438//390
f 443//392 148//135 468//397 604//517
f 441//394 147//136 467//399 603//407
f 603//407 467//399 148//135 443//392
f 1//1 387//302 585//513 417//381
f 387//302 2//2 418//382 585//513
f 585//513 418//382 138//130 419//383
f 417//381 585//513 419//383 137//129
f 2//2 389//308 586//514 418//382
f 389//308 3//3 420//384 586//514
f 586//514 420//384 139//131 421//385
f 418//382 586//514 421//385 138//130
f 3//3 391//306 587//515 420//384
f 391//306 4//4 422//386 587//515
f 587//515 422//386 140//132 423//387
f 420//384 587//515 423//387 139//131
f 4//4 392//304 588//516 422//386
f 392//304 1//1 417//381 588//516
f 588//516 417//381 137//129 424//388
f 422//386 588//516 424//388 140//132
f 137//129 419//383 589//406 425//389
f 419//383 138//130 426//390 589//406
f 174//154 497//429 175//155 14//14
f 13//13 173//153 497//429 174//154
f 138//130 421//385 590//517 426//390
f 421//385 139//131 428//392 590//517
f 173//153 9//9 176//156 497//429
f 497//429 176//156 10//10 175//155
f 139//131 423//387 591//407 428//392
f 423//387 140//132 430//394 591//407
f 177//157 498//430 178//158 15//15
f 14//14 175//155 498//430 177//157
f 140//132 424//388 592//518 430//394
f 424//388 137//129 425//389 592//518
f 175//155 10//10 179//159 498//430
f 498//430 179//159 11//11 178//158
f 629//535 346//326 58//5 470//391
f 469//393 57//6 346//326 629//535
f 437//395 629//535 470//391 146//133
f 145//134 469//393 629//535 437//395
f 630//538 348//328 59//8 471//398
f 470//391 58//5 348//328 630//538
f 466//400 630//538 471//398 147//136
f 146//133 470//391 630//538 466//400
f 631//537 350//330 60//7 472//396
f 471//398 59//8 350//330 631//537
f 467//399 631//537 472//396 148//135
f 147//136 471//398 631//537 467//399
f 632//536 352//332 57//6 469//393
f 472//396 60//7 352//332 632//536
f 468//397 632//536 469//393 145//134
f 148//135 472//396 632//536 468//397
f 633//539 242//222 22//22 474//414
f 473//413 21//21 242//222 633//539
f 363//343 633//539 474//414 86//78
f 85//77 473//413 633//539 363//343
f 634//540 244//224 23//23 475//415
f 474//414 22//22 244//224 634//540
f 365//345 634//540 475//415 87//79
f 86//78 474//414 634//540 365//345
f 635//541 246//226 24//24 476//416
f 475//415 23//23 246//226 635//541
f 367//347 635//541 476//416 88//80
f 87//79 475//415 635//541 367//347
f 636//542 248//228 21//21 473//413
f 476//416 24//24 248//228 636//542
f 368//348 636//542 473//413 85//77
f 88//80 476//416 636//542 368//348
f 15//15 178//158 499//431 180//160
f 180//160 499//431 181//161 16//16
f 601//406 439//389 150//129 440//383
f 438//390 601//406 440//383 149//130
f 499//431 182//162 12//12 181//161
f 178//158 11//11 182//162 499//431
f 602//518 441//394 151//132 442//388
f 439//389 602//518 442//388 150//129
f 16//16 181//161 500//432 183//163
f 183//163 500//432 173//153 13//13
f 603//407 443//392 152//131 444//387
f 441//394 603//407 444//387 151//132
f 500//432 184//164 9//9 173//153
f 181//161 12//12 184//164 500//432
f 604//517 438//390 149//130 445//385
f 443//392 604//517 445//385 152//131
f 149//130 440//383 605//513 446//382
f 440//383 150//129 447//381 605//513
f 605//513 447//381 78//1 322//302
f 446//382 605//513 322//302 77//2
f 150//129 442//388 606//516 447//381
f 442//388 151//132 448//386 606//516
f 606//516 448//386 79//4 324//304
f 447//381 606//516 324//304 78//1
f 151//132 444//387 607//515 448//386
f 444//387 152//131 449//384 607//515
f 607//515 449//384 80//3 326//306
f 448//386 607//515 326//306 79//4
f 152//131 445//385 608//514 449//384
f 445//385 149//130 446//382 608//514
f 608//514 446//382 77//2 328//308
f 449//384 608//514 328//308 80//3
f 81//73 355//335 609//527 450//401
f 355//335 82//74 451//402 609//527
f 609//527 451//402 54//54 270//250
f 450//401 609//527 270//250 53//53
f 82//74 357//337 610//528 451//402
f 357//337 83//75 452//403 610//528
f 610//528 452//403 55//55 272//252
f 451//402 610//528 272//252 54//54
f 83//75 359//339 611//529 452//403
f 359//339 84//76 453//404 611//529
f 611//529 453//404 56//56 274//254
f 452//403 611//529 274//254 55//55
f 84//76 360//340 612//530 453//404
f 360//340 81//73 450//401 612//530
f 612//530 450//401 53//53 276//256
f 453//404 612//530 276//256 56//56
f 457//408 154//138 615//138 458//408
f 153//137 460//405 454//405 616//137
f 154//138 455//406 461//406 615//138
f 455//406 153//137 616//137 461//406
f 155//139 457//408 458//408 614//139
f 459//407 155//139 614//139 456//407
f 156//140 459//407 456//407 613//140
f 460//405 156//140 613//140 454//405
f 480//408 493//408 639//138 170//138
f 169//137 640//137 477//405 495//405
f 170//138 639//138 496//406 478//406
f 478//406 496//406 640//137 169//137
f 171//139 638//139 493//408 480//408
f 494//407 479//407 638//139 171//139
f 172//140 637//140 479//407 494//407
f 495//405 477//405 637//140 172//140
