# Blender 5.1.0
# www.blender.org
mtllib Lights.mtl
o Cylinder
v 0.000000 -1.178630 -0.763389
v 0.000000 -1.132805 -0.809504
v 0.000000 -0.808649 -0.763389
v 0.000000 -0.854474 -0.809504
v 0.169870 -1.178630 -0.744249
v 0.180132 -1.132805 -0.789208
v 0.169870 -0.808649 -0.744249
v 0.180132 -0.854474 -0.789208
v 0.331222 -1.178630 -0.687790
v 0.351231 -1.132805 -0.729338
v 0.331222 -0.808649 -0.687790
v 0.351231 -0.854474 -0.729338
v 0.475965 -1.178630 -0.596841
v 0.504717 -1.132805 -0.632895
v 0.475965 -0.808649 -0.596841
v 0.504717 -0.854474 -0.632895
v 0.596841 -1.178630 -0.475965
v 0.632895 -1.132805 -0.504717
v 0.596841 -0.808649 -0.475965
v 0.632895 -0.854474 -0.504717
v 0.687790 -1.178630 -0.331222
v 0.729338 -1.132805 -0.351231
v 0.687790 -0.808649 -0.331222
v 0.729338 -0.854474 -0.351231
v 0.744249 -1.178630 -0.169870
v 0.789208 -1.132805 -0.180132
v 0.744249 -0.808649 -0.169870
v 0.789208 -0.854474 -0.180132
v 0.763389 -1.178630 0.000000
v 0.809504 -1.132805 0.000000
v 0.763389 -0.808649 0.000000
v 0.809504 -0.854474 0.000000
v 0.744249 -1.178630 0.169870
v 0.789208 -1.132805 0.180132
v 0.744249 -0.808649 0.169870
v 0.789208 -0.854474 0.180132
v 0.687790 -1.178630 0.331222
v 0.729338 -1.132805 0.351231
v 0.687790 -0.808649 0.331222
v 0.729338 -0.854474 0.351231
v 0.596841 -1.178630 0.475965
v 0.632895 -1.132805 0.504717
v 0.596841 -0.808649 0.475965
v 0.632895 -0.854474 0.504717
v 0.475965 -1.178630 0.596841
v 0.504717 -1.132805 0.632896
v 0.475965 -0.808649 0.596841
v 0.504717 -0.854474 0.632896
v 0.331222 -1.178630 0.687790
v 0.351231 -1.132805 0.729338
v 0.331222 -0.808649 0.687790
v 0.351231 -0.854474 0.729338
v 0.169870 -1.178630 0.744249
v 0.180132 -1.132805 0.789208
v 0.169870 -0.808649 0.744249
v 0.180132 -0.854474 0.789208
v 0.000000 -1.178630 0.763389
v 0.000000 -1.132805 0.809504
v 0.000000 -0.808649 0.763389
v 0.000000 -0.854474 0.809504
v -0.169870 -1.178630 0.744249
v -0.180132 -1.132805 0.789208
v -0.169870 -0.808649 0.744249
v -0.180132 -0.854474 0.789208
v -0.331222 -1.178630 0.687790
v -0.351231 -1.132805 0.729338
v -0.331222 -0.808649 0.687790
v -0.351231 -0.854474 0.729338
v -0.475965 -1.178630 0.596841
v -0.504717 -1.132805 0.632896
v -0.475965 -0.808649 0.596841
v -0.504717 -0.854474 0.632896
v -0.596841 -1.178630 0.475965
v -0.632895 -1.132805 0.504717
v -0.596841 -0.808649 0.475965
v -0.632895 -0.854474 0.504717
v -0.687790 -1.178630 0.331222
v -0.729338 -1.132805 0.351231
v -0.687790 -0.808649 0.331222
v -0.729338 -0.854474 0.351231
v -0.744249 -1.178630 0.169870
v -0.789208 -1.132805 0.180132
v -0.744249 -0.808649 0.169870
v -0.789208 -0.854474 0.180132
v -0.763389 -1.178630 0.000000
v -0.809504 -1.132805 0.000000
v -0.763389 -0.808649 0.000000
v -0.809504 -0.854474 0.000000
v -0.744249 -1.178630 -0.169870
v -0.789208 -1.132805 -0.180132
v -0.744249 -0.808649 -0.169870
v -0.789208 -0.854474 -0.180132
v -0.687790 -1.178630 -0.331222
v -0.729338 -1.132805 -0.351231
v -0.687790 -0.808649 -0.331222
v -0.729338 -0.854474 -0.351231
v -0.596841 -1.178630 -0.475965
v -0.632895 -1.132805 -0.504717
v -0.596841 -0.808649 -0.475965
v -0.632895 -0.854474 -0.504717
v -0.475965 -1.178630 -0.596841
v -0.504717 -1.132805 -0.632895
v -0.475965 -0.808649 -0.596841
v -0.504717 -0.854474 -0.632895
v -0.331222 -1.178630 -0.687790
v -0.351231 -1.132805 -0.729338
v -0.331222 -0.808649 -0.687790
v -0.351231 -0.854474 -0.729338
v -0.169870 -1.178630 -0.744249
v -0.180132 -1.132805 -0.789208
v -0.169870 -0.808649 -0.744249
v -0.180132 -0.854474 -0.789208
vn -0.0000 -0.7093 -0.7049
vn 0.1568 -0.7093 -0.6872
vn 0.1568 0.7093 -0.6872
vn -0.0000 0.7093 -0.7049
vn 0.3058 -0.7093 -0.6351
vn 0.3058 0.7093 -0.6351
vn 0.4395 -0.7093 -0.5511
vn 0.4395 0.7093 -0.5511
vn 0.5511 -0.7093 -0.4395
vn 0.5511 0.7093 -0.4395
vn 0.6351 -0.7093 -0.3058
vn 0.6351 0.7093 -0.3058
vn 0.6872 -0.7093 -0.1568
vn 0.6872 0.7093 -0.1568
vn 0.7049 -0.7093 -0.0000
vn 0.7049 0.7093 -0.0000
vn 0.6872 -0.7093 0.1568
vn 0.6872 0.7093 0.1568
vn 0.6351 -0.7093 0.3058
vn 0.6351 0.7093 0.3058
vn 0.5511 -0.7093 0.4395
vn 0.5511 0.7093 0.4395
vn 0.4395 -0.7093 0.5511
vn 0.4395 0.7093 0.5511
vn 0.3058 -0.7093 0.6351
vn 0.3058 0.7093 0.6351
vn 0.1568 -0.7093 0.6872
vn 0.1568 0.7093 0.6872
vn -0.0000 -0.7093 0.7049
vn -0.0000 0.7093 0.7049
vn -0.1568 -0.7093 0.6872
vn -0.1568 0.7093 0.6872
vn -0.3058 -0.7093 0.6351
vn -0.3058 0.7093 0.6351
vn -0.4395 -0.7093 0.5511
vn -0.4395 0.7093 0.5511
vn -0.5511 -0.7093 0.4395
vn -0.5511 0.7093 0.4395
vn -0.6351 -0.7093 0.3058
vn -0.6351 0.7093 0.3058
vn -0.6872 -0.7093 0.1568
vn -0.6872 0.7093 0.1568
vn -0.7049 -0.7093 -0.0000
vn -0.7049 0.7093 -0.0000
vn -0.6872 -0.7093 -0.1568
vn -0.6872 0.7093 -0.1568
vn -0.6351 -0.7093 -0.3058
vn -0.6351 0.7093 -0.3058
vn -0.5511 -0.7093 -0.4395
vn -0.5511 0.7093 -0.4395
vn -0.4395 -0.7093 -0.5511
vn -0.4395 0.7093 -0.5511
vn -0.3058 -0.7093 -0.6351
vn -0.3058 0.7093 -0.6351
vn -0.1568 -0.7093 -0.6872
vn -0.1568 0.7093 -0.6872
vn -0.0000 -1.0000 -0.0000
vn -0.0000 -0.0000 -1.0000
vn 0.2225 -0.0000 -0.9749
vn -0.2225 -0.0000 -0.9749
vn -0.0000 1.0000 -0.0000
vn 0.4339 -0.0000 -0.9010
vn 0.6235 -0.0000 -0.7818
vn 0.7818 -0.0000 -0.6235
vn 0.9010 -0.0000 -0.4339
vn 0.9749 -0.0000 -0.2225
vn 1.0000 -0.0000 -0.0000
vn 0.9749 -0.0000 0.2225
vn 0.9010 -0.0000 0.4339
vn 0.7818 -0.0000 0.6235
vn 0.6235 -0.0000 0.7818
vn 0.4339 -0.0000 0.9010
vn 0.2225 -0.0000 0.9749
vn -0.0000 -0.0000 1.0000
vn -0.2225 -0.0000 0.9749
vn -0.4339 -0.0000 0.9010
vn -0.6235 -0.0000 0.7818
vn -0.7818 -0.0000 0.6235
vn -0.9010 -0.0000 0.4339
vn -0.9749 -0.0000 0.2225
vn -1.0000 -0.0000 -0.0000
vn -0.9749 -0.0000 -0.2225
vn -0.9010 -0.0000 -0.4339
vn -0.7818 -0.0000 -0.6235
vn -0.6235 -0.0000 -0.7818
vn -0.4339 -0.0000 -0.9010
vt 0.750000 0.490000
vt 0.803405 0.483983
vt 0.800363 0.470653
vt 0.750000 0.476328
vt 0.303405 0.483983
vt 0.250000 0.490000
vt 0.250000 0.476328
vt 0.300363 0.470653
vt 0.854132 0.466233
vt 0.848200 0.453914
vt 0.354132 0.466233
vt 0.348200 0.453914
vt 0.899638 0.437640
vt 0.891113 0.426950
vt 0.399638 0.437640
vt 0.391113 0.426950
vt 0.937640 0.399638
vt 0.926950 0.391113
vt 0.437640 0.399638
vt 0.426950 0.391113
vt 0.966233 0.354132
vt 0.953914 0.348200
vt 0.466233 0.354132
vt 0.453915 0.348200
vt 0.983983 0.303405
vt 0.970653 0.300363
vt 0.483983 0.303405
vt 0.470653 0.300363
vt 0.990000 0.250000
vt 0.976328 0.250000
vt 0.490000 0.250000
vt 0.476328 0.250000
vt 0.983983 0.196595
vt 0.970653 0.199637
vt 0.483983 0.196595
vt 0.470654 0.199637
vt 0.966233 0.145868
vt 0.953914 0.151800
vt 0.466233 0.145868
vt 0.453915 0.151800
vt 0.937640 0.100362
vt 0.926950 0.108887
vt 0.437640 0.100362
vt 0.426950 0.108887
vt 0.899638 0.062360
vt 0.891113 0.073050
vt 0.399638 0.062360
vt 0.391113 0.073050
vt 0.854132 0.033767
vt 0.848200 0.046086
vt 0.354132 0.033767
vt 0.348200 0.046086
vt 0.803405 0.016017
vt 0.800363 0.029347
vt 0.303405 0.016017
vt 0.300363 0.029347
vt 0.750000 0.010000
vt 0.750000 0.023672
vt 0.250000 0.010000
vt 0.250000 0.023672
vt 0.696595 0.016017
vt 0.699637 0.029347
vt 0.196595 0.016017
vt 0.199637 0.029347
vt 0.645868 0.033767
vt 0.651800 0.046086
vt 0.145868 0.033767
vt 0.151800 0.046086
vt 0.600362 0.062360
vt 0.608887 0.073050
vt 0.100362 0.062360
vt 0.108887 0.073050
vt 0.562360 0.100362
vt 0.573050 0.108887
vt 0.062360 0.100362
vt 0.073050 0.108887
vt 0.533767 0.145868
vt 0.546086 0.151800
vt 0.033767 0.145868
vt 0.046086 0.151800
vt 0.516017 0.196595
vt 0.529347 0.199637
vt 0.016017 0.196595
vt 0.029347 0.199637
vt 0.510000 0.250000
vt 0.523672 0.250000
vt 0.010000 0.250000
vt 0.023672 0.250000
vt 0.516017 0.303405
vt 0.529347 0.300363
vt 0.016017 0.303405
vt 0.029347 0.300363
vt 0.533767 0.354132
vt 0.546085 0.348200
vt 0.033767 0.354132
vt 0.046086 0.348200
vt 0.562360 0.399638
vt 0.573050 0.391113
vt 0.062360 0.399638
vt 0.073050 0.391113
vt 0.600362 0.437640
vt 0.608887 0.426950
vt 0.100362 0.437640
vt 0.108887 0.426950
vt 0.645868 0.466233
vt 0.651800 0.453914
vt 0.145868 0.466233
vt 0.151800 0.453914
vt 0.696595 0.483983
vt 0.699637 0.470653
vt 0.196595 0.483983
vt 0.199637 0.470653
vt 1.000000 0.561929
vt 1.000000 0.938071
vt 0.964286 0.938071
vt 0.964286 0.561929
vt 0.035714 0.561929
vt 0.035714 0.938071
vt 0.000000 0.938071
vt 0.000000 0.561929
vt 0.928571 0.938071
vt 0.928571 0.561929
vt 0.892857 0.938071
vt 0.892857 0.561929
vt 0.857143 0.938071
vt 0.857143 0.561929
vt 0.821429 0.938071
vt 0.821429 0.561929
vt 0.785714 0.938071
vt 0.785714 0.561929
vt 0.750000 0.938071
vt 0.750000 0.561929
vt 0.714286 0.938071
vt 0.714286 0.561929
vt 0.678572 0.938071
vt 0.678572 0.561929
vt 0.642857 0.938071
vt 0.642857 0.561929
vt 0.607143 0.938071
vt 0.607143 0.561929
vt 0.571429 0.938071
vt 0.571429 0.561929
vt 0.535715 0.938071
vt 0.535715 0.561929
vt 0.500000 0.938071
vt 0.500000 0.561929
vt 0.464286 0.938071
vt 0.464286 0.561929
vt 0.428572 0.938071
vt 0.428572 0.561929
vt 0.392857 0.938071
vt 0.392857 0.561929
vt 0.357143 0.938071
vt 0.357143 0.561929
vt 0.321429 0.938071
vt 0.321429 0.561929
vt 0.285714 0.938071
vt 0.285714 0.561929
vt 0.250000 0.938071
vt 0.250000 0.561929
vt 0.214286 0.938071
vt 0.214286 0.561929
vt 0.178572 0.938071
vt 0.178572 0.561929
vt 0.142857 0.938071
vt 0.142857 0.561929
vt 0.107143 0.938071
vt 0.107143 0.561929
vt 0.071429 0.938071
vt 0.071429 0.561929
s 1
f 2/1/1 6/2/2 5/3/2 1/4/1
f 8/5/3 4/6/4 3/7/4 7/8/3
f 6/2/2 10/9/5 9/10/5 5/3/2
f 12/11/6 8/5/3 7/8/3 11/12/6
f 10/9/5 14/13/7 13/14/7 9/10/5
f 16/15/8 12/11/6 11/12/6 15/16/8
f 14/13/7 18/17/9 17/18/9 13/14/7
f 20/19/10 16/15/8 15/16/8 19/20/10
f 18/17/9 22/21/11 21/22/11 17/18/9
f 24/23/12 20/19/10 19/20/10 23/24/12
f 22/21/11 26/25/13 25/26/13 21/22/11
f 28/27/14 24/23/12 23/24/12 27/28/14
f 26/25/13 30/29/15 29/30/15 25/26/13
f 32/31/16 28/27/14 27/28/14 31/32/16
f 30/29/15 34/33/17 33/34/17 29/30/15
f 36/35/18 32/31/16 31/32/16 35/36/18
f 34/33/17 38/37/19 37/38/19 33/34/17
f 40/39/20 36/35/18 35/36/18 39/40/20
f 38/37/19 42/41/21 41/42/21 37/38/19
f 44/43/22 40/39/20 39/40/20 43/44/22
f 42/41/21 46/45/23 45/46/23 41/42/21
f 48/47/24 44/43/22 43/44/22 47/48/24
f 46/45/23 50/49/25 49/50/25 45/46/23
f 52/51/26 48/47/24 47/48/24 51/52/26
f 50/49/25 54/53/27 53/54/27 49/50/25
f 56/55/28 52/51/26 51/52/26 55/56/28
f 54/53/27 58/57/29 57/58/29 53/54/27
f 60/59/30 56/55/28 55/56/28 59/60/30
f 58/57/29 62/61/31 61/62/31 57/58/29
f 64/63/32 60/59/30 59/60/30 63/64/32
f 62/61/31 66/65/33 65/66/33 61/62/31
f 68/67/34 64/63/32 63/64/32 67/68/34
f 66/65/33 70/69/35 69/70/35 65/66/33
f 72/71/36 68/67/34 67/68/34 71/72/36
f 70/69/35 74/73/37 73/74/37 69/70/35
f 76/75/38 72/71/36 71/72/36 75/76/38
f 74/73/37 78/77/39 77/78/39 73/74/37
f 80/79/40 76/75/38 75/76/38 79/80/40
f 78/77/39 82/81/41 81/82/41 77/78/39
f 84/83/42 80/79/40 79/80/40 83/84/42
f 82/81/41 86/85/43 85/86/43 81/82/41
f 88/87/44 84/83/42 83/84/42 87/88/44
f 86/85/43 90/89/45 89/90/45 85/86/43
f 92/91/46 88/87/44 87/88/44 91/92/46
f 90/89/45 94/93/47 93/94/47 89/90/45
f 96/95/48 92/91/46 91/92/46 95/96/48
f 94/93/47 98/97/49 97/98/49 93/94/47
f 100/99/50 96/95/48 95/96/48 99/100/50
f 98/97/49 102/101/51 101/102/51 97/98/49
f 104/103/52 100/99/50 99/100/50 103/104/52
f 102/101/51 106/105/53 105/106/53 101/102/51
f 108/107/54 104/103/52 103/104/52 107/108/54
f 106/105/53 110/109/55 109/110/55 105/106/53
f 112/111/56 108/107/54 107/108/54 111/112/56
f 110/109/55 2/1/1 1/4/1 109/110/55
f 4/6/4 112/111/56 111/112/56 3/7/4
f 1/4/57 5/3/57 9/10/57 13/14/57 17/18/57 21/22/57 25/26/57 29/30/57 33/34/57 37/38/57 41/42/57 45/46/57 49/50/57 53/54/57 57/58/57 61/62/57 65/66/57 69/70/57 73/74/57 77/78/57 81/82/57 85/86/57 89/90/57 93/94/57 97/98/57 101/102/57 105/106/57 109/110/57
f 2/113/58 4/114/58 8/115/59 6/116/59
f 110/117/60 112/118/60 4/119/58 2/120/58
f 7/8/61 3/7/61 111/112/61 107/108/61 103/104/61 99/100/61 95/96/61 91/92/61 87/88/61 83/84/61 79/80/61 75/76/61 71/72/61 67/68/61 63/64/61 59/60/61 55/56/61 51/52/61 47/48/61 43/44/61 39/40/61 35/36/61 31/32/61 27/28/61 23/24/61 19/20/61 15/16/61 11/12/61
f 6/116/59 8/115/59 12/121/62 10/122/62
f 10/122/62 12/121/62 16/123/63 14/124/63
f 14/124/63 16/123/63 20/125/64 18/126/64
f 18/126/64 20/125/64 24/127/65 22/128/65
f 22/128/65 24/127/65 28/129/66 26/130/66
f 26/130/66 28/129/66 32/131/67 30/132/67
f 30/132/67 32/131/67 36/133/68 34/134/68
f 34/134/68 36/133/68 40/135/69 38/136/69
f 38/136/69 40/135/69 44/137/70 42/138/70
f 42/138/70 44/137/70 48/139/71 46/140/71
f 46/140/71 48/139/71 52/141/72 50/142/72
f 50/142/72 52/141/72 56/143/73 54/144/73
f 54/144/73 56/143/73 60/145/74 58/146/74
f 58/146/74 60/145/74 64/147/75 62/148/75
f 62/148/75 64/147/75 68/149/76 66/150/76
f 66/150/76 68/149/76 72/151/77 70/152/77
f 70/152/77 72/151/77 76/153/78 74/154/78
f 74/154/78 76/153/78 80/155/79 78/156/79
f 78/156/79 80/155/79 84/157/80 82/158/80
f 82/158/80 84/157/80 88/159/81 86/160/81
f 86/160/81 88/159/81 92/161/82 90/162/82
f 90/162/82 92/161/82 96/163/83 94/164/83
f 94/164/83 96/163/83 100/165/84 98/166/84
f 98/166/84 100/165/84 104/167/85 102/168/85
f 102/168/85 104/167/85 108/169/86 106/170/86
f 106/170/86 108/169/86 112/118/60 110/117/60
