# Blender 5.1.0
# www.blender.org
mtllib Lights.mtl
o Cylinder.002
v -0.000000 -0.023494 0.778775
v 0.025607 -0.026379 0.778775
v 0.049930 -0.034890 0.778775
v 0.071749 -0.048600 0.778775
v 0.089971 -0.066822 0.778775
v 0.103681 -0.088641 0.778775
v 0.112192 -0.112964 0.778775
v 0.115077 -0.138571 0.778775
v 0.112192 -0.164178 0.778775
v 0.103681 -0.188501 0.778775
v 0.089971 -0.210320 0.778775
v 0.071749 -0.228542 0.778775
v 0.049930 -0.242252 0.778775
v 0.025607 -0.250763 0.778775
v -0.000000 -0.253648 0.778775
v -0.025607 -0.250763 0.778775
v -0.049930 -0.242252 0.778775
v -0.071749 -0.228542 0.778775
v -0.089971 -0.210320 0.778775
v -0.103681 -0.188501 0.778775
v -0.112192 -0.164178 0.778775
v -0.115077 -0.138571 0.778775
v -0.112192 -0.112964 0.778775
v -0.103681 -0.088641 0.778775
v -0.089971 -0.066822 0.778775
v -0.071749 -0.048600 0.778775
v -0.049930 -0.034890 0.778775
v -0.025607 -0.026379 0.778775
v -0.000000 -0.023494 -0.778775
v 0.025607 -0.026379 -0.778775
v 0.049930 -0.034890 -0.778775
v 0.071749 -0.048600 -0.778775
v 0.089971 -0.066822 -0.778775
v 0.103681 -0.088641 -0.778775
v 0.112192 -0.112964 -0.778775
v 0.115077 -0.138571 -0.778775
v 0.112192 -0.164178 -0.778775
v 0.103681 -0.188501 -0.778775
v 0.089971 -0.210320 -0.778775
v 0.071749 -0.228542 -0.778775
v 0.049930 -0.242252 -0.778775
v 0.025607 -0.250763 -0.778775
v -0.000000 -0.253648 -0.778775
v -0.025607 -0.250763 -0.778775
v -0.049930 -0.242252 -0.778775
v -0.071749 -0.228542 -0.778775
v -0.089971 -0.210320 -0.778775
v -0.103681 -0.188501 -0.778775
v -0.112192 -0.164178 -0.778775
v -0.115077 -0.138571 -0.778775
v -0.112192 -0.112964 -0.778775
v -0.103681 -0.088641 -0.778775
v -0.089971 -0.066822 -0.778775
v -0.071749 -0.048600 -0.778775
v -0.049930 -0.034890 -0.778775
v -0.025607 -0.026379 -0.778775
v -0.000000 -0.023494 -0.930304
v 0.000000 -0.072911 -0.979411
v 0.000000 -0.037968 -0.965028
v 0.014611 -0.074558 -0.979411
v 0.025607 -0.026379 -0.930304
v 0.022386 -0.040490 -0.965028
v 0.028489 -0.079414 -0.979411
v 0.049930 -0.034890 -0.930304
v 0.043650 -0.047931 -0.965028
v 0.040938 -0.087236 -0.979411
v 0.071749 -0.048600 -0.930304
v 0.062725 -0.059916 -0.965028
v 0.051335 -0.097633 -0.979411
v 0.089971 -0.066822 -0.930304
v 0.078655 -0.075846 -0.965028
v 0.059157 -0.110082 -0.979411
v 0.103681 -0.088641 -0.930304
v 0.090640 -0.094921 -0.965028
v 0.064013 -0.123960 -0.979411
v 0.112192 -0.112964 -0.930304
v 0.098081 -0.116185 -0.965028
v 0.065660 -0.138571 -0.979411
v 0.115077 -0.138571 -0.930304
v 0.100603 -0.138571 -0.965028
v 0.064013 -0.153182 -0.979411
v 0.112192 -0.164178 -0.930304
v 0.098081 -0.160957 -0.965028
v 0.059157 -0.167060 -0.979411
v 0.103681 -0.188501 -0.930304
v 0.090640 -0.182221 -0.965028
v 0.051335 -0.179509 -0.979411
v 0.089971 -0.210320 -0.930304
v 0.078655 -0.201296 -0.965028
v 0.040938 -0.189906 -0.979411
v 0.071749 -0.228542 -0.930304
v 0.062725 -0.217226 -0.965028
v 0.028489 -0.197728 -0.979411
v 0.049930 -0.242252 -0.930304
v 0.043650 -0.229211 -0.965028
v 0.014611 -0.202585 -0.979411
v 0.025607 -0.250763 -0.930304
v 0.022386 -0.236652 -0.965028
v -0.000000 -0.204231 -0.979411
v -0.000000 -0.253648 -0.930304
v -0.000000 -0.239174 -0.965028
v -0.014611 -0.202585 -0.979411
v -0.025607 -0.250763 -0.930304
v -0.022386 -0.236652 -0.965028
v -0.028489 -0.197728 -0.979411
v -0.049930 -0.242252 -0.930304
v -0.043650 -0.229211 -0.965028
v -0.040938 -0.189906 -0.979411
v -0.071749 -0.228542 -0.930304
v -0.062725 -0.217226 -0.965028
v -0.051335 -0.179509 -0.979410
v -0.089971 -0.210320 -0.930304
v -0.078655 -0.201296 -0.965028
v -0.059157 -0.167060 -0.979411
v -0.103681 -0.188501 -0.930304
v -0.090640 -0.182221 -0.965028
v -0.064014 -0.153182 -0.979411
v -0.112192 -0.164178 -0.930304
v -0.098081 -0.160957 -0.965028
v -0.065660 -0.138571 -0.979411
v -0.115077 -0.138571 -0.930304
v -0.100603 -0.138571 -0.965028
v -0.064013 -0.123960 -0.979411
v -0.112192 -0.112964 -0.930304
v -0.098081 -0.116185 -0.965028
v -0.059157 -0.110082 -0.979411
v -0.103681 -0.088641 -0.930304
v -0.090640 -0.094921 -0.965028
v -0.051335 -0.097633 -0.979411
v -0.089971 -0.066822 -0.930304
v -0.078655 -0.075846 -0.965028
v -0.040938 -0.087236 -0.979411
v -0.071749 -0.048600 -0.930304
v -0.062725 -0.059916 -0.965028
v -0.028489 -0.079414 -0.979411
v -0.049930 -0.034890 -0.930304
v -0.043650 -0.047931 -0.965028
v -0.014611 -0.074558 -0.979411
v -0.025607 -0.026379 -0.930304
v -0.022386 -0.040490 -0.965028
v -0.000000 -0.023494 0.930304
v 0.000000 -0.072911 0.979411
v 0.000000 -0.037968 0.965028
v 0.014611 -0.074558 0.979411
v 0.025607 -0.026379 0.930304
v 0.022386 -0.040490 0.965028
v 0.028489 -0.079414 0.979411
v 0.049930 -0.034890 0.930304
v 0.043650 -0.047931 0.965028
v 0.040938 -0.087236 0.979411
v 0.071749 -0.048600 0.930304
v 0.062725 -0.059916 0.965028
v 0.051335 -0.097633 0.979411
v 0.089971 -0.066822 0.930304
v 0.078655 -0.075846 0.965028
v 0.059157 -0.110082 0.979411
v 0.103681 -0.088641 0.930304
v 0.090640 -0.094921 0.965028
v 0.064013 -0.123960 0.979411
v 0.112192 -0.112964 0.930304
v 0.098081 -0.116185 0.965028
v 0.065660 -0.138571 0.979411
v 0.115077 -0.138571 0.930304
v 0.100603 -0.138571 0.965028
v 0.064013 -0.153182 0.979411
v 0.112192 -0.164178 0.930304
v 0.098081 -0.160957 0.965028
v 0.059157 -0.167060 0.979411
v 0.103681 -0.188501 0.930304
v 0.090640 -0.182221 0.965028
v 0.051335 -0.179509 0.979410
v 0.089971 -0.210320 0.930304
v 0.078655 -0.201296 0.965028
v 0.040938 -0.189906 0.979411
v 0.071749 -0.228542 0.930304
v 0.062725 -0.217226 0.965028
v 0.028489 -0.197728 0.979411
v 0.049930 -0.242252 0.930304
v 0.043650 -0.229211 0.965028
v 0.014611 -0.202585 0.979411
v 0.025607 -0.250763 0.930304
v 0.022386 -0.236652 0.965028
v -0.000000 -0.204231 0.979411
v -0.000000 -0.253648 0.930304
v -0.000000 -0.239174 0.965028
v -0.014611 -0.202585 0.979411
v -0.025607 -0.250763 0.930304
v -0.022386 -0.236652 0.965028
v -0.028489 -0.197728 0.979411
v -0.049930 -0.242252 0.930304
v -0.043650 -0.229211 0.965028
v -0.040938 -0.189906 0.979411
v -0.071749 -0.228542 0.930304
v -0.062725 -0.217226 0.965028
v -0.051335 -0.179509 0.979410
v -0.089971 -0.210320 0.930304
v -0.078655 -0.201296 0.965028
v -0.059157 -0.167060 0.979411
v -0.103681 -0.188501 0.930304
v -0.090640 -0.182221 0.965028
v -0.064014 -0.153182 0.979411
v -0.112192 -0.164178 0.930304
v -0.098081 -0.160957 0.965028
v -0.065660 -0.138571 0.979411
v -0.115077 -0.138571 0.930304
v -0.100603 -0.138571 0.965028
v -0.064013 -0.123960 0.979411
v -0.112192 -0.112964 0.930304
v -0.098081 -0.116185 0.965028
v -0.059157 -0.110082 0.979411
v -0.103681 -0.088641 0.930304
v -0.090640 -0.094921 0.965028
v -0.051335 -0.097633 0.979411
v -0.089971 -0.066822 0.930304
v -0.078655 -0.075846 0.965028
v -0.040938 -0.087236 0.979411
v -0.071749 -0.048600 0.930304
v -0.062725 -0.059916 0.965028
v -0.028489 -0.079414 0.979411
v -0.049930 -0.034890 0.930304
v -0.043650 -0.047931 0.965028
v -0.014611 -0.074558 0.979411
v -0.025607 -0.026379 0.930304
v -0.022386 -0.040490 0.965028
vn 0.4481 0.5619 -0.6953
vn 0.1292 0.1620 -0.9783
vn 0.0899 0.1867 -0.9783
vn 0.3118 0.6476 -0.6953
vn 0.1599 0.7007 -0.6953
vn 0.0461 0.2021 -0.9783
vn -0.0000 0.2073 -0.9783
vn -0.0000 0.7187 -0.6953
vn 0.5619 0.4481 -0.6953
vn 0.1620 0.1292 -0.9783
vn 0.8839 0.4257 -0.1936
vn 0.6476 0.3118 -0.6953
vn 0.7670 0.6117 -0.1936
vn 0.7187 -0.0000 -0.6953
vn 0.2073 -0.0000 -0.9783
vn 0.2021 0.0461 -0.9783
vn 0.7007 0.1599 -0.6953
vn 0.1867 0.0899 -0.9783
vn 0.8839 -0.4257 -0.1936
vn 0.6475 -0.3118 -0.6953
vn 0.7007 -0.1599 -0.6953
vn 0.9565 -0.2183 -0.1936
vn 0.1867 -0.0899 -0.9783
vn 0.2021 -0.0461 -0.9783
vn 0.3118 -0.6476 -0.6953
vn 0.0899 -0.1867 -0.9783
vn 0.1292 -0.1620 -0.9783
vn 0.4481 -0.5619 -0.6953
vn 0.5619 -0.4481 -0.6953
vn 0.1620 -0.1292 -0.9783
vn 0.1599 -0.7007 -0.6953
vn 0.0461 -0.2021 -0.9783
vn -0.0000 -0.9811 -0.1936
vn -0.0000 -0.7187 -0.6953
vn 0.2183 -0.9565 -0.1936
vn -0.3118 -0.6476 -0.6953
vn -0.0899 -0.1867 -0.9783
vn -0.0461 -0.2021 -0.9783
vn -0.1599 -0.7007 -0.6953
vn -0.0000 -0.2073 -0.9783
vn -0.7670 -0.6117 -0.1936
vn -0.5619 -0.4481 -0.6953
vn -0.4481 -0.5619 -0.6953
vn -0.6117 -0.7670 -0.1936
vn -0.1620 -0.1292 -0.9783
vn -0.1292 -0.1620 -0.9783
vn -0.7187 -0.0000 -0.6953
vn -0.2073 -0.0000 -0.9783
vn -0.2021 -0.0461 -0.9783
vn -0.7007 -0.1599 -0.6953
vn -0.6475 -0.3118 -0.6953
vn -0.1867 -0.0899 -0.9783
vn -0.7007 0.1599 -0.6953
vn -0.2021 0.0461 -0.9783
vn -0.8839 0.4257 -0.1936
vn -0.6476 0.3118 -0.6953
vn -0.9565 0.2183 -0.1936
vn -0.4481 0.5619 -0.6953
vn -0.1292 0.1620 -0.9783
vn -0.1620 0.1292 -0.9783
vn -0.5619 0.4481 -0.6953
vn -0.1867 0.0899 -0.9783
vn -0.2183 0.9565 -0.1936
vn -0.1599 0.7007 -0.6953
vn -0.3118 0.6476 -0.6953
vn -0.4257 0.8839 -0.1936
vn -0.0461 0.2021 -0.9783
vn -0.0899 0.1867 -0.9783
vn 0.2225 0.9749 -0.0000
vn 0.4339 0.9010 -0.0000
vn 0.4257 0.8839 -0.1936
vn 0.2183 0.9565 -0.1936
vn 0.6235 0.7818 -0.0000
vn 0.7818 0.6235 -0.0000
vn 0.6117 0.7670 -0.1936
vn 0.9010 0.4339 -0.0000
vn 0.9010 -0.4339 -0.0000
vn 0.7818 -0.6235 -0.0000
vn 0.7670 -0.6117 -0.1936
vn 1.0000 -0.0000 -0.0000
vn 0.9749 -0.2225 -0.0000
vn 0.9811 -0.0000 -0.1936
vn 0.4339 -0.9010 -0.0000
vn 0.2225 -0.9749 -0.0000
vn 0.4257 -0.8839 -0.1936
vn -0.0000 -1.0000 -0.0000
vn -0.9010 -0.4339 -0.0000
vn -0.9749 -0.2225 -0.0000
vn -0.9565 -0.2183 -0.1936
vn -0.8839 -0.4257 -0.1936
vn -0.2225 -0.9749 -0.0000
vn -0.4339 -0.9010 -0.0000
vn -0.4257 -0.8839 -0.1936
vn -0.2183 -0.9565 -0.1936
vn -0.6235 0.7818 -0.0000
vn -0.4339 0.9010 -0.0000
vn -0.6117 0.7670 -0.1936
vn -0.2225 0.9749 -0.0000
vn -0.0000 0.9811 -0.1936
vn -0.9010 0.4339 -0.0000
vn -0.7818 0.6235 -0.0000
vn -0.7670 0.6117 -0.1936
vn -1.0000 -0.0000 -0.0000
vn -0.9749 0.2225 -0.0000
vn -0.9811 -0.0000 -0.1936
vn 0.9565 0.2183 -0.1936
vn -0.0000 1.0000 -0.0000
vn -0.6235 -0.7818 -0.0000
vn -0.7818 -0.6235 -0.0000
vn 0.6235 -0.7818 -0.0000
vn 0.6117 -0.7670 -0.1936
vn 0.9749 0.2225 -0.0000
vn -0.0000 -0.0000 -1.0000
vn -0.0000 -0.0000 1.0000
vn 0.2183 0.9565 0.1936
vn -0.0000 0.9811 0.1936
vn -0.0000 0.7187 0.6953
vn 0.1599 0.7007 0.6953
vn -0.0000 0.2073 0.9783
vn 0.0461 0.2021 0.9783
vn 0.4257 0.8839 0.1936
vn 0.3118 0.6476 0.6953
vn 0.0899 0.1867 0.9783
vn 0.6117 0.7670 0.1936
vn 0.4481 0.5619 0.6953
vn 0.1292 0.1620 0.9783
vn 0.7670 0.6117 0.1936
vn 0.5619 0.4481 0.6953
vn 0.1620 0.1292 0.9783
vn 0.8839 0.4257 0.1936
vn 0.6476 0.3118 0.6953
vn 0.1867 0.0899 0.9783
vn 0.9565 0.2183 0.1936
vn 0.7007 0.1599 0.6953
vn 0.2021 0.0461 0.9783
vn 0.9811 -0.0000 0.1936
vn 0.7187 -0.0000 0.6953
vn 0.2073 -0.0000 0.9783
vn 0.9565 -0.2183 0.1936
vn 0.7007 -0.1599 0.6953
vn 0.2021 -0.0461 0.9783
vn 0.8839 -0.4257 0.1936
vn 0.6475 -0.3118 0.6953
vn 0.1867 -0.0899 0.9783
vn 0.7670 -0.6117 0.1936
vn 0.5619 -0.4481 0.6953
vn 0.1620 -0.1292 0.9783
vn 0.6117 -0.7670 0.1936
vn 0.4481 -0.5619 0.6953
vn 0.1292 -0.1620 0.9783
vn 0.4257 -0.8839 0.1936
vn 0.3118 -0.6476 0.6953
vn 0.0899 -0.1867 0.9783
vn 0.2183 -0.9565 0.1936
vn 0.1599 -0.7007 0.6953
vn 0.0461 -0.2021 0.9783
vn -0.0000 -0.9811 0.1936
vn -0.0000 -0.7187 0.6953
vn -0.0000 -0.2073 0.9783
vn -0.2183 -0.9565 0.1936
vn -0.1599 -0.7007 0.6953
vn -0.0461 -0.2021 0.9783
vn -0.4257 -0.8839 0.1936
vn -0.3118 -0.6476 0.6953
vn -0.0899 -0.1867 0.9783
vn -0.6117 -0.7670 0.1936
vn -0.4481 -0.5619 0.6953
vn -0.1292 -0.1620 0.9783
vn -0.7670 -0.6117 0.1936
vn -0.5619 -0.4481 0.6953
vn -0.1620 -0.1292 0.9783
vn -0.8839 -0.4257 0.1936
vn -0.6475 -0.3118 0.6953
vn -0.1867 -0.0899 0.9783
vn -0.9565 -0.2183 0.1936
vn -0.7007 -0.1599 0.6953
vn -0.2021 -0.0461 0.9783
vn -0.9811 -0.0000 0.1936
vn -0.7187 -0.0000 0.6953
vn -0.2073 -0.0000 0.9783
vn -0.9565 0.2183 0.1936
vn -0.7007 0.1599 0.6953
vn -0.2021 0.0461 0.9783
vn -0.8839 0.4257 0.1936
vn -0.6476 0.3118 0.6953
vn -0.1867 0.0899 0.9783
vn -0.7670 0.6117 0.1936
vn -0.5619 0.4481 0.6953
vn -0.1620 0.1292 0.9783
vn -0.6117 0.7670 0.1936
vn -0.4481 0.5619 0.6953
vn -0.1292 0.1620 0.9783
vn -0.4257 0.8839 0.1936
vn -0.3118 0.6476 0.6953
vn -0.0899 0.1867 0.9783
vn -0.2183 0.9565 0.1936
vn -0.1599 0.7007 0.6953
vn -0.0461 0.2021 0.9783
vt 0.892857 0.853152
vt 0.661458 0.853152
vt 0.616907 0.853152
vt 0.928572 0.853152
vt 0.948564 0.853152
vt 0.534136 0.853152
vt 0.430150 0.853152
vt 0.021712 0.853152
vt 0.857143 0.853152
vt 0.677833 0.853152
vt 0.821429 0.781873
vt 0.821429 0.853152
vt 0.857143 0.781873
vt 0.750000 0.853152
vt 0.653593 0.853152
vt 0.668505 0.853152
vt 0.785714 0.853152
vt 0.677836 0.853152
vt 0.678572 0.781873
vt 0.678572 0.853152
vt 0.714286 0.853152
vt 0.714286 0.781873
vt 0.614387 0.853152
vt 0.635155 0.853152
vt 0.571429 0.853152
vt 0.544358 0.853152
vt 0.568570 0.853152
vt 0.607143 0.853152
vt 0.642857 0.853152
vt 0.592028 0.853152
vt 0.535715 0.853152
vt 0.519657 0.853152
vt 0.500000 0.781873
vt 0.500000 0.853152
vt 0.535715 0.781873
vt 0.428572 0.853152
vt 0.444630 0.853152
vt 0.469609 0.853152
vt 0.464286 0.853152
vt 0.494677 0.853152
vt 0.357143 0.781873
vt 0.357143 0.853152
vt 0.392857 0.853152
vt 0.392857 0.781873
vt 0.395716 0.853152
vt 0.419928 0.853152
vt 0.250000 0.853152
vt 0.329131 0.853152
vt 0.349899 0.853152
vt 0.285714 0.853152
vt 0.321429 0.853152
vt 0.372258 0.853152
vt 0.214286 0.853152
vt 0.310693 0.853152
vt 0.178572 0.781873
vt 0.178572 0.853152
vt 0.214286 0.781873
vt 0.107143 0.853152
vt 0.286453 0.853152
vt 0.286450 0.853152
vt 0.142857 0.853152
vt 0.295781 0.853152
vt 0.035714 0.781873
vt 0.035714 0.853152
vt 0.071429 0.853152
vt 0.071429 0.781873
vt 0.347378 0.853152
vt 0.302828 0.853152
vt 0.964286 0.561929
vt 0.928571 0.561929
vt 0.928571 0.781873
vt 0.964286 0.781873
vt 0.892857 0.561929
vt 0.857143 0.561929
vt 0.892857 0.781873
vt 0.821429 0.561929
vt 0.678572 0.561929
vt 0.642857 0.561929
vt 0.642857 0.781873
vt 0.750000 0.561929
vt 0.714286 0.561929
vt 0.750000 0.781873
vt 0.571429 0.561929
vt 0.535715 0.561929
vt 0.571429 0.781873
vt 0.500000 0.561929
vt 0.321429 0.561929
vt 0.285714 0.561929
vt 0.285714 0.781873
vt 0.321429 0.781873
vt 0.464286 0.561929
vt 0.428572 0.561929
vt 0.428572 0.781873
vt 0.464286 0.781873
vt 0.107143 0.561929
vt 0.071429 0.561929
vt 0.107143 0.781873
vt 0.035714 0.561929
vt 0.997754 0.853152
vt 1.000000 0.781873
vt 0.178572 0.561929
vt 0.142857 0.561929
vt 0.142857 0.781873
vt 0.250000 0.561929
vt 0.214286 0.561929
vt 0.250000 0.781873
vt 0.785714 0.781873
vt 0.000000 0.561929
vt 0.000000 0.781873
vt 0.392857 0.561929
vt 0.357143 0.561929
vt 0.607143 0.561929
vt 0.607143 0.781873
vt 0.785714 0.561929
vt 1.000000 0.561929
s 1
f 68/1/1 66/2/2 63/3/3 65/4/4
f 62/5/5 60/6/6 58/7/7 59/8/8
f 71/9/9 69/10/10 66/2/2 68/1/1
f 73/11/11 74/12/12 71/9/9 70/13/13
f 80/14/14 78/15/15 75/16/16 77/17/17
f 77/17/17 75/16/16 72/18/18 74/12/12
f 85/19/19 86/20/20 83/21/21 82/22/22
f 86/20/20 84/23/23 81/24/24 83/21/21
f 95/25/25 93/26/26 90/27/27 92/28/28
f 89/29/29 87/30/30 84/23/23 86/20/20
f 98/31/31 96/32/32 93/26/26 95/25/25
f 100/33/33 101/34/34 98/31/31 97/35/35
f 107/36/36 105/37/37 102/38/38 104/39/39
f 104/39/39 102/38/38 99/40/40 101/34/34
f 112/41/41 113/42/42 110/43/43 109/44/44
f 113/42/42 111/45/45 108/46/46 110/43/43
f 122/47/47 120/48/48 117/49/49 119/50/50
f 116/51/51 114/52/52 111/45/45 113/42/42
f 125/53/53 123/54/54 120/48/48 122/47/47
f 127/55/55 128/56/56 125/53/53 124/57/57
f 134/58/58 132/59/59 129/60/60 131/61/61
f 131/61/61 129/60/60 126/62/62 128/56/56
f 139/63/63 140/64/64 137/65/65 136/66/66
f 140/64/64 138/67/67 135/68/68 137/65/65
f 30/69/69 31/70/70 64/71/71 61/72/72
f 59/8/8 58/7/7 138/67/67 140/64/64
f 32/73/73 33/74/74 70/13/13 67/75/75
f 33/74/74 34/76/76 73/11/11 70/13/13
f 38/77/77 39/78/78 88/79/79 85/19/19
f 36/80/80 37/81/81 82/22/22 79/82/82
f 41/83/83 42/84/84 97/35/35 94/85/85
f 42/84/84 43/86/86 100/33/33 97/35/35
f 48/87/87 49/88/88 118/89/89 115/90/90
f 44/91/91 45/92/92 106/93/93 103/94/94
f 54/95/95 55/96/96 136/66/66 133/97/97
f 55/96/96 56/98/98 139/63/63 136/66/66
f 61/72/72 62/5/5 59/99/8 57/100/99
f 52/101/100 53/102/101 130/103/102 127/55/55
f 65/4/4 63/3/3 60/6/6 62/5/5
f 50/104/103 51/105/104 124/57/57 121/106/105
f 79/82/82 80/14/14 77/17/17 76/107/106
f 74/12/12 72/18/18 69/10/10 71/9/9
f 92/28/28 90/27/27 87/30/30 89/29/29
f 88/79/79 89/29/29 86/20/20 85/19/19
f 106/93/93 107/36/36 104/39/39 103/94/94
f 101/34/34 99/40/40 96/32/32 98/31/31
f 119/50/50 117/49/49 114/52/52 116/51/51
f 115/90/90 116/51/51 113/42/42 112/41/41
f 133/97/97 134/58/58 131/61/61 130/103/102
f 128/56/56 126/62/62 123/54/54 125/53/53
f 56/98/98 29/108/107 57/109/99 139/63/63
f 57/109/99 59/8/8 140/64/64 139/63/63
f 46/110/108 47/111/109 112/41/41 109/44/44
f 43/86/86 44/91/91 103/94/94 100/33/33
f 51/105/104 52/101/100 127/55/55 124/57/57
f 40/112/110 41/83/83 94/85/85 91/113/111
f 64/71/71 65/4/4 62/5/5 61/72/72
f 31/70/70 32/73/73 67/75/75 64/71/71
f 34/76/76 35/114/112 76/107/106 73/11/11
f 67/75/75 68/1/1 65/4/4 64/71/71
f 76/107/106 77/17/17 74/12/12 73/11/11
f 82/22/22 83/21/21 80/14/14 79/82/82
f 91/113/111 92/28/28 89/29/29 88/79/79
f 94/85/85 95/25/25 92/28/28 91/113/111
f 103/94/94 104/39/39 101/34/34 100/33/33
f 109/44/44 110/43/43 107/36/36 106/93/93
f 118/89/89 119/50/50 116/51/51 115/90/90
f 121/106/105 122/47/47 119/50/50 118/89/89
f 130/103/102 131/61/61 128/56/56 127/55/55
f 136/66/66 137/65/65 134/58/58 133/97/97
f 60/6/6 63/3/3 66/2/2 69/10/10 72/18/18 75/16/16 78/15/15 81/24/24 84/23/23 87/30/30 90/27/27 93/26/26 96/32/32 99/40/40 102/38/38 105/37/37 108/46/46 111/45/45 114/52/52 117/49/49 120/48/48 123/54/54 126/62/62 129/60/60 132/59/59 135/68/68 138/67/67 58/7/7
f 29/115/107 30/69/69 61/72/72 57/100/99
f 35/114/112 36/80/80 79/82/82 76/107/106
f 39/78/78 40/112/110 91/113/111 88/79/79
f 45/92/92 46/110/108 109/44/44 106/93/93
f 47/111/109 48/87/87 115/90/90 112/41/41
f 53/102/101 54/95/95 133/97/97 130/103/102
f 49/88/88 50/104/103 121/106/105 118/89/89
f 70/13/13 71/9/9 68/1/1 67/75/75
f 83/21/21 81/24/24 78/15/15 80/14/14
f 97/35/35 98/31/31 95/25/25 94/85/85
f 110/43/43 108/46/46 105/37/37 107/36/36
f 124/57/57 125/53/53 122/47/47 121/106/105
f 137/65/65 135/68/68 132/59/59 134/58/58
f 37/81/81 38/77/77 85/19/19 82/22/22
f 1/108/113 2/69/113 3/70/113 4/73/113 5/74/113 6/76/113 7/114/113 8/80/113 9/81/113 10/77/113 11/78/113 12/112/113 13/83/113 14/84/113 15/86/113 16/91/113 17/92/113 18/110/113 19/111/113 20/87/113 21/88/113 22/104/113 23/105/113 24/101/113 25/102/113 26/95/113 27/96/113 28/98/113
f 29/108/114 56/98/114 55/96/114 54/95/114 53/102/114 52/101/114 51/105/114 50/104/114 49/88/114 48/87/114 47/111/114 46/110/114 45/92/114 44/91/114 43/86/114 42/84/114 41/83/114 40/112/114 39/78/114 38/77/114 37/81/114 36/80/114 35/114/114 34/76/114 33/74/114 32/73/114 31/70/114 30/69/114
f 145/72/115 141/100/116 143/99/117 146/5/118
f 146/5/118 143/8/117 142/7/119 144/6/120
f 148/71/121 145/72/115 146/5/118 149/4/122
f 149/4/122 146/5/118 144/6/120 147/3/123
f 151/75/124 148/71/121 149/4/122 152/1/125
f 152/1/125 149/4/122 147/3/123 150/2/126
f 154/13/127 151/75/124 152/1/125 155/9/128
f 155/9/128 152/1/125 150/2/126 153/10/129
f 157/11/130 154/13/127 155/9/128 158/12/131
f 158/12/131 155/9/128 153/10/129 156/18/132
f 160/107/133 157/11/130 158/12/131 161/17/134
f 161/17/134 158/12/131 156/18/132 159/16/135
f 163/82/136 160/107/133 161/17/134 164/14/137
f 164/14/137 161/17/134 159/16/135 162/15/138
f 166/22/139 163/82/136 164/14/137 167/21/140
f 167/21/140 164/14/137 162/15/138 165/24/141
f 169/19/142 166/22/139 167/21/140 170/20/143
f 170/20/143 167/21/140 165/24/141 168/23/144
f 172/79/145 169/19/142 170/20/143 173/29/146
f 173/29/146 170/20/143 168/23/144 171/30/147
f 175/113/148 172/79/145 173/29/146 176/28/149
f 176/28/149 173/29/146 171/30/147 174/27/150
f 178/85/151 175/113/148 176/28/149 179/25/152
f 179/25/152 176/28/149 174/27/150 177/26/153
f 181/35/154 178/85/151 179/25/152 182/31/155
f 182/31/155 179/25/152 177/26/153 180/32/156
f 184/33/157 181/35/154 182/31/155 185/34/158
f 185/34/158 182/31/155 180/32/156 183/40/159
f 187/94/160 184/33/157 185/34/158 188/39/161
f 188/39/161 185/34/158 183/40/159 186/38/162
f 190/93/163 187/94/160 188/39/161 191/36/164
f 191/36/164 188/39/161 186/38/162 189/37/165
f 193/44/166 190/93/163 191/36/164 194/43/167
f 194/43/167 191/36/164 189/37/165 192/46/168
f 196/41/169 193/44/166 194/43/167 197/42/170
f 197/42/170 194/43/167 192/46/168 195/45/171
f 199/90/172 196/41/169 197/42/170 200/51/173
f 200/51/173 197/42/170 195/45/171 198/52/174
f 202/89/175 199/90/172 200/51/173 203/50/176
f 203/50/176 200/51/173 198/52/174 201/49/177
f 205/106/178 202/89/175 203/50/176 206/47/179
f 206/47/179 203/50/176 201/49/177 204/48/180
f 208/57/181 205/106/178 206/47/179 209/53/182
f 209/53/182 206/47/179 204/48/180 207/54/183
f 211/55/184 208/57/181 209/53/182 212/56/185
f 212/56/185 209/53/182 207/54/183 210/62/186
f 214/103/187 211/55/184 212/56/185 215/61/188
f 215/61/188 212/56/185 210/62/186 213/60/189
f 217/97/190 214/103/187 215/61/188 218/58/191
f 218/58/191 215/61/188 213/60/189 216/59/192
f 220/66/193 217/97/190 218/58/191 221/65/194
f 221/65/194 218/58/191 216/59/192 219/68/195
f 223/63/196 220/66/193 221/65/194 224/64/197
f 224/64/197 221/65/194 219/68/195 222/67/198
f 141/109/116 223/63/196 224/64/197 143/8/117
f 143/8/117 224/64/197 222/67/198 142/7/119
f 144/6/120 142/7/119 222/67/198 219/68/195 216/59/192 213/60/189 210/62/186 207/54/183 204/48/180 201/49/177 198/52/174 195/45/171 192/46/168 189/37/165 186/38/162 183/40/159 180/32/156 177/26/153 174/27/150 171/30/147 168/23/144 165/24/141 162/15/138 159/16/135 156/18/132 153/10/129 150/2/126 147/3/123
f 28/98/98 223/63/196 141/109/116 1/108/107
f 1/115/107 141/100/116 145/72/115 2/69/69
f 2/69/69 145/72/115 148/71/121 3/70/70
f 3/70/70 148/71/121 151/75/124 4/73/73
f 4/73/73 151/75/124 154/13/127 5/74/74
f 5/74/74 154/13/127 157/11/130 6/76/76
f 6/76/76 157/11/130 160/107/133 7/114/112
f 7/114/112 160/107/133 163/82/136 8/80/80
f 8/80/80 163/82/136 166/22/139 9/81/81
f 9/81/81 166/22/139 169/19/142 10/77/77
f 10/77/77 169/19/142 172/79/145 11/78/78
f 11/78/78 172/79/145 175/113/148 12/112/110
f 12/112/110 175/113/148 178/85/151 13/83/83
f 13/83/83 178/85/151 181/35/154 14/84/84
f 14/84/84 181/35/154 184/33/157 15/86/86
f 15/86/86 184/33/157 187/94/160 16/91/91
f 16/91/91 187/94/160 190/93/163 17/92/92
f 17/92/92 190/93/163 193/44/166 18/110/108
f 18/110/108 193/44/166 196/41/169 19/111/109
f 19/111/109 196/41/169 199/90/172 20/87/87
f 20/87/87 199/90/172 202/89/175 21/88/88
f 21/88/88 202/89/175 205/106/178 22/104/103
f 22/104/103 205/106/178 208/57/181 23/105/104
f 23/105/104 208/57/181 211/55/184 24/101/100
f 24/101/100 211/55/184 214/103/187 25/102/101
f 25/102/101 214/103/187 217/97/190 26/95/95
f 26/95/95 217/97/190 220/66/193 27/96/96
f 27/96/96 220/66/193 223/63/196 28/98/98
