# Blender 5.1.0
# www.blender.org
mtllib Lights.mtl
o Cube.002
v 0.096200 0.511574 -0.421480
v 0.000000 0.511574 -0.432319
v 0.187576 0.511574 -0.389506
v 0.269547 0.511574 -0.338001
v 0.338001 0.511574 -0.269547
v 0.389506 0.511574 -0.187576
v 0.421480 0.511574 -0.096200
v 0.432319 0.511574 0.000000
v 0.421480 0.511574 0.096200
v 0.389506 0.511574 0.187576
v 0.338001 0.511574 0.269547
v 0.269547 0.511574 0.338001
v 0.187576 0.511574 0.389506
v 0.096200 0.511574 0.421480
v 0.000000 0.511574 0.432319
v -0.096200 0.511574 -0.421480
v -0.187576 0.511574 -0.389506
v -0.269547 0.511574 -0.338001
v -0.338001 0.511574 -0.269547
v -0.389506 0.511574 -0.187576
v -0.421480 0.511574 -0.096200
v -0.432319 0.511574 0.000000
v -0.421480 0.511574 0.096200
v -0.389506 0.511574 0.187576
v -0.338001 0.511574 0.269547
v -0.269547 0.511574 0.338001
v -0.187576 0.511574 0.389506
v -0.096200 0.511574 0.421480
v 0.159131 0.418279 -0.697197
v 0.000000 0.418279 -0.715126
v 0.310282 0.418279 -0.644307
v 0.445874 0.418279 -0.559108
v 0.559108 0.418279 -0.445874
v 0.644307 0.418279 -0.310282
v 0.697197 0.418279 -0.159131
v 0.715126 0.418279 0.000000
v 0.697197 0.418279 0.159131
v 0.644307 0.418279 0.310282
v 0.559108 0.418279 0.445874
v 0.445874 0.418279 0.559108
v 0.310282 0.418279 0.644307
v 0.159131 0.418279 0.697197
v 0.000000 0.418279 0.715126
v -0.159131 0.418279 -0.697197
v -0.310282 0.418279 -0.644307
v -0.445874 0.418279 -0.559108
v -0.559108 0.418279 -0.445874
v -0.644307 0.418279 -0.310282
v -0.697197 0.418279 -0.159131
v -0.715126 0.418279 0.000000
v -0.697197 0.418279 0.159131
v -0.644307 0.418279 0.310282
v -0.559108 0.418279 0.445874
v -0.445874 0.418279 0.559108
v -0.310282 0.418279 0.644307
v -0.159131 0.418279 0.697197
vn 0.0378 0.9855 -0.1654
vn -0.0000 0.9855 -0.1697
vn 0.0736 0.9855 -0.1529
vn 0.1058 0.9855 -0.1326
vn 0.1326 0.9855 -0.1058
vn 0.1529 0.9855 -0.0736
vn 0.1654 0.9855 -0.0378
vn 0.1697 0.9855 -0.0000
vn 0.1654 0.9855 0.0378
vn 0.1529 0.9855 0.0736
vn 0.1326 0.9855 0.1058
vn 0.1058 0.9855 0.1326
vn 0.0736 0.9855 0.1529
vn 0.0378 0.9855 0.1654
vn -0.0000 0.9855 0.1697
vn -0.0378 0.9855 -0.1654
vn -0.0736 0.9855 -0.1529
vn -0.1058 0.9855 -0.1326
vn -0.1326 0.9855 -0.1058
vn -0.1529 0.9855 -0.0736
vn -0.1654 0.9855 -0.0378
vn -0.1697 0.9855 -0.0000
vn -0.1654 0.9855 0.0378
vn -0.1529 0.9855 0.0736
vn -0.1326 0.9855 0.1058
vn -0.1058 0.9855 0.1326
vn -0.0736 0.9855 0.1529
vn -0.0378 0.9855 0.1654
vn 0.0697 0.9497 -0.3054
vn -0.0000 0.9497 -0.3133
vn 0.1359 0.9497 -0.2823
vn 0.1953 0.9497 -0.2449
vn 0.2449 0.9497 -0.1953
vn 0.2823 0.9497 -0.1359
vn 0.3054 0.9497 -0.0697
vn 0.3133 0.9497 -0.0000
vn 0.3054 0.9497 0.0697
vn 0.2823 0.9497 0.1359
vn 0.2449 0.9497 0.1953
vn 0.1953 0.9497 0.2449
vn 0.1359 0.9497 0.2823
vn 0.0697 0.9497 0.3054
vn -0.0000 0.9497 0.3133
vn -0.0697 0.9497 -0.3054
vn -0.1359 0.9497 -0.2823
vn -0.1953 0.9497 -0.2449
vn -0.2449 0.9497 -0.1953
vn -0.2823 0.9497 -0.1359
vn -0.3054 0.9497 -0.0697
vn -0.3133 0.9497 -0.0000
vn -0.3054 0.9497 0.0697
vn -0.2823 0.9497 0.1359
vn -0.2449 0.9497 0.1953
vn -0.1953 0.9497 0.2449
vn -0.1359 0.9497 0.2823
vn -0.0697 0.9497 0.3054
vt 0.286588 0.670335
vt 0.138170 0.788539
vt 0.083138 0.700748
vt 0.254009 0.618618
vt 0.765522 0.560363
vt 0.950743 0.602505
vt 0.916587 0.700478
vt 0.745528 0.618141
vt 0.713174 0.669994
vt 0.861492 0.788310
vt 0.788261 0.861604
vt 0.670089 0.713317
vt 0.618439 0.745940
vt 0.700614 0.916706
vt 0.602996 0.950896
vt 0.560807 0.766228
vt 0.500038 0.773079
vt 0.500153 0.962648
vt 0.397273 0.951094
vt 0.439299 0.766253
vt 0.381594 0.746036
vt 0.299479 0.917061
vt 0.211528 0.861977
vt 0.329864 0.713480
vt 0.233782 0.560922
vt 0.049059 0.603105
vt 0.037377 0.500352
vt 0.226932 0.500172
vt 0.772133 0.499576
vt 0.765324 0.438811
vt 0.950280 0.396203
vt 0.962205 0.499291
vt 0.745142 0.381101
vt 0.915831 0.298585
vt 0.712618 0.329364
vt 0.860687 0.211020
vt 0.669428 0.286202
vt 0.787387 0.137970
vt 0.617706 0.253759
vt 0.699739 0.082954
vt 0.560041 0.233636
vt 0.602007 0.048928
vt 0.499367 0.226907
vt 0.499164 0.037385
vt 0.438682 0.233804
vt 0.396360 0.049114
vt 0.381054 0.254067
vt 0.298674 0.083295
vt 0.329421 0.286658
vt 0.210847 0.138513
vt 0.286289 0.329948
vt 0.137661 0.212058
vt 0.253809 0.381708
vt 0.082805 0.299912
vt 0.233675 0.439427
vt 0.048895 0.397582
s 1
usemtl 
f 26/1/26 54/2/54 55/3/55 27/4/27
f 16/5/16 44/6/44 45/7/45 17/8/17
f 18/9/18 46/10/46 47/11/47 19/12/19
f 20/13/20 48/14/48 49/15/49 21/16/21
f 22/17/22 50/18/50 51/19/51 23/20/23
f 24/21/24 52/22/52 53/23/53 25/24/25
f 28/25/28 56/26/56 43/27/43 15/28/15
f 2/29/2 1/30/1 29/31/29 30/32/30
f 1/30/1 3/33/3 31/34/31 29/31/29
f 3/33/3 4/35/4 32/36/32 31/34/31
f 4/35/4 5/37/5 33/38/33 32/36/32
f 5/37/5 6/39/6 34/40/34 33/38/33
f 6/39/6 7/41/7 35/42/35 34/40/34
f 7/41/7 8/43/8 36/44/36 35/42/35
f 8/43/8 9/45/9 37/46/37 36/44/36
f 9/45/9 10/47/10 38/48/38 37/46/37
f 10/47/10 11/49/11 39/50/39 38/48/38
f 11/49/11 12/51/12 40/52/40 39/50/39
f 12/51/12 13/53/13 41/54/41 40/52/40
f 13/53/13 14/55/14 42/56/42 41/54/41
f 14/55/14 15/28/15 43/27/43 42/56/42
f 2/29/2 30/32/30 44/6/44 16/5/16
f 17/8/17 45/7/45 46/10/46 18/9/18
f 19/12/19 47/11/47 48/14/48 20/13/20
f 21/16/21 49/15/49 50/18/50 22/17/22
f 23/20/23 51/19/51 52/22/52 24/21/24
f 25/24/25 53/23/53 54/2/54 26/1/26
f 27/4/27 55/3/55 56/26/56 28/25/28
f 1/30/1 2/29/2 15/28/15 14/55/14 13/53/13 12/51/12 11/49/11 10/47/10 9/45/9 8/43/8 7/41/7 6/39/6 5/37/5 4/35/4 3/33/3
f 16/5/16 17/8/17 18/9/18 19/12/19 20/13/20 21/16/21 22/17/22 23/20/23 24/21/24 25/24/25 26/1/26 27/4/27 28/25/28 15/28/15 2/29/2
