# Blender 5.1.0
# www.blender.org
mtllib Lights.mtl
o Cube.001
v 0.808876 0.465137 -0.714492
v 0.714492 0.465137 -0.808876
v 0.793763 0.465137 -0.770894
v 0.770894 0.465137 -0.793763
v 0.808876 0.465137 0.714492
v -0.808876 0.465137 -0.714492
v -0.714492 0.465137 -0.808876
v 0.000000 0.465137 -0.808876
v 0.714492 0.465137 0.808876
v -0.793763 0.465137 -0.770894
v -0.770894 0.465137 -0.793763
v -0.808876 0.465137 0.714492
v -0.714492 0.465137 0.808876
v 0.000000 0.465137 0.808876
v -0.793763 0.465137 0.770894
v 0.793763 0.465137 0.770894
v 0.770894 0.465137 0.793763
v -0.770894 0.465137 0.793763
v 0.793763 -0.000000 -0.770894
v 0.808876 -0.000000 -0.714492
v 0.770894 -0.000000 -0.793763
v 0.714492 -0.000000 -0.808876
v 0.781704 -0.137836 -0.770894
v 0.796587 -0.140460 -0.714492
v 0.759182 -0.133864 -0.793763
v 0.703637 -0.124070 -0.808876
v 0.000000 0.000000 -0.808876
v 0.745893 -0.271483 -0.770894
v 0.760095 -0.276652 -0.714492
v 0.724403 -0.263661 -0.793763
v 0.671402 -0.244371 -0.808876
v 0.687419 -0.396882 -0.770894
v 0.700507 -0.404438 -0.714492
v 0.667614 -0.385447 -0.793763
v 0.618768 -0.357246 -0.808876
v 0.793763 -0.000000 0.770894
v 0.808876 -0.000000 0.714492
v 0.770894 -0.000000 0.793763
v 0.608058 -0.510221 -0.770894
v 0.000000 0.000000 0.808876
v 0.619635 -0.519935 -0.714492
v 0.590539 -0.495521 -0.793763
v 0.547332 -0.459266 -0.808876
v 0.714492 -0.000000 0.808876
v 0.781704 -0.137836 0.770894
v 0.796587 -0.140460 0.714492
v 0.510221 -0.608058 -0.770894
v 0.519935 -0.619635 -0.714492
v 0.495521 -0.590539 -0.793763
v 0.459266 -0.547332 -0.808876
v 0.759182 -0.133864 0.793763
v 0.703637 -0.124070 0.808876
v 0.745893 -0.271483 0.770894
v 0.396881 -0.687419 -0.770894
v 0.404438 -0.700507 -0.714492
v 0.385447 -0.667614 -0.793763
v 0.357246 -0.618768 -0.808876
v 0.760095 -0.276652 0.714492
v 0.724403 -0.263661 0.793763
v 0.671402 -0.244371 0.808876
v 0.271483 -0.745893 -0.770894
v 0.276652 -0.760095 -0.714492
v 0.000000 -0.793763 -0.770894
v 0.000000 -0.808876 -0.714492
v 0.000000 -0.770894 -0.793763
v 0.000000 -0.714492 -0.808876
v 0.263661 -0.724404 -0.793763
v 0.244371 -0.671403 -0.808876
v 0.687419 -0.396882 0.770894
v 0.700507 -0.404438 0.714492
v -0.793763 -0.000000 -0.770894
v -0.808876 -0.000000 -0.714492
v -0.770894 -0.000000 -0.793763
v -0.714492 -0.000000 -0.808876
v 0.667614 -0.385447 0.793763
v 0.618768 -0.357246 0.808876
v 0.137835 -0.781704 -0.770894
v -0.781704 -0.137836 -0.770894
v -0.796587 -0.140460 -0.714492
v -0.759182 -0.133864 -0.793763
v -0.703637 -0.124070 -0.808876
v 0.140460 -0.796587 -0.714492
v 0.133864 -0.759183 -0.793763
v 0.124070 -0.703637 -0.808876
v 0.000000 -0.793763 0.770894
v -0.745893 -0.271483 -0.770894
v -0.760095 -0.276652 -0.714492
v -0.724403 -0.263661 -0.793763
v -0.671402 -0.244371 -0.808876
v 0.000000 -0.808876 0.714492
v 0.000000 -0.770894 0.793763
v 0.000000 -0.714492 0.808876
v -0.687419 -0.396882 -0.770894
v -0.700507 -0.404438 -0.714492
v -0.667614 -0.385447 -0.793763
v -0.618768 -0.357246 -0.808876
v -0.793763 -0.000000 0.770894
v -0.808876 -0.000000 0.714492
v -0.770894 -0.000000 0.793763
v -0.608058 -0.510221 -0.770894
v -0.619635 -0.519935 -0.714492
v -0.590539 -0.495521 -0.793763
v -0.547332 -0.459266 -0.808876
v -0.714492 -0.000000 0.808876
v -0.781704 -0.137836 0.770894
v -0.796587 -0.140460 0.714492
v -0.510221 -0.608058 -0.770894
v -0.519935 -0.619635 -0.714492
v -0.495521 -0.590539 -0.793763
v -0.459266 -0.547332 -0.808876
v -0.759182 -0.133864 0.793763
v -0.703637 -0.124070 0.808876
v -0.745893 -0.271483 0.770894
v -0.396881 -0.687419 -0.770894
v -0.404438 -0.700507 -0.714492
v -0.385447 -0.667614 -0.793763
v -0.357246 -0.618768 -0.808876
v -0.760095 -0.276652 0.714492
v -0.724403 -0.263661 0.793763
v -0.671402 -0.244371 0.808876
v -0.271483 -0.745893 -0.770894
v -0.276652 -0.760095 -0.714492
v -0.263661 -0.724404 -0.793763
v -0.244371 -0.671403 -0.808876
v -0.687419 -0.396882 0.770894
v -0.700507 -0.404438 0.714492
v -0.667614 -0.385447 0.793763
v -0.618768 -0.357246 0.808876
v -0.137835 -0.781704 -0.770894
v -0.140460 -0.796587 -0.714492
v -0.133864 -0.759183 -0.793763
v -0.124070 -0.703637 -0.808876
v -0.608058 -0.510221 0.770894
v -0.619635 -0.519935 0.714492
v -0.590539 -0.495521 0.793763
v -0.547332 -0.459266 0.808876
v -0.510221 -0.608058 0.770894
v 0.608058 -0.510221 0.770894
v 0.619635 -0.519935 0.714492
v 0.590539 -0.495521 0.793763
v 0.547332 -0.459266 0.808876
v -0.519935 -0.619635 0.714492
v -0.495521 -0.590539 0.793763
v -0.459266 -0.547332 0.808876
v 0.510221 -0.608058 0.770894
v 0.519935 -0.619635 0.714492
v 0.495521 -0.590539 0.793763
v 0.459266 -0.547332 0.808876
v 0.808876 -0.000000 -0.187981
v 0.808876 -0.000000 -0.097949
v 0.770458 -0.000000 -0.142965
v 0.796587 -0.140460 -0.097949
v 0.000000 -0.808876 -0.187981
v 0.000000 -0.808876 -0.097949
v 0.000000 -0.770458 -0.142965
v -0.808876 -0.000000 -0.187981
v -0.808876 -0.000000 -0.097949
v -0.770458 -0.000000 -0.142965
v -0.796587 -0.140460 -0.097949
v -0.796587 -0.140460 -0.187981
v -0.758752 -0.133789 -0.142965
v -0.760095 -0.276652 -0.187981
v -0.760095 -0.276652 -0.097949
v -0.723993 -0.263512 -0.142965
v -0.700507 -0.404438 -0.097949
v -0.700507 -0.404438 -0.187981
v -0.667236 -0.385229 -0.142965
v -0.619635 -0.519935 -0.097949
v -0.619635 -0.519935 -0.187981
v -0.590205 -0.495241 -0.142965
v -0.519935 -0.619635 -0.097949
v -0.519935 -0.619635 -0.187981
v -0.495241 -0.590205 -0.142965
v -0.404438 -0.700507 -0.187981
v -0.404438 -0.700507 -0.097949
v -0.385229 -0.667236 -0.142965
v -0.276652 -0.760095 -0.187981
v -0.276652 -0.760095 -0.097949
v -0.263512 -0.723993 -0.142965
v -0.140460 -0.796587 -0.187981
v -0.140460 -0.796587 -0.097949
v -0.133789 -0.758753 -0.142965
v 0.796587 -0.140460 -0.187981
v 0.758752 -0.133789 -0.142965
v 0.760095 -0.276652 -0.187981
v 0.760095 -0.276652 -0.097949
v 0.723993 -0.263512 -0.142965
v 0.700507 -0.404438 -0.097949
v 0.700507 -0.404438 -0.187981
v 0.667236 -0.385229 -0.142965
v 0.619635 -0.519935 -0.097949
v 0.619635 -0.519935 -0.187981
v 0.590205 -0.495241 -0.142965
v 0.519935 -0.619635 -0.097949
v 0.519935 -0.619635 -0.187981
v 0.495241 -0.590205 -0.142965
v 0.404438 -0.700507 -0.187981
v 0.404438 -0.700507 -0.097949
v 0.385229 -0.667236 -0.142965
v 0.276652 -0.760095 -0.187981
v 0.276652 -0.760095 -0.097949
v 0.263512 -0.723993 -0.142965
v 0.140460 -0.796587 -0.187981
v 0.140460 -0.796587 -0.097949
v 0.133789 -0.758753 -0.142965
v 0.000000 -0.808876 -0.390853
v 0.000000 -0.808876 -0.480885
v 0.000000 -0.770458 -0.435869
v -0.808876 -0.000000 -0.480885
v -0.808876 -0.000000 -0.390853
v -0.770458 -0.000000 -0.435869
v -0.796587 -0.140460 -0.480885
v -0.796587 -0.140460 -0.390853
v -0.758752 -0.133789 -0.435869
v -0.760095 -0.276652 -0.390853
v -0.760095 -0.276652 -0.480885
v -0.723993 -0.263512 -0.435869
v -0.700507 -0.404438 -0.480885
v -0.700507 -0.404438 -0.390853
v -0.667236 -0.385229 -0.435869
v -0.619635 -0.519935 -0.480885
v -0.619635 -0.519935 -0.390853
v -0.590205 -0.495241 -0.435869
v -0.519935 -0.619635 -0.480885
v -0.519935 -0.619635 -0.390853
v -0.495241 -0.590205 -0.435869
v -0.404438 -0.700507 -0.390853
v -0.404438 -0.700507 -0.480885
v -0.385229 -0.667236 -0.435869
v -0.276652 -0.760095 -0.390853
v -0.276652 -0.760095 -0.480885
v -0.263512 -0.723993 -0.435869
v -0.140460 -0.796587 -0.390853
v -0.140460 -0.796587 -0.480885
v -0.133789 -0.758753 -0.435869
v -0.808876 0.043695 -0.435869
v -0.808876 0.043695 -0.142965
v -0.808876 0.465137 -0.435869
v -0.808876 0.465137 -0.142965
v 0.808876 -0.000000 -0.480885
v 0.808876 -0.000000 -0.390853
v 0.770458 -0.000000 -0.435869
v 0.796587 -0.140460 -0.480885
v 0.796587 -0.140460 -0.390853
v 0.758752 -0.133789 -0.435869
v 0.760095 -0.276652 -0.390853
v 0.760095 -0.276652 -0.480885
v 0.723993 -0.263512 -0.435869
v 0.700507 -0.404438 -0.480885
v 0.700507 -0.404438 -0.390853
v 0.667236 -0.385229 -0.435869
v 0.619635 -0.519935 -0.480885
v 0.619635 -0.519935 -0.390853
v 0.590205 -0.495241 -0.435869
v 0.519935 -0.619635 -0.480885
v 0.519935 -0.619635 -0.390853
v 0.495241 -0.590205 -0.435869
v 0.404438 -0.700507 -0.390853
v 0.404438 -0.700507 -0.480885
v 0.385229 -0.667236 -0.435869
v -0.396881 -0.687419 0.770894
v -0.404438 -0.700507 0.714492
v -0.385447 -0.667614 0.793763
v -0.357246 -0.618768 0.808876
v -0.271483 -0.745893 0.770894
v -0.276652 -0.760095 0.714492
v -0.263661 -0.724404 0.793763
v -0.244371 -0.671403 0.808876
v -0.137835 -0.781704 0.770894
v -0.140460 -0.796587 0.714492
v -0.133864 -0.759183 0.793763
v -0.124070 -0.703637 0.808876
v 0.276652 -0.760095 -0.390853
v 0.276652 -0.760095 -0.480885
v 0.263512 -0.723993 -0.435869
v 0.140460 -0.796587 -0.390853
v 0.140460 -0.796587 -0.480885
v 0.133789 -0.758753 -0.435869
v 0.808876 0.043695 -0.435869
v 0.808876 0.043695 -0.142965
v 0.808876 0.465137 -0.435869
v 0.808876 0.465137 -0.142965
v 0.396881 -0.687419 0.770894
v 0.404438 -0.700507 0.714492
v 0.385447 -0.667614 0.793763
v 0.357246 -0.618768 0.808876
v 0.271483 -0.745893 0.770894
v 0.000000 -0.808876 0.187981
v 0.000000 -0.808876 0.097949
v 0.000000 -0.770458 0.142965
v -0.808876 -0.000000 0.187981
v -0.808876 -0.000000 0.097949
v -0.770458 -0.000000 0.142965
v -0.796587 -0.140460 0.097949
v -0.796587 -0.140460 0.187981
v -0.758752 -0.133789 0.142965
v -0.760095 -0.276652 0.187981
v -0.760095 -0.276652 0.097949
v -0.723993 -0.263512 0.142965
v -0.700507 -0.404438 0.097949
v -0.700507 -0.404438 0.187981
v -0.667236 -0.385229 0.142965
v -0.619635 -0.519935 0.097949
v -0.619635 -0.519935 0.187981
v -0.590205 -0.495241 0.142965
v -0.519935 -0.619635 0.097949
v -0.519935 -0.619635 0.187981
v -0.495241 -0.590205 0.142965
v -0.404438 -0.700507 0.187981
v -0.404438 -0.700507 0.097949
v -0.385229 -0.667236 0.142965
v -0.276652 -0.760095 0.187981
v -0.276652 -0.760095 0.097949
v -0.263512 -0.723993 0.142965
v -0.140460 -0.796587 0.187981
v -0.140460 -0.796587 0.097949
v -0.133789 -0.758753 0.142965
v 0.276652 -0.760095 0.714492
v 0.263661 -0.724404 0.793763
v 0.244371 -0.671403 0.808876
v 0.137835 -0.781704 0.770894
v 0.140460 -0.796587 0.714492
v 0.133864 -0.759183 0.793763
v 0.124070 -0.703637 0.808876
v 0.808876 -0.000000 0.187981
v 0.808876 -0.000000 0.097949
v 0.770458 -0.000000 0.142965
v 0.796587 -0.140460 0.097949
v 0.796587 -0.140460 0.187981
v 0.758752 -0.133789 0.142965
v 0.760095 -0.276652 0.187981
v 0.760095 -0.276652 0.097949
v 0.723993 -0.263512 0.142965
v 0.700507 -0.404438 0.097949
v 0.700507 -0.404438 0.187981
v 0.667236 -0.385229 0.142965
v 0.619635 -0.519935 0.097949
v 0.619635 -0.519935 0.187981
v 0.000000 -0.808876 0.390853
v 0.000000 -0.808876 0.480885
v 0.000000 -0.770458 0.435869
v -0.808876 -0.000000 0.480885
v -0.808876 -0.000000 0.390853
v -0.770458 -0.000000 0.435869
v -0.796587 -0.140460 0.480885
v -0.796587 -0.140460 0.390853
v -0.758752 -0.133789 0.435869
v -0.760095 -0.276652 0.390853
v -0.760095 -0.276652 0.480885
v -0.723993 -0.263512 0.435869
v -0.700507 -0.404438 0.480885
v -0.700507 -0.404438 0.390853
v -0.667236 -0.385229 0.435869
v -0.619635 -0.519935 0.480885
v -0.619635 -0.519935 0.390853
v -0.590205 -0.495241 0.435869
v -0.519935 -0.619635 0.480885
v -0.519935 -0.619635 0.390853
v -0.495241 -0.590205 0.435869
v -0.404438 -0.700507 0.390853
v -0.404438 -0.700507 0.480885
v -0.385229 -0.667236 0.435869
v -0.276652 -0.760095 0.390853
v -0.276652 -0.760095 0.480885
v -0.263512 -0.723993 0.435869
v -0.140460 -0.796587 0.390853
v -0.140460 -0.796587 0.480885
v -0.133789 -0.758753 0.435869
v -0.808876 0.043695 0.435869
v -0.808876 0.043695 0.142965
v -0.808876 0.465137 0.435869
v -0.808876 0.465137 0.142965
v 0.590205 -0.495241 0.142965
v 0.519935 -0.619635 0.097949
v 0.519935 -0.619635 0.187981
v 0.495241 -0.590205 0.142965
v 0.404438 -0.700507 0.187981
v 0.404438 -0.700507 0.097949
v 0.385229 -0.667236 0.142965
v 0.276652 -0.760095 0.187981
v 0.276652 -0.760095 0.097949
v 0.263512 -0.723993 0.142965
v 0.140460 -0.796587 0.187981
v 0.140460 -0.796587 0.097949
v 0.133789 -0.758753 0.142965
v 0.808876 -0.000000 0.480885
v 0.808876 -0.000000 0.390853
v 0.770458 -0.000000 0.435869
v 0.796587 -0.140460 0.480885
v 0.796587 -0.140460 0.390853
v 0.758752 -0.133789 0.435869
v 0.760095 -0.276652 0.390853
v -0.714492 0.043695 -0.808876
v 0.760095 -0.276652 0.480885
v 0.723993 -0.263512 0.435869
v -0.793763 0.043695 -0.770894
v 0.700507 -0.404438 0.480885
v -0.770894 0.043695 -0.793763
v -0.808876 0.043695 -0.714492
v 0.000000 0.043695 -0.808876
v 0.700507 -0.404438 0.390853
v 0.667236 -0.385229 0.435869
v 0.619635 -0.519935 0.480885
v 0.619635 -0.519935 0.390853
v 0.590205 -0.495241 0.435869
v 0.519935 -0.619635 0.480885
v 0.519935 -0.619635 0.390853
v 0.495241 -0.590205 0.435869
v 0.404438 -0.700507 0.390853
v 0.404438 -0.700507 0.480885
v 0.385229 -0.667236 0.435869
v -0.714492 0.043695 0.808876
v 0.276652 -0.760095 0.390853
v 0.276652 -0.760095 0.480885
v -0.793763 0.043695 0.770894
v 0.263512 -0.723993 0.435869
v -0.770894 0.043695 0.793763
v -0.808876 0.043695 0.714492
v 0.000000 0.043695 0.808876
v 0.140460 -0.796587 0.390853
v 0.140460 -0.796587 0.480885
v 0.133789 -0.758753 0.435869
v 0.808876 0.043695 0.435869
v 0.808876 0.043695 0.142965
v 0.808876 0.465137 0.435869
v 0.808876 0.465137 0.142965
v 0.714492 0.043695 -0.808876
v 0.793763 0.043695 -0.770894
v 0.770894 0.043695 -0.793763
v 0.808876 0.043695 -0.714492
v 0.714492 0.043695 0.808876
v 0.793763 0.043695 0.770894
v 0.770894 0.043695 0.793763
v 0.808876 0.043695 0.714492
vn -0.0000 -0.0000 1.0000
vn -0.1305 -0.0000 0.9914
vn -0.1341 -0.0060 0.9910
vn -0.6587 -0.3803 0.6492
vn -0.5827 -0.4889 0.6492
vn 0.5029 -0.0887 0.8598
vn 0.1355 -0.0239 0.9905
vn 0.1293 -0.0471 0.9905
vn 0.4798 -0.1746 0.8598
vn -0.7148 -0.2602 -0.6492
vn -0.6587 -0.3803 -0.6492
vn -0.0000 -1.0000 -0.0000
vn -0.1736 -0.9848 -0.0000
vn -0.3912 -0.3282 0.8598
vn -0.3282 -0.3912 0.8598
vn -0.0885 -0.1054 0.9905
vn -0.1054 -0.0885 0.9905
vn -0.0000 -0.0000 -1.0000
vn 0.1305 -0.0000 -0.9914
vn -0.9906 -0.0431 0.1299
vn -0.9765 -0.1722 0.1296
vn -0.8563 -0.1510 0.4939
vn -0.8672 -0.0377 0.4966
vn -0.2602 -0.7148 -0.6492
vn -0.3803 -0.6587 -0.6492
vn 0.6587 -0.3803 -0.6492
vn 0.5827 -0.4889 -0.6492
vn 0.6374 -0.7596 -0.1296
vn 0.4958 -0.8587 -0.1296
vn 0.4348 -0.7530 -0.4939
vn 0.5589 -0.6661 -0.4939
vn -0.9318 -0.3391 0.1296
vn -0.8587 -0.4958 0.1296
vn -0.7530 -0.4348 0.4939
vn -0.8171 -0.2974 0.4939
vn 0.7530 -0.4348 0.4939
vn 0.4422 -0.2553 0.8598
vn 0.3912 -0.3282 0.8598
vn 0.6661 -0.5589 0.4939
vn 0.7491 -0.1321 -0.6492
vn 0.7148 -0.2602 -0.6492
vn -0.1192 -0.0688 -0.9905
vn -0.1054 -0.0885 -0.9905
vn 0.6587 -0.3803 0.6492
vn 0.5827 -0.4889 0.6492
vn 0.9848 -0.1736 -0.0000
vn 0.9765 -0.1722 0.1296
vn 0.9318 -0.3391 0.1296
vn 0.9397 -0.3420 -0.0000
vn 0.1293 -0.0471 -0.9905
vn 0.1355 -0.0239 -0.9905
vn -0.7491 -0.1321 -0.6492
vn -0.5827 -0.4889 -0.6492
vn -0.4889 -0.5827 -0.6492
vn 0.5052 -0.0222 0.8627
vn 0.1341 -0.0060 0.9910
vn -0.4889 -0.5827 0.6492
vn -0.3803 -0.6587 0.6492
vn 0.4422 -0.2553 -0.8598
vn 0.3912 -0.3282 -0.8598
vn 0.1054 -0.0885 -0.9905
vn 0.1192 -0.0688 -0.9905
vn -0.0000 -0.5106 -0.8598
vn -0.0000 -0.8695 -0.4939
vn -0.1510 -0.8563 -0.4939
vn -0.0887 -0.5029 -0.8598
vn -0.0000 -0.7606 0.6492
vn 0.1321 -0.7491 0.6492
vn -0.3912 -0.3282 -0.8598
vn -0.0885 -0.1054 -0.9905
vn -0.3282 -0.3912 -0.8598
vn 0.0688 -0.1192 -0.9905
vn 0.0471 -0.1293 -0.9905
vn -0.5589 -0.6661 0.4939
vn -0.4348 -0.7530 0.4939
vn -0.2553 -0.4422 0.8598
vn -0.6661 -0.5589 0.4939
vn -0.4422 -0.2553 0.8598
vn -0.9765 -0.1722 -0.1296
vn -0.8563 -0.1510 -0.4939
vn -0.8171 -0.2974 -0.4939
vn -0.9318 -0.3391 -0.1296
vn 0.8171 -0.2974 -0.4939
vn 0.7530 -0.4348 -0.4939
vn 0.4798 -0.1746 -0.8598
vn 0.8563 -0.1510 0.4939
vn 0.8171 -0.2974 0.4939
vn 0.7311 -0.2758 -0.6240
vn 0.7326 -0.2691 -0.6252
vn 0.1746 -0.4798 0.8598
vn 0.2974 -0.8171 0.4939
vn 0.4348 -0.7530 0.4939
vn 0.2553 -0.4422 0.8598
vn 0.0887 -0.5029 0.8598
vn 0.1510 -0.8563 0.4939
vn 0.8660 -0.5000 -0.0000
vn 0.7148 -0.2602 0.6492
vn -0.7491 -0.1321 0.6492
vn -0.7148 -0.2602 0.6492
vn 0.6428 -0.7660 -0.0000
vn 0.5000 -0.8660 -0.0000
vn 0.7660 -0.6428 -0.0000
vn 0.7596 -0.6374 -0.1296
vn 0.8587 -0.4958 -0.1296
vn 0.6323 -0.5559 -0.5396
vn 0.8587 -0.4958 0.1296
vn -0.1293 -0.0471 -0.9905
vn -0.7530 -0.4348 -0.4939
vn -0.8587 -0.4958 -0.1296
vn 0.4889 -0.5827 -0.6492
vn 0.3803 -0.6587 -0.6492
vn -0.4798 -0.1746 -0.8598
vn -0.4422 -0.2553 -0.8598
vn 0.0688 -0.1192 0.9905
vn 0.0471 -0.1293 0.9905
vn -0.0000 -0.5106 0.8598
vn -0.0887 -0.5029 0.8598
vn -0.1510 -0.8563 0.4939
vn -0.0000 -0.8695 0.4939
vn 0.7491 -0.1321 0.6492
vn 0.2974 -0.8171 -0.4939
vn 0.3391 -0.9318 -0.1296
vn -0.1305 -0.0000 -0.9914
vn -0.1341 -0.0060 -0.9910
vn -0.5052 -0.0222 -0.8627
vn -0.5000 -0.0000 -0.8660
vn 0.5052 -0.0222 -0.8627
vn 0.5029 -0.0887 -0.8598
vn 0.1341 -0.0060 -0.9910
vn -0.9906 -0.0431 -0.1299
vn -0.8672 -0.0377 -0.4966
vn 0.1510 -0.8563 -0.4939
vn 0.1722 -0.9765 -0.1296
vn -0.0000 -0.9916 -0.1296
vn -0.5029 -0.0887 -0.8598
vn -0.4798 -0.1746 0.8598
vn 0.1321 -0.7491 -0.6492
vn 0.2602 -0.7148 -0.6492
vn -0.5029 -0.0887 0.8598
vn -0.5052 -0.0222 0.8627
vn 0.1305 -0.0000 0.9914
vn 0.2602 -0.7148 0.6492
vn 0.3803 -0.6587 0.6492
vn -0.6661 -0.5589 -0.4939
vn -0.0688 -0.1192 -0.9905
vn -0.0471 -0.1293 -0.9905
vn -0.0688 -0.1192 0.9905
vn -0.0471 -0.1293 0.9905
vn 0.3282 -0.3912 -0.8598
vn 0.2553 -0.4422 -0.8598
vn 0.0885 -0.1054 -0.9905
vn 0.8672 -0.0377 0.4966
vn 0.7326 -0.2691 0.6252
vn 0.6323 -0.5559 0.5396
vn 0.7311 -0.2758 0.6240
vn -0.6323 -0.5559 -0.5396
vn -0.7311 -0.2758 -0.6240
vn -0.7326 -0.2691 -0.6252
vn 1.0000 -0.0000 -0.0000
vn 0.9994 -0.0348 -0.0000
vn -1.0000 -0.0000 -0.0000
vn -0.9994 -0.0348 -0.0000
vn 0.8660 -0.0000 -0.5000
vn 0.9914 -0.0000 -0.1305
vn 0.9906 -0.0431 -0.1299
vn 0.8672 -0.0377 -0.4966
vn -0.9397 -0.3420 -0.0000
vn -0.8660 -0.5000 -0.0000
vn 0.0239 -0.1355 0.9905
vn -0.1746 -0.4798 0.8598
vn -0.2974 -0.8171 0.4939
vn -0.1321 -0.7491 -0.6492
vn 0.9318 -0.3391 -0.1296
vn 0.9765 -0.1722 -0.1296
vn 0.5000 -0.0000 -0.8660
vn 0.5000 -0.0000 0.8660
vn 0.8660 -0.0000 0.5000
vn -0.1192 -0.0688 0.9905
vn -0.1355 -0.0239 -0.9905
vn -0.5000 -0.0000 0.8660
vn -0.1293 -0.0471 0.9905
vn -0.1722 -0.9765 0.1296
vn -0.0000 -0.9916 0.1296
vn -0.1355 -0.0239 0.9905
vn -0.9848 -0.1736 -0.0000
vn 0.3420 -0.9397 -0.0000
vn 0.8563 -0.1510 -0.4939
vn 0.4889 -0.5827 0.6492
vn 0.3391 -0.9318 0.1296
vn 0.4958 -0.8587 0.1296
vn 0.3282 -0.3912 0.8598
vn 0.5589 -0.6661 0.4939
vn -0.2602 -0.7148 0.6492
vn -0.1321 -0.7491 0.6492
vn -0.7311 -0.2758 0.6240
vn -0.7326 -0.2691 0.6252
vn -0.0000 -0.1376 -0.9905
vn 0.0239 -0.1355 -0.9905
vn 0.0887 -0.5029 -0.8598
vn 0.1192 -0.0688 0.9905
vn 0.1054 -0.0885 0.9905
vn -0.0000 -0.7606 -0.6492
vn 0.6661 -0.5589 -0.4939
vn 0.1722 -0.9765 0.1296
vn -0.0239 -0.1355 -0.9905
vn -0.8660 -0.0000 -0.5000
vn -0.9914 -0.0000 -0.1305
vn -0.1722 -0.9765 -0.1296
vn -0.0000 -0.1376 0.9905
vn -0.0239 -0.1355 0.9905
vn -0.8660 -0.0000 0.5000
vn -0.9914 -0.0000 0.1305
vn -0.5589 -0.6661 -0.4939
vn -0.2553 -0.4422 -0.8598
vn -0.4348 -0.7530 -0.4939
vn 0.1746 -0.4798 -0.8598
vn 0.1736 -0.9848 -0.0000
vn 0.0885 -0.1054 0.9905
vn 0.9906 -0.0431 0.1299
vn -0.3391 -0.9318 -0.1296
vn -0.2974 -0.8171 -0.4939
vn -0.1746 -0.4798 -0.8598
vn -0.3420 -0.9397 -0.0000
vn -0.5000 -0.8660 -0.0000
vn -0.7660 -0.6428 -0.0000
vn -0.6428 -0.7660 -0.0000
vn -0.6323 -0.5559 0.5396
vn -0.7596 -0.6374 -0.1296
vn -0.4958 -0.8587 -0.1296
vn 0.9914 -0.0000 0.1305
vn -0.6374 -0.7596 -0.1296
vn -0.3391 -0.9318 0.1296
vn -0.7596 -0.6374 0.1296
vn -0.6374 -0.7596 0.1296
vn -0.4958 -0.8587 0.1296
vn 0.7596 -0.6374 0.1296
vn 0.6374 -0.7596 0.1296
vt 0.560370 0.393706
vt 0.584605 0.474196
vt 0.584605 0.474196
vt 0.000000 0.000000
vt 0.588576 0.492040
vt 0.587740 0.485897
vt 0.586716 0.481524
vt 0.588677 0.506268
vt 0.588702 0.509854
vt 0.588652 0.502683
vt 0.588904 0.538310
vt 0.588878 0.534724
vt 0.588878 0.534724
vt 0.588853 0.531138
vt 0.588576 0.492040
vt 0.588878 0.534724
s 1
usemtl Material
f 51/4/6 52/4/7 60/4/8 59/4/9
f 297/4/10 299/4/10 302/4/11 301/4/11
f 118/4/32 126/4/33 125/4/34 113/4/35
f 184/4/40 152/4/40 186/4/41 187/4/41
f 389/4/46 46/4/47 58/4/48 394/4/49
f 31/4/50 27/4/18 26/4/51
f 295/4/52 296/4/52 299/4/10 297/4/10
f 161/4/52 164/4/10 163/4/10 159/4/52
f 79/4/79 78/4/80 86/4/81 87/4/82
f 28/4/83 32/4/84 34/4/59 30/4/85
f 45/4/86 51/4/6 59/4/9 53/4/87
f 106/4/21 118/4/32 113/4/35 105/4/22
f 186/4/49 332/4/49 334/4/96 188/4/96
f 247/4/97 248/4/97 251/4/44 249/4/44
f 296/4/98 294/4/98 298/4/99 299/4/99
f 58/4/48 53/4/87 69/4/36 70/4/106
f 89/4/107 27/4/18 96/4/42
f 329/4/40 331/4/41 333/4/41 330/4/40
f 87/4/82 86/4/81 93/4/108 94/4/109
f 86/4/81 88/4/112 95/4/113 93/4/108
f 330/4/120 333/4/97 332/4/97 328/4/120
f 113/4/35 125/4/34 127/4/78 119/4/136
f 183/4/46 185/4/49 246/4/49 244/4/46
f 333/4/97 336/4/44 334/4/44 332/4/97
f 183/4/120 184/4/120 187/4/97 185/4/97
f 160/4/98 162/4/99 164/4/99 161/4/98
f 349/4/167 351/4/168 126/4/33 118/4/32
f 243/4/46 247/4/49 29/4/173 24/4/174
f 394/4/49 58/4/48 70/4/106 397/4/96
f 80/4/135 81/4/179 89/4/107 88/4/112
f 120/4/181 128/4/178 40/4/1
f 111/4/139 119/4/136 120/4/181 112/4/184
f 24/4/174 29/4/173 28/4/83 23/4/187
f 331/4/41 335/4/26 336/4/26 333/4/41
f 89/4/107 81/4/179 27/4/18
f 216/4/99 218/4/4 220/4/4 217/4/99
f 25/4/128 30/4/85 31/4/50 26/4/51
f 120/4/181 40/4/1 112/4/184
f 88/4/112 89/4/107 96/4/42 95/4/113
f 349/4/10 350/4/10 353/4/11 351/4/11
f 119/4/136 127/4/78 128/4/178 120/4/181
f 31/4/50 35/4/62 27/4/18
f 187/4/41 186/4/41 188/4/26 190/4/26
f 245/4/40 244/4/40 246/4/41 248/4/41
f 391/4/120 395/4/97 392/4/97 390/4/120
f 162/4/99 166/4/4 167/4/4 164/4/99
f 46/4/47 45/4/86 53/4/87 58/4/48
f 165/4/168 300/4/168 298/4/167 163/4/167
f 217/4/10 220/4/11 219/4/11 215/4/10
f 216/4/167 87/4/82 94/4/109 218/4/168
f 30/4/85 34/4/59 35/4/62 31/4/50
f 60/4/8 52/4/7 40/4/1
f 247/4/49 249/4/96 33/4/104 29/4/173
f 212/4/98 216/4/99 217/4/99 214/4/98
f 162/4/167 215/4/167 219/4/168 166/4/168
f 243/4/120 245/4/120 248/4/97 247/4/97
f 159/4/185 163/4/167 298/4/167 294/4/185
f 29/4/173 33/4/104 32/4/84 28/4/83
f 214/4/52 217/4/10 215/4/10 213/4/52
f 186/4/49 152/4/46 328/4/46 332/4/49
f 212/4/185 79/4/79 87/4/82 216/4/167
f 160/4/185 213/4/185 215/4/167 162/4/167
f 248/4/41 246/4/41 250/4/26 251/4/26
f 59/4/9 60/4/8 76/4/200 75/4/37
f 299/4/99 298/4/99 300/4/4 302/4/4
f 295/4/185 297/4/167 348/4/167 346/4/185
f 345/4/185 349/4/167 118/4/32 106/4/21
f 331/4/49 392/4/49 401/4/96 335/4/96
f 297/4/167 301/4/168 352/4/168 348/4/167
f 60/4/8 40/4/1 76/4/200
f 329/4/46 390/4/46 392/4/49 331/4/49
f 105/4/22 113/4/35 119/4/136 111/4/139
f 347/4/98 346/4/98 348/4/99 350/4/99
f 185/4/49 189/4/96 250/4/96 246/4/49
f 53/4/87 59/4/9 75/4/37 69/4/36
f 394/4/41 397/4/26 402/4/26 395/4/41
f 78/4/80 80/4/135 88/4/112 86/4/81
f 185/4/97 187/4/97 190/4/44 189/4/44
f 23/4/187 28/4/83 30/4/85 25/4/128
f 164/4/10 167/4/11 165/4/11 163/4/10
f 350/4/99 348/4/99 352/4/4 353/4/4
f 345/4/52 347/4/52 350/4/10 349/4/10
f 395/4/97 402/4/44 401/4/44 392/4/97
f 389/4/40 394/4/41 395/4/41 391/4/40
usemtl 
f 419/1/1 412/2/2 104/3/3 40/1/1
f 302/4/4 300/4/4 303/4/5 305/4/5
f 154/4/12 289/4/12 316/4/13 181/4/13
f 135/4/14 143/4/15 144/4/16 136/4/17
f 8/1/18 2/3/19 427/2/19 400/1/18
f 98/5/20 106/4/21 105/4/22 97/6/23
f 365/4/24 364/4/24 361/4/25 362/4/25
f 190/4/26 188/4/26 191/4/27 193/4/27
f 48/4/28 55/4/29 54/4/30 47/4/31
f 69/4/36 75/4/37 140/4/38 138/4/39
f 96/4/42 27/4/18 103/4/43
f 336/4/44 373/4/45 337/4/45 334/4/44
f 354/4/53 356/4/53 359/4/54 357/4/54
f 38/7/55 44/3/56 52/4/7 51/4/6
f 172/4/57 174/4/58 176/4/58 173/4/57
f 34/4/59 42/4/60 43/4/61 35/4/62
f 65/4/63 63/4/64 129/4/65 131/4/66
f 339/4/67 420/4/68 422/4/68 341/4/67
f 102/4/69 103/4/43 110/4/70 109/4/71
f 57/4/72 68/4/73 27/4/18
f 137/4/74 261/4/75 263/4/76 143/4/15
f 125/4/34 133/4/77 135/4/14 127/4/78
f 251/4/26 250/4/26 253/4/27 254/4/27
f 242/8/88 241/9/89 244/4/40 245/4/40
f 319/4/90 287/4/91 283/4/92 285/4/93
f 323/4/94 321/4/95 287/4/91 319/4/90
f 255/4/100 259/4/101 55/4/29 48/4/28
f 249/4/96 252/4/102 41/4/103 33/4/104
f 423/8/105 386/10/89 388/8/88
f 307/4/54 308/4/54 311/4/25 309/4/25
f 375/4/110 377/4/111 379/4/111 376/4/110
f 319/4/90 285/4/93 286/4/114 320/4/115
f 91/4/116 271/4/117 269/4/118 85/4/119
f 61/4/121 54/4/30 55/4/29 62/4/122
f 393/2/123 74/3/124 73/7/125 398/7/126
f 21/7/127 25/4/128 26/4/51 22/3/129
f 72/5/130 71/6/131 78/4/80 79/4/79
f 63/4/64 77/4/132 82/4/133 64/4/134
f 71/6/131 73/7/125 80/4/135 78/4/80
f 422/4/137 416/4/138 414/4/138 421/4/137
f 97/6/23 105/4/22 111/4/139 99/7/140
f 35/4/62 43/4/61 27/4/18
f 419/1/1 40/1/1 44/3/56 431/2/141
f 275/4/142 274/4/142 259/4/143 260/4/143
f 93/4/108 95/4/113 102/4/69 100/4/144
f 117/4/145 27/4/18 124/4/146
f 264/4/147 268/4/148 40/4/1
f 49/4/149 56/4/150 57/4/72 50/4/151
f 36/6/152 38/7/55 51/4/6 45/4/86
f 326/11/153 424/12/154 327/13/155
f 369/8/156 344/8/157 342/10/158
f 423/8/159 387/9/160 325/14/160 424/12/159
f 416/4/138 411/4/111 410/4/111 414/4/138
f 189/4/44 190/4/44 193/4/45 192/4/45
f 369/8/161 370/12/161 291/14/162 343/9/162
f 167/4/11 170/4/53 168/4/53 165/4/11
f 428/6/163 430/15/164 20/5/165 19/6/166
f 166/4/4 169/4/5 170/4/5 167/4/4
f 169/4/5 172/4/57 173/4/57 170/4/5
f 324/4/169 323/4/94 319/4/90 320/4/115
f 267/4/170 263/4/76 261/4/75 265/4/171
f 317/4/172 315/4/172 312/4/24 314/4/24
f 427/2/19 429/7/175 21/7/127 22/3/129
f 267/4/170 268/4/148 264/4/147 263/4/76
f 433/7/176 38/7/55 36/6/152 432/6/177
f 128/4/178 136/4/17 40/4/1
f 196/4/110 194/4/110 198/4/111 199/4/111
f 412/2/2 417/7/180 99/7/140 104/3/3
f 42/4/60 49/4/149 50/4/151 43/4/61
f 85/4/119 269/4/118 270/4/182 90/4/183
f 150/11/89 151/13/88 280/12/105
f 304/4/53 305/4/53 308/4/54 307/4/54
f 157/11/162 159/4/185 294/4/185 292/11/162
f 413/4/186 380/4/186 377/4/101 409/4/101
f 195/4/188 196/4/188 199/4/143 197/4/143
f 287/4/91 318/4/189 284/4/190 283/4/92
f 338/4/102 404/4/102 407/4/100 375/4/100
f 211/8/157 214/4/52 213/4/52 210/9/158
f 385/4/137 382/4/138 380/4/138 383/4/137
f 301/4/11 302/4/11 305/4/53 304/4/53
f 368/4/172 367/4/172 364/4/24 365/4/24
f 138/4/39 140/4/38 147/4/191 145/4/192
f 95/4/113 96/4/42 103/4/43 102/4/69
f 232/4/193 229/4/58 228/4/58 231/4/193
f 208/4/67 235/4/194 234/4/194 207/4/67
f 344/8/195 343/9/196 346/4/98 347/4/98
f 66/4/197 84/4/198 83/4/199 65/4/63
f 198/4/101 194/4/100 374/4/100 378/4/101
f 75/4/37 76/4/200 141/4/201 140/4/38
f 341/4/202 340/4/202 367/4/172 368/4/172
f 32/4/84 39/4/203 42/4/60 34/4/59
f 403/4/27 406/4/110 408/4/110 405/4/27
f 65/4/63 83/4/199 77/4/132 63/4/64
f 76/4/200 40/4/1 141/4/201
f 73/7/125 74/3/124 81/4/179 80/4/135
f 68/4/73 84/4/198 27/4/18
f 188/4/96 334/4/96 337/4/102 191/4/102
f 127/4/78 135/4/14 136/4/17 128/4/178
f 254/4/27 253/4/27 256/4/110 257/4/110
f 3/6/163 1/5/164 430/15/164 428/6/163
f 388/8/155 391/4/120 390/4/120 387/9/153
f 91/4/116 85/4/119 321/4/95 323/4/94
f 335/4/26 338/4/27 373/4/27 336/4/26
f 321/4/95 322/4/204 318/4/189 287/4/91
f 99/7/140 111/4/139 112/4/184 104/3/3
f 66/4/197 65/4/63 131/4/66 132/4/205
f 396/6/206 71/6/131 72/5/130 399/15/207
f 124/4/146 27/4/18 132/4/205
f 63/4/64 64/4/134 130/4/208 129/4/65
f 189/4/96 192/4/102 253/4/102 250/4/96
f 92/4/209 272/4/210 271/4/117 91/4/116
f 415/6/211 418/15/212 98/5/20 97/6/23
f 268/4/148 272/4/210 40/4/1
f 405/4/45 408/4/188 407/4/188 404/4/45
f 149/14/160 183/4/46 244/4/46 241/9/160
f 286/4/114 40/4/1 320/4/115
f 145/4/192 147/4/191 285/4/93 283/4/92
f 107/4/213 109/4/71 116/4/214 114/4/215
f 67/4/216 68/4/73 57/4/72 56/4/150
f 152/4/46 150/11/160 326/11/160 328/4/46
f 338/4/27 375/4/110 376/4/110 373/4/27
f 278/4/68 277/4/68 274/4/142 275/4/142
f 201/4/186 381/4/186 384/4/217 204/4/217
f 140/4/38 141/4/201 148/4/218 147/4/191
f 400/1/18 27/1/18 74/3/124 393/2/123
f 37/5/219 36/6/152 45/4/86 46/4/47
f 424/12/105 325/14/89 327/13/88
f 221/4/5 224/4/57 226/4/57 223/4/5
f 170/4/53 173/4/54 171/4/54 168/4/53
f 19/6/166 23/4/187 25/4/128 21/7/127
f 154/4/202 181/4/172 182/4/172 155/4/202
f 129/4/65 130/4/208 122/4/220 121/4/221
f 131/4/66 129/4/65 121/4/221 123/4/222
f 181/4/172 178/4/24 179/4/24 182/4/172
f 182/4/194 179/4/193 177/4/193 180/4/194
f 20/5/165 24/4/174 23/4/187 19/6/166
f 273/4/186 258/4/101 197/4/101 200/4/186
f 400/1/18 427/2/19 22/3/129 27/1/18
f 74/3/124 27/1/18 81/4/179
f 208/4/67 207/4/67 277/4/68 278/4/68
f 252/4/45 254/4/45 257/4/188 255/4/188
f 123/4/222 121/4/221 114/4/215 116/4/214
f 123/4/222 116/4/214 117/4/145 124/4/146
f 178/4/223 313/4/223 310/4/224 175/4/224
f 149/14/153 151/13/155 184/4/120 183/4/120
f 236/8/161 210/9/162 156/14/162 237/12/161
f 33/4/104 41/4/103 39/4/203 32/4/84
f 420/4/68 413/4/142 416/4/142 422/4/68
f 169/4/225 222/4/225 225/4/226 172/4/226
f 171/4/226 306/4/226 303/4/225 168/4/225
f 218/4/4 221/4/5 223/4/5 220/4/4
f 279/8/159 280/12/159 149/14/160 241/9/160
f 226/4/54 229/4/25 227/4/25 225/4/54
f 172/4/226 225/4/226 227/4/224 174/4/224
f 399/15/207 72/5/130 209/10/162 236/8/161
f 255/4/188 257/4/188 260/4/143 259/4/143
f 236/8/227 209/10/196 211/8/195
f 233/4/172 230/4/24 232/4/24 235/4/172
f 94/4/109 93/4/108 100/4/144 101/4/228
f 276/4/137 278/4/137 275/4/138 273/4/138
f 204/4/137 205/4/137 202/4/138 201/4/138
f 252/4/102 255/4/100 48/4/28 41/4/103
f 320/4/115 40/4/1 324/4/169
f 191/4/102 337/4/102 374/4/100 194/4/100
f 210/9/158 236/8/156 211/8/157
f 122/4/220 231/4/223 228/4/224 115/4/229
f 193/4/27 191/4/27 194/4/110 196/4/110
f 432/6/177 36/6/152 37/5/219 434/15/230
f 192/4/102 195/4/100 256/4/100 253/4/102
f 276/4/217 273/4/186 200/4/186 203/4/217
f 233/4/13 180/4/13 177/4/223 230/4/223
f 209/10/162 72/5/130 79/4/79 212/4/185
f 130/4/208 234/4/13 231/4/223 122/4/220
f 154/4/202 155/4/202 205/4/137 204/4/137
f 282/16/159 426/16/159 424/12/159 280/12/159
f 218/4/168 94/4/109 101/4/228 221/4/225
f 221/4/225 101/4/228 108/4/231 224/4/226
f 158/13/157 161/4/52 159/4/52 157/11/158
f 240/10/160 243/4/46 24/4/174 20/5/165
f 41/4/103 48/4/28 47/4/31 39/4/203
f 155/4/67 153/4/67 203/4/68 205/4/68
f 166/4/168 219/4/168 222/4/225 169/4/225
f 230/4/223 177/4/223 174/4/224 227/4/224
f 195/4/100 197/4/101 258/4/101 256/4/100
f 223/4/53 226/4/54 225/4/54 222/4/53
f 64/4/134 207/4/12 234/4/13 130/4/208
f 62/4/122 55/4/29 259/4/101 274/4/186
f 241/9/89 242/8/88 279/8/105
f 237/12/161 370/12/161 372/16/161 239/16/161
f 64/4/134 82/4/133 277/4/217 207/4/12
f 132/4/205 27/4/18 66/4/197
f 224/4/57 228/4/58 229/4/58 226/4/57
f 82/4/133 62/4/122 274/4/186 277/4/217
f 121/4/221 122/4/220 115/4/229 114/4/215
f 109/4/71 110/4/70 117/4/145 116/4/214
f 151/13/88 150/11/89 152/4/40 184/4/40
f 220/4/11 223/4/53 222/4/53 219/4/11
f 398/7/126 73/7/125 71/6/131 396/6/206
f 83/4/199 67/4/216 61/4/121 77/4/132
f 84/4/198 66/4/197 27/4/18
f 92/4/209 91/4/116 323/4/94 324/4/169
f 209/10/196 212/4/98 214/4/98 211/8/195
f 181/4/13 316/4/13 313/4/223 178/4/223
f 156/14/162 210/9/162 213/4/185 160/4/185
f 110/4/70 27/4/18 117/4/145
f 77/4/132 61/4/121 62/4/122 82/4/133
f 198/4/101 378/4/101 381/4/186 201/4/186
f 237/12/227 156/14/196 158/13/195
f 205/4/68 203/4/68 200/4/142 202/4/142
f 168/4/225 303/4/225 300/4/168 165/4/168
f 430/15/164 279/8/159 240/10/160 20/5/165
f 341/4/202 422/4/137 421/4/137 340/4/202
f 157/11/158 237/12/156 158/13/157
f 224/4/226 108/4/231 115/4/229 228/4/224
f 108/4/231 107/4/213 114/4/215 115/4/229
f 2/3/19 4/7/175 429/7/175 427/2/19
f 206/4/12 153/4/12 180/4/13 233/4/13
f 257/4/110 256/4/110 258/4/111 260/4/111
f 47/4/31 54/4/30 56/4/150 49/4/149
f 279/8/154 242/8/155 240/10/153
f 249/4/44 251/4/44 254/4/45 252/4/45
f 67/4/216 56/4/150 54/4/30 61/4/121
f 339/4/12 288/4/12 383/4/217 420/4/217
f 381/4/142 378/4/143 379/4/143 382/4/142
f 271/4/117 267/4/170 265/4/171 269/4/118
f 269/4/118 265/4/171 266/4/232 270/4/182
f 304/4/225 307/4/226 358/4/226 355/4/225
f 1/5/164 281/8/159 279/8/159 430/15/164
f 307/4/226 309/4/224 360/4/224 358/4/226
f 359/4/57 358/4/57 360/4/58 362/4/58
f 418/15/212 369/8/161 342/10/162 98/5/20
f 324/4/169 40/4/1 92/4/209
f 339/4/67 341/4/67 368/4/194 366/4/194
f 4/7/175 3/6/163 428/6/163 429/7/175
f 373/4/45 376/4/188 374/4/188 337/4/45
f 339/4/12 366/4/13 315/4/13 288/4/12
f 270/4/182 266/4/232 364/4/223 367/4/13
f 327/13/155 330/4/120 328/4/120 326/11/153
f 134/4/233 142/4/234 137/4/74 133/4/77
f 272/4/210 268/4/148 267/4/170 271/4/117
f 148/4/218 40/4/1 286/4/114
f 366/4/13 363/4/223 312/4/223 315/4/13
f 291/14/162 295/4/185 346/4/185 343/9/162
f 342/10/158 344/8/157 347/4/52 345/4/52
f 318/4/189 414/4/186 410/4/101 284/4/190
f 293/13/195 292/11/196 294/4/98 296/4/98
f 354/4/225 357/4/226 142/4/234 134/4/233
f 141/4/201 40/4/1 148/4/218
f 363/4/223 360/4/224 309/4/224 312/4/223
f 397/4/26 403/4/27 405/4/27 402/4/26
f 43/4/61 50/4/151 27/4/18
f 387/9/153 423/8/154 388/8/155
f 357/4/54 359/4/54 362/4/25 361/4/25
f 272/4/210 92/4/209 40/4/1
f 265/4/171 261/4/75 262/4/235 266/4/232
f 143/4/15 263/4/76 264/4/147 144/4/16
f 150/11/160 280/12/159 424/12/159 326/11/160
f 325/14/89 329/4/40 330/4/40 327/13/88
f 420/4/217 383/4/217 380/4/186 413/4/186
f 342/10/162 345/4/185 106/4/21 98/5/20
f 136/4/17 144/4/16 40/4/1
f 322/4/204 421/4/217 414/4/186 318/4/189
f 142/4/234 262/4/235 261/4/75 137/4/74
f 290/4/202 288/4/202 315/4/172 317/4/172
f 308/4/57 306/4/57 310/4/58 311/4/58
f 147/4/191 148/4/218 286/4/114 285/4/93
f 281/8/159 282/16/159 280/12/159 279/8/159
f 290/4/202 385/4/137 383/4/137 288/4/202
f 126/4/33 134/4/233 133/4/77 125/4/34
f 240/10/153 242/8/155 245/4/120 243/4/120
f 305/4/5 303/4/5 306/4/57 308/4/57
f 343/9/196 344/8/195 369/8/227
f 434/15/230 37/5/219 386/10/160 423/8/159
f 291/14/158 293/13/157 296/4/52 295/4/52
f 201/4/138 202/4/138 199/4/111 198/4/111
f 403/4/102 139/4/236 146/4/237 406/4/100
f 133/4/77 137/4/74 143/4/15 135/4/14
f 44/3/56 40/1/1 52/4/7
f 406/4/110 410/4/111 411/4/111 408/4/110
f 351/4/168 354/4/225 134/4/233 126/4/33
f 397/4/96 70/4/106 139/4/236 403/4/102
f 301/4/168 304/4/225 355/4/225 352/4/168
f 90/4/183 270/4/182 367/4/13 340/4/12
f 402/4/44 405/4/45 404/4/45 401/4/44
f 90/4/183 340/4/12 421/4/217 322/4/204
f 417/7/180 415/6/211 97/6/23 99/7/140
f 204/4/217 384/4/217 289/4/12 154/4/12
f 313/4/193 314/4/193 311/4/58 310/4/58
f 280/12/154 151/13/155 149/14/153
f 139/4/236 138/4/39 145/4/192 146/4/237
f 386/10/160 37/5/219 46/4/47 389/4/46
f 375/4/100 407/4/100 409/4/101 377/4/101
f 192/4/45 193/4/45 196/4/188 195/4/188
f 356/4/5 355/4/5 358/4/57 359/4/57
f 335/4/96 401/4/96 404/4/102 338/4/102
f 353/4/4 352/4/4 355/4/5 356/4/5
f 406/4/100 146/4/237 284/4/190 410/4/101
f 144/4/16 264/4/147 40/4/1
f 357/4/226 361/4/224 262/4/235 142/4/234
f 292/11/196 293/13/195 370/12/227
f 386/10/89 389/4/40 391/4/40 388/8/88
f 146/4/237 145/4/192 283/4/92 284/4/190
f 370/12/156 293/13/157 291/14/158
f 314/4/24 312/4/24 309/4/25 311/4/25
f 363/4/193 365/4/193 362/4/58 360/4/58
f 206/4/202 208/4/202 278/4/137 276/4/137
f 171/4/226 175/4/224 310/4/224 306/4/226
f 155/4/67 182/4/194 180/4/194 153/4/67
f 132/4/205 131/4/66 123/4/222 124/4/146
f 100/4/144 102/4/69 109/4/71 107/4/213
f 103/4/43 27/4/18 110/4/70
f 173/4/54 176/4/25 175/4/25 171/4/54
f 156/14/196 160/4/98 161/4/98 158/13/195
f 101/4/228 100/4/144 107/4/213 108/4/231
f 235/4/194 232/4/193 231/4/193 234/4/194
f 206/4/202 233/4/172 235/4/172 208/4/202
f 202/4/142 200/4/142 197/4/143 199/4/143
f 22/3/129 26/4/51 27/1/18
f 230/4/24 227/4/25 229/4/25 232/4/24
f 178/4/24 175/4/25 176/4/25 179/4/24
f 179/4/193 176/4/58 174/4/58 177/4/193
f 273/4/138 275/4/138 260/4/111 258/4/111
f 238/8/161 236/8/161 237/12/161 239/16/161
f 50/4/151 57/4/72 27/4/18
f 84/4/198 68/4/73 67/4/216 83/4/199
f 11/7/126 398/7/126 396/6/206 10/6/206
f 382/4/138 379/4/111 377/4/111 380/4/138
f 39/4/203 47/4/31 49/4/149 42/4/60
f 8/1/18 400/1/18 393/2/123 7/3/123
f 10/6/206 396/6/206 399/15/207 6/5/207
f 413/4/142 409/4/143 411/4/143 416/4/142
f 7/3/123 393/2/123 398/7/126 11/7/126
f 6/5/207 399/15/207 236/8/161 238/8/161
f 366/4/194 368/4/194 365/4/193 363/4/193
f 85/4/119 90/4/183 322/4/204 321/4/95
f 371/8/161 372/16/161 370/12/161 369/8/161
f 266/4/232 262/4/235 361/4/224 364/4/223
f 376/4/188 379/4/143 378/4/143 374/4/188
f 408/4/188 411/4/143 409/4/143 407/4/188
f 351/4/11 353/4/11 356/4/53 354/4/53
f 70/4/106 69/4/36 138/4/39 139/4/236
f 206/4/12 276/4/217 203/4/217 153/4/12
f 429/7/175 428/6/163 19/6/166 21/7/127
f 104/3/3 112/4/184 40/1/1
f 431/2/141 44/3/56 38/7/55 433/7/176
f 316/4/194 317/4/194 314/4/193 313/4/193
f 289/4/67 290/4/67 317/4/194 316/4/194
f 325/14/160 387/9/160 390/4/46 329/4/46
f 384/4/68 381/4/142 382/4/142 385/4/68
f 18/7/180 15/6/211 415/6/211 417/7/180
f 289/4/67 384/4/68 385/4/68 290/4/67
f 14/1/1 13/3/2 412/2/2 419/1/1
f 15/6/211 12/5/212 418/15/212 415/6/211
f 425/8/159 423/8/159 424/12/159 426/16/159
f 13/3/2 18/7/180 417/7/180 412/2/2
f 12/5/212 371/8/161 369/8/161 418/15/212
f 17/7/176 433/7/176 432/6/177 16/6/177
f 14/1/1 419/1/1 431/2/141 9/3/141
f 16/6/177 432/6/177 434/15/230 5/5/230
f 9/3/141 431/2/141 433/7/176 17/7/176
f 5/5/230 434/15/230 423/8/159 425/8/159
f 237/12/161 157/11/162 292/11/162 370/12/161
