# Blender 5.1.0
# www.blender.org
mtllib Lights.mtl
o Cube.007
v -0.328138 0.328138 0.328138
v -0.328138 0.328138 -0.328138
v 0.328138 0.328138 0.328138
v 0.328138 0.328138 -0.328138
v -0.395467 0.101169 0.395467
v -0.377387 0.195401 0.377387
v -0.351622 0.275222 0.351622
v -0.351622 0.351622 0.275223
v -0.377387 0.377387 0.195401
v -0.395467 0.395467 0.101170
v -0.401886 0.401885 0.000000
v -0.395467 0.395467 -0.101170
v -0.377387 0.377387 -0.195401
v -0.351622 0.351622 -0.275223
v -0.351622 0.275222 -0.351622
v -0.377387 0.195401 -0.377387
v -0.395467 0.101169 -0.395467
v -0.275223 0.351622 -0.351622
v -0.195401 0.377387 -0.377387
v -0.101170 0.395467 -0.395467
v -0.000000 0.401885 -0.401886
v 0.101170 0.395467 -0.395467
v 0.195401 0.377387 -0.377387
v 0.275223 0.351622 -0.351622
v 0.351622 0.275222 -0.351622
v 0.377387 0.195401 -0.377387
v 0.395467 0.101169 -0.395467
v 0.351622 0.351622 -0.275223
v 0.377387 0.377387 -0.195401
v 0.395467 0.395467 -0.101170
v 0.401885 0.401885 0.000000
v 0.395467 0.395467 0.101170
v 0.377387 0.377387 0.195401
v 0.351622 0.351622 0.275223
v 0.351622 0.275222 0.351622
v 0.377387 0.195401 0.377387
v 0.395467 0.101169 0.395467
v 0.275223 0.351622 0.351622
v 0.195401 0.377387 0.377387
v 0.101170 0.395467 0.395467
v -0.000000 0.401885 0.401885
v -0.101170 0.395467 0.395467
v -0.195401 0.377387 0.377387
v -0.275223 0.351622 0.351622
v -0.462227 0.103362 0.314144
v -0.438739 0.200156 0.300781
v -0.401840 0.284207 0.284208
v -0.513162 0.108126 0.219083
v -0.484485 0.210117 0.210117
v -0.438739 0.300781 0.200156
v -0.545528 0.112745 0.112745
v -0.513162 0.219083 0.108126
v -0.462227 0.314143 0.103362
v -0.556643 0.114770 0.000000
v -0.522864 0.222794 0.000000
v -0.470225 0.319237 0.000000
v -0.545528 0.112745 -0.112745
v -0.513162 0.219083 -0.108126
v -0.462227 0.314143 -0.103362
v -0.513162 0.108126 -0.219083
v -0.484485 0.210117 -0.210117
v -0.438739 0.300781 -0.200156
v -0.462227 0.103362 -0.314144
v -0.438739 0.200156 -0.300781
v -0.401840 0.284207 -0.284208
v -0.314144 0.103362 -0.462227
v -0.300781 0.200156 -0.438739
v -0.284208 0.284207 -0.401840
v -0.219083 0.108126 -0.513162
v -0.210117 0.210117 -0.484485
v -0.200156 0.300781 -0.438739
v -0.112745 0.112744 -0.545528
v -0.108126 0.219083 -0.513162
v -0.103362 0.314143 -0.462227
v -0.000000 0.114770 -0.556643
v -0.000000 0.222794 -0.522864
v -0.000000 0.319237 -0.470225
v 0.112745 0.112744 -0.545528
v 0.108126 0.219083 -0.513162
v 0.103362 0.314143 -0.462227
v 0.219083 0.108126 -0.513162
v 0.210117 0.210117 -0.484485
v 0.200156 0.300781 -0.438739
v 0.314144 0.103362 -0.462227
v 0.300781 0.200156 -0.438739
v 0.284208 0.284207 -0.401840
v 0.462227 0.103362 -0.314144
v 0.438739 0.200156 -0.300781
v 0.401840 0.284207 -0.284208
v 0.513162 0.108126 -0.219083
v 0.484485 0.210117 -0.210117
v 0.438739 0.300781 -0.200156
v 0.545528 0.112744 -0.112745
v 0.513162 0.219083 -0.108126
v 0.462227 0.314143 -0.103362
v 0.556643 0.114770 0.000000
v 0.522864 0.222794 0.000000
v 0.470224 0.319237 0.000000
v 0.545528 0.112744 0.112745
v 0.513162 0.219083 0.108126
v 0.462227 0.314143 0.103362
v 0.513162 0.108126 0.219083
v 0.484485 0.210117 0.210117
v 0.438739 0.300781 0.200156
v 0.462227 0.103362 0.314144
v 0.438739 0.200156 0.300781
v 0.401840 0.284207 0.284208
v 0.314144 0.103362 0.462227
v 0.300781 0.200156 0.438739
v 0.284208 0.284207 0.401840
v 0.219083 0.108126 0.513162
v 0.210117 0.210117 0.484485
v 0.200156 0.300781 0.438739
v 0.112745 0.112744 0.545528
v 0.108126 0.219083 0.513162
v 0.103362 0.314143 0.462227
v -0.000000 0.114770 0.556643
v -0.000000 0.222794 0.522864
v 0.000000 0.319237 0.470224
v -0.112745 0.112744 0.545528
v -0.108126 0.219083 0.513162
v -0.103362 0.314143 0.462227
v -0.219083 0.108126 0.513162
v -0.210117 0.210117 0.484485
v -0.200156 0.300781 0.438739
v -0.314144 0.103362 0.462227
v -0.300781 0.200156 0.438739
v -0.284208 0.284207 0.401840
v 0.284208 0.401839 -0.284208
v 0.200156 0.438738 -0.300781
v 0.103362 0.462226 -0.314144
v -0.000000 0.470224 -0.319238
v -0.103362 0.462226 -0.314144
v -0.200156 0.438738 -0.300781
v -0.284208 0.401839 -0.284208
v 0.300781 0.438738 -0.200156
v 0.210117 0.484484 -0.210117
v 0.108126 0.513161 -0.219083
v 0.000000 0.522863 -0.222794
v -0.108126 0.513161 -0.219083
v -0.210117 0.484484 -0.210117
v -0.300781 0.438738 -0.200156
v 0.314144 0.462226 -0.103362
v 0.219083 0.513161 -0.108126
v 0.112745 0.545528 -0.112745
v 0.000000 0.556642 -0.114771
v -0.112745 0.545528 -0.112745
v -0.219083 0.513161 -0.108126
v -0.314144 0.462226 -0.103362
v 0.319238 0.470224 0.000000
v 0.222794 0.522863 0.000000
v 0.114771 0.556643 0.000000
v -0.000000 0.568351 0.000000
v -0.114771 0.556642 0.000000
v -0.222794 0.522863 0.000000
v -0.319238 0.470224 0.000000
v 0.314144 0.462226 0.103362
v 0.219083 0.513161 0.108126
v 0.112745 0.545528 0.112745
v -0.000000 0.556643 0.114771
v -0.112745 0.545528 0.112745
v -0.219083 0.513161 0.108126
v -0.314144 0.462226 0.103362
v 0.300781 0.438738 0.200156
v 0.210117 0.484484 0.210117
v 0.108126 0.513161 0.219083
v -0.000000 0.522863 0.222794
v -0.108126 0.513161 0.219083
v -0.210117 0.484484 0.210117
v -0.300781 0.438738 0.200156
v 0.284208 0.401839 0.284208
v 0.200156 0.438738 0.300781
v 0.103362 0.462226 0.314144
v -0.000000 0.470224 0.319238
v -0.103362 0.462226 0.314144
v -0.200156 0.438738 0.300781
v -0.284208 0.401839 0.284208
v -0.291441 0.074557 0.291441
v -0.278117 0.144001 0.278117
v -0.259129 0.202826 0.259129
v -0.241823 0.241822 0.241823
v -0.259129 0.259129 0.202827
v -0.278117 0.278116 0.144002
v -0.291441 0.291440 0.074557
v -0.296171 0.296170 0.000000
v -0.291441 0.291440 -0.074557
v -0.278117 0.278116 -0.144002
v -0.259129 0.259129 -0.202827
v -0.241823 0.241822 -0.241823
v -0.259129 0.202826 -0.259129
v -0.278117 0.144001 -0.278117
v -0.291441 0.074557 -0.291441
v -0.202827 0.259129 -0.259129
v -0.144002 0.278116 -0.278117
v -0.074557 0.291440 -0.291441
v -0.000000 0.296170 -0.296171
v 0.074557 0.291440 -0.291441
v 0.144002 0.278116 -0.278117
v 0.202827 0.259129 -0.259129
v 0.241823 0.241822 -0.241823
v 0.259129 0.202826 -0.259129
v 0.278117 0.144001 -0.278117
v 0.291441 0.074557 -0.291441
v 0.259129 0.259129 -0.202827
v 0.278117 0.278116 -0.144002
v 0.291441 0.291440 -0.074557
v 0.296171 0.296170 0.000000
v 0.291441 0.291440 0.074557
v 0.278117 0.278116 0.144002
v 0.259129 0.259129 0.202827
v 0.241823 0.241822 0.241823
v 0.259129 0.202826 0.259129
v 0.278117 0.144001 0.278117
v 0.291441 0.074557 0.291441
v 0.202827 0.259129 0.259129
v 0.144002 0.278116 0.278117
v 0.074557 0.291440 0.291441
v -0.000000 0.296170 0.296171
v -0.074557 0.291440 0.291441
v -0.144002 0.278116 0.278117
v -0.202827 0.259129 0.259129
v -0.340640 0.076173 0.231509
v -0.323330 0.147505 0.221662
v -0.296138 0.209448 0.209448
v -0.378176 0.079684 0.161454
v -0.357043 0.154846 0.154847
v -0.323330 0.221661 0.147506
v -0.402029 0.083087 0.083088
v -0.378176 0.161454 0.079684
v -0.340640 0.231509 0.076173
v -0.410220 0.084580 0.000000
v -0.385326 0.164189 0.000000
v -0.346534 0.235263 0.000000
v -0.402029 0.083087 -0.083088
v -0.378176 0.161454 -0.079684
v -0.340640 0.231509 -0.076173
v -0.378176 0.079684 -0.161454
v -0.357043 0.154846 -0.154847
v -0.323330 0.221661 -0.147506
v -0.340640 0.076173 -0.231509
v -0.323330 0.147505 -0.221662
v -0.296138 0.209448 -0.209448
v -0.231509 0.076173 -0.340640
v -0.221662 0.147505 -0.323330
v -0.209448 0.209448 -0.296138
v -0.161454 0.079684 -0.378176
v -0.154847 0.154846 -0.357043
v -0.147506 0.221661 -0.323330
v -0.083088 0.083087 -0.402029
v -0.079684 0.161454 -0.378176
v -0.076173 0.231509 -0.340640
v -0.000000 0.084580 -0.410220
v -0.000000 0.164189 -0.385326
v -0.000000 0.235263 -0.346534
v 0.083088 0.083087 -0.402029
v 0.079684 0.161454 -0.378176
v 0.076173 0.231509 -0.340640
v 0.161454 0.079684 -0.378176
v 0.154847 0.154846 -0.357043
v 0.147506 0.221661 -0.323330
v 0.231509 0.076173 -0.340640
v 0.221662 0.147505 -0.323330
v 0.209448 0.209448 -0.296138
v 0.340640 0.076173 -0.231509
v 0.323330 0.147505 -0.221662
v 0.296137 0.209448 -0.209448
v 0.378176 0.079684 -0.161454
v 0.357043 0.154846 -0.154847
v 0.323330 0.221661 -0.147506
v 0.402029 0.083087 -0.083088
v 0.378176 0.161454 -0.079684
v 0.340640 0.231509 -0.076173
v 0.410220 0.084580 0.000000
v 0.385326 0.164189 0.000000
v 0.346534 0.235263 0.000000
v 0.402029 0.083087 0.083088
v 0.378176 0.161454 0.079684
v 0.340640 0.231509 0.076173
v 0.378176 0.079684 0.161454
v 0.357043 0.154846 0.154847
v 0.323330 0.221661 0.147506
v 0.340640 0.076173 0.231509
v 0.323330 0.147505 0.221662
v 0.296137 0.209448 0.209448
v 0.231509 0.076173 0.340640
v 0.221662 0.147505 0.323330
v 0.209448 0.209448 0.296138
v 0.161454 0.079684 0.378176
v 0.154847 0.154846 0.357043
v 0.147506 0.221661 0.323330
v 0.083088 0.083087 0.402029
v 0.079684 0.161454 0.378176
v 0.076173 0.231509 0.340640
v -0.000000 0.084580 0.410220
v -0.000000 0.164189 0.385326
v -0.000000 0.235263 0.346534
v -0.083088 0.083087 0.402029
v -0.079684 0.161454 0.378176
v -0.076173 0.231509 0.340640
v -0.161454 0.079684 0.378176
v -0.154847 0.154846 0.357043
v -0.147506 0.221661 0.323330
v -0.231509 0.076173 0.340640
v -0.221662 0.147505 0.323330
v -0.209448 0.209448 0.296137
v 0.209448 0.296137 -0.209448
v 0.147506 0.323330 -0.221662
v 0.076173 0.340639 -0.231509
v -0.000000 0.346533 -0.235263
v -0.076173 0.340639 -0.231509
v -0.147506 0.323330 -0.221662
v -0.209448 0.296137 -0.209448
v 0.221662 0.323330 -0.147506
v 0.154847 0.357042 -0.154847
v 0.079684 0.378176 -0.161454
v 0.000000 0.385326 -0.164189
v -0.079684 0.378176 -0.161454
v -0.154847 0.357042 -0.154847
v -0.221662 0.323330 -0.147506
v 0.231509 0.340639 -0.076173
v 0.161454 0.378176 -0.079684
v 0.083088 0.402028 -0.083088
v -0.000000 0.410220 -0.084581
v -0.083088 0.402028 -0.083088
v -0.161454 0.378176 -0.079684
v -0.231509 0.340639 -0.076173
v 0.235263 0.346533 0.000000
v 0.164189 0.385326 0.000000
v 0.084581 0.410220 0.000000
v -0.000000 0.418848 0.000000
v -0.084581 0.410220 0.000000
v -0.164189 0.385326 0.000000
v -0.235263 0.346533 0.000000
v 0.231509 0.340639 0.076173
v 0.161454 0.378176 0.079684
v 0.083088 0.402028 0.083088
v -0.000000 0.410220 0.084581
v -0.083088 0.402028 0.083088
v -0.161454 0.378176 0.079684
v -0.231509 0.340639 0.076173
v 0.221662 0.323330 0.147506
v 0.154847 0.357042 0.154847
v 0.079684 0.378176 0.161454
v -0.000000 0.385326 0.164189
v -0.079684 0.378176 0.161454
v -0.154847 0.357042 0.154847
v -0.221662 0.323330 0.147506
v 0.209448 0.296137 0.209448
v 0.147506 0.323330 0.221662
v 0.076173 0.340639 0.231509
v -0.000000 0.346533 0.235263
v -0.076173 0.340639 0.231509
v -0.147506 0.323330 0.221662
v -0.209448 0.296137 0.209448
v -0.360850 -0.000001 0.360850
v -0.398203 0.057539 0.398196
v -0.388788 0.016852 0.388786
v -0.398196 0.057539 -0.398203
v -0.360850 -0.000001 -0.360850
v -0.388786 0.016852 -0.388788
v 0.398203 0.057539 -0.398196
v 0.360850 -0.000001 -0.360850
v 0.388788 0.016852 -0.388786
v 0.398196 0.057539 0.398203
v 0.360850 -0.000001 0.360850
v 0.388786 0.016852 0.388788
v -0.422168 -0.000001 0.286694
v -0.465811 0.057540 0.316432
v -0.454857 0.016852 0.308884
v -0.517795 0.057523 0.220868
v -0.469423 -0.000001 0.200115
v -0.505727 0.016848 0.215588
v -0.551072 0.057499 0.113767
v -0.499760 -0.000001 0.103100
v -0.538351 0.016841 0.111058
v -0.562533 0.057482 0.000005
v -0.510278 -0.000001 0.000000
v -0.549638 0.016836 0.000001
v -0.550930 0.057482 -0.113732
v -0.499760 -0.000001 -0.103100
v -0.538309 0.016836 -0.111048
v -0.517604 0.057499 -0.220788
v -0.469423 -0.000001 -0.200115
v -0.505671 0.016841 -0.215564
v -0.465678 0.057522 -0.316350
v -0.422168 -0.000001 -0.286694
v -0.454818 0.016847 -0.308860
v -0.286694 -0.000001 -0.422168
v -0.316432 0.057540 -0.465811
v -0.308884 0.016852 -0.454857
v -0.220868 0.057523 -0.517795
v -0.200115 -0.000001 -0.469423
v -0.215588 0.016848 -0.505727
v -0.113767 0.057499 -0.551072
v -0.103100 -0.000001 -0.499760
v -0.111058 0.016841 -0.538351
v -0.000005 0.057482 -0.562533
v -0.000000 -0.000001 -0.510278
v -0.000001 0.016836 -0.549638
v 0.113732 0.057482 -0.550930
v 0.103100 -0.000001 -0.499760
v 0.111048 0.016836 -0.538309
v 0.220788 0.057499 -0.517604
v 0.200115 -0.000001 -0.469423
v 0.215564 0.016841 -0.505671
v 0.316350 0.057522 -0.465679
v 0.286694 -0.000001 -0.422168
v 0.308860 0.016847 -0.454818
v 0.422168 -0.000001 -0.286694
v 0.465811 0.057540 -0.316433
v 0.454856 0.016852 -0.308884
v 0.517795 0.057523 -0.220868
v 0.469423 -0.000001 -0.200115
v 0.505727 0.016848 -0.215588
v 0.551072 0.057499 -0.113766
v 0.499760 -0.000001 -0.103100
v 0.538351 0.016841 -0.111058
v 0.562533 0.057482 -0.000005
v 0.510278 -0.000001 0.000000
v 0.549638 0.016836 -0.000001
v 0.550930 0.057482 0.113732
v 0.499760 -0.000001 0.103100
v 0.538309 0.016836 0.111048
v 0.517604 0.057499 0.220788
v 0.469423 -0.000001 0.200115
v 0.505671 0.016841 0.215564
v 0.465678 0.057522 0.316350
v 0.422168 -0.000001 0.286694
v 0.454818 0.016847 0.308860
v 0.286694 -0.000001 0.422168
v 0.316433 0.057540 0.465811
v 0.308884 0.016852 0.454857
v 0.220868 0.057523 0.517795
v 0.200116 -0.000001 0.469423
v 0.215588 0.016848 0.505727
v 0.113767 0.057499 0.551072
v 0.103100 -0.000001 0.499760
v 0.111058 0.016841 0.538351
v 0.000005 0.057482 0.562533
v -0.000000 -0.000001 0.510278
v 0.000001 0.016836 0.549638
v -0.113732 0.057482 0.550930
v -0.103100 -0.000001 0.499760
v -0.111048 0.016836 0.538309
v -0.220788 0.057499 0.517604
v -0.200116 -0.000001 0.469423
v -0.215564 0.016841 0.505671
v -0.316350 0.057522 0.465679
v -0.286694 -0.000001 0.422168
v -0.308860 0.016847 0.454818
v -0.292482 0.057539 0.292488
v -0.337206 -0.000001 0.337206
v -0.307109 0.016852 0.307111
v -0.337206 -0.000001 -0.337206
v -0.292488 0.057539 -0.292482
v -0.307111 0.016852 -0.307109
v 0.337206 -0.000001 -0.337206
v 0.292482 0.057539 -0.292489
v 0.307109 0.016852 -0.307111
v 0.337206 -0.000001 0.337206
v 0.292489 0.057539 0.292482
v 0.307111 0.016852 0.307109
v -0.341988 0.057523 0.232375
v -0.394590 -0.000001 0.267807
v -0.359278 0.016847 0.243949
v -0.438767 -0.000001 0.186868
v -0.380067 0.057499 0.162182
v -0.399438 0.016841 0.170244
v -0.467103 -0.000001 0.096252
v -0.404507 0.057482 0.083542
v -0.425207 0.016836 0.087695
v -0.476923 -0.000001 0.000000
v -0.413030 0.057482 -0.000005
v -0.434154 0.016836 -0.000001
v -0.467103 -0.000001 -0.096252
v -0.404649 0.057499 -0.083577
v -0.425249 0.016841 -0.087705
v -0.438767 -0.000001 -0.186868
v -0.380257 0.057523 -0.162263
v -0.399494 0.016848 -0.170268
v -0.394590 -0.000001 -0.267807
v -0.342120 0.057540 -0.232458
v -0.359316 0.016852 -0.243974
v -0.232375 0.057523 -0.341988
v -0.267807 -0.000001 -0.394590
v -0.243949 0.016847 -0.359277
v -0.186868 -0.000001 -0.438767
v -0.162182 0.057499 -0.380067
v -0.170244 0.016841 -0.399438
v -0.096252 -0.000001 -0.467103
v -0.083542 0.057482 -0.404507
v -0.087695 0.016836 -0.425207
v -0.000000 -0.000001 -0.476922
v 0.000005 0.057482 -0.413030
v 0.000001 0.016836 -0.434154
v 0.096252 -0.000001 -0.467103
v 0.083576 0.057499 -0.404649
v 0.087705 0.016841 -0.425249
v 0.186868 -0.000001 -0.438767
v 0.162263 0.057523 -0.380257
v 0.170267 0.016848 -0.399494
v 0.267807 -0.000001 -0.394590
v 0.232458 0.057540 -0.342120
v 0.243974 0.016852 -0.359316
v 0.341988 0.057523 -0.232375
v 0.394590 -0.000001 -0.267807
v 0.359277 0.016847 -0.243949
v 0.438767 -0.000001 -0.186868
v 0.380066 0.057499 -0.162182
v 0.399438 0.016841 -0.170244
v 0.467103 -0.000001 -0.096252
v 0.404507 0.057482 -0.083542
v 0.425207 0.016836 -0.087695
v 0.476922 -0.000001 0.000000
v 0.413030 0.057482 0.000005
v 0.434154 0.016836 0.000001
v 0.467103 -0.000001 0.096252
v 0.404649 0.057499 0.083577
v 0.425249 0.016841 0.087705
v 0.438767 -0.000001 0.186868
v 0.380257 0.057523 0.162263
v 0.399494 0.016848 0.170268
v 0.394590 -0.000001 0.267808
v 0.342120 0.057540 0.232458
v 0.359316 0.016852 0.243974
v 0.232375 0.057523 0.341988
v 0.267807 -0.000001 0.394590
v 0.243949 0.016847 0.359277
v 0.186868 -0.000001 0.438767
v 0.162182 0.057499 0.380067
v 0.170244 0.016841 0.399438
v 0.096252 -0.000001 0.467103
v 0.083542 0.057482 0.404507
v 0.087695 0.016836 0.425207
v -0.000000 -0.000001 0.476923
v -0.000005 0.057482 0.413030
v -0.000001 0.016836 0.434154
v -0.096252 -0.000001 0.467103
v -0.083576 0.057499 0.404649
v -0.087705 0.016841 0.425249
v -0.186868 -0.000001 0.438767
v -0.162263 0.057523 0.380257
v -0.170267 0.016848 0.399494
v -0.267807 -0.000001 0.394590
v -0.232458 0.057540 0.342120
v -0.243974 0.016852 0.359316
vn -0.5774 0.5774 0.5774
vn -0.5774 0.5774 -0.5774
vn 0.5774 0.5774 0.5774
vn 0.5774 0.5774 -0.5774
vn -0.6960 0.1753 0.6963
vn -0.6654 0.3385 0.6654
vn -0.6222 0.4752 0.6222
vn -0.6222 0.6222 0.4752
vn -0.6654 0.6654 0.3385
vn -0.6961 0.6961 0.1758
vn -0.7071 0.7071 -0.0000
vn -0.6961 0.6961 -0.1758
vn -0.6654 0.6654 -0.3385
vn -0.6222 0.6222 -0.4752
vn -0.6222 0.4752 -0.6222
vn -0.6654 0.3385 -0.6654
vn -0.6963 0.1753 -0.6960
vn -0.4752 0.6222 -0.6222
vn -0.3385 0.6654 -0.6654
vn -0.1758 0.6961 -0.6961
vn -0.0000 0.7071 -0.7071
vn 0.1758 0.6961 -0.6961
vn 0.3385 0.6654 -0.6654
vn 0.4752 0.6222 -0.6222
vn 0.6222 0.4752 -0.6222
vn 0.6654 0.3385 -0.6654
vn 0.6960 0.1753 -0.6963
vn 0.6222 0.6222 -0.4752
vn 0.6654 0.6654 -0.3385
vn 0.6961 0.6961 -0.1758
vn 0.7071 0.7071 -0.0000
vn 0.6961 0.6961 0.1758
vn 0.6654 0.6654 0.3385
vn 0.6222 0.6222 0.4752
vn 0.6222 0.4752 0.6222
vn 0.6654 0.3385 0.6654
vn 0.6963 0.1753 0.6960
vn 0.4752 0.6222 0.6222
vn 0.3385 0.6654 0.6654
vn 0.1758 0.6961 0.6961
vn -0.0000 0.7071 0.7071
vn -0.1758 0.6961 0.6961
vn -0.3385 0.6654 0.6654
vn -0.4752 0.6222 0.6222
vn -0.8152 0.1801 0.5505
vn -0.7756 0.3476 0.5269
vn -0.7150 0.4944 0.4944
vn -0.9046 0.1891 0.3820
vn -0.8554 0.3663 0.3663
vn -0.7756 0.5269 0.3476
vn -0.9606 0.1970 0.1958
vn -0.9046 0.3824 0.1882
vn -0.8151 0.5507 0.1797
vn -0.9798 0.1999 -0.0002
vn -0.9213 0.3888 -0.0000
vn -0.8288 0.5595 -0.0000
vn -0.9608 0.1959 -0.1961
vn -0.9046 0.3824 -0.1882
vn -0.8151 0.5507 -0.1797
vn -0.9049 0.1874 -0.3821
vn -0.8554 0.3663 -0.3663
vn -0.7756 0.5269 -0.3476
vn -0.8156 0.1787 -0.5504
vn -0.7756 0.3476 -0.5269
vn -0.7150 0.4944 -0.4944
vn -0.5505 0.1801 -0.8152
vn -0.5269 0.3476 -0.7756
vn -0.4944 0.4944 -0.7150
vn -0.3820 0.1891 -0.9046
vn -0.3663 0.3663 -0.8554
vn -0.3476 0.5269 -0.7756
vn -0.1958 0.1970 -0.9606
vn -0.1882 0.3824 -0.9046
vn -0.1797 0.5507 -0.8151
vn 0.0002 0.1999 -0.9798
vn -0.0000 0.3888 -0.9213
vn -0.0000 0.5595 -0.8288
vn 0.1961 0.1959 -0.9608
vn 0.1882 0.3824 -0.9046
vn 0.1797 0.5507 -0.8151
vn 0.3821 0.1874 -0.9049
vn 0.3663 0.3663 -0.8554
vn 0.3476 0.5269 -0.7756
vn 0.5504 0.1787 -0.8156
vn 0.5269 0.3476 -0.7756
vn 0.4944 0.4944 -0.7150
vn 0.8152 0.1801 -0.5505
vn 0.7756 0.3476 -0.5269
vn 0.7150 0.4944 -0.4944
vn 0.9046 0.1891 -0.3820
vn 0.8554 0.3663 -0.3663
vn 0.7756 0.5269 -0.3476
vn 0.9606 0.1970 -0.1958
vn 0.9046 0.3824 -0.1882
vn 0.8151 0.5507 -0.1797
vn 0.9798 0.1999 0.0002
vn 0.9213 0.3888 -0.0000
vn 0.8288 0.5595 -0.0000
vn 0.9608 0.1959 0.1961
vn 0.9046 0.3824 0.1882
vn 0.8151 0.5507 0.1797
vn 0.9049 0.1874 0.3821
vn 0.8554 0.3663 0.3663
vn 0.7756 0.5269 0.3476
vn 0.8156 0.1787 0.5504
vn 0.7756 0.3476 0.5269
vn 0.7150 0.4944 0.4944
vn 0.5505 0.1801 0.8152
vn 0.5269 0.3476 0.7756
vn 0.4944 0.4944 0.7150
vn 0.3820 0.1891 0.9046
vn 0.3663 0.3663 0.8554
vn 0.3476 0.5269 0.7756
vn 0.1958 0.1970 0.9606
vn 0.1882 0.3824 0.9046
vn 0.1797 0.5507 0.8151
vn -0.0002 0.1999 0.9798
vn -0.0000 0.3888 0.9213
vn -0.0000 0.5595 0.8288
vn -0.1961 0.1959 0.9608
vn -0.1882 0.3824 0.9046
vn -0.1797 0.5507 0.8151
vn -0.3821 0.1874 0.9049
vn -0.3663 0.3663 0.8554
vn -0.3476 0.5269 0.7756
vn -0.5504 0.1787 0.8156
vn -0.5269 0.3476 0.7756
vn -0.4944 0.4944 0.7150
vn 0.4944 0.7150 -0.4944
vn 0.3476 0.7756 -0.5269
vn 0.1797 0.8151 -0.5507
vn -0.0000 0.8288 -0.5595
vn -0.1797 0.8151 -0.5507
vn -0.3476 0.7756 -0.5269
vn -0.4944 0.7150 -0.4944
vn 0.5269 0.7756 -0.3476
vn 0.3663 0.8554 -0.3663
vn 0.1882 0.9046 -0.3824
vn -0.0000 0.9213 -0.3888
vn -0.1882 0.9046 -0.3824
vn -0.3663 0.8554 -0.3663
vn -0.5269 0.7756 -0.3476
vn 0.5507 0.8151 -0.1797
vn 0.3824 0.9046 -0.1882
vn 0.1963 0.9607 -0.1963
vn -0.0000 0.9799 -0.1996
vn -0.1963 0.9607 -0.1963
vn -0.3824 0.9046 -0.1882
vn -0.5507 0.8151 -0.1797
vn 0.5595 0.8288 -0.0000
vn 0.3888 0.9213 -0.0000
vn 0.1996 0.9799 -0.0000
vn -0.0000 1.0000 -0.0000
vn -0.1996 0.9799 -0.0000
vn -0.3888 0.9213 -0.0000
vn -0.5595 0.8288 -0.0000
vn 0.5507 0.8151 0.1797
vn 0.3824 0.9046 0.1882
vn 0.1963 0.9607 0.1963
vn -0.0000 0.9799 0.1996
vn -0.1963 0.9607 0.1963
vn -0.3824 0.9046 0.1882
vn -0.5507 0.8151 0.1797
vn 0.5269 0.7756 0.3476
vn 0.3663 0.8554 0.3663
vn 0.1882 0.9046 0.3824
vn -0.0000 0.9213 0.3888
vn -0.1882 0.9046 0.3824
vn -0.3663 0.8554 0.3663
vn -0.5269 0.7756 0.3476
vn 0.4944 0.7150 0.4944
vn 0.3476 0.7756 0.5269
vn 0.1797 0.8151 0.5507
vn -0.0000 0.8288 0.5595
vn -0.1797 0.8151 0.5507
vn -0.3476 0.7756 0.5269
vn -0.4944 0.7150 0.4944
vn 0.6964 -0.1747 -0.6960
vn 0.6654 -0.3385 -0.6654
vn 0.6222 -0.4752 -0.6222
vn 0.5774 -0.5774 -0.5774
vn 0.6222 -0.6222 -0.4752
vn 0.6654 -0.6654 -0.3385
vn 0.6961 -0.6961 -0.1758
vn 0.7071 -0.7071 -0.0000
vn 0.6961 -0.6961 0.1758
vn 0.6654 -0.6654 0.3385
vn 0.6222 -0.6222 0.4752
vn 0.5773 -0.5774 0.5774
vn 0.6222 -0.4752 0.6222
vn 0.6654 -0.3385 0.6654
vn 0.6960 -0.1747 0.6964
vn 0.4752 -0.6222 0.6222
vn 0.3385 -0.6654 0.6654
vn 0.1758 -0.6961 0.6961
vn -0.0000 -0.7071 0.7071
vn -0.1758 -0.6961 0.6961
vn -0.3385 -0.6654 0.6654
vn -0.4752 -0.6222 0.6222
vn -0.5774 -0.5774 0.5773
vn -0.6222 -0.4752 0.6222
vn -0.6654 -0.3385 0.6654
vn -0.6964 -0.1747 0.6960
vn -0.6222 -0.6222 0.4752
vn -0.6654 -0.6654 0.3385
vn -0.6961 -0.6961 0.1758
vn -0.7071 -0.7071 -0.0000
vn -0.6961 -0.6961 -0.1758
vn -0.6654 -0.6654 -0.3385
vn -0.6222 -0.6222 -0.4752
vn -0.5774 -0.5774 -0.5774
vn -0.6222 -0.4752 -0.6222
vn -0.6654 -0.3385 -0.6654
vn -0.6960 -0.1747 -0.6964
vn -0.4752 -0.6222 -0.6222
vn -0.3385 -0.6654 -0.6654
vn -0.1758 -0.6961 -0.6961
vn -0.0000 -0.7071 -0.7071
vn 0.1758 -0.6961 -0.6961
vn 0.3385 -0.6654 -0.6654
vn 0.4752 -0.6222 -0.6222
vn 0.8159 -0.1773 -0.5504
vn 0.7756 -0.3476 -0.5269
vn 0.7150 -0.4944 -0.4944
vn 0.9052 -0.1862 -0.3820
vn 0.8554 -0.3663 -0.3663
vn 0.7756 -0.5269 -0.3476
vn 0.9609 -0.1955 -0.1961
vn 0.9046 -0.3824 -0.1882
vn 0.8151 -0.5507 -0.1797
vn 0.9797 -0.2003 -0.0002
vn 0.9213 -0.3888 -0.0000
vn 0.8288 -0.5595 -0.0000
vn 0.9605 -0.1980 0.1957
vn 0.9046 -0.3824 0.1882
vn 0.8151 -0.5507 0.1797
vn 0.9045 -0.1902 0.3818
vn 0.8554 -0.3663 0.3663
vn 0.7756 -0.5269 0.3476
vn 0.8151 -0.1807 0.5504
vn 0.7756 -0.3476 0.5269
vn 0.7150 -0.4944 0.4944
vn 0.5504 -0.1773 0.8159
vn 0.5269 -0.3476 0.7756
vn 0.4944 -0.4944 0.7150
vn 0.3820 -0.1862 0.9052
vn 0.3663 -0.3663 0.8554
vn 0.3476 -0.5269 0.7756
vn 0.1961 -0.1955 0.9609
vn 0.1882 -0.3824 0.9046
vn 0.1797 -0.5507 0.8151
vn 0.0002 -0.2003 0.9797
vn -0.0000 -0.3888 0.9213
vn -0.0000 -0.5595 0.8288
vn -0.1957 -0.1980 0.9605
vn -0.1882 -0.3824 0.9046
vn -0.1797 -0.5507 0.8151
vn -0.3818 -0.1902 0.9045
vn -0.3663 -0.3663 0.8554
vn -0.3476 -0.5269 0.7756
vn -0.5504 -0.1807 0.8151
vn -0.5269 -0.3476 0.7756
vn -0.4944 -0.4944 0.7150
vn -0.8159 -0.1773 0.5504
vn -0.7756 -0.3476 0.5269
vn -0.7150 -0.4944 0.4944
vn -0.9052 -0.1862 0.3820
vn -0.8554 -0.3663 0.3663
vn -0.7756 -0.5269 0.3476
vn -0.9609 -0.1955 0.1961
vn -0.9046 -0.3824 0.1882
vn -0.8151 -0.5507 0.1797
vn -0.9797 -0.2003 0.0002
vn -0.9213 -0.3888 -0.0000
vn -0.8288 -0.5595 -0.0000
vn -0.9605 -0.1980 -0.1957
vn -0.9046 -0.3824 -0.1882
vn -0.8151 -0.5507 -0.1797
vn -0.9045 -0.1902 -0.3818
vn -0.8554 -0.3663 -0.3663
vn -0.7756 -0.5269 -0.3476
vn -0.8151 -0.1807 -0.5504
vn -0.7756 -0.3476 -0.5269
vn -0.7150 -0.4944 -0.4944
vn -0.5504 -0.1773 -0.8159
vn -0.5269 -0.3476 -0.7756
vn -0.4944 -0.4944 -0.7150
vn -0.3820 -0.1862 -0.9052
vn -0.3663 -0.3663 -0.8554
vn -0.3476 -0.5269 -0.7756
vn -0.1961 -0.1955 -0.9609
vn -0.1882 -0.3824 -0.9046
vn -0.1797 -0.5507 -0.8151
vn -0.0002 -0.2003 -0.9797
vn -0.0000 -0.3888 -0.9213
vn -0.0000 -0.5595 -0.8288
vn 0.1957 -0.1980 -0.9605
vn 0.1882 -0.3824 -0.9046
vn 0.1797 -0.5507 -0.8151
vn 0.3818 -0.1902 -0.9045
vn 0.3663 -0.3663 -0.8554
vn 0.3476 -0.5269 -0.7756
vn 0.5504 -0.1807 -0.8151
vn 0.5269 -0.3476 -0.7756
vn 0.4944 -0.4944 -0.7150
vn -0.4944 -0.7150 0.4944
vn -0.3476 -0.7756 0.5269
vn -0.1797 -0.8151 0.5507
vn -0.0000 -0.8288 0.5595
vn 0.1797 -0.8151 0.5507
vn 0.3476 -0.7756 0.5269
vn 0.4944 -0.7150 0.4944
vn -0.5269 -0.7756 0.3476
vn -0.3663 -0.8554 0.3663
vn -0.1882 -0.9046 0.3824
vn -0.0000 -0.9213 0.3888
vn 0.1882 -0.9046 0.3824
vn 0.3663 -0.8554 0.3663
vn 0.5269 -0.7756 0.3476
vn -0.5507 -0.8151 0.1797
vn -0.3824 -0.9046 0.1882
vn -0.1963 -0.9607 0.1963
vn -0.0000 -0.9799 0.1996
vn 0.1963 -0.9607 0.1963
vn 0.3824 -0.9046 0.1882
vn 0.5507 -0.8151 0.1797
vn -0.5595 -0.8288 -0.0000
vn -0.3888 -0.9213 -0.0000
vn -0.1996 -0.9799 -0.0000
vn -0.0000 -1.0000 -0.0000
vn 0.1996 -0.9799 -0.0000
vn 0.3888 -0.9213 -0.0000
vn 0.5595 -0.8288 -0.0000
vn -0.5507 -0.8151 -0.1797
vn -0.3824 -0.9046 -0.1882
vn -0.1963 -0.9607 -0.1963
vn -0.0000 -0.9799 -0.1996
vn 0.1963 -0.9607 -0.1963
vn 0.3824 -0.9046 -0.1882
vn 0.5507 -0.8151 -0.1797
vn -0.5269 -0.7756 -0.3476
vn -0.3663 -0.8554 -0.3663
vn -0.1882 -0.9046 -0.3824
vn -0.0000 -0.9213 -0.3888
vn 0.1882 -0.9046 -0.3824
vn 0.3663 -0.8554 -0.3663
vn 0.5269 -0.7756 -0.3476
vn -0.4944 -0.7150 -0.4944
vn -0.3476 -0.7756 -0.5269
vn -0.1797 -0.8151 -0.5507
vn -0.0000 -0.8288 -0.5595
vn 0.1797 -0.8151 -0.5507
vn 0.3476 -0.7756 -0.5269
vn 0.4944 -0.7150 -0.4944
vn -0.1497 -0.9773 0.1498
vn -0.7024 -0.1115 0.7030
vn -0.5290 -0.6633 0.5294
vn -0.7030 -0.1115 -0.7024
vn -0.1498 -0.9773 -0.1497
vn -0.5294 -0.6633 -0.5290
vn 0.7024 -0.1115 -0.7030
vn 0.1497 -0.9773 -0.1498
vn 0.5290 -0.6633 -0.5294
vn 0.7030 -0.1115 0.7024
vn 0.1498 -0.9773 0.1497
vn 0.5294 -0.6633 0.5290
vn -0.1755 -0.9773 0.1188
vn -0.8236 -0.1097 0.5565
vn -0.6200 -0.6631 0.4194
vn -0.9160 -0.1062 0.3868
vn -0.1955 -0.9772 0.0829
vn -0.6904 -0.6617 0.2922
vn -0.9747 -0.1029 0.1984
vn -0.2085 -0.9771 0.0427
vn -0.7360 -0.6601 0.1503
vn -0.9948 -0.1016 -0.0004
vn -0.2131 -0.9770 -0.0000
vn -0.7520 -0.6591 -0.0002
vn -0.9746 -0.1031 -0.1989
vn -0.2086 -0.9771 -0.0428
vn -0.7366 -0.6593 -0.1508
vn -0.9160 -0.1066 -0.3868
vn -0.1957 -0.9772 -0.0830
vn -0.6914 -0.6606 -0.2926
vn -0.8239 -0.1101 -0.5560
vn -0.1756 -0.9773 -0.1188
vn -0.6208 -0.6622 -0.4196
vn -0.1188 -0.9773 -0.1755
vn -0.5565 -0.1097 -0.8236
vn -0.4194 -0.6631 -0.6200
vn -0.3868 -0.1062 -0.9160
vn -0.0829 -0.9772 -0.1955
vn -0.2922 -0.6617 -0.6904
vn -0.1984 -0.1029 -0.9747
vn -0.0427 -0.9771 -0.2085
vn -0.1503 -0.6601 -0.7360
vn 0.0004 -0.1016 -0.9948
vn -0.0000 -0.9770 -0.2131
vn 0.0002 -0.6591 -0.7520
vn 0.1989 -0.1031 -0.9746
vn 0.0428 -0.9771 -0.2086
vn 0.1508 -0.6593 -0.7366
vn 0.3868 -0.1066 -0.9160
vn 0.0830 -0.9772 -0.1957
vn 0.2926 -0.6606 -0.6914
vn 0.5560 -0.1101 -0.8239
vn 0.1188 -0.9773 -0.1756
vn 0.4196 -0.6622 -0.6208
vn 0.1755 -0.9773 -0.1188
vn 0.8236 -0.1097 -0.5565
vn 0.6200 -0.6631 -0.4194
vn 0.9160 -0.1062 -0.3868
vn 0.1955 -0.9772 -0.0829
vn 0.6904 -0.6617 -0.2922
vn 0.9747 -0.1029 -0.1984
vn 0.2085 -0.9771 -0.0427
vn 0.7360 -0.6601 -0.1503
vn 0.9948 -0.1016 0.0004
vn 0.2131 -0.9770 -0.0000
vn 0.7520 -0.6591 0.0002
vn 0.9746 -0.1031 0.1989
vn 0.2086 -0.9771 0.0428
vn 0.7366 -0.6593 0.1508
vn 0.9160 -0.1066 0.3868
vn 0.1957 -0.9772 0.0830
vn 0.6914 -0.6606 0.2926
vn 0.8239 -0.1101 0.5560
vn 0.1756 -0.9773 0.1188
vn 0.6208 -0.6622 0.4196
vn 0.1188 -0.9773 0.1755
vn 0.5565 -0.1097 0.8236
vn 0.4194 -0.6631 0.6200
vn 0.3868 -0.1062 0.9160
vn 0.0829 -0.9772 0.1955
vn 0.2922 -0.6617 0.6904
vn 0.1984 -0.1029 0.9747
vn 0.0427 -0.9771 0.2085
vn 0.1503 -0.6601 0.7360
vn -0.0004 -0.1016 0.9948
vn -0.0000 -0.9770 0.2131
vn -0.0002 -0.6591 0.7520
vn -0.1989 -0.1031 0.9746
vn -0.0428 -0.9771 0.2086
vn -0.1508 -0.6593 0.7366
vn -0.3868 -0.1066 0.9160
vn -0.0830 -0.9772 0.1957
vn -0.2926 -0.6606 0.6914
vn -0.5560 -0.1101 0.8239
vn -0.1188 -0.9773 0.1756
vn -0.4196 -0.6622 0.6208
vn 0.6794 -0.2790 -0.6786
vn 0.1248 -0.9843 -0.1247
vn 0.4677 -0.7503 -0.4673
vn 0.1247 -0.9843 0.1248
vn 0.6786 -0.2790 0.6794
vn 0.4673 -0.7503 0.4677
vn -0.1248 -0.9843 0.1247
vn -0.6794 -0.2790 0.6786
vn -0.4677 -0.7503 0.4673
vn -0.1247 -0.9843 -0.1248
vn -0.6786 -0.2790 -0.6794
vn -0.4673 -0.7503 -0.4677
vn 0.7961 -0.2796 -0.5367
vn 0.1458 -0.9844 -0.0987
vn 0.5469 -0.7512 -0.3695
vn 0.1615 -0.9845 -0.0685
vn 0.8836 -0.2834 -0.3727
vn 0.6063 -0.7528 -0.2565
vn 0.1714 -0.9846 -0.0351
vn 0.9385 -0.2875 -0.1914
vn 0.6436 -0.7540 -0.1317
vn 0.1748 -0.9846 -0.0000
vn 0.9571 -0.2898 -0.0005
vn 0.6567 -0.7542 -0.0003
vn 0.1715 -0.9846 0.0351
vn 0.9381 -0.2891 0.1907
vn 0.6444 -0.7533 0.1315
vn 0.1618 -0.9844 0.0686
vn 0.8829 -0.2860 0.3724
vn 0.6073 -0.7518 0.2569
vn 0.1460 -0.9843 0.0988
vn 0.7951 -0.2819 0.5370
vn 0.5474 -0.7505 0.3703
vn 0.5367 -0.2796 0.7961
vn 0.0987 -0.9844 0.1458
vn 0.3695 -0.7512 0.5469
vn 0.0685 -0.9845 0.1615
vn 0.3727 -0.2834 0.8836
vn 0.2565 -0.7528 0.6063
vn 0.0351 -0.9846 0.1714
vn 0.1914 -0.2875 0.9385
vn 0.1317 -0.7540 0.6436
vn -0.0000 -0.9846 0.1748
vn 0.0005 -0.2898 0.9571
vn 0.0003 -0.7542 0.6567
vn -0.0351 -0.9846 0.1715
vn -0.1907 -0.2891 0.9381
vn -0.1315 -0.7533 0.6444
vn -0.0686 -0.9844 0.1618
vn -0.3724 -0.2860 0.8829
vn -0.2569 -0.7518 0.6073
vn -0.0988 -0.9843 0.1460
vn -0.5370 -0.2819 0.7951
vn -0.3703 -0.7505 0.5474
vn -0.7961 -0.2796 0.5367
vn -0.1458 -0.9844 0.0987
vn -0.5469 -0.7512 0.3695
vn -0.1615 -0.9845 0.0685
vn -0.8836 -0.2834 0.3727
vn -0.6063 -0.7528 0.2565
vn -0.1714 -0.9846 0.0351
vn -0.9385 -0.2875 0.1914
vn -0.6436 -0.7540 0.1317
vn -0.1748 -0.9846 -0.0000
vn -0.9571 -0.2898 0.0005
vn -0.6567 -0.7542 0.0003
vn -0.1715 -0.9846 -0.0351
vn -0.9381 -0.2891 -0.1907
vn -0.6444 -0.7533 -0.1315
vn -0.1618 -0.9844 -0.0686
vn -0.8829 -0.2860 -0.3724
vn -0.6073 -0.7518 -0.2569
vn -0.1460 -0.9843 -0.0988
vn -0.7951 -0.2819 -0.5370
vn -0.5474 -0.7505 -0.3703
vn -0.5367 -0.2796 -0.7961
vn -0.0987 -0.9844 -0.1458
vn -0.3695 -0.7512 -0.5469
vn -0.0685 -0.9845 -0.1615
vn -0.3727 -0.2834 -0.8836
vn -0.2565 -0.7528 -0.6063
vn -0.0351 -0.9846 -0.1714
vn -0.1914 -0.2875 -0.9385
vn -0.1317 -0.7540 -0.6436
vn -0.0000 -0.9846 -0.1748
vn -0.0005 -0.2898 -0.9571
vn -0.0003 -0.7542 -0.6567
vn 0.0351 -0.9846 -0.1715
vn 0.1907 -0.2891 -0.9381
vn 0.1315 -0.7533 -0.6444
vn 0.0686 -0.9844 -0.1618
vn 0.3724 -0.2860 -0.8829
vn 0.2569 -0.7518 -0.6073
vn 0.0988 -0.9843 -0.1460
vn 0.5370 -0.2819 -0.7951
vn 0.3703 -0.7505 -0.5474
vt 0.531250 0.031250
vt 0.562500 0.031250
vt 0.562500 0.062500
vt 0.531250 0.062500
vt 0.593750 0.031250
vt 0.593750 0.062500
vt 0.562500 0.093750
vt 0.531250 0.093750
vt 0.593750 0.093750
vt 0.562500 0.125000
vt 0.531250 0.125000
vt 0.593750 0.125000
vt 0.562500 0.156250
vt 0.531250 0.156250
vt 0.593750 0.156250
vt 0.562500 0.187500
vt 0.531250 0.187500
vt 0.593750 0.187500
vt 0.562500 0.218750
vt 0.531250 0.218750
vt 0.593750 0.218750
vt 0.531250 0.000000
vt 0.562500 0.000000
vt 0.593750 0.000000
vt 0.625000 0.000000
vt 0.625000 0.031250
vt 0.625000 0.062500
vt 0.625000 0.093750
vt 0.625000 0.125000
vt 0.625000 0.156250
vt 0.625000 0.187500
vt 0.625000 0.218750
vt 0.625000 0.250000
vt 0.593750 0.250000
vt 0.562500 0.250000
vt 0.531250 0.250000
vt 0.531250 0.281250
vt 0.562500 0.281250
vt 0.562500 0.312500
vt 0.531250 0.312500
vt 0.593750 0.281250
vt 0.593750 0.312500
vt 0.562500 0.343750
vt 0.531250 0.343750
vt 0.593750 0.343750
vt 0.562500 0.375000
vt 0.531250 0.375000
vt 0.593750 0.375000
vt 0.562500 0.406250
vt 0.531250 0.406250
vt 0.593750 0.406250
vt 0.562500 0.437500
vt 0.531250 0.437500
vt 0.593750 0.437500
vt 0.562500 0.468750
vt 0.531250 0.468750
vt 0.593750 0.468750
vt 0.625000 0.281250
vt 0.625000 0.312500
vt 0.625000 0.343750
vt 0.625000 0.375000
vt 0.625000 0.406250
vt 0.625000 0.437500
vt 0.625000 0.468750
vt 0.625000 0.500000
vt 0.593750 0.500000
vt 0.562500 0.500000
vt 0.531250 0.500000
vt 0.531250 0.531250
vt 0.562500 0.531250
vt 0.562500 0.562500
vt 0.531250 0.562500
vt 0.593750 0.531250
vt 0.593750 0.562500
vt 0.562500 0.593750
vt 0.531250 0.593750
vt 0.593750 0.593750
vt 0.562500 0.625000
vt 0.531250 0.625000
vt 0.593750 0.625000
vt 0.562500 0.656250
vt 0.531250 0.656250
vt 0.593750 0.656250
vt 0.562500 0.687500
vt 0.531250 0.687500
vt 0.593750 0.687500
vt 0.562500 0.718750
vt 0.531250 0.718750
vt 0.593750 0.718750
vt 0.625000 0.531250
vt 0.625000 0.562500
vt 0.625000 0.593750
vt 0.625000 0.625000
vt 0.625000 0.656250
vt 0.625000 0.687500
vt 0.625000 0.718750
vt 0.625000 0.750000
vt 0.593750 0.750000
vt 0.562500 0.750000
vt 0.531250 0.750000
vt 0.531250 0.781250
vt 0.562500 0.781250
vt 0.562500 0.812500
vt 0.531250 0.812500
vt 0.593750 0.781250
vt 0.593750 0.812500
vt 0.562500 0.843750
vt 0.531250 0.843750
vt 0.593750 0.843750
vt 0.562500 0.875000
vt 0.531250 0.875000
vt 0.593750 0.875000
vt 0.562500 0.906250
vt 0.531250 0.906250
vt 0.593750 0.906250
vt 0.562500 0.937500
vt 0.531250 0.937500
vt 0.593750 0.937500
vt 0.562500 0.968750
vt 0.531250 0.968750
vt 0.593750 0.968750
vt 0.625000 0.781250
vt 0.625000 0.812500
vt 0.625000 0.843750
vt 0.625000 0.875000
vt 0.625000 0.906250
vt 0.625000 0.937500
vt 0.625000 0.968750
vt 0.625000 1.000000
vt 0.593750 1.000000
vt 0.562500 1.000000
vt 0.531250 1.000000
vt 0.656250 0.531250
vt 0.687500 0.531250
vt 0.687500 0.562500
vt 0.656250 0.562500
vt 0.718750 0.531250
vt 0.718750 0.562500
vt 0.750000 0.531250
vt 0.750000 0.562500
vt 0.781250 0.531250
vt 0.781250 0.562500
vt 0.812500 0.531250
vt 0.812500 0.562500
vt 0.843750 0.531250
vt 0.843750 0.562500
vt 0.687500 0.593750
vt 0.656250 0.593750
vt 0.718750 0.593750
vt 0.750000 0.593750
vt 0.781250 0.593750
vt 0.812500 0.593750
vt 0.843750 0.593750
vt 0.687500 0.625000
vt 0.656250 0.625000
vt 0.718750 0.625000
vt 0.750000 0.625000
vt 0.781250 0.625000
vt 0.812500 0.625000
vt 0.843750 0.625000
vt 0.687500 0.656250
vt 0.656250 0.656250
vt 0.718750 0.656250
vt 0.750000 0.656250
vt 0.781250 0.656250
vt 0.812500 0.656250
vt 0.843750 0.656250
vt 0.687500 0.687500
vt 0.656250 0.687500
vt 0.718750 0.687500
vt 0.750000 0.687500
vt 0.781250 0.687500
vt 0.812500 0.687500
vt 0.843750 0.687500
vt 0.687500 0.718750
vt 0.656250 0.718750
vt 0.718750 0.718750
vt 0.750000 0.718750
vt 0.781250 0.718750
vt 0.812500 0.718750
vt 0.843750 0.718750
vt 0.656250 0.500000
vt 0.687500 0.500000
vt 0.718750 0.500000
vt 0.750000 0.500000
vt 0.781250 0.500000
vt 0.812500 0.500000
vt 0.843750 0.500000
vt 0.875000 0.500000
vt 0.875000 0.531250
vt 0.875000 0.562500
vt 0.875000 0.593750
vt 0.875000 0.625000
vt 0.875000 0.656250
vt 0.875000 0.687500
vt 0.875000 0.718750
vt 0.875000 0.750000
vt 0.843750 0.750000
vt 0.812500 0.750000
vt 0.781250 0.750000
vt 0.750000 0.750000
vt 0.718750 0.750000
vt 0.687500 0.750000
vt 0.656250 0.750000
vt 0.517395 0.031249
vt 0.516622 0.062498
vt 0.500000 0.062476
vt 0.500000 0.031231
vt 0.500000 0.062473
vt 0.500000 0.031228
vt 0.515935 0.093748
vt 0.500000 0.093734
vt 0.500000 0.093733
vt 0.515650 0.124999
vt 0.500000 0.125000
vt 0.500000 0.125000
vt 0.515934 0.156251
vt 0.500000 0.156265
vt 0.500000 0.156267
vt 0.516621 0.187503
vt 0.500000 0.187525
vt 0.500000 0.187527
vt 0.517394 0.218753
vt 0.500000 0.218769
vt 0.500000 0.218772
vt 0.517775 0.000003
vt 0.500000 0.000510
vt 0.500000 0.000000
vt 0.500000 0.250000
vt 0.500000 0.250000
vt 0.517775 0.250001
vt 0.517395 0.281249
vt 0.516622 0.312498
vt 0.500000 0.312475
vt 0.500000 0.281231
vt 0.500000 0.312473
vt 0.500000 0.281228
vt 0.515935 0.343748
vt 0.500000 0.343734
vt 0.500000 0.343733
vt 0.515650 0.374999
vt 0.500000 0.375000
vt 0.500000 0.375000
vt 0.515934 0.406251
vt 0.500000 0.406265
vt 0.500000 0.406267
vt 0.516621 0.437503
vt 0.500000 0.437525
vt 0.500000 0.437527
vt 0.517394 0.468753
vt 0.500000 0.468769
vt 0.500000 0.468772
vt 0.500000 0.500000
vt 0.500000 0.500000
vt 0.517775 0.500001
vt 0.517395 0.531249
vt 0.516622 0.562498
vt 0.500000 0.562476
vt 0.500000 0.531231
vt 0.500000 0.562473
vt 0.500000 0.531228
vt 0.515935 0.593748
vt 0.500000 0.593734
vt 0.500000 0.593733
vt 0.515650 0.624999
vt 0.500000 0.625000
vt 0.500000 0.625000
vt 0.515934 0.656251
vt 0.500000 0.656265
vt 0.500000 0.656268
vt 0.516621 0.687503
vt 0.500000 0.687525
vt 0.500000 0.687527
vt 0.517394 0.718753
vt 0.500000 0.718770
vt 0.500000 0.718772
vt 0.500000 0.750000
vt 0.500000 0.750000
vt 0.517775 0.750002
vt 0.517395 0.781249
vt 0.516622 0.812498
vt 0.500000 0.812476
vt 0.500000 0.781231
vt 0.500000 0.812473
vt 0.500000 0.781228
vt 0.515935 0.843748
vt 0.500000 0.843734
vt 0.500000 0.843733
vt 0.515650 0.874999
vt 0.500000 0.875000
vt 0.500000 0.875000
vt 0.515934 0.906251
vt 0.500000 0.906265
vt 0.500000 0.906267
vt 0.516621 0.937502
vt 0.500000 0.937525
vt 0.500000 0.937527
vt 0.517394 0.968753
vt 0.500000 0.968770
vt 0.500000 0.968772
vt 0.500000 1.000000
vt 0.500000 0.999491
vt 0.517775 1.000000
vt 0.500000 0.031273
vt 0.500000 0.062528
vt 0.500000 0.062500
vt 0.500000 0.031250
vt 0.522554 0.062497
vt 0.523603 0.031246
vt 0.500000 0.093768
vt 0.500000 0.093750
vt 0.521622 0.093749
vt 0.521236 0.125002
vt 0.500000 0.156232
vt 0.500000 0.156250
vt 0.521623 0.156253
vt 0.500000 0.187472
vt 0.500000 0.187500
vt 0.522555 0.187503
vt 0.500000 0.218727
vt 0.500000 0.218750
vt 0.523604 0.218751
vt 0.524119 0.000000
vt 0.524119 0.249998
vt 0.500000 0.281273
vt 0.500000 0.312528
vt 0.500000 0.312500
vt 0.500000 0.281250
vt 0.522554 0.312497
vt 0.523603 0.281246
vt 0.500000 0.343768
vt 0.500000 0.343750
vt 0.521622 0.343749
vt 0.521236 0.375002
vt 0.500000 0.406232
vt 0.500000 0.406250
vt 0.521623 0.406253
vt 0.500000 0.437472
vt 0.500000 0.437500
vt 0.522555 0.437503
vt 0.500000 0.468727
vt 0.500000 0.468750
vt 0.523604 0.468751
vt 0.524119 0.499998
vt 0.500000 0.531273
vt 0.500000 0.562528
vt 0.500000 0.562500
vt 0.500000 0.531250
vt 0.522554 0.562497
vt 0.523603 0.531246
vt 0.500000 0.593768
vt 0.500000 0.593750
vt 0.521622 0.593749
vt 0.521236 0.625002
vt 0.500000 0.656232
vt 0.500000 0.656250
vt 0.521622 0.656253
vt 0.500000 0.687472
vt 0.500000 0.687500
vt 0.522555 0.687503
vt 0.500000 0.718727
vt 0.500000 0.718750
vt 0.523604 0.718751
vt 0.524119 0.749998
vt 0.500000 0.781273
vt 0.500000 0.812528
vt 0.500000 0.812500
vt 0.500000 0.781250
vt 0.522554 0.812497
vt 0.523603 0.781247
vt 0.500000 0.843768
vt 0.500000 0.843750
vt 0.521622 0.843749
vt 0.500000 0.875000
vt 0.521236 0.875002
vt 0.500000 0.906232
vt 0.500000 0.906250
vt 0.521623 0.906253
vt 0.500000 0.937472
vt 0.500000 0.937500
vt 0.522555 0.937503
vt 0.500000 0.968727
vt 0.500000 0.968750
vt 0.523604 0.968751
vt 0.524119 0.999996
s 1
f 45/1/45 46/2/46 49/3/49 48/4/48
f 46/2/46 47/5/47 50/6/50 49/3/49
f 48/4/48 49/3/49 52/7/52 51/8/51
f 49/3/49 50/6/50 53/9/53 52/7/52
f 51/8/51 52/7/52 55/10/55 54/11/54
f 52/7/52 53/9/53 56/12/56 55/10/55
f 54/11/54 55/10/55 58/13/58 57/14/57
f 55/10/55 56/12/56 59/15/59 58/13/58
f 57/14/57 58/13/58 61/16/61 60/17/60
f 58/13/58 59/15/59 62/18/62 61/16/61
f 60/17/60 61/16/61 64/19/64 63/20/63
f 61/16/61 62/18/62 65/21/65 64/19/64
f 5/22/5 6/23/6 46/2/46 45/1/45
f 6/23/6 7/24/7 47/5/47 46/2/46
f 7/24/7 1/25/1 8/26/8 47/5/47
f 47/5/47 8/26/8 9/27/9 50/6/50
f 50/6/50 9/27/9 10/28/10 53/9/53
f 53/9/53 10/28/10 11/29/11 56/12/56
f 56/12/56 11/29/11 12/30/12 59/15/59
f 59/15/59 12/30/12 13/31/13 62/18/62
f 62/18/62 13/31/13 14/32/14 65/21/65
f 65/21/65 14/32/14 2/33/2 15/34/15
f 64/19/64 65/21/65 15/34/15 16/35/16
f 63/20/63 64/19/64 16/35/16 17/36/17
f 66/37/66 67/38/67 70/39/70 69/40/69
f 67/38/67 68/41/68 71/42/71 70/39/70
f 69/40/69 70/39/70 73/43/73 72/44/72
f 70/39/70 71/42/71 74/45/74 73/43/73
f 72/44/72 73/43/73 76/46/76 75/47/75
f 73/43/73 74/45/74 77/48/77 76/46/76
f 75/47/75 76/46/76 79/49/79 78/50/78
f 76/46/76 77/48/77 80/51/80 79/49/79
f 78/50/78 79/49/79 82/52/82 81/53/81
f 79/49/79 80/51/80 83/54/83 82/52/82
f 81/53/81 82/52/82 85/55/85 84/56/84
f 82/52/82 83/54/83 86/57/86 85/55/85
f 17/36/17 16/35/16 67/38/67 66/37/66
f 16/35/16 15/34/15 68/41/68 67/38/67
f 15/34/15 2/33/2 18/58/18 68/41/68
f 68/41/68 18/58/18 19/59/19 71/42/71
f 71/42/71 19/59/19 20/60/20 74/45/74
f 74/45/74 20/60/20 21/61/21 77/48/77
f 77/48/77 21/61/21 22/62/22 80/51/80
f 80/51/80 22/62/22 23/63/23 83/54/83
f 83/54/83 23/63/23 24/64/24 86/57/86
f 86/57/86 24/64/24 4/65/4 25/66/25
f 85/55/85 86/57/86 25/66/25 26/67/26
f 84/56/84 85/55/85 26/67/26 27/68/27
f 87/69/87 88/70/88 91/71/91 90/72/90
f 88/70/88 89/73/89 92/74/92 91/71/91
f 90/72/90 91/71/91 94/75/94 93/76/93
f 91/71/91 92/74/92 95/77/95 94/75/94
f 93/76/93 94/75/94 97/78/97 96/79/96
f 94/75/94 95/77/95 98/80/98 97/78/97
f 96/79/96 97/78/97 100/81/100 99/82/99
f 97/78/97 98/80/98 101/83/101 100/81/100
f 99/82/99 100/81/100 103/84/103 102/85/102
f 100/81/100 101/83/101 104/86/104 103/84/103
f 102/85/102 103/84/103 106/87/106 105/88/105
f 103/84/103 104/86/104 107/89/107 106/87/106
f 27/68/27 26/67/26 88/70/88 87/69/87
f 26/67/26 25/66/25 89/73/89 88/70/88
f 25/66/25 4/65/4 28/90/28 89/73/89
f 89/73/89 28/90/28 29/91/29 92/74/92
f 92/74/92 29/91/29 30/92/30 95/77/95
f 95/77/95 30/92/30 31/93/31 98/80/98
f 98/80/98 31/93/31 32/94/32 101/83/101
f 101/83/101 32/94/32 33/95/33 104/86/104
f 104/86/104 33/95/33 34/96/34 107/89/107
f 107/89/107 34/96/34 3/97/3 35/98/35
f 106/87/106 107/89/107 35/98/35 36/99/36
f 105/88/105 106/87/106 36/99/36 37/100/37
f 108/101/108 109/102/109 112/103/112 111/104/111
f 109/102/109 110/105/110 113/106/113 112/103/112
f 111/104/111 112/103/112 115/107/115 114/108/114
f 112/103/112 113/106/113 116/109/116 115/107/115
f 114/108/114 115/107/115 118/110/118 117/111/117
f 115/107/115 116/109/116 119/112/119 118/110/118
f 117/111/117 118/110/118 121/113/121 120/114/120
f 118/110/118 119/112/119 122/115/122 121/113/121
f 120/114/120 121/113/121 124/116/124 123/117/123
f 121/113/121 122/115/122 125/118/125 124/116/124
f 123/117/123 124/116/124 127/119/127 126/120/126
f 124/116/124 125/118/125 128/121/128 127/119/127
f 37/100/37 36/99/36 109/102/109 108/101/108
f 36/99/36 35/98/35 110/105/110 109/102/109
f 35/98/35 3/97/3 38/122/38 110/105/110
f 110/105/110 38/122/38 39/123/39 113/106/113
f 113/106/113 39/123/39 40/124/40 116/109/116
f 116/109/116 40/124/40 41/125/41 119/112/119
f 119/112/119 41/125/41 42/126/42 122/115/122
f 122/115/122 42/126/42 43/127/43 125/118/125
f 125/118/125 43/127/43 44/128/44 128/121/128
f 128/121/128 44/128/44 1/129/1 7/130/7
f 127/119/127 128/121/128 7/130/7 6/131/6
f 126/120/126 127/119/127 6/131/6 5/132/5
f 129/133/129 130/134/130 137/135/137 136/136/136
f 130/134/130 131/137/131 138/138/138 137/135/137
f 131/137/131 132/139/132 139/140/139 138/138/138
f 132/139/132 133/141/133 140/142/140 139/140/139
f 133/141/133 134/143/134 141/144/141 140/142/140
f 134/143/134 135/145/135 142/146/142 141/144/141
f 136/136/136 137/135/137 144/147/144 143/148/143
f 137/135/137 138/138/138 145/149/145 144/147/144
f 138/138/138 139/140/139 146/150/146 145/149/145
f 139/140/139 140/142/140 147/151/147 146/150/146
f 140/142/140 141/144/141 148/152/148 147/151/147
f 141/144/141 142/146/142 149/153/149 148/152/148
f 143/148/143 144/147/144 151/154/151 150/155/150
f 144/147/144 145/149/145 152/156/152 151/154/151
f 145/149/145 146/150/146 153/157/153 152/156/152
f 146/150/146 147/151/147 154/158/154 153/157/153
f 147/151/147 148/152/148 155/159/155 154/158/154
f 148/152/148 149/153/149 156/160/156 155/159/155
f 150/155/150 151/154/151 158/161/158 157/162/157
f 151/154/151 152/156/152 159/163/159 158/161/158
f 152/156/152 153/157/153 160/164/160 159/163/159
f 153/157/153 154/158/154 161/165/161 160/164/160
f 154/158/154 155/159/155 162/166/162 161/165/161
f 155/159/155 156/160/156 163/167/163 162/166/162
f 157/162/157 158/161/158 165/168/165 164/169/164
f 158/161/158 159/163/159 166/170/166 165/168/165
f 159/163/159 160/164/160 167/171/167 166/170/166
f 160/164/160 161/165/161 168/172/168 167/171/167
f 161/165/161 162/166/162 169/173/169 168/172/168
f 162/166/162 163/167/163 170/174/170 169/173/169
f 164/169/164 165/168/165 172/175/172 171/176/171
f 165/168/165 166/170/166 173/177/173 172/175/172
f 166/170/166 167/171/167 174/178/174 173/177/173
f 167/171/167 168/172/168 175/179/175 174/178/174
f 168/172/168 169/173/169 176/180/176 175/179/175
f 169/173/169 170/174/170 177/181/177 176/180/176
f 4/65/4 24/182/24 129/133/129 28/90/28
f 24/182/24 23/183/23 130/134/130 129/133/129
f 23/183/23 22/184/22 131/137/131 130/134/130
f 22/184/22 21/185/21 132/139/132 131/137/131
f 21/185/21 20/186/20 133/141/133 132/139/132
f 20/186/20 19/187/19 134/143/134 133/141/133
f 19/187/19 18/188/18 135/145/135 134/143/134
f 18/188/18 2/189/2 14/190/14 135/145/135
f 135/145/135 14/190/14 13/191/13 142/146/142
f 142/146/142 13/191/13 12/192/12 149/153/149
f 149/153/149 12/192/12 11/193/11 156/160/156
f 156/160/156 11/193/11 10/194/10 163/167/163
f 163/167/163 10/194/10 9/195/9 170/174/170
f 170/174/170 9/195/9 8/196/8 177/181/177
f 177/181/177 8/196/8 1/197/1 44/198/44
f 176/180/176 177/181/177 44/198/44 43/199/43
f 175/179/175 176/180/176 43/199/43 42/200/42
f 174/178/174 175/179/175 42/200/42 41/201/41
f 173/177/173 174/178/174 41/201/41 40/202/40
f 172/175/172 173/177/173 40/202/40 39/203/39
f 171/176/171 172/175/172 39/203/39 38/204/38
f 34/96/34 171/176/171 38/204/38 3/97/3
f 33/95/33 164/169/164 171/176/171 34/96/34
f 32/94/32 157/162/157 164/169/164 33/95/33
f 31/93/31 150/155/150 157/162/157 32/94/32
f 30/92/30 143/148/143 150/155/150 31/93/31
f 29/91/29 136/136/136 143/148/143 30/92/30
f 28/90/28 129/133/129 136/136/136 29/91/29
f 222/1/222 225/4/225 226/3/226 223/2/223
f 223/2/223 226/3/226 227/6/227 224/5/224
f 225/4/225 228/8/228 229/7/229 226/3/226
f 226/3/226 229/7/229 230/9/230 227/6/227
f 228/8/228 231/11/231 232/10/232 229/7/229
f 229/7/229 232/10/232 233/12/233 230/9/230
f 231/11/231 234/14/234 235/13/235 232/10/232
f 232/10/232 235/13/235 236/15/236 233/12/233
f 234/14/234 237/17/237 238/16/238 235/13/235
f 235/13/235 238/16/238 239/18/239 236/15/236
f 237/17/237 240/20/240 241/19/241 238/16/238
f 238/16/238 241/19/241 242/21/242 239/18/239
f 178/22/178 222/1/222 223/2/223 179/23/179
f 179/23/179 223/2/223 224/5/224 180/24/180
f 180/24/180 224/5/224 182/26/182 181/25/181
f 224/5/224 227/6/227 183/27/183 182/26/182
f 227/6/227 230/9/230 184/28/184 183/27/183
f 230/9/230 233/12/233 185/29/185 184/28/184
f 233/12/233 236/15/236 186/30/186 185/29/185
f 236/15/236 239/18/239 187/31/187 186/30/186
f 239/18/239 242/21/242 188/32/188 187/31/187
f 242/21/242 190/34/190 189/33/189 188/32/188
f 241/19/241 191/35/191 190/34/190 242/21/242
f 240/20/240 192/36/192 191/35/191 241/19/241
f 243/37/243 246/40/246 247/39/247 244/38/244
f 244/38/244 247/39/247 248/42/248 245/41/245
f 246/40/246 249/44/249 250/43/250 247/39/247
f 247/39/247 250/43/250 251/45/251 248/42/248
f 249/44/249 252/47/252 253/46/253 250/43/250
f 250/43/250 253/46/253 254/48/254 251/45/251
f 252/47/252 255/50/255 256/49/256 253/46/253
f 253/46/253 256/49/256 257/51/257 254/48/254
f 255/50/255 258/53/258 259/52/259 256/49/256
f 256/49/256 259/52/259 260/54/260 257/51/257
f 258/53/258 261/56/261 262/55/262 259/52/259
f 259/52/259 262/55/262 263/57/263 260/54/260
f 192/36/192 243/37/243 244/38/244 191/35/191
f 191/35/191 244/38/244 245/41/245 190/34/190
f 190/34/190 245/41/245 193/58/193 189/33/189
f 245/41/245 248/42/248 194/59/194 193/58/193
f 248/42/248 251/45/251 195/60/195 194/59/194
f 251/45/251 254/48/254 196/61/196 195/60/195
f 254/48/254 257/51/257 197/62/197 196/61/196
f 257/51/257 260/54/260 198/63/198 197/62/197
f 260/54/260 263/57/263 199/64/199 198/63/198
f 263/57/263 201/66/201 200/65/200 199/64/199
f 262/55/262 202/67/202 201/66/201 263/57/263
f 261/56/261 203/68/203 202/67/202 262/55/262
f 264/69/264 267/72/267 268/71/268 265/70/265
f 265/70/265 268/71/268 269/74/269 266/73/266
f 267/72/267 270/76/270 271/75/271 268/71/268
f 268/71/268 271/75/271 272/77/272 269/74/269
f 270/76/270 273/79/273 274/78/274 271/75/271
f 271/75/271 274/78/274 275/80/275 272/77/272
f 273/79/273 276/82/276 277/81/277 274/78/274
f 274/78/274 277/81/277 278/83/278 275/80/275
f 276/82/276 279/85/279 280/84/280 277/81/277
f 277/81/277 280/84/280 281/86/281 278/83/278
f 279/85/279 282/88/282 283/87/283 280/84/280
f 280/84/280 283/87/283 284/89/284 281/86/281
f 203/68/203 264/69/264 265/70/265 202/67/202
f 202/67/202 265/70/265 266/73/266 201/66/201
f 201/66/201 266/73/266 204/90/204 200/65/200
f 266/73/266 269/74/269 205/91/205 204/90/204
f 269/74/269 272/77/272 206/92/206 205/91/205
f 272/77/272 275/80/275 207/93/207 206/92/206
f 275/80/275 278/83/278 208/94/208 207/93/207
f 278/83/278 281/86/281 209/95/209 208/94/208
f 281/86/281 284/89/284 210/96/210 209/95/209
f 284/89/284 212/98/212 211/97/211 210/96/210
f 283/87/283 213/99/213 212/98/212 284/89/284
f 282/88/282 214/100/214 213/99/213 283/87/283
f 285/101/285 288/104/288 289/103/289 286/102/286
f 286/102/286 289/103/289 290/106/290 287/105/287
f 288/104/288 291/108/291 292/107/292 289/103/289
f 289/103/289 292/107/292 293/109/293 290/106/290
f 291/108/291 294/111/294 295/110/295 292/107/292
f 292/107/292 295/110/295 296/112/296 293/109/293
f 294/111/294 297/114/297 298/113/298 295/110/295
f 295/110/295 298/113/298 299/115/299 296/112/296
f 297/114/297 300/117/300 301/116/301 298/113/298
f 298/113/298 301/116/301 302/118/302 299/115/299
f 300/117/300 303/120/303 304/119/304 301/116/301
f 301/116/301 304/119/304 305/121/305 302/118/302
f 214/100/214 285/101/285 286/102/286 213/99/213
f 213/99/213 286/102/286 287/105/287 212/98/212
f 212/98/212 287/105/287 215/122/215 211/97/211
f 287/105/287 290/106/290 216/123/216 215/122/215
f 290/106/290 293/109/293 217/124/217 216/123/216
f 293/109/293 296/112/296 218/125/218 217/124/217
f 296/112/296 299/115/299 219/126/219 218/125/218
f 299/115/299 302/118/302 220/127/220 219/126/219
f 302/118/302 305/121/305 221/128/221 220/127/220
f 305/121/305 180/130/180 181/129/181 221/128/221
f 304/119/304 179/131/179 180/130/180 305/121/305
f 303/120/303 178/132/178 179/131/179 304/119/304
f 306/133/306 313/136/313 314/135/314 307/134/307
f 307/134/307 314/135/314 315/138/315 308/137/308
f 308/137/308 315/138/315 316/140/316 309/139/309
f 309/139/309 316/140/316 317/142/317 310/141/310
f 310/141/310 317/142/317 318/144/318 311/143/311
f 311/143/311 318/144/318 319/146/319 312/145/312
f 313/136/313 320/148/320 321/147/321 314/135/314
f 314/135/314 321/147/321 322/149/322 315/138/315
f 315/138/315 322/149/322 323/150/323 316/140/316
f 316/140/316 323/150/323 324/151/324 317/142/317
f 317/142/317 324/151/324 325/152/325 318/144/318
f 318/144/318 325/152/325 326/153/326 319/146/319
f 320/148/320 327/155/327 328/154/328 321/147/321
f 321/147/321 328/154/328 329/156/329 322/149/322
f 322/149/322 329/156/329 330/157/330 323/150/323
f 323/150/323 330/157/330 331/158/331 324/151/324
f 324/151/324 331/158/331 332/159/332 325/152/325
f 325/152/325 332/159/332 333/160/333 326/153/326
f 327/155/327 334/162/334 335/161/335 328/154/328
f 328/154/328 335/161/335 336/163/336 329/156/329
f 329/156/329 336/163/336 337/164/337 330/157/330
f 330/157/330 337/164/337 338/165/338 331/158/331
f 331/158/331 338/165/338 339/166/339 332/159/332
f 332/159/332 339/166/339 340/167/340 333/160/333
f 334/162/334 341/169/341 342/168/342 335/161/335
f 335/161/335 342/168/342 343/170/343 336/163/336
f 336/163/336 343/170/343 344/171/344 337/164/337
f 337/164/337 344/171/344 345/172/345 338/165/338
f 338/165/338 345/172/345 346/173/346 339/166/339
f 339/166/339 346/173/346 347/174/347 340/167/340
f 341/169/341 348/176/348 349/175/349 342/168/342
f 342/168/342 349/175/349 350/177/350 343/170/343
f 343/170/343 350/177/350 351/178/351 344/171/344
f 344/171/344 351/178/351 352/179/352 345/172/345
f 345/172/345 352/179/352 353/180/353 346/173/346
f 346/173/346 353/180/353 354/181/354 347/174/347
f 200/65/200 204/90/204 306/133/306 199/182/199
f 199/182/199 306/133/306 307/134/307 198/183/198
f 198/183/198 307/134/307 308/137/308 197/184/197
f 197/184/197 308/137/308 309/139/309 196/185/196
f 196/185/196 309/139/309 310/141/310 195/186/195
f 195/186/195 310/141/310 311/143/311 194/187/194
f 194/187/194 311/143/311 312/145/312 193/188/193
f 193/188/193 312/145/312 188/190/188 189/189/189
f 312/145/312 319/146/319 187/191/187 188/190/188
f 319/146/319 326/153/326 186/192/186 187/191/187
f 326/153/326 333/160/333 185/193/185 186/192/186
f 333/160/333 340/167/340 184/194/184 185/193/185
f 340/167/340 347/174/347 183/195/183 184/194/184
f 347/174/347 354/181/354 182/196/182 183/195/183
f 354/181/354 221/198/221 181/197/181 182/196/182
f 353/180/353 220/199/220 221/198/221 354/181/354
f 352/179/352 219/200/219 220/199/220 353/180/353
f 351/178/351 218/201/218 219/200/219 352/179/352
f 350/177/350 217/202/217 218/201/218 351/178/351
f 349/175/349 216/203/216 217/202/217 350/177/350
f 348/176/348 215/204/215 216/203/216 349/175/349
f 210/96/210 211/97/211 215/204/215 348/176/348
f 209/95/209 210/96/210 348/176/348 341/169/341
f 208/94/208 209/95/209 341/169/341 334/162/334
f 207/93/207 208/94/208 334/162/334 327/155/327
f 206/92/206 207/93/207 327/155/327 320/148/320
f 205/91/205 206/92/206 320/148/320 313/136/313
f 204/90/204 205/91/205 313/136/313 306/133/306
f 368/205/368 370/206/370 372/207/372 369/208/369
f 369/208/369 372/207/372 371/209/371 367/210/367
f 370/206/370 373/211/373 375/212/375 372/207/372
f 372/207/372 375/212/375 374/213/374 371/209/371
f 373/211/373 376/214/376 378/215/378 375/212/375
f 375/212/375 378/215/378 377/216/377 374/213/374
f 376/214/376 379/217/379 381/218/381 378/215/378
f 378/215/378 381/218/381 380/219/380 377/216/377
f 379/217/379 382/220/382 384/221/384 381/218/381
f 381/218/381 384/221/384 383/222/383 380/219/380
f 382/220/382 385/223/385 387/224/387 384/221/384
f 384/221/384 387/224/387 386/225/386 383/222/383
f 356/226/356 368/205/368 369/208/369 357/227/357
f 357/227/357 369/208/369 367/210/367 355/228/355
f 359/229/359 386/225/386 387/224/387 360/230/360
f 360/230/360 387/224/387 385/223/385 358/231/358
f 389/232/389 391/233/391 393/234/393 390/235/390
f 390/235/390 393/234/393 392/236/392 388/237/388
f 391/233/391 394/238/394 396/239/396 393/234/393
f 393/234/393 396/239/396 395/240/395 392/236/392
f 394/238/394 397/241/397 399/242/399 396/239/396
f 396/239/396 399/242/399 398/243/398 395/240/395
f 397/241/397 400/244/400 402/245/402 399/242/399
f 399/242/399 402/245/402 401/246/401 398/243/398
f 400/244/400 403/247/403 405/248/405 402/245/402
f 402/245/402 405/248/405 404/249/404 401/246/401
f 403/247/403 406/250/406 408/251/408 405/248/405
f 405/248/405 408/251/408 407/252/407 404/249/404
f 358/231/358 389/232/389 390/235/390 360/230/360
f 360/230/360 390/235/390 388/237/388 359/229/359
f 362/253/362 407/252/407 408/251/408 363/254/363
f 363/254/363 408/251/408 406/250/406 361/255/361
f 410/256/410 412/257/412 414/258/414 411/259/411
f 411/259/411 414/258/414 413/260/413 409/261/409
f 412/257/412 415/262/415 417/263/417 414/258/414
f 414/258/414 417/263/417 416/264/416 413/260/413
f 415/262/415 418/265/418 420/266/420 417/263/417
f 417/263/417 420/266/420 419/267/419 416/264/416
f 418/265/418 421/268/421 423/269/423 420/266/420
f 420/266/420 423/269/423 422/270/422 419/267/419
f 421/268/421 424/271/424 426/272/426 423/269/423
f 423/269/423 426/272/426 425/273/425 422/270/422
f 424/271/424 427/274/427 429/275/429 426/272/426
f 426/272/426 429/275/429 428/276/428 425/273/425
f 361/255/361 410/256/410 411/259/411 363/254/363
f 363/254/363 411/259/411 409/261/409 362/253/362
f 365/277/365 428/276/428 429/275/429 366/278/366
f 366/278/366 429/275/429 427/274/427 364/279/364
f 431/280/431 433/281/433 435/282/435 432/283/432
f 432/283/432 435/282/435 434/284/434 430/285/430
f 433/281/433 436/286/436 438/287/438 435/282/435
f 435/282/435 438/287/438 437/288/437 434/284/434
f 436/286/436 439/289/439 441/290/441 438/287/438
f 438/287/438 441/290/441 440/291/440 437/288/437
f 439/289/439 442/292/442 444/293/444 441/290/441
f 441/290/441 444/293/444 443/294/443 440/291/440
f 442/292/442 445/295/445 447/296/447 444/293/444
f 444/293/444 447/296/447 446/297/446 443/294/443
f 445/295/445 448/298/448 450/299/450 447/296/447
f 447/296/447 450/299/450 449/300/449 446/297/446
f 364/279/364 431/280/431 432/283/432 366/278/366
f 366/278/366 432/283/432 430/285/430 365/277/365
f 355/301/355 449/300/449 450/299/450 357/302/357
f 357/302/357 450/299/450 448/298/448 356/303/356
f 464/304/464 466/305/466 468/306/468 465/307/465
f 465/307/465 468/306/468 467/308/467 463/309/463
f 466/305/466 469/310/469 471/311/471 468/306/468
f 468/306/468 471/311/471 470/312/470 467/308/467
f 469/310/469 472/216/472 474/216/474 471/311/471
f 471/311/471 474/216/474 473/313/473 470/312/470
f 472/216/472 475/314/475 477/315/477 474/216/474
f 474/216/474 477/315/477 476/316/476 473/313/473
f 475/314/475 478/317/478 480/318/480 477/315/477
f 477/315/477 480/318/480 479/319/479 476/316/476
f 478/317/478 481/320/481 483/321/483 480/318/480
f 480/318/480 483/321/483 482/322/482 479/319/479
f 452/228/452 464/304/464 465/307/465 453/228/453
f 453/228/453 465/307/465 463/309/463 451/323/451
f 455/324/455 482/322/482 483/321/483 456/229/456
f 456/229/456 483/321/483 481/320/481 454/229/454
f 485/325/485 487/326/487 489/327/489 486/328/486
f 486/328/486 489/327/489 488/329/488 484/330/484
f 487/326/487 490/331/490 492/332/492 489/327/489
f 489/327/489 492/332/492 491/333/491 488/329/488
f 490/331/490 493/243/493 495/243/495 492/332/492
f 492/332/492 495/243/495 494/334/494 491/333/491
f 493/243/493 496/335/496 498/336/498 495/243/495
f 495/243/495 498/336/498 497/337/497 494/334/494
f 496/335/496 499/338/499 501/339/501 498/336/498
f 498/336/498 501/339/501 500/340/500 497/337/497
f 499/338/499 502/341/502 504/342/504 501/339/501
f 501/339/501 504/342/504 503/343/503 500/340/500
f 454/229/454 485/325/485 486/328/486 456/229/456
f 456/229/456 486/328/486 484/330/484 455/324/455
f 458/344/458 503/343/503 504/342/504 459/253/459
f 459/253/459 504/342/504 502/341/502 457/253/457
f 506/345/506 508/346/508 510/347/510 507/348/507
f 507/348/507 510/347/510 509/349/509 505/350/505
f 508/346/508 511/351/511 513/352/513 510/347/510
f 510/347/510 513/352/513 512/353/512 509/349/509
f 511/351/511 514/267/514 516/267/516 513/352/513
f 513/352/513 516/267/516 515/354/515 512/353/512
f 514/267/514 517/355/517 519/356/519 516/267/516
f 516/267/516 519/356/519 518/357/518 515/354/515
f 517/355/517 520/358/520 522/359/522 519/356/519
f 519/356/519 522/359/522 521/360/521 518/357/518
f 520/358/520 523/361/523 525/362/525 522/359/522
f 522/359/522 525/362/525 524/363/524 521/360/521
f 457/253/457 506/345/506 507/348/507 459/253/459
f 459/253/459 507/348/507 505/350/505 458/344/458
f 461/364/461 524/363/524 525/362/525 462/277/462
f 462/277/462 525/362/525 523/361/523 460/277/460
f 527/365/527 529/366/529 531/367/531 528/368/528
f 528/368/528 531/367/531 530/369/530 526/370/526
f 529/366/529 532/371/532 534/372/534 531/367/531
f 531/367/531 534/372/534 533/373/533 530/369/530
f 532/371/532 535/291/535 537/374/537 534/372/534
f 534/372/534 537/374/537 536/375/536 533/373/533
f 535/291/535 538/376/538 540/377/540 537/374/537
f 537/374/537 540/377/540 539/378/539 536/375/536
f 538/376/538 541/379/541 543/380/543 540/377/540
f 540/377/540 543/380/543 542/381/542 539/378/539
f 541/379/541 544/382/544 546/383/546 543/380/543
f 543/380/543 546/383/546 545/384/545 542/381/542
f 460/277/460 527/365/527 528/368/528 462/277/462
f 462/277/462 528/368/528 526/370/526 461/364/461
f 451/385/451 545/384/545 546/383/546 453/301/453
f 453/301/453 546/383/546 544/382/544 452/301/452
f 448/298/448 126/120/126 5/132/5 356/303/356
f 355/301/355 452/301/452 544/382/544 449/300/449
f 356/226/356 5/22/5 45/1/45 368/205/368
f 367/210/367 464/304/464 452/228/452 355/228/355
f 358/231/358 17/36/17 66/37/66 389/232/389
f 385/223/385 63/20/63 17/36/17 358/231/358
f 388/237/388 485/325/485 454/229/454 359/229/359
f 359/229/359 454/229/454 481/320/481 386/225/386
f 361/255/361 27/68/27 87/69/87 410/256/410
f 406/250/406 84/56/84 27/68/27 361/255/361
f 409/261/409 506/345/506 457/253/457 362/253/362
f 362/253/362 457/253/457 502/341/502 407/252/407
f 364/279/364 37/100/37 108/101/108 431/280/431
f 427/274/427 105/88/105 37/100/37 364/279/364
f 430/285/430 527/365/527 460/277/460 365/277/365
f 365/277/365 460/277/460 523/361/523 428/276/428
f 368/205/368 45/1/45 48/4/48 370/206/370
f 371/209/371 466/305/466 464/304/464 367/210/367
f 370/206/370 48/4/48 51/8/51 373/211/373
f 374/213/374 469/310/469 466/305/466 371/209/371
f 373/211/373 51/8/51 54/11/54 376/214/376
f 377/216/377 472/216/472 469/310/469 374/213/374
f 376/214/376 54/11/54 57/14/57 379/217/379
f 380/219/380 475/314/475 472/216/472 377/216/377
f 379/217/379 57/14/57 60/17/60 382/220/382
f 383/222/383 478/317/478 475/314/475 380/219/380
f 382/220/382 60/17/60 63/20/63 385/223/385
f 386/225/386 481/320/481 478/317/478 383/222/383
f 389/232/389 66/37/66 69/40/69 391/233/391
f 392/236/392 487/326/487 485/325/485 388/237/388
f 391/233/391 69/40/69 72/44/72 394/238/394
f 395/240/395 490/331/490 487/326/487 392/236/392
f 394/238/394 72/44/72 75/47/75 397/241/397
f 398/243/398 493/243/493 490/331/490 395/240/395
f 397/241/397 75/47/75 78/50/78 400/244/400
f 401/246/401 496/335/496 493/243/493 398/243/398
f 400/244/400 78/50/78 81/53/81 403/247/403
f 404/249/404 499/338/499 496/335/496 401/246/401
f 403/247/403 81/53/81 84/56/84 406/250/406
f 407/252/407 502/341/502 499/338/499 404/249/404
f 410/256/410 87/69/87 90/72/90 412/257/412
f 413/260/413 508/346/508 506/345/506 409/261/409
f 412/257/412 90/72/90 93/76/93 415/262/415
f 416/264/416 511/351/511 508/346/508 413/260/413
f 415/262/415 93/76/93 96/79/96 418/265/418
f 419/267/419 514/267/514 511/351/511 416/264/416
f 418/265/418 96/79/96 99/82/99 421/268/421
f 422/270/422 517/355/517 514/267/514 419/267/419
f 421/268/421 99/82/99 102/85/102 424/271/424
f 425/273/425 520/358/520 517/355/517 422/270/422
f 424/271/424 102/85/102 105/88/105 427/274/427
f 428/276/428 523/361/523 520/358/520 425/273/425
f 431/280/431 108/101/108 111/104/111 433/281/433
f 434/284/434 529/366/529 527/365/527 430/285/430
f 433/281/433 111/104/111 114/108/114 436/286/436
f 437/288/437 532/371/532 529/366/529 434/284/434
f 436/286/436 114/108/114 117/111/117 439/289/439
f 440/291/440 535/291/535 532/371/532 437/288/437
f 439/289/439 117/111/117 120/114/120 442/292/442
f 443/294/443 538/376/538 535/291/535 440/291/440
f 442/292/442 120/114/120 123/117/123 445/295/445
f 446/297/446 541/379/541 538/376/538 443/294/443
f 445/295/445 123/117/123 126/120/126 448/298/448
f 449/300/449 544/382/544 541/379/541 446/297/446
f 545/384/545 451/385/451 178/132/178 303/120/303
f 451/323/451 463/309/463 222/1/222 178/22/178
f 455/324/455 484/330/484 243/37/243 192/36/192
f 482/322/482 455/324/455 192/36/192 240/20/240
f 458/344/458 505/350/505 264/69/264 203/68/203
f 503/343/503 458/344/458 203/68/203 261/56/261
f 461/364/461 526/370/526 285/101/285 214/100/214
f 524/363/524 461/364/461 214/100/214 282/88/282
f 463/309/463 467/308/467 225/4/225 222/1/222
f 467/308/467 470/312/470 228/8/228 225/4/225
f 470/312/470 473/313/473 231/11/231 228/8/228
f 473/313/473 476/316/476 234/14/234 231/11/231
f 476/316/476 479/319/479 237/17/237 234/14/234
f 479/319/479 482/322/482 240/20/240 237/17/237
f 484/330/484 488/329/488 246/40/246 243/37/243
f 488/329/488 491/333/491 249/44/249 246/40/246
f 491/333/491 494/334/494 252/47/252 249/44/249
f 494/334/494 497/337/497 255/50/255 252/47/252
f 497/337/497 500/340/500 258/53/258 255/50/255
f 500/340/500 503/343/503 261/56/261 258/53/258
f 505/350/505 509/349/509 267/72/267 264/69/264
f 509/349/509 512/353/512 270/76/270 267/72/267
f 512/353/512 515/354/515 273/79/273 270/76/270
f 515/354/515 518/357/518 276/82/276 273/79/273
f 518/357/518 521/360/521 279/85/279 276/82/276
f 521/360/521 524/363/524 282/88/282 279/85/279
f 526/370/526 530/369/530 288/104/288 285/101/285
f 530/369/530 533/373/533 291/108/291 288/104/288
f 533/373/533 536/375/536 294/111/294 291/108/291
f 536/375/536 539/378/539 297/114/297 294/111/294
f 539/378/539 542/381/542 300/117/300 297/114/297
f 542/381/542 545/384/545 303/120/303 300/117/300
