# Blender 5.1.0
# www.blender.org
mtllib Lights.mtl
o Cube.003
v -0.946611 1.387756 -1.125615
v -0.827235 1.387756 -1.073267
v -0.904516 1.387756 -1.118601
v -0.860821 1.387756 -1.099441
v -0.806494 1.203680 -1.073267
v -0.922877 1.177116 -1.125615
v -0.839238 1.196206 -1.099441
v -0.881838 1.186483 -1.118601
v -0.745313 1.028833 -1.073267
v -0.852867 0.977038 -1.125615
v -0.775573 1.014260 -1.099441
v -0.814941 0.995302 -1.118601
v -0.646758 0.871984 -1.073267
v -0.740090 0.797554 -1.125615
v -0.673017 0.851043 -1.099441
v -0.707179 0.823800 -1.118601
v -0.515772 0.740998 -1.073267
v -0.590202 0.647667 -1.125615
v -0.536713 0.714740 -1.099441
v -0.563956 0.680578 -1.118601
v -0.358924 0.642444 -1.073268
v -0.410719 0.534890 -1.125615
v -0.373496 0.612184 -1.099441
v -0.392455 0.572816 -1.118601
v -0.184077 0.581262 -1.073267
v -0.210640 0.464879 -1.125615
v -0.191551 0.548518 -1.099441
v -0.201274 0.505919 -1.118602
v 0.000000 0.560522 -1.073268
v 0.000000 0.441146 -1.125615
v 0.000000 0.526936 -1.099441
v 0.000000 0.483241 -1.118601
v 0.184077 0.581263 -1.073268
v 0.210641 0.464879 -1.125615
v 0.191551 0.548518 -1.099441
v 0.201274 0.505919 -1.118601
v 0.358924 0.642444 -1.073268
v 0.410719 0.534890 -1.125615
v 0.373496 0.612184 -1.099441
v 0.392455 0.572816 -1.118602
v 0.515772 0.740999 -1.073268
v 0.590202 0.647667 -1.125615
v 0.536713 0.714740 -1.099441
v 0.563956 0.680578 -1.118602
v 0.646758 0.871984 -1.073268
v 0.740090 0.797555 -1.125615
v 0.673017 0.851044 -1.099441
v 0.707179 0.823800 -1.118602
v 0.745313 1.028833 -1.073268
v 0.852867 0.977038 -1.125615
v 0.775573 1.014261 -1.099441
v 0.814940 0.995302 -1.118602
v 0.806494 1.203680 -1.073268
v 0.922877 1.177116 -1.125615
v 0.839238 1.196206 -1.099441
v 0.881837 1.186483 -1.118602
v 0.827234 1.387757 -1.073268
v 0.946611 1.387757 -1.125615
v 0.860821 1.387757 -1.099441
v 0.904516 1.387757 -1.118602
v -0.806494 1.571833 -1.073267
v -0.922877 1.598397 -1.125615
v -0.839239 1.579307 -1.099441
v -0.881838 1.589030 -1.118601
v -0.745313 1.746680 -1.073267
v -0.852867 1.798475 -1.125615
v -0.775573 1.761253 -1.099441
v -0.814941 1.780211 -1.118601
v -0.646758 1.903529 -1.073267
v -0.740090 1.977959 -1.125615
v -0.673017 1.924470 -1.099441
v -0.707179 1.951713 -1.118601
v -0.515773 2.034515 -1.073267
v -0.590202 2.127847 -1.125615
v -0.536713 2.060773 -1.099441
v -0.563957 2.094935 -1.118601
v -0.358924 2.133069 -1.073268
v -0.410719 2.240623 -1.125615
v -0.373496 2.163330 -1.099441
v -0.392455 2.202697 -1.118601
v -0.184077 2.194251 -1.073267
v -0.210641 2.310634 -1.125615
v -0.191551 2.226995 -1.099441
v -0.201274 2.269594 -1.118602
v -0.000000 2.214991 -1.073268
v -0.000000 2.334368 -1.125615
v -0.000000 2.248578 -1.099441
v -0.000000 2.292272 -1.118601
v 0.184077 2.194251 -1.073268
v 0.210640 2.310634 -1.125615
v 0.191550 2.226995 -1.099441
v 0.201273 2.269594 -1.118601
v 0.358923 2.133069 -1.073268
v 0.410719 2.240623 -1.125615
v 0.373496 2.163330 -1.099441
v 0.392454 2.202697 -1.118602
v 0.515772 2.034515 -1.073268
v 0.590202 2.127847 -1.125615
v 0.536713 2.060774 -1.099441
v 0.563956 2.094936 -1.118602
v 0.646758 1.903529 -1.073268
v 0.740090 1.977959 -1.125615
v 0.673017 1.924470 -1.099441
v 0.707179 1.951713 -1.118602
v 0.745312 1.746680 -1.073268
v 0.852866 1.798476 -1.125615
v -0.750056 0.431941 -1.125615
v -0.759386 0.361079 -1.054752
v -0.754721 0.396510 -1.116121
v -0.758136 0.370573 -1.090183
v -0.955815 0.637700 -1.125615
v -1.026677 0.628371 -1.054752
v -0.991246 0.633035 -1.116121
v -1.017184 0.629620 -1.090183
v -0.893032 0.396889 -1.054752
v -0.856351 0.460423 -1.125615
v -0.888117 0.405401 -1.090183
v -0.874691 0.428656 -1.116121
v -0.990867 0.494725 -1.054752
v -0.927334 0.531406 -1.125615
v -0.982355 0.499639 -1.090183
v -0.959100 0.513065 -1.116121
v 0.955815 0.637700 -1.125615
v 1.026678 0.628371 -1.054752
v 0.991246 0.633036 -1.116121
v 1.017184 0.629621 -1.090184
v 0.750057 0.431942 -1.125615
v 0.759386 0.361079 -1.054752
v 0.754721 0.396510 -1.116121
v 0.758136 0.370573 -1.090184
v 0.990867 0.494725 -1.054752
v 0.927334 0.531406 -1.125615
v 0.982355 0.499639 -1.090184
v 0.959100 0.513066 -1.116121
v 0.893032 0.396890 -1.054752
v 0.856351 0.460423 -1.125615
v 0.888117 0.405401 -1.090184
v 0.874691 0.428656 -1.116121
v 0.775573 1.761253 -1.099441
v 0.814940 1.780211 -1.118602
v 0.806494 1.571834 -1.073268
v 0.922877 1.598397 -1.125615
v 0.839238 1.579307 -1.099441
v 0.881837 1.589030 -1.118602
v -0.750057 2.343571 -1.125615
v -0.759386 2.414434 -1.054752
v -0.754722 2.379003 -1.116121
v -0.758136 2.404940 -1.090183
v -0.955815 2.137813 -1.125615
v -1.026678 2.147142 -1.054752
v -0.991247 2.142478 -1.116121
v -1.017184 2.145892 -1.090183
v -0.893032 2.378624 -1.054752
v -0.856351 2.315090 -1.125615
v -0.888118 2.370112 -1.090183
v -0.874692 2.346857 -1.116121
v -0.990868 2.280788 -1.054752
v -0.927334 2.244107 -1.125615
v -0.982356 2.275874 -1.090183
v -0.959101 2.262448 -1.116121
v 0.955815 2.137814 -1.125615
v 1.026677 2.147143 -1.054752
v 0.991246 2.142478 -1.116121
v 1.017184 2.145893 -1.090184
v 0.750056 2.343572 -1.125615
v 0.759385 2.414434 -1.054752
v -0.955815 1.387756 -1.125615
v -0.991247 1.387756 -1.116121
v -1.017184 1.387756 -1.090183
v -1.026678 1.387756 -1.054752
v 0.000000 0.431942 -1.125615
v 0.000000 0.396510 -1.116121
v 0.000000 0.370573 -1.090183
v 0.000000 0.361079 -1.054752
v 0.955815 1.387757 -1.125615
v 0.991246 1.387757 -1.116121
v 1.017184 1.387757 -1.090184
v 1.026678 1.387757 -1.054752
v 0.754721 2.379003 -1.116121
v 0.758136 2.404941 -1.090184
v 0.990867 2.280789 -1.054752
v 0.927333 2.244107 -1.125615
v -0.715796 1.224381 -0.935947
v -0.739604 1.218947 -0.998545
v -0.722769 1.222789 -0.969194
v -0.758625 1.387756 -0.998545
v -0.734204 1.387756 -0.935947
v -0.741357 1.387756 -0.969194
v -0.661495 1.069197 -0.935947
v -0.683497 1.058602 -0.998545
v -0.667939 1.066094 -0.969194
v -0.574024 0.929988 -0.935947
v -0.593117 0.914762 -0.998545
v -0.579616 0.925528 -0.969194
v -0.457769 0.813733 -0.935947
v -0.472995 0.794640 -0.998545
v -0.462228 0.808141 -0.969194
v -0.318559 0.726261 -0.935947
v -0.329155 0.704259 -0.998545
v -0.321663 0.719817 -0.969194
v -0.163376 0.671960 -0.935947
v -0.168810 0.648152 -0.998545
v -0.164967 0.664987 -0.969194
v 0.000000 0.653552 -0.935947
v 0.000000 0.629132 -0.998546
v 0.000000 0.646400 -0.969194
v 0.163376 0.671960 -0.935947
v 0.168810 0.648152 -0.998546
v 0.164967 0.664987 -0.969194
v 0.318559 0.726262 -0.935947
v 0.329155 0.704260 -0.998546
v 0.321663 0.719817 -0.969194
v 0.457769 0.813733 -0.935947
v 0.472995 0.794640 -0.998545
v 0.462228 0.808141 -0.969194
v 0.574024 0.929988 -0.935947
v 0.593116 0.914762 -0.998546
v 0.579616 0.925528 -0.969194
v 0.661495 1.069197 -0.935947
v 0.683497 1.058602 -0.998546
v 0.667939 1.066094 -0.969194
v 0.715796 1.224381 -0.935947
v 0.739604 1.218947 -0.998546
v 0.722769 1.222789 -0.969194
v 0.734204 1.387757 -0.935947
v 0.758624 1.387757 -0.998546
v 0.741357 1.387757 -0.969195
v 0.982355 2.275874 -1.090184
v 0.959100 2.262448 -1.116121
v 0.893031 2.378624 -1.054752
v 0.856350 2.315090 -1.125615
v 0.888117 2.370112 -1.090184
v 0.874691 2.346857 -1.116121
v -0.000000 2.343572 -1.125615
v -0.000000 2.379003 -1.116121
v -0.000000 2.404941 -1.090183
v -0.000000 2.414434 -1.054752
v -0.715796 1.551132 -0.935947
v -0.739604 1.556566 -0.998545
v -0.722770 1.552724 -0.969194
v -0.661495 1.706316 -0.935947
v -0.683497 1.716911 -0.998545
v -0.667940 1.709419 -0.969194
v -0.574024 1.845526 -0.935947
v -0.593117 1.860751 -0.998545
v -0.579616 1.849985 -0.969194
v -0.457769 1.961781 -0.935947
v -0.472995 1.980873 -0.998545
v -0.462229 1.967373 -0.969194
v -0.318560 2.049252 -0.935947
v -0.329155 2.071254 -0.998545
v -0.321663 2.055696 -0.969194
v -0.163376 2.103553 -0.935947
v -0.168810 2.127361 -0.998545
v -0.164968 2.110526 -0.969194
v -0.715796 1.224381 -0.743985
v -0.734204 1.387756 -0.743985
v -0.661495 1.069197 -0.743985
v -0.574024 0.929988 -0.743985
v -0.457769 0.813733 -0.743985
v -0.318559 0.726261 -0.743985
v -0.163376 0.671960 -0.743985
v 0.000000 0.653552 -0.743985
v 0.163376 0.671960 -0.743985
v 0.318559 0.726262 -0.743985
v 0.457769 0.813733 -0.743985
v 0.574024 0.929988 -0.743985
v 0.661495 1.069197 -0.743985
v 0.715796 1.224381 -0.743985
v 0.734204 1.387757 -0.743985
v -0.000000 2.121961 -0.935947
v -0.000000 2.146381 -0.998546
v -0.000000 2.129114 -0.969194
v 0.163376 2.103553 -0.935947
v 0.168810 2.127361 -0.998546
v 0.164967 2.110526 -0.969194
v 0.318559 2.049252 -0.935947
v 0.329155 2.071254 -0.998546
v 0.321662 2.055696 -0.969194
v 0.457769 1.961781 -0.935947
v 0.472995 1.980873 -0.998545
v 0.462228 1.967373 -0.969194
v 0.574024 1.845526 -0.935947
v -0.733552 0.557302 -0.792093
v -0.759386 0.361079 -0.862956
v -0.754721 0.396510 -0.801587
v -0.758136 0.370573 -0.827524
v -0.830455 0.654204 -0.792093
v -1.026677 0.628371 -0.862956
v -0.991246 0.633035 -0.801587
v -1.017184 0.629620 -0.827524
v -0.893032 0.396889 -0.862956
v -0.791459 0.572818 -0.792093
v -0.888117 0.405401 -0.827524
v -0.874691 0.428656 -0.801587
v -0.990867 0.494725 -0.862956
v -0.814938 0.596297 -0.792093
v -0.982355 0.499639 -0.827524
v -0.959100 0.513065 -0.801587
v 0.830455 0.654204 -0.792093
v 1.026678 0.628371 -0.862956
v 0.991246 0.633036 -0.801587
v 1.017184 0.629621 -0.827525
v 0.733553 0.557302 -0.792093
v 0.759386 0.361079 -0.862956
v 0.754721 0.396510 -0.801587
v 0.758136 0.370573 -0.827525
v 0.990867 0.494725 -0.862956
v 0.814939 0.596297 -0.792093
v 0.982355 0.499639 -0.827525
v 0.959100 0.513066 -0.801587
v 0.893032 0.396890 -0.862956
v 0.791459 0.572818 -0.792093
v 0.888117 0.405401 -0.827525
v 0.874691 0.428656 -0.801587
v 0.593116 1.860752 -0.998546
v 0.579616 1.849985 -0.969194
v 0.661495 1.706316 -0.935947
v 0.683497 1.716911 -0.998546
v 0.667939 1.709419 -0.969194
v 0.715796 1.551133 -0.935947
v 0.739604 1.556566 -0.998546
v 0.722769 1.552724 -0.969194
v -0.715796 1.551132 -0.743985
v -0.661495 1.706316 -0.743985
v -0.574024 1.845526 -0.743985
v -0.457769 1.961781 -0.743985
v -0.318559 2.049252 -0.743985
v -0.163376 2.103553 -0.743985
v -0.000000 2.121961 -0.743985
v 0.163376 2.103553 -0.743985
v 0.318559 2.049252 -0.743985
v 0.457769 1.961781 -0.743985
v 0.574024 1.845526 -0.743985
v 0.661495 1.706316 -0.743985
v 0.715796 1.551133 -0.743985
v -0.733553 2.218211 -0.792093
v -0.759386 2.414434 -0.862956
v -0.754722 2.379003 -0.801587
v -0.758136 2.404940 -0.827524
v -0.830455 2.121309 -0.792093
v -1.026678 2.147142 -0.862956
v -0.830455 1.387756 -0.792093
v -0.991246 1.387756 -0.801587
v -1.017184 1.387756 -0.827524
v -1.026678 1.387756 -0.862956
v 0.000000 0.557302 -0.792093
v 0.000000 0.396510 -0.801587
v 0.000000 0.370573 -0.827524
v 0.000000 0.361079 -0.862956
v 0.830455 1.387757 -0.792093
v 0.991246 1.387757 -0.801587
v 1.017184 1.387757 -0.827525
v 1.026678 1.387757 -0.862956
v -0.991247 2.142478 -0.801587
v -1.017184 2.145892 -0.827524
v -0.893032 2.378624 -0.862956
v -0.791460 2.202695 -0.792093
v -0.856351 0.460423 -0.792093
v -0.750056 0.431941 -0.792093
v -0.927333 0.531406 -0.792093
v -0.955815 0.637700 -0.792093
v -0.888118 2.370112 -0.827524
v -0.874691 2.346857 -0.801587
v -0.990868 2.280788 -0.862956
v -0.814939 2.179216 -0.792093
v 0.927334 0.531406 -0.792093
v 0.955815 0.637700 -0.792093
v 0.856351 0.460423 -0.792093
v 0.750057 0.431942 -0.792093
v -0.982356 2.275874 -0.827524
v -0.959101 2.262448 -0.801587
v 0.830455 2.121309 -0.792093
v 1.026677 2.147143 -0.862956
v -0.955815 1.387756 -0.792093
v 0.000000 0.431942 -0.792093
v 0.955815 1.387757 -0.792093
v 0.991246 2.142478 -0.801587
v 1.017184 2.145893 -0.827525
v 0.733552 2.218212 -0.792093
v 0.759386 2.414434 -0.862956
v 0.754721 2.379003 -0.801587
v 0.758136 2.404941 -0.827525
v 0.990867 2.280789 -0.862956
v 0.814938 2.179216 -0.792093
v 0.982355 2.275874 -0.827525
v 0.959100 2.262448 -0.801587
v 0.893031 2.378624 -0.862956
v 0.791459 2.202695 -0.792093
v 0.888117 2.370112 -0.827525
v 0.874691 2.346857 -0.801587
v -0.000000 2.218211 -0.792093
v -0.000000 2.379003 -0.801587
v -0.000000 2.404941 -0.827524
v -0.000000 2.414434 -0.862956
v -0.856351 2.315090 -0.792093
v -0.750057 2.343571 -0.792093
v -0.927334 2.244107 -0.792093
v -0.955815 2.137813 -0.792093
v 0.927333 2.244107 -0.792093
v 0.955815 2.137814 -0.792093
v 0.856350 2.315090 -0.792093
v 0.750056 2.343572 -0.792093
v -0.000000 2.343572 -0.792093
vn 0.0766 -0.0000 -0.9971
vn 0.6748 -0.0000 -0.7380
vn 0.2770 -0.0000 -0.9609
vn 0.5055 -0.0000 -0.8628
vn 0.6578 0.1501 -0.7380
vn 0.0804 0.0184 -0.9966
vn 0.4928 0.1125 -0.8628
vn 0.2701 0.0616 -0.9609
vn 0.6079 0.2928 -0.7380
vn 0.0743 0.0358 -0.9966
vn 0.4554 0.2193 -0.8628
vn 0.2496 0.1202 -0.9609
vn 0.5275 0.4207 -0.7380
vn 0.0599 0.0478 -0.9971
vn 0.3952 0.3152 -0.8628
vn 0.2166 0.1727 -0.9609
vn 0.4207 0.5275 -0.7380
vn 0.0478 0.0599 -0.9971
vn 0.3152 0.3952 -0.8628
vn 0.1727 0.2166 -0.9609
vn 0.2928 0.6079 -0.7380
vn 0.0358 0.0743 -0.9966
vn 0.2193 0.4554 -0.8628
vn 0.1202 0.2496 -0.9609
vn 0.1501 0.6578 -0.7380
vn 0.0184 0.0804 -0.9966
vn 0.1125 0.4928 -0.8628
vn 0.0616 0.2701 -0.9609
vn -0.0000 0.6748 -0.7380
vn -0.0000 0.0766 -0.9971
vn -0.0000 0.5055 -0.8628
vn -0.0000 0.2770 -0.9609
vn -0.1501 0.6578 -0.7380
vn -0.0184 0.0804 -0.9966
vn -0.1125 0.4928 -0.8628
vn -0.0616 0.2701 -0.9609
vn -0.2928 0.6079 -0.7380
vn -0.0358 0.0743 -0.9966
vn -0.2193 0.4554 -0.8628
vn -0.1202 0.2496 -0.9609
vn -0.4207 0.5275 -0.7380
vn -0.0478 0.0599 -0.9971
vn -0.3152 0.3952 -0.8628
vn -0.1727 0.2166 -0.9609
vn -0.5275 0.4207 -0.7380
vn -0.0599 0.0478 -0.9971
vn -0.3952 0.3152 -0.8628
vn -0.2166 0.1727 -0.9609
vn -0.6079 0.2928 -0.7380
vn -0.0743 0.0358 -0.9966
vn -0.4554 0.2193 -0.8628
vn -0.2496 0.1202 -0.9609
vn -0.6578 0.1501 -0.7380
vn -0.0804 0.0184 -0.9966
vn -0.4928 0.1125 -0.8628
vn -0.2701 0.0616 -0.9609
vn -0.6748 -0.0000 -0.7380
vn -0.0766 -0.0000 -0.9971
vn -0.5055 -0.0000 -0.8628
vn -0.2770 -0.0000 -0.9609
vn 0.6578 -0.1501 -0.7380
vn 0.0804 -0.0184 -0.9966
vn 0.4928 -0.1125 -0.8628
vn 0.2701 -0.0616 -0.9609
vn 0.6079 -0.2928 -0.7380
vn 0.0743 -0.0358 -0.9966
vn 0.4554 -0.2193 -0.8628
vn 0.2496 -0.1202 -0.9609
vn 0.5275 -0.4207 -0.7380
vn 0.0599 -0.0478 -0.9971
vn 0.3952 -0.3152 -0.8628
vn 0.2166 -0.1727 -0.9609
vn 0.4207 -0.5275 -0.7380
vn 0.0478 -0.0599 -0.9971
vn 0.3152 -0.3952 -0.8628
vn 0.1727 -0.2166 -0.9609
vn 0.2928 -0.6079 -0.7380
vn 0.0358 -0.0743 -0.9966
vn 0.2193 -0.4554 -0.8628
vn 0.1202 -0.2496 -0.9609
vn 0.1501 -0.6578 -0.7380
vn 0.0184 -0.0804 -0.9966
vn 0.1125 -0.4928 -0.8628
vn 0.0616 -0.2701 -0.9609
vn -0.0000 -0.6748 -0.7380
vn -0.0000 -0.0766 -0.9971
vn -0.0000 -0.5055 -0.8628
vn -0.0000 -0.2770 -0.9609
vn -0.1501 -0.6578 -0.7380
vn -0.0184 -0.0804 -0.9966
vn -0.1125 -0.4928 -0.8628
vn -0.0616 -0.2701 -0.9609
vn -0.2928 -0.6079 -0.7380
vn -0.0358 -0.0743 -0.9966
vn -0.2193 -0.4554 -0.8628
vn -0.1202 -0.2496 -0.9609
vn -0.4207 -0.5275 -0.7380
vn -0.0478 -0.0599 -0.9971
vn -0.3152 -0.3952 -0.8628
vn -0.1727 -0.2166 -0.9609
vn -0.5275 -0.4207 -0.7380
vn -0.0599 -0.0478 -0.9971
vn -0.3952 -0.3152 -0.8628
vn -0.2166 -0.1727 -0.9609
vn -0.6079 -0.2928 -0.7380
vn -0.0743 -0.0358 -0.9966
vn -0.0183 -0.1388 -0.9901
vn -0.1294 -0.9830 -0.1302
vn -0.0670 -0.5086 -0.8584
vn -0.1135 -0.8622 -0.4936
vn -0.1388 -0.0183 -0.9901
vn -0.9830 -0.1294 -0.1302
vn -0.5086 -0.0670 -0.8584
vn -0.8622 -0.1135 -0.4936
vn -0.4956 -0.8584 -0.1320
vn -0.0734 -0.1272 -0.9892
vn -0.4350 -0.7534 -0.4931
vn -0.2598 -0.4500 -0.8544
vn -0.8584 -0.4956 -0.1320
vn -0.1272 -0.0734 -0.9892
vn -0.7534 -0.4350 -0.4931
vn -0.4500 -0.2598 -0.8544
vn 0.1388 -0.0183 -0.9901
vn 0.9830 -0.1294 -0.1302
vn 0.5086 -0.0670 -0.8584
vn 0.8622 -0.1135 -0.4936
vn 0.0183 -0.1388 -0.9901
vn 0.1294 -0.9830 -0.1302
vn 0.0670 -0.5086 -0.8584
vn 0.1135 -0.8622 -0.4936
vn 0.8584 -0.4956 -0.1320
vn 0.1272 -0.0734 -0.9892
vn 0.7534 -0.4350 -0.4931
vn 0.4500 -0.2598 -0.8544
vn 0.4956 -0.8584 -0.1320
vn 0.0734 -0.1272 -0.9892
vn 0.4350 -0.7534 -0.4931
vn 0.2598 -0.4500 -0.8544
vn -0.4554 -0.2193 -0.8628
vn -0.2496 -0.1202 -0.9609
vn -0.6578 -0.1501 -0.7380
vn -0.0804 -0.0184 -0.9966
vn -0.4928 -0.1125 -0.8628
vn -0.2701 -0.0616 -0.9609
vn -0.0183 0.1388 -0.9901
vn -0.1294 0.9830 -0.1302
vn -0.0670 0.5086 -0.8584
vn -0.1135 0.8622 -0.4936
vn -0.1388 0.0183 -0.9901
vn -0.9830 0.1294 -0.1302
vn -0.5086 0.0670 -0.8584
vn -0.8622 0.1135 -0.4936
vn -0.4956 0.8584 -0.1320
vn -0.0734 0.1272 -0.9892
vn -0.4350 0.7534 -0.4931
vn -0.2598 0.4500 -0.8544
vn -0.8584 0.4956 -0.1320
vn -0.1272 0.0734 -0.9892
vn -0.7534 0.4350 -0.4931
vn -0.4500 0.2598 -0.8544
vn 0.1388 0.0183 -0.9901
vn 0.9830 0.1294 -0.1302
vn 0.5086 0.0670 -0.8584
vn 0.8622 0.1135 -0.4936
vn 0.0183 0.1388 -0.9901
vn 0.1294 0.9830 -0.1302
vn -0.1305 -0.0000 -0.9914
vn -0.5000 -0.0000 -0.8660
vn -0.8660 -0.0000 -0.5000
vn -0.9914 -0.0000 -0.1305
vn -0.0000 -0.1305 -0.9914
vn -0.0000 -0.5000 -0.8660
vn -0.0000 -0.8660 -0.5000
vn -0.0000 -0.9914 -0.1305
vn 0.1305 -0.0000 -0.9914
vn 0.5000 -0.0000 -0.8660
vn 0.8660 -0.0000 -0.5000
vn 0.9914 -0.0000 -0.1305
vn 0.0670 0.5086 -0.8584
vn 0.1135 0.8622 -0.4936
vn 0.8584 0.4956 -0.1320
vn 0.1272 0.0734 -0.9892
vn 0.9694 0.2213 -0.1066
vn 0.7809 0.1782 -0.5986
vn 0.9068 0.2070 -0.3672
vn 0.8010 -0.0000 -0.5986
vn 0.9943 -0.0000 -0.1066
vn 0.9301 -0.0000 -0.3672
vn 0.8958 0.4314 -0.1066
vn 0.7217 0.3476 -0.5986
vn 0.8380 0.4036 -0.3672
vn 0.7774 0.6199 -0.1066
vn 0.6263 0.4994 -0.5986
vn 0.7272 0.5799 -0.3672
vn 0.6199 0.7774 -0.1066
vn 0.4994 0.6263 -0.5986
vn 0.5799 0.7272 -0.3672
vn 0.4314 0.8958 -0.1066
vn 0.3476 0.7217 -0.5986
vn 0.4036 0.8380 -0.3672
vn 0.2213 0.9694 -0.1066
vn 0.1782 0.7809 -0.5986
vn 0.2070 0.9068 -0.3672
vn -0.0000 0.9943 -0.1066
vn -0.0000 0.8010 -0.5986
vn -0.0000 0.9301 -0.3672
vn -0.2213 0.9694 -0.1066
vn -0.1782 0.7809 -0.5986
vn -0.2070 0.9068 -0.3672
vn -0.4314 0.8958 -0.1066
vn -0.3476 0.7217 -0.5986
vn -0.4036 0.8380 -0.3672
vn -0.6199 0.7774 -0.1066
vn -0.4994 0.6263 -0.5986
vn -0.5799 0.7272 -0.3672
vn -0.7774 0.6199 -0.1066
vn -0.6263 0.4994 -0.5986
vn -0.7272 0.5799 -0.3672
vn -0.8958 0.4314 -0.1066
vn -0.7217 0.3476 -0.5986
vn -0.8380 0.4036 -0.3672
vn -0.9694 0.2213 -0.1066
vn -0.7809 0.1782 -0.5986
vn -0.9068 0.2070 -0.3672
vn -0.9943 -0.0000 -0.1066
vn -0.8010 -0.0000 -0.5986
vn -0.9301 -0.0000 -0.3672
vn 0.7534 0.4350 -0.4931
vn 0.4500 0.2598 -0.8544
vn 0.4956 0.8584 -0.1320
vn 0.0734 0.1272 -0.9892
vn 0.4350 0.7534 -0.4931
vn 0.2598 0.4500 -0.8544
vn -0.0000 0.1305 -0.9914
vn -0.0000 0.5000 -0.8660
vn -0.0000 0.8660 -0.5000
vn -0.0000 0.9914 -0.1305
vn 0.9694 -0.2213 -0.1066
vn 0.7809 -0.1782 -0.5986
vn 0.9068 -0.2070 -0.3672
vn 0.8958 -0.4314 -0.1066
vn 0.7217 -0.3476 -0.5986
vn 0.8380 -0.4036 -0.3672
vn 0.7774 -0.6199 -0.1066
vn 0.6263 -0.4994 -0.5986
vn 0.7272 -0.5799 -0.3672
vn 0.6199 -0.7774 -0.1066
vn 0.4994 -0.6263 -0.5986
vn 0.5799 -0.7272 -0.3672
vn 0.4314 -0.8958 -0.1066
vn 0.3476 -0.7217 -0.5986
vn 0.4036 -0.8380 -0.3672
vn 0.2213 -0.9694 -0.1066
vn 0.1782 -0.7809 -0.5986
vn 0.2070 -0.9068 -0.3672
vn 0.9749 0.2225 -0.0000
vn 1.0000 -0.0000 -0.0000
vn 0.9010 0.4339 -0.0000
vn 0.7818 0.6235 -0.0000
vn 0.6235 0.7818 -0.0000
vn 0.4339 0.9010 -0.0000
vn 0.2225 0.9749 -0.0000
vn -0.0000 1.0000 -0.0000
vn -0.2225 0.9749 -0.0000
vn -0.4339 0.9010 -0.0000
vn -0.6235 0.7818 -0.0000
vn -0.7818 0.6235 -0.0000
vn -0.9010 0.4339 -0.0000
vn -0.9749 0.2225 -0.0000
vn -1.0000 -0.0000 -0.0000
vn -0.0000 -0.9943 -0.1066
vn -0.0000 -0.8010 -0.5986
vn -0.0000 -0.9301 -0.3672
vn -0.2213 -0.9694 -0.1066
vn -0.1782 -0.7809 -0.5986
vn -0.2070 -0.9068 -0.3672
vn -0.4314 -0.8958 -0.1066
vn -0.3476 -0.7217 -0.5986
vn -0.4036 -0.8380 -0.3672
vn -0.6199 -0.7774 -0.1066
vn -0.4994 -0.6263 -0.5986
vn -0.5799 -0.7272 -0.3672
vn -0.7774 -0.6199 -0.1066
vn -0.0000 -0.0000 1.0000
vn -0.1294 -0.9830 0.1302
vn -0.0670 -0.5086 0.8584
vn -0.1135 -0.8622 0.4936
vn -0.9830 -0.1294 0.1302
vn -0.5086 -0.0670 0.8584
vn -0.8622 -0.1135 0.4936
vn -0.4956 -0.8584 0.1320
vn -0.4350 -0.7534 0.4931
vn -0.2598 -0.4500 0.8544
vn -0.8584 -0.4956 0.1320
vn -0.7534 -0.4350 0.4931
vn -0.4500 -0.2598 0.8544
vn 0.9830 -0.1294 0.1302
vn 0.5086 -0.0670 0.8584
vn 0.8622 -0.1135 0.4936
vn 0.1294 -0.9830 0.1302
vn 0.0670 -0.5086 0.8584
vn 0.1135 -0.8622 0.4936
vn 0.8584 -0.4956 0.1320
vn 0.7534 -0.4350 0.4931
vn 0.4500 -0.2598 0.8544
vn 0.4956 -0.8584 0.1320
vn 0.4350 -0.7534 0.4931
vn 0.2598 -0.4500 0.8544
vn -0.6263 -0.4994 -0.5986
vn -0.7272 -0.5799 -0.3672
vn -0.8958 -0.4314 -0.1066
vn -0.7217 -0.3476 -0.5986
vn -0.8380 -0.4036 -0.3672
vn -0.9694 -0.2213 -0.1066
vn -0.7809 -0.1782 -0.5986
vn -0.9068 -0.2070 -0.3672
vn 0.9749 -0.2225 -0.0000
vn 0.9010 -0.4339 -0.0000
vn 0.7818 -0.6235 -0.0000
vn 0.6235 -0.7818 -0.0000
vn 0.4339 -0.9010 -0.0000
vn 0.2225 -0.9749 -0.0000
vn -0.0000 -1.0000 -0.0000
vn -0.2225 -0.9749 -0.0000
vn -0.4339 -0.9010 -0.0000
vn -0.6235 -0.7818 -0.0000
vn -0.7818 -0.6235 -0.0000
vn -0.9010 -0.4339 -0.0000
vn -0.9749 -0.2225 -0.0000
vn -0.1294 0.9830 0.1302
vn -0.0670 0.5086 0.8584
vn -0.1135 0.8622 0.4936
vn -0.9830 0.1294 0.1302
vn -0.5000 -0.0000 0.8660
vn -0.8660 -0.0000 0.5000
vn -0.9914 -0.0000 0.1305
vn -0.0000 -0.5000 0.8660
vn -0.0000 -0.8660 0.5000
vn -0.0000 -0.9914 0.1305
vn 0.5000 -0.0000 0.8660
vn 0.8660 -0.0000 0.5000
vn 0.9914 -0.0000 0.1305
vn -0.5086 0.0670 0.8584
vn -0.8622 0.1135 0.4936
vn -0.4956 0.8584 0.1320
vn -0.0734 -0.1272 0.9892
vn -0.0183 -0.1388 0.9901
vn -0.1272 -0.0734 0.9892
vn -0.1388 -0.0183 0.9901
vn -0.4350 0.7534 0.4931
vn -0.2598 0.4500 0.8544
vn -0.8584 0.4956 0.1320
vn 0.1272 -0.0734 0.9892
vn 0.1388 -0.0183 0.9901
vn 0.0734 -0.1272 0.9892
vn 0.0183 -0.1388 0.9901
vn -0.7534 0.4350 0.4931
vn -0.4500 0.2598 0.8544
vn 0.9830 0.1294 0.1302
vn -0.1305 -0.0000 0.9914
vn -0.0000 -0.1305 0.9914
vn 0.1305 -0.0000 0.9914
vn 0.5086 0.0670 0.8584
vn 0.8622 0.1135 0.4936
vn 0.1294 0.9830 0.1302
vn 0.0670 0.5086 0.8584
vn 0.1135 0.8622 0.4936
vn 0.8584 0.4956 0.1320
vn 0.7534 0.4350 0.4931
vn 0.4500 0.2598 0.8544
vn 0.4956 0.8584 0.1320
vn 0.4350 0.7534 0.4931
vn 0.2598 0.4500 0.8544
vn -0.0000 0.5000 0.8660
vn -0.0000 0.8660 0.5000
vn -0.0000 0.9914 0.1305
vn -0.0734 0.1272 0.9892
vn -0.0183 0.1388 0.9901
vn -0.1272 0.0734 0.9892
vn -0.1388 0.0183 0.9901
vn 0.1272 0.0734 0.9892
vn 0.1388 0.0183 0.9901
vn 0.0734 0.1272 0.9892
vn 0.0183 0.1388 0.9901
vn -0.0000 0.1305 0.9914
vt 0.448289 0.445281
vt 0.441453 0.429774
vt 0.331603 0.464032
vt 0.365834 0.466873
vt 0.250000 0.490019
vt 0.303409 0.484001
vt 0.250000 0.490000
vt 0.303405 0.483983
vt 0.445285 0.450790
vt 0.394651 0.458602
vt 0.354140 0.466250
vt 0.354132 0.466233
vt 0.435218 0.445196
vt 0.414174 0.440796
vt 0.399649 0.437654
vt 0.399638 0.437640
vt 0.469397 0.418602
vt 0.450670 0.407344
vt 0.437654 0.399649
vt 0.437640 0.399638
vt 0.514533 0.428070
vt 0.486862 0.387543
vt 0.466250 0.354140
vt 0.466233 0.354132
vt 0.544908 0.436444
vt 0.509739 0.360976
vt 0.484001 0.303409
vt 0.483983 0.303405
vt 0.557409 0.441453
vt 0.518434 0.331603
vt 0.490019 0.250000
vt 0.490000 0.250000
vt 0.544908 0.397972
vt 0.509739 0.282196
vt 0.484001 0.196591
vt 0.483983 0.196595
vt 0.514533 0.314805
vt 0.486862 0.218563
vt 0.466250 0.145860
vt 0.466233 0.145868
vt 0.469397 0.203848
vt 0.450670 0.142769
vt 0.437654 0.100351
vt 0.437640 0.100362
vt 0.435218 0.177257
vt 0.414174 0.109319
vt 0.399649 0.062346
vt 0.399638 0.062360
vt 0.445285 0.292137
vt 0.394651 0.147530
vt 0.354140 0.033750
vt 0.354132 0.033767
vt 0.448289 0.389204
vt 0.365834 0.176340
vt 0.303409 0.015999
vt 0.303405 0.016017
vt 0.441453 0.453234
vt 0.331603 0.199239
vt 0.250000 0.009981
vt 0.250000 0.010000
vt 0.592331 0.493745
vt 0.608797 0.504923
vt 0.609833 0.518358
vt 0.593371 0.504324
vt 0.604770 0.532546
vt 0.604770 0.516122
vt 0.584540 0.532543
vt 0.584540 0.516272
vt 0.587569 0.478726
vt 0.606300 0.481375
vt 0.604770 0.483878
vt 0.584540 0.483728
vt 0.584792 0.466939
vt 0.605151 0.467509
vt 0.604770 0.467454
vt 0.584540 0.467457
vt 0.604770 0.625000
vt 0.584540 0.625000
vt 0.584540 0.717457
vt 0.604770 0.717454
vt 0.592331 0.628540
vt 0.587569 0.643549
vt 0.609833 0.593675
vt 0.593371 0.560350
vt 0.560349 0.386471
vt 0.593675 0.380716
vt 0.604770 0.375000
vt 0.584540 0.375000
vt 0.584792 0.653782
vt 0.605151 0.719856
vt 0.606300 0.705016
vt 0.604770 0.782546
vt 0.604770 0.766122
vt 0.584540 0.782543
vt 0.584540 0.766272
vt 0.608797 0.681471
vt 0.604770 0.733878
vt 0.584540 0.733728
vt 0.593371 0.616375
vt 0.609833 0.668992
vt 0.604770 0.875037
vt 0.593675 0.808587
vt 0.560350 0.737475
vt 0.584540 0.875000
vt 0.303405 0.483983
vt 0.466233 0.354132
vt 0.483983 0.303405
vt 0.483983 0.196595
vt 0.466233 0.145868
vt 0.303405 0.016017
vt 0.588576 0.492040
vt 0.587740 0.485897
vt 0.584605 0.631683
vt 0.586716 0.626383
vt 0.587740 0.622119
vt 0.588576 0.614342
vt 0.588979 0.548952
vt 0.584605 0.474196
vt 0.560370 0.393706
vt 0.586716 0.481524
vt 0.560370 0.684992
s 1
usemtl Material
f 117/66/117 110/65/110 108/67/108 115/68/115
f 121/71/121 117/66/117 115/68/115 119/72/119
f 114/75/114 121/71/121 119/72/119 112/76/112
f 236/77/236 237/78/237 166/79/166 180/80/180
f 148/65/148 146/67/146 237/78/237 236/77/236
f 169/87/169 170/88/170 150/76/150 152/75/152
f 133/93/133 126/92/126 124/94/124 131/95/131
f 137/97/137 133/93/133 131/95/131 135/98/135
f 130/80/130 137/97/137 135/98/135 128/79/128
f 159/71/159 157/72/157 153/68/153 155/66/155
f 232/97/232 230/98/230 181/95/181 228/93/228
f 228/93/228 181/95/181 162/94/162 164/92/164
f 169/87/169 114/75/114 112/76/112 170/88/170
f 173/77/173 130/80/130 128/79/128 174/78/174
f 180/80/180 166/79/166 230/98/230 232/97/232
f 164/92/164 162/94/162 178/104/178 177/101/177
f 152/75/152 150/76/150 157/72/157 159/71/159
f 155/66/155 153/68/153 146/67/146 148/65/148
f 110/65/110 173/77/173 174/78/174 108/67/108
f 126/92/126 177/101/177 178/104/178 124/94/124
f 294/66/292 292/68/291 285/67/285 287/65/287
f 298/71/295 296/72/294 292/68/291 294/66/292
f 291/75/290 289/76/288 296/72/294 298/71/295
f 354/104/342 178/104/178 162/94/162 374/94/359
f 394/77/375 383/80/367 381/79/365 395/78/376
f 384/95/368 181/95/181 230/98/230 388/98/371
f 340/65/332 394/77/375 395/78/376 338/67/330
f 381/79/365 166/79/166 237/78/237 395/78/376
f 383/80/367 390/97/372 388/98/371 381/79/365
f 310/93/304 308/95/303 301/94/297 303/92/299
f 314/97/307 312/98/306 308/95/303 310/93/304
f 307/80/302 305/79/300 312/98/306 314/97/307
f 371/71/357 363/66/350 357/68/345 365/72/352
f 386/93/369 379/92/364 374/94/359 384/95/368
f 345/87/335 346/88/336 289/76/288 291/75/290
f 349/77/338 350/78/339 305/79/300 307/80/302
f 342/76/333 150/76/150 170/88/170 346/88/336
f 390/97/372 386/93/369 384/95/368 388/98/371
f 379/92/364 353/101/341 354/104/342 374/94/359
f 363/66/350 340/65/332 338/67/330 357/68/345
f 287/65/287 285/67/285 350/78/339 349/77/338
f 303/92/299 301/94/297 354/104/342 353/101/341
f 292/68/291 296/72/294 119/72/119 115/68/115
f 296/72/294 289/76/288 112/76/112 119/72/119
f 289/76/288 346/88/336 170/88/170 112/76/112
f 356/75/344 371/71/357 365/72/352 342/76/333
f 357/68/345 153/68/153 157/72/157 365/72/352
f 345/87/335 356/75/344 342/76/333 346/88/336
f 354/104/342 301/94/297 124/94/124 178/104/178
f 301/94/297 308/95/303 131/95/131 124/94/124
f 308/95/303 312/98/306 135/98/135 131/95/131
f 312/98/306 305/79/300 128/79/128 135/98/135
f 305/79/300 350/78/339 174/78/174 128/79/128
f 350/78/339 285/67/285 108/67/108 174/78/174
f 285/67/285 292/68/291 115/68/115 108/67/108
f 374/94/359 162/94/162 181/95/181 384/95/368
f 388/98/371 230/98/230 166/79/166 381/79/365
f 395/78/376 237/78/237 146/67/146 338/67/330
f 365/72/352 157/72/157 150/76/150 342/76/333
f 338/67/330 146/67/146 153/68/153 357/68/345
usemtl 
f 6/1/6 1/2/1 3/3/3 8/4/8
f 8/4/8 3/3/3 4/5/4 7/6/7
f 7/6/7 4/5/4 2/7/2 5/8/5
f 10/9/10 6/1/6 8/4/8 12/10/12
f 12/10/12 8/4/8 7/6/7 11/11/11
f 11/11/11 7/6/7 5/8/5 9/12/9
f 14/13/14 10/9/10 12/10/12 16/14/16
f 16/14/16 12/10/12 11/11/11 15/15/15
f 15/15/15 11/11/11 9/12/9 13/16/13
f 18/17/18 14/13/14 16/14/16 20/18/20
f 20/18/20 16/14/16 15/15/15 19/19/19
f 19/19/19 15/15/15 13/16/13 17/20/17
f 22/21/22 18/17/18 20/18/20 24/22/24
f 24/22/24 20/18/20 19/19/19 23/23/23
f 23/23/23 19/19/19 17/20/17 21/24/21
f 26/25/26 22/21/22 24/22/24 28/26/28
f 28/26/28 24/22/24 23/23/23 27/27/27
f 27/27/27 23/23/23 21/24/21 25/28/25
f 30/29/30 26/25/26 28/26/28 32/30/32
f 32/30/32 28/26/28 27/27/27 31/31/31
f 31/31/31 27/27/27 25/28/25 29/32/29
f 34/33/34 30/29/30 32/30/32 36/34/36
f 36/34/36 32/30/32 31/31/31 35/35/35
f 35/35/35 31/31/31 29/32/29 33/36/33
f 38/37/38 34/33/34 36/34/36 40/38/40
f 40/38/40 36/34/36 35/35/35 39/39/39
f 39/39/39 35/35/35 33/36/33 37/40/37
f 42/41/42 38/37/38 40/38/40 44/42/44
f 44/42/44 40/38/40 39/39/39 43/43/43
f 43/43/43 39/39/39 37/40/37 41/44/41
f 46/45/46 42/41/42 44/42/44 48/46/48
f 48/46/48 44/42/44 43/43/43 47/47/47
f 47/47/47 43/43/43 41/44/41 45/48/45
f 50/49/50 46/45/46 48/46/48 52/50/52
f 52/50/52 48/46/48 47/47/47 51/51/51
f 51/51/51 47/47/47 45/48/45 49/52/49
f 54/53/54 50/49/50 52/50/52 56/54/56
f 56/54/56 52/50/52 51/51/51 55/55/55
f 55/55/55 51/51/51 49/52/49 53/56/53
f 58/57/58 54/53/54 56/54/56 60/58/60
f 60/58/60 56/54/56 55/55/55 59/59/59
f 59/59/59 55/55/55 53/56/53 57/60/57
f 66/9/66 68/10/68 64/4/64 62/1/62
f 63/6/63 61/8/61 2/7/2 4/5/4
f 64/4/64 63/6/63 4/5/4 3/3/3
f 70/13/70 72/14/72 68/10/68 66/9/66
f 67/11/67 65/12/65 61/8/61 63/6/63
f 68/10/68 67/11/67 63/6/63 64/4/64
f 74/17/74 76/18/76 72/14/72 70/13/70
f 71/15/71 69/16/69 65/12/65 67/11/67
f 72/14/72 71/15/71 67/11/67 68/10/68
f 78/21/78 80/22/80 76/18/76 74/17/74
f 75/19/75 73/20/73 69/16/69 71/15/71
f 76/18/76 75/19/75 71/15/71 72/14/72
f 82/25/82 84/26/84 80/22/80 78/21/78
f 79/23/79 77/24/77 73/20/73 75/19/75
f 80/22/80 79/23/79 75/19/75 76/18/76
f 86/29/86 88/30/88 84/26/84 82/25/82
f 83/27/83 81/28/81 77/24/77 79/23/79
f 84/26/84 83/27/83 79/23/79 80/22/80
f 90/33/90 92/34/92 88/30/88 86/29/86
f 87/31/87 85/32/85 81/28/81 83/27/83
f 88/30/88 87/31/87 83/27/83 84/26/84
f 94/37/94 96/38/96 92/34/92 90/33/90
f 91/35/91 89/36/89 85/32/85 87/31/87
f 92/34/92 91/35/91 87/31/87 88/30/88
f 98/41/98 100/42/100 96/38/96 94/37/94
f 95/39/95 93/40/93 89/36/89 91/35/91
f 96/38/96 95/39/95 91/35/91 92/34/92
f 102/45/102 104/46/104 100/42/100 98/41/98
f 99/43/99 97/44/97 93/40/93 95/39/95
f 100/42/100 99/43/99 95/39/95 96/38/96
f 106/49/106 140/50/140 104/46/104 102/45/102
f 103/47/103 101/48/101 97/44/97 99/43/99
f 104/46/104 103/47/103 99/43/99 100/42/100
f 142/53/142 144/54/144 140/50/140 106/49/106
f 139/51/139 105/52/105 101/48/101 103/47/103
f 140/50/140 139/51/139 103/47/103 104/46/104
f 59/59/59 57/60/57 141/56/141 143/55/143
f 60/58/60 59/59/59 143/55/143 144/54/144
f 143/55/143 141/56/141 105/52/105 139/51/139
f 154/61/154 156/62/156 147/63/147 145/64/145
f 58/57/58 60/58/60 144/54/144 142/53/142
f 144/54/144 143/55/143 139/51/139 140/50/140
f 116/61/116 107/64/107 109/63/109 118/62/118
f 118/62/118 109/63/109 110/65/110 117/66/117
f 120/69/120 116/61/116 118/62/118 122/70/122
f 122/70/122 118/62/118 117/66/117 121/71/121
f 111/73/111 120/69/120 122/70/122 113/74/113
f 113/74/113 122/70/122 121/71/121 114/75/114
f 98/41/98 231/81/231 182/82/182 102/45/102
f 74/17/74 70/13/70 158/69/158 154/61/154
f 147/63/147 148/65/148 236/77/236 235/83/235
f 86/29/86 82/25/82 78/21/78 74/17/74 154/61/154 145/64/145 234/84/234
f 167/85/167 168/86/168 151/74/151 149/73/149
f 168/86/168 169/87/169 152/75/152 151/74/151
f 132/82/132 123/89/123 125/90/125 134/91/134
f 134/91/134 125/90/125 126/92/126 133/93/133
f 136/81/136 132/82/132 134/91/134 138/96/138
f 138/96/138 134/91/134 133/93/133 137/97/137
f 127/99/127 136/81/136 138/96/138 129/100/129
f 129/100/129 138/96/138 137/97/137 130/80/130
f 151/74/151 152/75/152 159/71/159 160/70/160
f 149/73/149 151/74/151 160/70/160 158/69/158
f 233/96/233 232/97/232 228/93/228 229/91/229
f 231/81/231 233/96/233 229/91/229 182/82/182
f 229/91/229 228/93/228 164/92/164 163/90/163
f 182/82/182 229/91/229 163/90/163 161/89/161
f 167/85/167 111/73/111 113/74/113 168/86/168
f 168/86/168 113/74/113 114/75/114 169/87/169
f 171/84/171 127/99/127 129/100/129 172/83/172
f 172/83/172 129/100/129 130/80/130 173/77/173
f 165/99/165 179/100/179 233/96/233 231/81/231
f 179/100/179 180/80/180 232/97/232 233/96/233
f 163/90/163 164/92/164 177/101/177 176/102/176
f 70/13/70 66/9/66 62/1/62 1/2/1 167/85/167 149/73/149 158/69/158
f 182/82/182 161/89/161 175/103/175 58/57/58 142/53/142 106/49/106 102/45/102
f 160/70/160 159/71/159 155/66/155 156/62/156
f 18/17/18 116/61/116 120/69/120 14/13/14
f 30/29/30 171/84/171 107/64/107 116/61/116 18/17/18 22/21/22 26/25/26
f 42/41/42 46/45/46 132/82/132 136/81/136
f 235/83/235 236/77/236 180/80/180 179/100/179
f 234/84/234 235/83/235 179/100/179 165/99/165
f 158/69/158 160/70/160 156/62/156 154/61/154
f 156/62/156 155/66/155 148/65/148 147/63/147
f 109/63/109 172/83/172 173/77/173 110/65/110
f 107/64/107 171/84/171 172/83/172 109/63/109
f 125/90/125 176/102/176 177/101/177 126/92/126
f 123/89/123 175/103/175 176/102/176 125/90/125
f 239/8/239 240/8/240 188/7/188 186/7/186
f 94/37/94 90/33/90 86/29/86 234/84/234 165/99/165 231/81/231 98/41/98
f 161/89/161 163/90/163 176/102/176 175/103/175
f 145/64/145 147/63/147 235/83/235 234/84/234
f 14/13/14 120/69/120 111/73/111 167/85/167 1/2/1 6/1/6 10/9/10
f 38/37/38 42/41/42 136/81/136 127/99/127 171/84/171 30/29/30 34/33/34
f 132/82/132 46/45/46 50/49/50 54/53/54 58/57/58 175/103/175 123/89/123
f 184/8/184 186/7/186 188/7/188 185/8/185
f 185/8/185 188/7/188 187/7/187 183/105/183
f 190/12/190 184/8/184 185/8/185 191/12/191
f 191/12/191 185/8/185 183/105/183 189/12/189
f 193/16/193 190/12/190 191/12/191 194/16/194
f 194/16/194 191/12/191 189/12/189 192/16/192
f 196/20/196 193/16/193 194/16/194 197/20/197
f 197/20/197 194/16/194 192/16/192 195/20/195
f 199/106/199 196/20/196 197/20/197 200/24/200
f 200/24/200 197/20/197 195/20/195 198/24/198
f 202/28/202 199/106/199 200/24/200 203/28/203
f 203/28/203 200/24/200 198/24/198 201/107/201
f 205/32/205 202/28/202 203/28/203 206/32/206
f 206/32/206 203/28/203 201/107/201 204/32/204
f 208/108/208 205/32/205 206/32/206 209/108/209
f 209/108/209 206/32/206 204/32/204 207/36/207
f 211/109/211 208/108/208 209/108/209 212/109/212
f 212/109/212 209/108/209 207/36/207 210/109/210
f 214/44/214 211/109/211 212/109/212 215/44/215
f 215/44/215 212/109/212 210/109/210 213/44/213
f 217/48/217 214/44/214 215/44/215 218/48/218
f 218/48/218 215/44/215 213/44/213 216/48/216
f 220/52/220 217/48/217 218/48/218 221/52/221
f 221/52/221 218/48/218 216/48/216 219/52/219
f 223/56/223 220/52/220 221/52/221 224/56/224
f 224/56/224 221/52/221 219/52/219 222/110/222
f 226/60/226 223/56/223 224/56/224 227/60/227
f 227/60/227 224/56/224 222/110/222 225/60/225
f 243/12/243 241/12/241 238/105/238 240/8/240
f 242/12/242 243/12/243 240/8/240 239/8/239
f 248/20/248 249/20/249 246/16/246 245/16/245
f 246/16/246 244/16/244 241/12/241 243/12/243
f 252/24/252 250/24/250 247/20/247 249/20/249
f 251/106/251 252/24/252 249/20/249 248/20/248
f 272/32/272 273/32/273 255/28/255 254/28/254
f 255/28/255 253/107/253 250/24/250 252/24/252
f 276/108/276 274/36/274 271/32/271 273/32/273
f 275/108/275 276/108/276 273/32/273 272/32/272
f 281/44/281 282/44/282 279/109/279 278/109/278
f 279/109/279 277/109/277 274/36/274 276/108/276
f 317/48/310 283/48/283 280/44/280 282/44/282
f 316/48/309 317/48/310 282/44/282 281/44/281
f 322/56/315 323/56/316 320/52/313 319/52/312
f 320/52/313 318/52/311 283/48/283 317/48/310
f 227/60/227 225/60/225 321/110/314 323/56/316
f 226/60/226 227/60/227 323/56/316 322/56/315
f 65/12/65 242/12/242 239/8/239 61/8/61
f 238/105/238 324/8/317 257/7/257 187/7/187
f 244/16/244 326/16/319 325/12/318 241/12/241
f 69/16/69 245/16/245 242/12/242 65/12/65
f 77/24/77 251/106/251 248/20/248 73/20/73
f 247/20/247 327/20/320 326/16/319 244/16/244
f 271/32/271 330/32/323 329/28/322 253/107/253
f 85/32/85 272/32/272 254/28/254 81/28/81
f 89/36/89 275/108/275 272/32/272 85/32/85
f 253/107/253 329/28/322 328/24/321 250/24/250
f 5/8/5 2/7/2 186/7/186 184/8/184
f 183/105/183 187/7/187 257/7/257 256/8/256
f 9/12/9 5/8/5 184/8/184 190/12/190
f 189/12/189 183/105/183 256/8/256 258/12/258
f 250/24/250 328/24/321 327/20/320 247/20/247
f 13/16/13 9/12/9 190/12/190 193/16/193
f 192/16/192 189/12/189 258/12/258 259/16/259
f 17/20/17 13/16/13 193/16/193 196/20/196
f 195/20/195 192/16/192 259/16/259 260/20/260
f 21/24/21 17/20/17 196/20/196 199/106/199
f 198/24/198 195/20/195 260/20/260 261/24/261
f 25/28/25 21/24/21 199/106/199 202/28/202
f 201/107/201 198/24/198 261/24/261 262/28/262
f 29/32/29 25/28/25 202/28/202 205/32/205
f 204/32/204 201/107/201 262/28/262 263/32/263
f 33/36/33 29/32/29 205/32/205 208/108/208
f 207/36/207 204/32/204 263/32/263 264/108/264
f 37/40/37 33/36/33 208/108/208 211/109/211
f 210/109/210 207/36/207 264/108/264 265/109/265
f 41/44/41 37/40/37 211/109/211 214/44/214
f 213/44/213 210/109/210 265/109/265 266/44/266
f 45/48/45 41/44/41 214/44/214 217/48/217
f 216/48/216 213/44/213 266/44/266 267/48/267
f 49/52/49 45/48/45 217/48/217 220/52/220
f 219/52/219 216/48/216 267/48/267 268/52/268
f 53/56/53 49/52/49 220/52/220 223/56/223
f 222/110/222 219/52/219 268/52/268 269/56/269
f 57/60/57 53/56/53 223/56/223 226/60/226
f 225/60/225 222/110/222 269/56/269 270/60/270
f 240/8/240 238/105/238 187/7/187 188/7/188
f 274/36/274 331/108/324 330/32/323 271/32/271
f 245/16/245 246/16/246 243/12/243 242/12/242
f 277/109/277 332/109/325 331/108/324 274/36/274
f 249/20/249 247/20/247 244/16/244 246/16/246
f 280/44/280 333/44/326 332/109/325 277/109/277
f 254/28/254 255/28/255 252/24/252 251/106/251
f 283/48/283 334/48/327 333/44/326 280/44/280
f 273/32/273 271/32/271 253/107/253 255/28/255
f 318/52/311 335/52/328 334/48/327 283/48/283
f 278/109/278 279/109/279 276/108/276 275/108/275
f 321/110/314 336/56/329 335/52/328 318/52/311
f 282/44/282 280/44/280 277/109/277 279/109/279
f 225/60/225 270/60/270 336/56/329 321/110/314
f 319/52/312 320/52/313 317/48/310 316/48/309
f 323/56/316 321/110/314 318/52/311 320/52/313
f 61/8/61 239/8/239 186/7/186 2/7/2
f 241/12/241 325/12/318 324/8/317 238/105/238
f 73/20/73 248/20/248 245/16/245 69/16/69
f 81/28/81 254/28/254 251/106/251 77/24/77
f 62/1/62 64/4/64 3/3/3 1/2/1
f 93/40/93 278/109/278 275/108/275 89/36/89
f 97/44/97 281/44/281 278/109/278 93/40/93
f 101/48/101 316/48/309 281/44/281 97/44/97
f 105/52/105 319/52/312 316/48/309 101/48/101
f 141/56/141 322/56/315 319/52/312 105/52/105
f 57/60/57 226/60/226 322/56/315 141/56/141
f 396/61/377 397/64/378 339/63/331 364/62/351
f 359/61/346 295/62/293 286/63/286 360/64/347
f 295/62/293 294/66/292 287/65/287 286/63/286
f 361/69/348 299/70/296 295/62/293 359/61/346
f 299/70/296 298/71/295 294/66/292 295/62/293
f 362/73/349 290/74/289 299/70/296 361/69/348
f 290/74/289 291/75/290 298/71/295 299/70/296
f 393/83/374 382/100/366 383/80/367 394/77/375
f 404/84/385 403/99/384 382/100/366 393/83/374
f 375/85/360 399/73/380 355/74/343 344/86/334
f 367/82/353 311/91/305 302/90/298 368/89/354
f 311/91/305 310/93/304 303/92/299 302/90/298
f 369/81/355 315/96/308 311/91/305 367/82/353
f 315/96/308 314/97/307 310/93/304 311/91/305
f 370/99/356 306/100/301 315/96/308 369/81/355
f 306/100/301 307/80/302 314/97/307 315/96/308
f 337/111/284 397/64/378 396/61/377 358/112/284
f 399/73/380 398/69/379 372/70/358 355/74/343
f 373/113/284 401/89/382 400/82/381 385/114/284
f 402/81/383 400/82/381 387/91/370 391/96/373
f 387/91/370 378/90/363 379/92/364 386/93/369
f 389/115/284 402/81/383 403/99/384 380/116/284
f 400/82/381 401/89/382 378/90/363 387/91/370
f 375/85/360 344/86/334 290/74/289 362/73/349
f 344/86/334 345/87/335 291/75/290 290/74/289
f 376/84/361 348/83/337 306/100/301 370/99/356
f 348/83/337 349/77/338 307/80/302 306/100/301
f 403/99/384 402/81/383 391/96/373 382/100/366
f 392/117/284 404/84/385 397/64/378 337/111/284
f 339/63/331 393/83/374 394/77/375 340/65/332
f 398/69/379 396/61/377 364/62/351 372/70/358
f 286/63/286 287/65/287 349/77/338 348/83/337
f 360/64/347 286/63/286 348/83/337 376/84/361
f 302/90/298 303/92/299 353/101/341 352/102/340
f 368/89/354 302/90/298 352/102/340 377/103/362
f 401/89/382 377/103/362 352/102/340 378/90/363
f 397/64/378 404/84/385 393/83/374 339/63/331
f 341/118/284 399/73/380 375/85/360 343/119/284
f 364/62/351 339/63/331 340/65/332 363/66/350
f 372/70/358 364/62/351 363/66/350 371/71/357
f 355/74/343 372/70/358 371/71/357 356/75/344
f 378/90/363 352/102/340 353/101/341 379/92/364
f 382/100/366 391/96/373 390/97/372 383/80/367
f 344/86/334 355/74/343 356/75/344 345/87/335
f 391/96/373 387/91/370 386/93/369 390/97/372
f 284/111/284 293/112/284 359/61/346 360/64/347
f 293/112/284 297/120/284 361/69/348 359/61/346
f 297/120/284 288/118/284 362/73/349 361/69/348
f 300/113/284 309/114/284 367/82/353 368/89/354
f 309/114/284 313/115/284 369/81/355 367/82/353
f 313/115/284 304/116/284 370/99/356 369/81/355
f 358/112/284 396/61/377 398/69/379 366/120/284
f 366/120/284 398/69/379 399/73/380 341/118/284
f 385/114/284 400/82/381 402/81/383 389/115/284
f 288/118/284 343/119/284 375/85/360 362/73/349
f 304/116/284 347/117/284 376/84/361 370/99/356
f 351/121/284 377/103/362 401/89/382 373/113/284
f 347/117/284 284/111/284 360/64/347 376/84/361
f 351/121/284 300/113/284 368/89/354 377/103/362
f 380/116/284 403/99/384 404/84/385 392/117/284
