# Blender 5.1.0
# www.blender.org
mtllib Lights.mtl
o Cube.004
v 0.671042 0.504628 0.375612
v 0.671042 0.281798 0.382856
v 0.894028 0.281798 0.382856
v 0.894029 0.504628 0.375611
v 0.660118 0.469803 -0.444031
v 0.666112 0.264693 -0.369115
v 0.887089 0.258700 -0.394231
v 0.881096 0.463810 -0.469147
v 0.328140 0.928620 1.110774
v 0.235788 0.849507 1.291118
v 0.396460 0.923869 1.418584
v 0.488812 1.002981 1.238240
v 0.659123 0.687339 1.025953
v 0.645747 0.522139 1.173388
v 0.829541 0.590342 1.256235
v 0.842917 0.755542 1.108800
v 0.671041 2.270886 0.375612
v 0.671041 2.493716 0.382856
v 0.894028 2.493716 0.382856
v 0.894028 2.270886 0.375612
v 0.509136 0.071986 -0.956689
v 0.519638 -0.104319 -0.820736
v 0.648653 -0.195948 -0.953717
v 0.638151 -0.019643 -1.089670
v -0.671041 0.504628 0.375612
v -0.671041 0.281798 0.382856
v -0.894028 0.281798 0.382856
v -0.894028 0.504628 0.375612
v 0.671042 0.539428 0.776149
v 0.671042 0.329557 0.844393
v 0.894029 0.329557 0.844393
v 0.894029 0.539428 0.776149
v 0.661646 2.273130 -0.368604
v 0.661646 2.496116 -0.368604
v 0.849838 2.496116 -0.460714
v 0.849838 2.273129 -0.460714
v 0.328140 1.846894 1.110774
v 0.235788 1.926007 1.291118
v 0.396460 1.851645 1.418584
v 0.488811 1.772533 1.238240
v 0.659123 2.088175 1.025953
v 0.645746 2.253375 1.173388
v 0.829540 2.185172 1.256235
v 0.842917 2.019971 1.108800
v 0.551588 2.273129 -0.470472
v 0.551588 2.496116 -0.470472
v 0.641924 2.496116 -0.659732
v 0.641924 2.273129 -0.659732
v -0.660118 0.469803 -0.444031
v -0.666111 0.264693 -0.369115
v -0.887089 0.258699 -0.394230
v -0.881096 0.463810 -0.469147
v -0.328140 0.928620 1.110774
v -0.235788 0.849507 1.291118
v -0.396459 0.923868 1.418584
v -0.488811 1.002981 1.238240
v -0.659123 0.687339 1.025953
v -0.645746 0.522138 1.173388
v -0.829540 0.590342 1.256235
v -0.842917 0.755542 1.108800
v 0.671041 2.236086 0.776149
v 0.671041 2.445957 0.844393
v 0.894028 2.445956 0.844394
v 0.894028 2.236086 0.776149
v -0.671041 2.270885 0.375612
v -0.671041 2.493716 0.382856
v -0.894028 2.493716 0.382857
v -0.894028 2.270885 0.375612
v -0.509136 0.071985 -0.956689
v -0.519637 -0.104319 -0.820736
v -0.648653 -0.195948 -0.953717
v -0.638151 -0.019643 -1.089669
v -0.671041 0.539428 0.776149
v -0.671041 0.329557 0.844394
v -0.894028 0.329557 0.844394
v -0.894028 0.539428 0.776149
v -0.661646 2.273129 -0.368603
v -0.661646 2.496116 -0.368603
v -0.849838 2.496116 -0.460714
v -0.849838 2.273129 -0.460714
v -0.328140 1.846894 1.110774
v -0.235788 1.926007 1.291118
v -0.396459 1.851645 1.418584
v -0.488811 1.772533 1.238240
v -0.659123 2.088174 1.025953
v -0.645746 2.253375 1.173388
v -0.829540 2.185171 1.256235
v -0.842917 2.019971 1.108800
v -0.551588 2.273129 -0.470472
v -0.551588 2.496116 -0.470472
v -0.641924 2.496116 -0.659732
v -0.641924 2.273129 -0.659732
v -0.671041 2.236085 0.776149
v -0.671041 2.445956 0.844394
v -0.894028 2.445956 0.844394
v -0.894028 2.236085 0.776149
v 0.000000 0.067260 -0.962125
v 0.000000 -0.112344 -0.829967
v 0.000000 -0.244502 -1.009571
v 0.000000 -0.064898 -1.141729
v -0.000000 2.273129 -0.479781
v -0.000000 2.496116 -0.479781
v -0.000000 2.496116 -0.702768
v -0.000000 2.273129 -0.702768
v 0.671042 0.502375 0.114193
v 0.671041 0.279407 0.115401
v 0.894028 0.279407 0.115401
v 0.894028 0.502375 0.114193
v 0.670788 0.501629 -0.163967
v 0.671550 0.280915 -0.151192
v 0.894282 0.280153 -0.155475
v 0.893520 0.500867 -0.168251
v 0.508638 0.775359 1.069268
v 0.464762 0.638892 1.235831
v 0.597994 0.752776 1.365070
v 0.641870 0.889242 1.198507
v 0.671042 0.515239 0.592169
v 0.671042 0.294407 0.614525
v 0.894028 0.294407 0.614525
v 0.894029 0.515239 0.592168
v 0.612309 0.327194 -0.661929
v 0.627795 0.150399 -0.530088
v 0.845590 0.134913 -0.574288
v 0.830104 0.311708 -0.706129
v 0.565009 0.172611 -0.840934
v 0.581622 0.001210 -0.699340
v 0.785718 -0.030178 -0.763023
v 0.769105 0.141223 -0.904616
v -0.671041 0.502374 0.114193
v -0.671041 0.279407 0.115401
v -0.894028 0.279407 0.115401
v -0.894028 0.502374 0.114193
v -0.670788 0.501629 -0.163967
v -0.671550 0.280915 -0.151191
v -0.894281 0.280153 -0.155475
v -0.893519 0.500866 -0.168250
v 0.674458 0.615628 0.923395
v 0.672719 0.427132 1.039264
v 0.890612 0.438594 1.054140
v 0.892351 0.627090 0.938271
v 0.671041 2.273139 0.114193
v 0.671041 2.496107 0.115401
v 0.894028 2.496107 0.115401
v 0.894028 2.273139 0.114193
v 0.672498 2.273130 -0.152510
v 0.672497 2.496116 -0.152510
v 0.892572 2.496116 -0.166933
v 0.892572 2.273129 -0.166933
v 0.671041 2.260275 0.592168
v 0.671041 2.481107 0.614525
v 0.894028 2.481107 0.614525
v 0.894028 2.260275 0.592168
v -0.671041 2.273139 0.114193
v -0.671041 2.496106 0.115401
v -0.894028 2.496106 0.115401
v -0.894028 2.273139 0.114193
v -0.672498 2.273129 -0.152509
v -0.672498 2.496116 -0.152509
v -0.892572 2.496116 -0.166932
v -0.892572 2.273129 -0.166932
v 0.508638 2.000155 1.069268
v 0.464762 2.136622 1.235831
v 0.597994 2.022738 1.365070
v 0.641870 1.886272 1.198507
v -0.508637 0.775358 1.069268
v -0.464761 0.638892 1.235831
v -0.597993 0.752775 1.365070
v -0.641870 0.889242 1.198507
v 0.674458 2.159886 0.923395
v 0.672719 2.348382 1.039264
v 0.890612 2.336920 1.054141
v 0.892350 2.148424 0.938271
v -0.290680 1.223142 1.120090
v -0.173554 1.209310 1.306597
v -0.357512 1.222311 1.428271
v -0.474638 1.236144 1.241765
v -0.290680 1.552371 1.120091
v -0.173555 1.566203 1.306597
v -0.357512 1.553202 1.428272
v -0.474638 1.539369 1.241765
v -0.612308 0.327194 -0.661929
v -0.627794 0.150399 -0.530088
v -0.845590 0.134913 -0.574288
v -0.830104 0.311708 -0.706129
v -0.565009 0.172611 -0.840934
v -0.581622 0.001210 -0.699340
v -0.785718 -0.030178 -0.763022
v -0.769105 0.141223 -0.904616
v -0.674457 0.615628 0.923395
v -0.672719 0.427131 1.039264
v -0.890612 0.438593 1.054141
v -0.892350 0.627090 0.938271
v -0.508637 2.000155 1.069268
v -0.464761 2.136622 1.235831
v -0.597994 2.022738 1.365070
v -0.641870 1.886272 1.198507
v 0.290681 1.223142 1.120091
v 0.173555 1.209310 1.306597
v 0.357513 1.222312 1.428272
v 0.474638 1.236144 1.241765
v 0.290681 1.552371 1.120090
v 0.173555 1.566203 1.306597
v 0.357513 1.553202 1.428271
v 0.474638 1.539370 1.241765
v -0.674458 2.159885 0.923395
v -0.672719 2.348382 1.039265
v -0.890612 2.336920 1.054141
v -0.892351 2.148423 0.938271
v -0.671041 2.260274 0.592169
v -0.671041 2.481106 0.614525
v -0.894028 2.481106 0.614525
v -0.894028 2.260274 0.592169
v -0.671041 0.515239 0.592169
v -0.671041 0.294407 0.614525
v -0.894028 0.294407 0.614525
v -0.894028 0.515239 0.592169
v 0.298340 0.064361 -0.965460
v 0.300229 -0.114806 -0.832800
v 0.323439 -0.241602 -1.006235
v 0.321549 -0.062435 -1.138896
v 0.303878 2.273129 -0.481154
v 0.303878 2.496116 -0.481154
v 0.317899 2.496116 -0.701395
v 0.317899 2.273129 -0.701395
v -0.303879 2.273129 -0.481154
v -0.303879 2.496116 -0.481154
v -0.317900 2.496116 -0.701395
v -0.317900 2.273129 -0.701395
v -0.298340 0.064361 -0.965460
v -0.300229 -0.114806 -0.832800
v -0.323438 -0.241602 -1.006235
v -0.321549 -0.062435 -1.138896
v 0.671042 0.502642 0.248909
v 0.629231 0.390891 0.114797
v 0.671042 0.279721 0.252683
v 0.629232 0.393213 0.379234
v 0.782535 0.237601 0.115627
v 0.894029 0.279721 0.252683
v 0.782535 0.240017 0.384215
v 0.935839 0.390891 0.114797
v 0.894029 0.502642 0.248909
v 0.935839 0.393213 0.379234
v 0.782535 0.544181 0.113967
v 0.782535 0.546409 0.374253
v 0.671010 0.502289 -0.023068
v 0.629407 0.391415 -0.156776
v 0.671105 0.279588 -0.021320
v 0.783059 0.239150 -0.150938
v 0.894060 0.279493 -0.021856
v 0.935663 0.390367 -0.162666
v 0.893965 0.502193 -0.023604
v 0.782011 0.542632 -0.168505
v 0.669074 0.496517 -0.308289
v 0.621682 0.368372 -0.401864
v 0.671634 0.281164 -0.268582
v 0.777724 0.223238 -0.367626
v 0.893763 0.278605 -0.281894
v 0.925526 0.360131 -0.436398
v 0.891204 0.493958 -0.321601
v 0.769484 0.505265 -0.470636
v 0.407472 0.836814 1.091465
v 0.461719 0.685772 1.128317
v 0.338985 0.725232 1.265659
v 0.251838 0.875121 1.177046
v 0.523151 0.670246 1.331681
v 0.479491 0.828315 1.397509
v 0.298808 0.871854 1.388666
v 0.644913 0.842362 1.306021
v 0.547979 0.939897 1.223316
v 0.472762 0.977368 1.352312
v 0.583481 0.857888 1.102657
v 0.425792 0.980634 1.140692
v 0.599375 0.727313 1.051045
v 0.617974 0.591951 1.084137
v 0.573856 0.574215 1.209014
v 0.735135 0.525265 1.242456
v 0.726925 0.673064 1.321514
v 0.870690 0.685730 1.198051
v 0.752444 0.826162 1.163546
v 0.753528 0.752416 1.039732
v 0.671042 0.522158 0.688167
v 0.629232 0.404823 0.603347
v 0.671042 0.305355 0.730782
v 0.629232 0.434493 0.810272
v 0.782535 0.253001 0.618717
v 0.894029 0.305355 0.730782
v 0.782535 0.290206 0.857189
v 0.935839 0.404823 0.603347
v 0.894029 0.522158 0.688167
v 0.935839 0.434493 0.810271
v 0.782535 0.556645 0.587977
v 0.782535 0.578779 0.763354
v 0.671042 0.509386 0.489146
v 0.671042 0.286909 0.500995
v 0.894029 0.286909 0.500995
v 0.894029 0.509386 0.489146
v 0.639468 0.408205 -0.560238
v 0.579215 0.241700 -0.587721
v 0.650493 0.218105 -0.452068
v 0.739596 0.109507 -0.527468
v 0.869784 0.207080 -0.488333
v 0.878684 0.220407 -0.648496
v 0.858758 0.397180 -0.596502
v 0.718303 0.352600 -0.708750
v 0.585758 0.246309 -0.756007
v 0.535048 0.092796 -0.758197
v 0.603021 0.075072 -0.614669
v 0.686785 -0.046622 -0.704633
v 0.818556 0.055961 -0.664080
v 0.815680 0.049637 -0.845760
v 0.801292 0.227199 -0.805418
v 0.663942 0.189055 -0.899324
v 0.548448 0.111221 -0.911554
v 0.490196 0.001014 -0.863779
v 0.562714 -0.062468 -0.772592
v 0.586114 -0.183191 -0.861735
v 0.737973 -0.121966 -0.868611
v 0.667592 -0.124976 -1.046627
v 0.723707 0.051724 -1.007573
v 0.571675 0.059228 -1.048671
v -0.671041 0.502641 0.248909
v -0.629231 0.393213 0.379234
v -0.671041 0.279721 0.252683
v -0.629231 0.390891 0.114797
v -0.782534 0.240017 0.384215
v -0.894028 0.279721 0.252683
v -0.782534 0.237601 0.115627
v -0.935838 0.393213 0.379234
v -0.894028 0.502641 0.248909
v -0.935838 0.390891 0.114797
v -0.782535 0.546408 0.374253
v -0.782535 0.544181 0.113967
v -0.671009 0.502289 -0.023068
v -0.671105 0.279588 -0.021320
v -0.629407 0.391415 -0.156776
v -0.894060 0.279493 -0.021856
v -0.783058 0.239150 -0.150938
v -0.893964 0.502193 -0.023604
v -0.935662 0.390367 -0.162666
v -0.782011 0.542631 -0.168504
v -0.669074 0.496517 -0.308289
v -0.671633 0.281164 -0.268582
v -0.621681 0.368372 -0.401864
v -0.893762 0.278604 -0.281894
v -0.777724 0.223238 -0.367626
v -0.891203 0.493958 -0.321601
v -0.925526 0.360131 -0.436398
v -0.769483 0.505264 -0.470636
v 0.677666 0.652221 0.982382
v 0.632734 0.519231 0.978540
v 0.671864 0.475452 1.116089
v 0.781340 0.397520 1.068428
v 0.877854 0.511200 1.161776
v 0.932337 0.534991 0.998995
v 0.883655 0.687969 1.028069
v 0.783730 0.656702 0.909107
v 0.671469 0.574182 0.854476
v 0.671251 0.374186 0.948034
v 0.893602 0.375618 0.949893
v 0.893819 0.575615 0.856336
v 0.671041 2.272872 0.248909
v 0.629231 2.382301 0.379234
v 0.671041 2.495793 0.252683
v 0.629231 2.384623 0.114797
v 0.782535 2.535497 0.384215
v 0.894028 2.495793 0.252683
v 0.782535 2.537913 0.115627
v 0.935838 2.382301 0.379234
v 0.894028 2.272872 0.248909
v 0.935838 2.384623 0.114797
v 0.782535 2.229105 0.374253
v 0.782535 2.231333 0.113967
v 0.671223 2.273131 -0.021636
v 0.671223 2.496115 -0.021485
v 0.631234 2.384623 -0.149805
v 0.893846 2.496115 -0.023288
v 0.782534 2.537927 -0.159721
v 0.893846 2.273131 -0.023439
v 0.933836 2.384623 -0.169637
v 0.782535 2.231319 -0.159721
v 0.673326 2.273130 -0.271648
v 0.673326 2.496117 -0.271648
v 0.626360 2.384623 -0.351333
v 0.885045 2.496116 -0.317417
v 0.755742 2.537927 -0.414659
v 0.885045 2.273129 -0.317417
v 0.885124 2.384623 -0.477984
v 0.755742 2.231319 -0.414659
v 0.671041 2.253356 0.688167
v 0.629231 2.341021 0.810271
v 0.671041 2.470159 0.730782
v 0.629231 2.370691 0.603347
v 0.782535 2.485307 0.857189
v 0.894028 2.470159 0.730782
v 0.782535 2.522512 0.618717
v 0.935838 2.341021 0.810271
v 0.894028 2.253356 0.688167
v 0.935838 2.370691 0.603347
v 0.782535 2.196735 0.763353
v 0.782535 2.218869 0.587977
v 0.671041 2.266128 0.489146
v 0.671041 2.488605 0.500995
v 0.894028 2.488605 0.500995
v 0.894028 2.266128 0.489146
v -0.671041 2.272872 0.248909
v -0.629231 2.384623 0.114797
v -0.671041 2.495793 0.252683
v -0.629231 2.382300 0.379234
v -0.782535 2.537912 0.115627
v -0.894028 2.495793 0.252683
v -0.782535 2.535496 0.384215
v -0.935838 2.384623 0.114797
v -0.894028 2.272872 0.248909
v -0.935838 2.382300 0.379234
v -0.782535 2.231333 0.113967
v -0.782535 2.229105 0.374253
v -0.671223 2.273130 -0.021636
v -0.631234 2.384623 -0.149805
v -0.671223 2.496115 -0.021485
v -0.782535 2.537926 -0.159721
v -0.893846 2.496115 -0.023288
v -0.933836 2.384623 -0.169637
v -0.893846 2.273130 -0.023439
v -0.782535 2.231319 -0.159721
v -0.673326 2.273129 -0.271648
v -0.626360 2.384623 -0.351333
v -0.673326 2.496116 -0.271648
v -0.755742 2.537926 -0.414658
v -0.885046 2.496116 -0.317417
v -0.885124 2.384623 -0.477984
v -0.885046 2.273129 -0.317417
v -0.755742 2.231319 -0.414658
v 0.623965 2.273130 -0.434506
v 0.623965 2.496117 -0.434506
v 0.534650 2.384623 -0.434985
v 0.767394 2.496116 -0.579570
v 0.596756 2.537926 -0.565102
v 0.767394 2.273129 -0.579570
v 0.658862 2.384623 -0.695218
v 0.596756 2.231319 -0.565102
v 0.407472 1.938700 1.091465
v 0.251838 1.900393 1.177046
v 0.338985 2.050282 1.265659
v 0.461719 2.089742 1.128317
v 0.298808 1.903660 1.388666
v 0.479491 1.947199 1.397509
v 0.523151 2.105268 1.331681
v 0.472761 1.798146 1.352312
v 0.547979 1.835617 1.223316
v 0.644913 1.933152 1.306021
v 0.425792 1.794880 1.140692
v 0.583481 1.917626 1.102657
v 0.599375 2.048201 1.051045
v 0.573856 2.201299 1.209014
v 0.617973 2.183563 1.084137
v 0.726925 2.102450 1.321514
v 0.735135 2.250249 1.242456
v 0.752443 1.949352 1.163546
v 0.870690 2.089784 1.198051
v 0.753528 2.023098 1.039732
v -0.407472 0.836814 1.091465
v -0.251838 0.875121 1.177046
v -0.338984 0.725232 1.265659
v -0.461718 0.685772 1.128317
v -0.298807 0.871854 1.388666
v -0.479490 0.828315 1.397509
v -0.523150 0.670246 1.331681
v -0.472761 0.977368 1.352312
v -0.547978 0.939897 1.223316
v -0.644913 0.842362 1.306021
v -0.425791 0.980634 1.140692
v -0.583480 0.857888 1.102657
v -0.599374 0.727313 1.051046
v -0.573856 0.574215 1.209014
v -0.617973 0.591951 1.084137
v -0.726925 0.673064 1.321515
v -0.735135 0.525265 1.242456
v -0.752443 0.826162 1.163546
v -0.870690 0.685730 1.198051
v -0.753528 0.752416 1.039732
v 0.677665 2.123293 0.982382
v 0.671864 2.300062 1.116089
v 0.632733 2.256283 0.978540
v 0.877854 2.264314 1.161776
v 0.781340 2.377994 1.068428
v 0.883655 2.087545 1.028070
v 0.932336 2.240523 0.998995
v 0.783730 2.118812 0.909107
v 0.671468 2.201332 0.854476
v 0.671251 2.401328 0.948034
v 0.893601 2.399896 0.949893
v 0.893819 2.199899 0.856336
v -0.295197 1.063178 1.118967
v -0.197625 1.213789 1.190530
v -0.186698 1.020437 1.303328
v -0.243572 1.213217 1.402404
v -0.362547 1.060611 1.427019
v -0.450567 1.231666 1.357833
v -0.471045 1.103352 1.242659
v -0.404620 1.232237 1.145958
v -0.290763 1.387757 1.120070
v -0.197625 1.561725 1.190530
v -0.170872 1.387757 1.307264
v -0.243572 1.562297 1.402404
v -0.357429 1.387757 1.428292
v -0.450567 1.543848 1.357833
v -0.477320 1.387757 1.241098
v -0.404620 1.543277 1.145958
v -0.295197 1.712336 1.118967
v -0.251838 1.900393 1.177046
v -0.186698 1.755077 1.303328
v -0.298808 1.903659 1.388666
v -0.362547 1.714903 1.427019
v -0.472761 1.798146 1.352312
v -0.471045 1.672162 1.242659
v -0.425791 1.794879 1.140692
v -0.639467 0.408205 -0.560238
v -0.650493 0.218105 -0.452068
v -0.579215 0.241700 -0.587721
v -0.869783 0.207079 -0.488332
v -0.739595 0.109507 -0.527468
v -0.858758 0.397179 -0.596502
v -0.878683 0.220407 -0.648496
v -0.718303 0.352600 -0.708749
v -0.585757 0.246309 -0.756007
v -0.603021 0.075071 -0.614669
v -0.535048 0.092796 -0.758197
v -0.818555 0.055961 -0.664079
v -0.686785 -0.046622 -0.704632
v -0.801292 0.227198 -0.805417
v -0.815679 0.049637 -0.845760
v -0.663942 0.189055 -0.899324
v -0.548448 0.111221 -0.911554
v -0.562714 -0.062468 -0.772592
v -0.490196 0.001013 -0.863779
v -0.737973 -0.121966 -0.868611
v -0.586114 -0.183191 -0.861735
v -0.723707 0.051723 -1.007572
v -0.667592 -0.124976 -1.046627
v -0.571674 0.059228 -1.048670
v -0.677665 0.652221 0.982382
v -0.671864 0.475452 1.116089
v -0.632733 0.519230 0.978540
v -0.877853 0.511199 1.161777
v -0.781339 0.397519 1.068428
v -0.883654 0.687968 1.028070
v -0.932336 0.534991 0.998995
v -0.783730 0.656702 0.909107
v -0.671468 0.574182 0.854476
v -0.671251 0.374185 0.948034
v -0.629231 0.434492 0.810272
v -0.893601 0.375618 0.949893
v -0.782534 0.290206 0.857190
v -0.893818 0.575615 0.856336
v -0.935838 0.434492 0.810272
v -0.782534 0.578778 0.763354
v -0.623965 2.273129 -0.434505
v -0.534651 2.384623 -0.434985
v -0.623965 2.496116 -0.434505
v -0.596756 2.537926 -0.565102
v -0.767394 2.496116 -0.579569
v -0.658862 2.384623 -0.695218
v -0.767394 2.273129 -0.579569
v -0.596756 2.231319 -0.565102
v -0.407472 1.938699 1.091465
v -0.461718 2.089741 1.128317
v -0.338984 2.050282 1.265659
v -0.523151 2.105267 1.331681
v -0.479491 1.947199 1.397509
v -0.644913 1.933152 1.306021
v -0.547978 1.835616 1.223316
v -0.583480 1.917626 1.102657
v -0.599375 2.048201 1.051046
v -0.617973 2.183563 1.084137
v -0.573856 2.201299 1.209014
v -0.735135 2.250248 1.242456
v -0.726925 2.102449 1.321514
v -0.870690 2.089783 1.198051
v -0.752443 1.949351 1.163547
v -0.753528 2.023098 1.039732
v 0.295197 1.063178 1.118967
v 0.186699 1.020437 1.303328
v 0.197626 1.213789 1.190530
v 0.362547 1.060611 1.427019
v 0.243573 1.213217 1.402404
v 0.471046 1.103352 1.242659
v 0.450568 1.231666 1.357832
v 0.404621 1.232237 1.145958
v 0.290764 1.387757 1.120070
v 0.170873 1.387757 1.307264
v 0.197626 1.561725 1.190530
v 0.357430 1.387757 1.428292
v 0.243573 1.562296 1.402404
v 0.477321 1.387757 1.241098
v 0.450568 1.543848 1.357832
v 0.404621 1.543277 1.145958
v 0.295197 1.712336 1.118967
v 0.186698 1.755077 1.303328
v 0.362547 1.714903 1.427019
v 0.471046 1.672162 1.242659
v -0.677665 2.123293 0.982383
v -0.632733 2.256283 0.978540
v -0.671864 2.300061 1.116089
v -0.781340 2.377994 1.068428
v -0.877854 2.264314 1.161777
v -0.932336 2.240522 0.998995
v -0.883655 2.087544 1.028070
v -0.783730 2.118811 0.909107
v -0.671468 2.201331 0.854476
v -0.629231 2.341021 0.810272
v -0.671251 2.401328 0.948034
v -0.782535 2.485307 0.857190
v -0.893601 2.399895 0.949893
v -0.935838 2.341021 0.810272
v -0.893818 2.199898 0.856336
v -0.782535 2.196735 0.763354
v -0.671041 2.253355 0.688167
v -0.629231 2.370690 0.603347
v -0.671041 2.470158 0.730782
v -0.782535 2.522512 0.618717
v -0.894028 2.470159 0.730782
v -0.935838 2.370691 0.603347
v -0.894028 2.253356 0.688167
v -0.782535 2.218868 0.587977
v -0.671041 2.266128 0.489146
v -0.671041 2.488605 0.500996
v -0.894028 2.488605 0.500996
v -0.894028 2.266128 0.489146
v -0.671041 0.522158 0.688167
v -0.671041 0.305355 0.730782
v -0.629231 0.404823 0.603347
v -0.894028 0.305355 0.730782
v -0.782534 0.253001 0.618717
v -0.894028 0.522157 0.688167
v -0.935838 0.404823 0.603347
v -0.782534 0.556645 0.587977
v -0.671041 0.509386 0.489146
v -0.671041 0.286909 0.500995
v -0.894028 0.286908 0.500995
v -0.894028 0.509386 0.489146
v 0.422449 0.060965 -0.969366
v 0.294933 -0.001448 -0.866611
v 0.428248 -0.117189 -0.835542
v 0.312188 -0.211798 -0.894644
v 0.499498 -0.231547 -0.994668
v 0.326846 -0.175793 -1.105085
v 0.493698 -0.053392 -1.128493
v 0.309590 0.034557 -1.077052
v 0.153876 0.066898 -0.962542
v 0.000000 0.002238 -0.862370
v 0.154112 -0.112651 -0.830321
v 0.000000 -0.212098 -0.894989
v 0.157013 -0.244139 -1.009154
v 0.000000 -0.179479 -1.109325
v 0.156777 -0.064590 -1.141374
v 0.000000 0.034857 -1.076706
v 0.440910 2.273129 -0.481879
v 0.440910 2.496116 -0.481879
v 0.301249 2.384623 -0.439859
v 0.485502 2.496116 -0.694127
v 0.310889 2.537926 -0.591274
v 0.485502 2.273129 -0.694127
v 0.320528 2.384623 -0.742690
v 0.310889 2.231319 -0.591274
v 0.154568 2.273129 -0.479953
v 0.154568 2.496116 -0.479953
v -0.000000 2.384623 -0.437971
v 0.156321 2.496116 -0.702596
v -0.000000 2.537926 -0.591274
v 0.156321 2.273129 -0.702596
v -0.000000 2.384623 -0.744578
v -0.000000 2.231319 -0.591274
v -0.440910 2.273129 -0.481878
v -0.301250 2.384623 -0.439859
v -0.440910 2.496116 -0.481878
v -0.310889 2.537926 -0.591274
v -0.485502 2.496116 -0.694127
v -0.320529 2.384623 -0.742690
v -0.485502 2.273129 -0.694127
v -0.310889 2.231319 -0.591274
v -0.154568 2.273129 -0.479952
v -0.154568 2.496116 -0.479952
v -0.156321 2.496116 -0.702596
v -0.156321 2.273129 -0.702596
v -0.422448 0.060965 -0.969366
v -0.428248 -0.117190 -0.835542
v -0.294932 -0.001449 -0.866611
v -0.499498 -0.231547 -0.994668
v -0.312188 -0.211798 -0.894644
v -0.493698 -0.053392 -1.128493
v -0.326845 -0.175793 -1.105085
v -0.309590 0.034557 -1.077052
v -0.153876 0.066898 -0.962542
v -0.154112 -0.112651 -0.830321
v -0.157013 -0.244139 -1.009154
v -0.156777 -0.064590 -1.141374
v 0.629231 0.391181 0.250796
v 0.782535 0.237923 0.253390
v 0.935838 0.391181 0.250796
v 0.782535 0.544439 0.248201
v 0.629253 0.390957 -0.022094
v 0.782600 0.237785 -0.021260
v 0.935816 0.390825 -0.022830
v 0.782469 0.543997 -0.023664
v 0.628705 0.389321 -0.285940
v 0.783178 0.239506 -0.267793
v 0.934132 0.385802 -0.304244
v 0.779659 0.535617 -0.322390
v 0.346884 0.761695 1.153840
v 0.396396 0.755851 1.364245
v 0.540080 0.903434 1.335134
v 0.490567 0.909277 1.124729
v 0.557915 0.632230 1.108936
v 0.645606 0.594933 1.294883
v 0.768385 0.768147 1.263624
v 0.680694 0.805444 1.077677
v 0.629232 0.413756 0.709474
v 0.782535 0.264704 0.738772
v 0.935838 0.413756 0.709474
v 0.782535 0.562808 0.680176
v 0.629232 0.398147 0.495071
v 0.782535 0.245194 0.503217
v 0.935838 0.398147 0.495071
v 0.782535 0.551100 0.486924
v 0.603863 0.315222 -0.499354
v 0.762206 0.176949 -0.449919
v 0.905388 0.300062 -0.549217
v 0.747046 0.438336 -0.598652
v 0.553977 0.164274 -0.676074
v 0.714025 0.033409 -0.612873
v 0.850336 0.137996 -0.744013
v 0.690288 0.268861 -0.807213
v 0.522720 0.035533 -0.824070
v 0.653018 -0.124783 -0.794546
v 0.763701 -0.046277 -0.956095
v 0.633403 0.114039 -0.985619
v -0.629231 0.391181 0.250796
v -0.782534 0.237923 0.253391
v -0.935838 0.391181 0.250796
v -0.782535 0.544439 0.248202
v -0.629253 0.390956 -0.022094
v -0.782600 0.237784 -0.021260
v -0.935816 0.390825 -0.022830
v -0.782469 0.543997 -0.023664
v -0.628704 0.389320 -0.285939
v -0.783177 0.239505 -0.267793
v -0.934132 0.385801 -0.304243
v -0.779659 0.535616 -0.322390
v 0.636142 0.557134 1.040669
v 0.773771 0.460182 1.164003
v 0.919378 0.606287 1.103489
v 0.781748 0.703239 0.980156
v 0.629669 0.473915 0.900906
v 0.782386 0.337402 0.966505
v 0.935401 0.475885 0.903463
v 0.782684 0.612398 0.837864
v 0.629231 2.384333 0.250796
v 0.782534 2.537591 0.253390
v 0.935838 2.384333 0.250796
v 0.782535 2.231075 0.248201
v 0.629481 2.384623 -0.021223
v 0.782535 2.537925 -0.022358
v 0.935588 2.384623 -0.023702
v 0.782535 2.231321 -0.022566
v 0.633628 2.384623 -0.263067
v 0.779185 2.537927 -0.294533
v 0.924743 2.384623 -0.325998
v 0.779185 2.231320 -0.294533
v 0.629231 2.361757 0.709474
v 0.782535 2.510809 0.738772
v 0.935838 2.361757 0.709474
v 0.782535 2.212705 0.680176
v 0.629231 2.377367 0.495071
v 0.782535 2.530320 0.503217
v 0.935838 2.377367 0.495071
v 0.782535 2.224413 0.486924
v -0.629231 2.384332 0.250796
v -0.782535 2.537590 0.253391
v -0.935838 2.384333 0.250796
v -0.782535 2.231075 0.248201
v -0.629482 2.384622 -0.021222
v -0.782535 2.537924 -0.022358
v -0.935588 2.384622 -0.023701
v -0.782535 2.231321 -0.022566
v -0.633628 2.384623 -0.263067
v -0.779186 2.537926 -0.294532
v -0.924743 2.384623 -0.325998
v -0.779186 2.231319 -0.294532
v 0.597072 2.384623 -0.407306
v 0.695679 2.537927 -0.507038
v 0.794287 2.384623 -0.606769
v 0.695679 2.231320 -0.507038
v 0.346883 2.013819 1.153840
v 0.396396 2.019662 1.364245
v 0.540080 1.872080 1.335135
v 0.490567 1.866236 1.124729
v 0.557915 2.143284 1.108936
v 0.645606 2.180581 1.294883
v 0.768385 2.007367 1.263624
v 0.680694 1.970070 1.077677
v -0.346883 0.761695 1.153840
v -0.396396 0.755851 1.364245
v -0.540079 0.903434 1.335135
v -0.490566 0.909277 1.124729
v -0.557915 0.632230 1.108936
v -0.645605 0.594933 1.294883
v -0.768384 0.768147 1.263624
v -0.680693 0.805443 1.077677
v 0.636142 2.218380 1.040669
v 0.773771 2.315332 1.164003
v 0.919377 2.169227 1.103489
v 0.781748 2.072275 0.980156
v 0.629669 2.301599 0.900906
v 0.782385 2.438112 0.966505
v 0.935400 2.299629 0.903463
v 0.782684 2.163116 0.837864
v -0.207976 1.034275 1.187955
v -0.254279 1.032510 1.399741
v -0.449768 1.089514 1.358031
v -0.403464 1.091279 1.146246
v -0.195838 1.387757 1.190974
v -0.241671 1.387757 1.402877
v -0.452354 1.387757 1.357388
v -0.406521 1.387757 1.145485
v -0.207976 1.741239 1.187955
v -0.254279 1.743004 1.399741
v -0.449768 1.686000 1.358031
v -0.403464 1.684235 1.146245
v -0.603863 0.315222 -0.499354
v -0.762205 0.176948 -0.449918
v -0.905388 0.300062 -0.549217
v -0.747046 0.438336 -0.598652
v -0.553977 0.164274 -0.676074
v -0.714025 0.033409 -0.612873
v -0.850336 0.137996 -0.744013
v -0.690287 0.268861 -0.807213
v -0.522720 0.035532 -0.824070
v -0.653018 -0.124784 -0.794546
v -0.763701 -0.046277 -0.956095
v -0.633403 0.114039 -0.985618
v -0.636141 0.557134 1.040670
v -0.773771 0.460182 1.164003
v -0.919377 0.606287 1.103490
v -0.781747 0.703239 0.980156
v -0.629669 0.473915 0.900906
v -0.782385 0.337402 0.966505
v -0.935400 0.475885 0.903463
v -0.782684 0.612398 0.837864
v -0.597072 2.384623 -0.407306
v -0.695680 2.537926 -0.507037
v -0.794287 2.384623 -0.606769
v -0.695680 2.231319 -0.507037
v -0.346883 2.013819 1.153840
v -0.396396 2.019662 1.364245
v -0.540079 1.872080 1.335134
v -0.490567 1.866236 1.124730
v -0.557915 2.143284 1.108936
v -0.645606 2.180580 1.294883
v -0.768385 2.007366 1.263624
v -0.680694 1.970070 1.077677
v 0.207976 1.034275 1.187955
v 0.254279 1.032510 1.399741
v 0.449768 1.089514 1.358031
v 0.403465 1.091279 1.146245
v 0.195839 1.387757 1.190974
v 0.241672 1.387757 1.402877
v 0.452355 1.387757 1.357388
v 0.406522 1.387757 1.145485
v 0.207976 1.741239 1.187955
v 0.254279 1.743004 1.399741
v 0.449768 1.686000 1.358031
v 0.403465 1.684235 1.146246
v -0.636142 2.218380 1.040670
v -0.773771 2.315332 1.164003
v -0.919377 2.169227 1.103489
v -0.781748 2.072275 0.980156
v -0.629669 2.301598 0.900906
v -0.782385 2.438111 0.966506
v -0.935401 2.299628 0.903463
v -0.782684 2.163115 0.837864
v -0.629231 2.361757 0.709474
v -0.782535 2.510809 0.738772
v -0.935838 2.361757 0.709474
v -0.782535 2.212705 0.680177
v -0.629231 2.377366 0.495071
v -0.782535 2.530319 0.503217
v -0.935838 2.377366 0.495071
v -0.782535 2.224413 0.486925
v -0.629231 0.413756 0.709474
v -0.782534 0.264704 0.738772
v -0.935838 0.413756 0.709474
v -0.782534 0.562808 0.680177
v -0.629231 0.398147 0.495071
v -0.782534 0.245194 0.503217
v -0.935838 0.398147 0.495071
v -0.782535 0.551100 0.486925
v 0.411989 -0.006670 -0.872618
v 0.464961 -0.207772 -0.890013
v 0.509957 -0.163911 -1.091417
v 0.456986 0.037191 -1.074022
v 0.153450 0.001777 -0.862900
v 0.155607 -0.212061 -0.894946
v 0.157439 -0.179019 -1.108795
v 0.155282 0.034819 -1.076749
v 0.432549 2.384623 -0.442082
v 0.463206 2.537926 -0.588003
v 0.493863 2.384623 -0.733924
v 0.463206 2.231319 -0.588003
v 0.154239 2.384623 -0.438207
v 0.155444 2.537926 -0.591274
v 0.156649 2.384623 -0.744342
v 0.155444 2.231319 -0.591274
v -0.432549 2.384623 -0.442082
v -0.463206 2.537926 -0.588003
v -0.493863 2.384623 -0.733924
v -0.463206 2.231319 -0.588003
v -0.154240 2.384623 -0.438207
v -0.155445 2.537926 -0.591274
v -0.156650 2.384623 -0.744342
v -0.155445 2.231319 -0.591274
v -0.411989 -0.006670 -0.872618
v -0.464960 -0.207772 -0.890013
v -0.509957 -0.163912 -1.091417
v -0.456986 0.037190 -1.074021
v -0.153450 0.001777 -0.862900
v -0.155607 -0.212061 -0.894946
v -0.157439 -0.179019 -1.108795
v -0.155282 0.034819 -1.076750
vn -0.7088 0.7052 -0.0203
vn -0.7052 -0.7087 0.0210
vn 0.7052 -0.7087 0.0210
vn 0.7088 0.7052 -0.0203
vn -0.6883 0.7057 -0.1680
vn -0.7029 -0.6420 0.3064
vn 0.7415 -0.6556 0.1430
vn 0.6744 0.6668 -0.3171
vn -0.2704 -0.0161 -0.9626
vn -0.8587 -0.4781 0.1844
vn 0.1580 -0.0452 0.9864
vn 0.8716 0.4548 -0.1830
vn -0.5086 0.2777 -0.8150
vn -0.5906 -0.7761 0.2211
vn 0.5725 -0.2538 0.7796
vn 0.6618 0.7392 -0.1249
vn -0.7088 -0.7052 -0.0203
vn -0.7052 0.7087 0.0210
vn 0.7052 0.7087 0.0210
vn 0.7088 -0.7052 -0.0203
vn -0.3997 0.9167 -0.0029
vn -0.3306 -0.2871 0.8990
vn 0.4677 -0.8788 -0.0946
vn 0.4075 0.1679 -0.8977
vn -0.7211 0.6611 -0.2073
vn -0.6928 -0.6868 0.2198
vn 0.6929 -0.6862 0.2213
vn 0.7212 0.6604 -0.2093
vn -0.6594 -0.7194 0.2184
vn -0.6594 0.7194 0.2184
vn 0.6760 0.6706 -0.3055
vn 0.6760 -0.6706 -0.3055
vn -0.2704 0.0161 -0.9626
vn -0.8587 0.4781 0.1844
vn 0.1580 0.0452 0.9864
vn 0.8716 -0.4548 -0.1830
vn -0.5086 -0.2777 -0.8150
vn -0.5906 0.7761 0.2211
vn 0.5725 0.2538 0.7796
vn 0.6618 -0.7392 -0.1249
vn -0.1945 -0.7150 0.6715
vn -0.1945 0.7150 0.6715
vn 0.2842 0.6710 -0.6848
vn 0.2842 -0.6710 -0.6848
vn 0.6883 0.7057 -0.1680
vn 0.7029 -0.6420 0.3064
vn -0.7415 -0.6556 0.1430
vn -0.6744 0.6668 -0.3171
vn 0.2704 -0.0161 -0.9626
vn 0.8587 -0.4781 0.1844
vn -0.1580 -0.0452 0.9864
vn -0.8716 0.4548 -0.1830
vn 0.5086 0.2777 -0.8150
vn 0.5906 -0.7761 0.2211
vn -0.5725 -0.2538 0.7797
vn -0.6618 0.7392 -0.1249
vn -0.7211 -0.6611 -0.2073
vn -0.6928 0.6868 0.2198
vn 0.6929 0.6862 0.2213
vn 0.7212 -0.6604 -0.2093
vn 0.3997 0.9167 -0.0029
vn 0.3306 -0.2871 0.8990
vn -0.4677 -0.8788 -0.0946
vn -0.4075 0.1679 -0.8977
vn 0.7211 0.6611 -0.2073
vn 0.6928 -0.6868 0.2198
vn -0.6929 -0.6862 0.2213
vn -0.7212 0.6604 -0.2093
vn 0.6594 -0.7194 0.2184
vn 0.6594 0.7194 0.2184
vn -0.6760 0.6706 -0.3055
vn -0.6760 -0.6706 -0.3055
vn 0.2704 0.0161 -0.9626
vn 0.8587 0.4781 0.1844
vn -0.1580 0.0452 0.9864
vn -0.8716 -0.4548 -0.1830
vn 0.5086 -0.2777 -0.8150
vn 0.5906 0.7761 0.2211
vn -0.5725 0.2538 0.7797
vn -0.6618 -0.7392 -0.1249
vn 0.1945 -0.7150 0.6715
vn 0.1945 0.7150 0.6715
vn -0.2842 0.6710 -0.6848
vn -0.2842 -0.6710 -0.6848
vn 0.7211 -0.6611 -0.2073
vn 0.6928 0.6868 0.2198
vn -0.6929 0.6862 0.2213
vn -0.7212 -0.6604 -0.2093
vn -0.0000 0.9884 0.1518
vn -0.0000 -0.1491 0.9888
vn -0.0000 -0.9884 -0.1518
vn -0.0000 0.1491 -0.9888
vn -0.0000 -0.7068 0.7074
vn -0.0000 0.7068 0.7074
vn -0.0000 0.7068 -0.7074
vn -0.0000 -0.7068 -0.7074
vn -0.7071 0.7071 -0.0009
vn -0.7068 -0.7074 0.0003
vn 0.7068 -0.7074 0.0006
vn 0.7071 0.7071 -0.0013
vn -0.7020 0.7121 -0.0111
vn -0.7046 -0.7096 -0.0037
vn 0.7057 -0.7085 -0.0003
vn 0.7030 0.7108 -0.0242
vn -0.2184 0.0028 -0.9759
vn -0.5123 -0.8541 0.0901
vn 0.2588 -0.0414 0.9650
vn 0.4784 0.8752 -0.0723
vn -0.7065 0.7062 -0.0455
vn -0.7038 -0.7081 0.0567
vn 0.7038 -0.7081 0.0567
vn 0.7065 0.7062 -0.0455
vn -0.7375 0.6064 -0.2972
vn -0.6303 -0.4846 0.6066
vn 0.7436 -0.5975 0.3000
vn 0.6340 0.5036 -0.5870
vn -0.7609 0.5698 -0.3105
vn -0.6489 -0.4867 0.5849
vn 0.7439 -0.6197 0.2501
vn 0.6373 0.4436 -0.6301
vn 0.7071 0.7071 -0.0009
vn 0.7068 -0.7074 0.0003
vn -0.7068 -0.7074 0.0006
vn -0.7071 0.7071 -0.0013
vn 0.7020 0.7121 -0.0111
vn 0.7046 -0.7096 -0.0037
vn -0.7057 -0.7085 -0.0003
vn -0.7030 0.7108 -0.0242
vn -0.7138 0.6081 -0.3474
vn -0.7079 -0.5998 0.3730
vn 0.7106 -0.5704 0.4120
vn 0.7171 0.6036 -0.3484
vn -0.7074 -0.7068 -0.0012
vn -0.7071 0.7071 0.0004
vn 0.7071 0.7071 0.0004
vn 0.7074 -0.7068 -0.0011
vn -0.7115 -0.7026 -0.0061
vn -0.7115 0.7026 -0.0061
vn 0.7134 0.7005 -0.0209
vn 0.7134 -0.7005 -0.0209
vn -0.7065 -0.7062 -0.0455
vn -0.7038 0.7081 0.0567
vn 0.7038 0.7081 0.0567
vn 0.7065 -0.7062 -0.0455
vn 0.7074 -0.7068 -0.0012
vn -0.7074 -0.7068 -0.0011
vn 0.7115 -0.7026 -0.0061
vn 0.7115 0.7026 -0.0061
vn -0.7134 0.7005 -0.0209
vn -0.7134 -0.7005 -0.0209
vn -0.2184 -0.0028 -0.9759
vn -0.5123 0.8541 0.0901
vn 0.2588 0.0414 0.9650
vn 0.4784 -0.8752 -0.0723
vn 0.2184 0.0028 -0.9759
vn 0.5123 -0.8541 0.0901
vn -0.2588 -0.0414 0.9650
vn -0.4784 0.8752 -0.0723
vn -0.7138 -0.6081 -0.3474
vn -0.7079 0.5998 0.3730
vn 0.7106 0.5704 0.4120
vn 0.7171 -0.6036 -0.3484
vn 0.2136 -0.0046 -0.9769
vn 0.9765 -0.0400 0.2118
vn -0.2073 -0.0055 0.9783
vn -0.9772 -0.0161 -0.2119
vn 0.2136 0.0046 -0.9769
vn 0.9765 0.0400 0.2118
vn -0.2073 0.0055 0.9783
vn -0.9772 0.0161 -0.2119
vn 0.7375 0.6064 -0.2972
vn 0.6303 -0.4846 0.6066
vn -0.7436 -0.5975 0.3000
vn -0.6340 0.5036 -0.5870
vn 0.7609 0.5698 -0.3105
vn 0.6489 -0.4867 0.5849
vn -0.7439 -0.6197 0.2501
vn -0.6373 0.4436 -0.6301
vn 0.7138 0.6081 -0.3474
vn 0.7079 -0.5998 0.3730
vn -0.7106 -0.5704 0.4120
vn -0.7171 0.6036 -0.3484
vn 0.2184 -0.0028 -0.9759
vn 0.5123 0.8541 0.0901
vn -0.2588 0.0414 0.9650
vn -0.4784 -0.8752 -0.0723
vn -0.2136 -0.0046 -0.9769
vn -0.9765 -0.0400 0.2118
vn 0.2073 -0.0055 0.9783
vn 0.9772 -0.0161 -0.2119
vn -0.2136 0.0046 -0.9769
vn -0.9765 0.0400 0.2118
vn 0.2073 0.0055 0.9783
vn 0.9772 0.0161 -0.2119
vn 0.7138 -0.6081 -0.3474
vn 0.7079 0.5998 0.3730
vn -0.7106 0.5704 0.4120
vn -0.7171 -0.6036 -0.3484
vn 0.0251 0.9853 0.1687
vn 0.0194 -0.1324 0.9910
vn 0.0414 -0.9848 -0.1689
vn 0.0340 0.1311 -0.9908
vn 0.0049 -0.7029 0.7113
vn 0.0049 0.7029 0.7113
vn 0.0181 0.7009 -0.7130
vn 0.0181 -0.7009 -0.7130
vn -0.0049 -0.7029 0.7113
vn -0.0049 0.7029 0.7113
vn -0.0181 0.7009 -0.7130
vn -0.0181 -0.7009 -0.7130
vn -0.0251 0.9853 0.1687
vn -0.0194 -0.1324 0.9910
vn -0.0414 -0.9848 -0.1689
vn -0.0340 0.1311 -0.9908
vn -0.7080 0.7062 -0.0062
vn -1.0000 -0.0004 -0.0001
vn -0.7062 -0.7080 0.0065
vn -1.0000 -0.0030 0.0002
vn -0.0001 -1.0000 0.0006
vn 0.7062 -0.7080 0.0065
vn -0.0000 -0.9996 0.0297
vn 1.0000 -0.0001 -0.0001
vn 0.7080 0.7062 -0.0062
vn 1.0000 -0.0030 0.0002
vn 0.0001 1.0000 -0.0016
vn -0.0000 0.9996 -0.0287
vn -0.7061 0.7081 -0.0018
vn -1.0000 -0.0014 -0.0001
vn -0.7060 -0.7082 -0.0048
vn -0.0032 -1.0000 -0.0043
vn 0.7060 -0.7082 -0.0020
vn 1.0000 0.0061 -0.0078
vn 0.7061 0.7081 -0.0044
vn 0.0042 0.9997 -0.0260
vn -0.6903 0.7212 -0.0576
vn -0.9938 0.0501 0.0996
vn -0.7089 -0.7011 0.0772
vn 0.0288 -0.9448 0.3263
vn 0.7179 -0.6949 0.0412
vn 0.9923 0.0153 -0.1229
vn 0.6942 0.7104 -0.1159
vn -0.0059 0.9425 -0.3340
vn -0.2423 -0.0147 -0.9701
vn -0.5039 -0.6019 -0.6195
vn -0.6484 -0.7500 0.1304
vn -0.7807 -0.3412 -0.5236
vn -0.1923 -0.6308 0.7517
vn 0.2038 -0.0562 0.9774
vn -0.4886 -0.3607 0.7945
vn 0.5296 0.5801 0.6188
vn 0.5941 0.7965 -0.1120
vn 0.7486 0.3029 0.5898
vn 0.1742 0.6425 -0.7463
vn 0.4364 0.3235 -0.8396
vn -0.2772 0.0485 -0.9596
vn -0.8138 -0.3762 -0.4429
vn -0.5106 -0.8533 0.1053
vn -0.0093 -0.7063 0.7079
vn 0.3708 -0.0901 0.9243
vn 0.8359 0.3206 0.4456
vn 0.5379 0.8404 -0.0669
vn 0.1026 0.7434 -0.6609
vn -0.7129 0.6951 -0.0929
vn -1.0000 -0.0023 0.0016
vn -0.6974 -0.7085 0.1085
vn -0.9997 -0.0214 0.0088
vn -0.0000 -0.9967 0.0811
vn 0.6974 -0.7085 0.1085
vn 0.0007 -0.9523 0.3051
vn 1.0000 -0.0023 0.0016
vn 0.7129 0.6951 -0.0929
vn 0.9997 -0.0225 0.0093
vn -0.0000 0.9980 -0.0625
vn -0.0007 0.9534 -0.3017
vn -0.7077 0.7057 -0.0348
vn -0.7052 -0.7079 0.0387
vn 0.7052 -0.7079 0.0387
vn 0.7077 0.7057 -0.0348
vn -0.7140 0.6477 -0.2660
vn -0.9740 0.0769 0.2130
vn -0.6565 -0.5368 0.5300
vn 0.0771 -0.7616 0.6434
vn 0.7462 -0.6162 0.2518
vn 0.9743 -0.0700 -0.2141
vn 0.6466 0.5698 -0.5071
vn -0.0689 0.7816 -0.6200
vn -0.7500 0.5859 -0.3071
vn -0.9824 0.0528 0.1792
vn -0.6372 -0.4849 0.5990
vn 0.0841 -0.7710 0.6312
vn 0.7448 -0.6004 0.2914
vn 0.9551 -0.1286 -0.2669
vn 0.6344 0.4784 -0.6072
vn -0.0800 0.7590 -0.6462
vn -0.7000 0.6795 -0.2195
vn -0.5456 0.4808 0.6864
vn -0.5851 -0.4264 0.6898
vn 0.0888 -0.8302 0.5503
vn 0.6949 -0.7098 0.1151
vn 0.5865 -0.4734 -0.6572
vn 0.6039 0.3345 -0.7235
vn -0.0053 0.7576 -0.6527
vn 1.0000 -0.0004 -0.0001
vn 0.0001 -1.0000 0.0006
vn -1.0000 -0.0001 -0.0001
vn -0.0001 1.0000 -0.0016
vn 0.7061 0.7081 -0.0018
vn 0.7060 -0.7082 -0.0048
vn 1.0000 -0.0014 -0.0001
vn -0.7060 -0.7082 -0.0020
vn 0.0032 -1.0000 -0.0043
vn -0.7061 0.7081 -0.0044
vn -1.0000 0.0061 -0.0078
vn -0.0042 0.9997 -0.0260
vn 0.6903 0.7212 -0.0576
vn 0.7089 -0.7011 0.0772
vn 0.9938 0.0501 0.0996
vn -0.7179 -0.6949 0.0412
vn -0.0288 -0.9448 0.3263
vn -0.6942 0.7104 -0.1159
vn -0.9923 0.0153 -0.1229
vn 0.0059 0.9425 -0.3340
vn -0.6876 0.5286 -0.4978
vn -0.9995 0.0198 0.0227
vn -0.6771 -0.6584 0.3287
vn 0.0133 -0.8457 0.5335
vn 0.6980 -0.4573 0.5510
vn 0.9982 0.0214 0.0569
vn 0.7257 0.6345 -0.2659
vn -0.0047 0.8483 -0.5295
vn -0.7170 0.6241 -0.3104
vn -0.6991 -0.6352 0.3283
vn 0.6995 -0.6310 0.3355
vn 0.7162 0.6189 -0.3225
vn -0.7080 -0.7062 -0.0062
vn -1.0000 0.0030 0.0002
vn -0.7062 0.7080 0.0065
vn -1.0000 0.0002 -0.0008
vn -0.0000 0.9996 0.0297
vn 0.7062 0.7080 0.0065
vn -0.0000 1.0000 0.0011
vn 1.0000 0.0030 0.0002
vn 0.7080 -0.7062 -0.0062
vn 1.0000 0.0002 -0.0008
vn -0.0000 -0.9996 -0.0287
vn -0.0000 -1.0000 -0.0011
vn -0.7086 -0.7056 -0.0039
vn -0.7086 0.7056 -0.0039
vn -0.9999 -0.0000 -0.0127
vn 0.7085 0.7057 -0.0036
vn 0.0023 1.0000 -0.0035
vn 0.7085 -0.7057 -0.0036
vn 0.9995 -0.0000 -0.0324
vn 0.0023 -1.0000 -0.0035
vn -0.7093 -0.7038 0.0397
vn -0.7093 0.7038 0.0397
vn -0.9567 -0.0000 0.2911
vn 0.7200 0.6859 -0.1056
vn 0.0385 0.9990 -0.0228
vn 0.7200 -0.6859 -0.1056
vn 0.9088 -0.0000 -0.4173
vn 0.0385 -0.9990 -0.0228
vn -0.7129 -0.6951 -0.0929
vn -0.9997 0.0214 0.0088
vn -0.6974 0.7085 0.1085
vn -1.0000 0.0023 0.0016
vn 0.0007 0.9523 0.3051
vn 0.6974 0.7085 0.1085
vn -0.0000 0.9967 0.0811
vn 0.9997 0.0225 0.0093
vn 0.7129 -0.6951 -0.0929
vn 1.0000 0.0023 0.0016
vn -0.0007 -0.9534 -0.3017
vn -0.0000 -0.9980 -0.0625
vn -0.7077 -0.7057 -0.0348
vn -0.7052 0.7079 0.0387
vn 0.7052 0.7079 0.0387
vn 0.7077 -0.7057 -0.0348
vn 0.7086 -0.7056 -0.0039
vn 0.9999 -0.0000 -0.0127
vn 0.7086 0.7056 -0.0039
vn -0.0023 1.0000 -0.0035
vn -0.7085 0.7057 -0.0036
vn -0.9995 -0.0000 -0.0324
vn -0.7085 -0.7057 -0.0036
vn -0.0023 -1.0000 -0.0035
vn 0.7093 -0.7038 0.0397
vn 0.9567 -0.0000 0.2911
vn 0.7093 0.7038 0.0397
vn -0.0385 0.9990 -0.0228
vn -0.7200 0.6859 -0.1056
vn -0.9088 -0.0000 -0.4173
vn -0.7200 -0.6859 -0.1056
vn -0.0385 -0.9990 -0.0228
vn -0.4651 -0.7353 0.4930
vn -0.4651 0.7353 0.4930
vn -0.2541 -0.0000 0.9672
vn 0.5175 0.6658 -0.5374
vn 0.0202 0.9991 -0.0365
vn 0.5175 -0.6658 -0.5374
vn 0.3899 -0.0000 -0.9208
vn 0.0202 -0.9991 -0.0365
vn -0.2423 0.0147 -0.9701
vn -0.7807 0.3412 -0.5236
vn -0.6484 0.7500 0.1304
vn -0.5039 0.6019 -0.6195
vn -0.4886 0.3607 0.7945
vn 0.2038 0.0562 0.9774
vn -0.1923 0.6308 0.7517
vn 0.7486 -0.3029 0.5898
vn 0.5941 -0.7965 -0.1120
vn 0.5296 -0.5801 0.6188
vn 0.4364 -0.3235 -0.8396
vn 0.1742 -0.6425 -0.7463
vn -0.2772 -0.0485 -0.9596
vn -0.5106 0.8533 0.1053
vn -0.8138 0.3762 -0.4429
vn 0.3708 0.0901 0.9243
vn -0.0093 0.7063 0.7079
vn 0.5379 -0.8404 -0.0669
vn 0.8359 -0.3206 0.4456
vn 0.1026 -0.7434 -0.6609
vn 0.2423 -0.0147 -0.9701
vn 0.7807 -0.3412 -0.5236
vn 0.6484 -0.7500 0.1304
vn 0.5039 -0.6019 -0.6195
vn 0.4886 -0.3607 0.7945
vn -0.2038 -0.0562 0.9774
vn 0.1923 -0.6308 0.7517
vn -0.7486 0.3029 0.5898
vn -0.5941 0.7965 -0.1120
vn -0.5296 0.5801 0.6188
vn -0.4364 0.3235 -0.8396
vn -0.1742 0.6425 -0.7463
vn 0.2772 0.0485 -0.9596
vn 0.5106 -0.8533 0.1053
vn 0.8138 -0.3762 -0.4429
vn -0.3708 -0.0901 0.9243
vn 0.0093 -0.7063 0.7079
vn -0.5379 0.8404 -0.0669
vn -0.8359 0.3206 0.4456
vn -0.1026 0.7434 -0.6609
vn -0.6876 -0.5286 -0.4978
vn -0.6771 0.6584 0.3287
vn -0.9995 -0.0198 0.0227
vn 0.6980 0.4573 0.5510
vn 0.0133 0.8457 0.5335
vn 0.7257 -0.6345 -0.2659
vn 0.9982 -0.0214 0.0569
vn -0.0047 -0.8483 -0.5295
vn -0.7170 -0.6241 -0.3104
vn -0.6991 0.6352 0.3283
vn 0.6995 0.6310 0.3355
vn 0.7162 -0.6189 -0.3225
vn 0.2376 -0.0035 -0.9714
vn 0.8480 -0.0244 -0.5295
vn 0.9619 -0.1763 0.2092
vn 0.5535 -0.0264 0.8324
vn -0.1833 -0.0123 0.9830
vn -0.8470 -0.0067 0.5316
vn -0.9740 0.0833 -0.2107
vn -0.5520 -0.0077 -0.8338
vn 0.2107 -0.0000 -0.9775
vn 0.8480 0.0244 -0.5295
vn 0.9773 -0.0000 0.2116
vn 0.5535 0.0264 0.8324
vn -0.2109 -0.0000 0.9775
vn -0.8470 0.0067 0.5316
vn -0.9773 -0.0000 -0.2117
vn -0.5520 0.0077 -0.8338
vn 0.2376 0.0035 -0.9714
vn 0.7807 0.3412 -0.5236
vn 0.9619 0.1763 0.2092
vn 0.4886 0.3607 0.7945
vn -0.1833 0.0123 0.9830
vn -0.7486 -0.3029 0.5898
vn -0.9740 -0.0833 -0.2107
vn -0.4364 -0.3235 -0.8396
vn 0.7140 0.6477 -0.2660
vn 0.6565 -0.5368 0.5300
vn 0.9740 0.0769 0.2130
vn -0.7462 -0.6162 0.2518
vn -0.0771 -0.7616 0.6434
vn -0.6466 0.5698 -0.5071
vn -0.9743 -0.0700 -0.2141
vn 0.0689 0.7816 -0.6200
vn 0.7500 0.5859 -0.3071
vn 0.6372 -0.4849 0.5990
vn 0.9824 0.0528 0.1792
vn -0.7448 -0.6004 0.2914
vn -0.0841 -0.7710 0.6312
vn -0.6344 0.4784 -0.6072
vn -0.9551 -0.1286 -0.2669
vn 0.0800 0.7590 -0.6462
vn 0.7000 0.6795 -0.2195
vn 0.5851 -0.4264 0.6898
vn 0.5456 0.4808 0.6864
vn -0.6949 -0.7098 0.1151
vn -0.0888 -0.8302 0.5503
vn -0.6039 0.3345 -0.7235
vn -0.5865 -0.4734 -0.6572
vn 0.0053 0.7576 -0.6527
vn 0.6876 0.5286 -0.4978
vn 0.6771 -0.6584 0.3287
vn 0.9995 0.0198 0.0227
vn -0.6980 -0.4573 0.5510
vn -0.0133 -0.8457 0.5335
vn -0.7257 0.6345 -0.2659
vn -0.9982 0.0214 0.0569
vn 0.0047 0.8483 -0.5295
vn 0.7170 0.6241 -0.3104
vn 0.6991 -0.6352 0.3283
vn 0.9997 -0.0214 0.0088
vn -0.6995 -0.6310 0.3355
vn -0.0007 -0.9523 0.3051
vn -0.7162 0.6189 -0.3225
vn -0.9997 -0.0225 0.0093
vn 0.0007 0.9534 -0.3017
vn 0.4651 -0.7353 0.4930
vn 0.2541 -0.0000 0.9672
vn 0.4651 0.7353 0.4930
vn -0.0202 0.9991 -0.0365
vn -0.5175 0.6658 -0.5374
vn -0.3899 -0.0000 -0.9208
vn -0.5175 -0.6658 -0.5374
vn -0.0202 -0.9991 -0.0365
vn 0.2423 0.0147 -0.9701
vn 0.5039 0.6019 -0.6195
vn 0.6484 0.7500 0.1304
vn 0.1923 0.6308 0.7517
vn -0.2038 0.0562 0.9774
vn -0.5296 -0.5801 0.6188
vn -0.5941 -0.7965 -0.1120
vn -0.1742 -0.6425 -0.7463
vn 0.2772 -0.0485 -0.9596
vn 0.8138 0.3762 -0.4429
vn 0.5106 0.8533 0.1053
vn 0.0093 0.7063 0.7079
vn -0.3708 0.0901 0.9243
vn -0.8359 -0.3206 0.4456
vn -0.5379 -0.8404 -0.0669
vn -0.1026 -0.7434 -0.6609
vn -0.2376 -0.0035 -0.9714
vn -0.9619 -0.1763 0.2092
vn -0.8480 -0.0244 -0.5295
vn 0.1833 -0.0123 0.9830
vn -0.5535 -0.0264 0.8324
vn 0.9740 0.0833 -0.2107
vn 0.8470 -0.0067 0.5316
vn 0.5520 -0.0077 -0.8338
vn -0.2107 -0.0000 -0.9775
vn -0.9773 -0.0000 0.2116
vn -0.8480 0.0244 -0.5295
vn 0.2109 -0.0000 0.9775
vn -0.5535 0.0264 0.8324
vn 0.9773 -0.0000 -0.2117
vn 0.8470 0.0067 0.5316
vn 0.5520 0.0077 -0.8338
vn -0.2376 0.0035 -0.9714
vn -0.9619 0.1763 0.2092
vn 0.1833 0.0123 0.9830
vn 0.9740 -0.0833 -0.2107
vn 0.6876 -0.5286 -0.4978
vn 0.9995 -0.0198 0.0227
vn 0.6771 0.6584 0.3287
vn -0.0133 0.8457 0.5335
vn -0.6980 0.4573 0.5510
vn -0.9982 -0.0214 0.0569
vn -0.7257 -0.6345 -0.2659
vn 0.0047 -0.8483 -0.5295
vn 0.7170 -0.6241 -0.3104
vn 0.9997 0.0214 0.0088
vn 0.6991 0.6352 0.3283
vn -0.0007 0.9523 0.3051
vn -0.6995 0.6310 0.3355
vn -0.9997 0.0225 0.0093
vn -0.7162 -0.6189 -0.3225
vn 0.0007 -0.9534 -0.3017
vn -0.0596 0.9850 0.1618
vn 0.0398 0.5950 0.8027
vn -0.0570 -0.1437 0.9880
vn 0.0091 -0.8087 0.5882
vn 0.1705 -0.9685 -0.1812
vn 0.0585 -0.5941 -0.8022
vn 0.1446 0.1111 -0.9832
vn 0.0070 0.8062 -0.5916
vn 0.0112 0.9877 0.1562
vn -0.0000 0.5929 0.8053
vn 0.0090 -0.1446 0.9894
vn -0.0000 -0.8056 0.5925
vn 0.0098 -0.9878 -0.1556
vn -0.0000 -0.5928 -0.8053
vn 0.0079 0.1453 -0.9894
vn -0.0000 0.8056 -0.5925
vn -0.0343 -0.7025 0.7108
vn -0.0343 0.7025 0.7108
vn 0.0103 -0.0000 0.9999
vn 0.0943 0.6868 -0.7207
vn 0.0029 1.0000 -0.0020
vn 0.0943 -0.6868 -0.7207
vn 0.0280 -0.0000 -0.9996
vn 0.0029 -1.0000 -0.0020
vn 0.0033 -0.7057 0.7085
vn 0.0033 0.7057 0.7085
vn -0.0000 -0.0000 1.0000
vn 0.0030 0.7058 -0.7084
vn -0.0000 1.0000 -0.0000
vn 0.0030 -0.7058 -0.7084
vn -0.0000 -0.0000 -1.0000
vn -0.0000 -1.0000 -0.0000
vn 0.0343 -0.7025 0.7108
vn -0.0103 -0.0000 0.9999
vn 0.0343 0.7025 0.7108
vn -0.0029 1.0000 -0.0020
vn -0.0943 0.6868 -0.7207
vn -0.0280 -0.0000 -0.9996
vn -0.0943 -0.6868 -0.7207
vn -0.0029 -1.0000 -0.0020
vn -0.0033 -0.7057 0.7085
vn -0.0033 0.7057 0.7085
vn -0.0030 0.7058 -0.7084
vn -0.0030 -0.7058 -0.7084
vn 0.0596 0.9850 0.1618
vn 0.0570 -0.1437 0.9880
vn -0.0398 0.5950 0.8027
vn -0.1705 -0.9685 -0.1812
vn -0.0091 -0.8087 0.5882
vn -0.1446 0.1111 -0.9832
vn -0.0585 -0.5941 -0.8022
vn -0.0070 0.8062 -0.5916
vn -0.0112 0.9877 0.1562
vn -0.0090 -0.1446 0.9894
vn -0.0098 -0.9878 -0.1556
vn -0.0079 0.1453 -0.9894
vn -1.0000 -0.0015 -0.0000
vn -0.0000 -1.0000 0.0092
vn 1.0000 -0.0015 -0.0000
vn -0.0000 1.0000 -0.0088
vn -1.0000 -0.0012 -0.0014
vn -0.0012 -1.0000 -0.0052
vn 1.0000 0.0011 -0.0013
vn 0.0011 1.0000 -0.0048
vn -0.9995 0.0145 0.0298
vn 0.0018 -0.9967 0.0811
vn 0.9989 0.0202 -0.0413
vn 0.0078 0.9924 -0.1227
vn -0.6172 -0.5393 -0.5729
vn -0.3163 -0.5662 0.7612
vn 0.5888 0.5262 0.6135
vn 0.2635 0.5656 -0.7814
vn -0.5445 -0.5682 -0.6170
vn -0.1149 -0.6472 0.7536
vn 0.6297 0.5035 0.5916
vn 0.1475 0.6662 -0.7311
vn -0.9999 -0.0130 0.0030
vn -0.0000 -0.9882 0.1532
vn 0.9999 -0.0130 0.0030
vn -0.0000 0.9916 -0.1294
vn -1.0000 -0.0021 0.0006
vn -0.0000 -0.9985 0.0550
vn 1.0000 -0.0021 0.0006
vn -0.0000 0.9988 -0.0487
vn -0.9817 0.0710 0.1768
vn 0.0617 -0.8239 0.5633
vn 0.9806 -0.0326 -0.1935
vn -0.0418 0.8440 -0.5347
vn -0.9775 0.0666 0.2003
vn 0.0795 -0.7620 0.6427
vn 0.9698 -0.0895 -0.2271
vn -0.0788 0.7649 -0.6393
vn -0.9333 0.1690 0.3168
vn 0.1112 -0.7888 0.6046
vn 0.8726 -0.2601 -0.4133
vn -0.0402 0.7625 -0.6457
vn 1.0000 -0.0012 -0.0014
vn 0.0012 -1.0000 -0.0052
vn -1.0000 0.0011 -0.0013
vn -0.0011 1.0000 -0.0048
vn 0.9995 0.0145 0.0298
vn -0.0018 -0.9967 0.0811
vn -0.9989 0.0202 -0.0412
vn -0.0078 0.9924 -0.1227
vn -0.9900 -0.0815 -0.1154
vn 0.0334 -0.7982 0.6015
vn 0.9718 0.1170 0.2047
vn 0.0338 0.8126 -0.5818
vn -0.9998 -0.0031 0.0189
vn 0.0035 -0.8904 0.4552
vn 0.9998 -0.0088 0.0196
vn -0.0038 0.8843 -0.4669
vn -1.0000 0.0015 -0.0000
vn -0.0000 1.0000 0.0092
vn 1.0000 0.0015 -0.0000
vn -0.0000 -1.0000 -0.0088
vn -1.0000 -0.0000 -0.0066
vn -0.0000 1.0000 -0.0010
vn 1.0000 -0.0000 -0.0060
vn -0.0000 -1.0000 -0.0010
vn -0.9991 -0.0000 0.0419
vn 0.0171 0.9998 -0.0084
vn 0.9884 -0.0000 -0.1519
vn 0.0171 -0.9998 -0.0084
vn -0.9999 0.0130 0.0030
vn -0.0000 0.9882 0.1532
vn 0.9999 0.0130 0.0030
vn -0.0000 -0.9916 -0.1294
vn -1.0000 0.0021 0.0006
vn -0.0000 0.9985 0.0550
vn 1.0000 0.0021 0.0006
vn -0.0000 -0.9988 -0.0487
vn 1.0000 -0.0000 -0.0066
vn -1.0000 -0.0000 -0.0060
vn 0.9991 -0.0000 0.0419
vn -0.0171 0.9998 -0.0084
vn -0.9884 -0.0000 -0.1519
vn -0.0171 -0.9998 -0.0084
vn -0.6839 -0.0000 0.7296
vn 0.0387 0.9984 -0.0405
vn 0.6943 -0.0000 -0.7196
vn 0.0387 -0.9984 -0.0405
vn -0.6172 0.5393 -0.5729
vn -0.3163 0.5662 0.7612
vn 0.5888 -0.5262 0.6135
vn 0.2635 -0.5656 -0.7814
vn -0.5445 0.5682 -0.6170
vn -0.1149 0.6472 0.7536
vn 0.6297 -0.5035 0.5916
vn 0.1475 -0.6662 -0.7311
vn 0.6172 -0.5393 -0.5729
vn 0.3163 -0.5662 0.7612
vn -0.5888 0.5262 0.6135
vn -0.2635 0.5656 -0.7814
vn 0.5445 -0.5682 -0.6170
vn 0.1149 -0.6472 0.7536
vn -0.6297 0.5035 0.5916
vn -0.1475 0.6662 -0.7311
vn -0.9900 0.0815 -0.1154
vn 0.0334 0.7982 0.6015
vn 0.9718 -0.1170 0.2047
vn 0.0338 -0.8126 -0.5818
vn -0.9998 0.0031 0.0189
vn 0.0035 0.8904 0.4552
vn 0.9998 0.0088 0.0196
vn -0.0038 -0.8843 -0.4669
vn 0.8490 -0.1191 -0.5147
vn 0.5592 -0.1269 0.8193
vn -0.8391 0.0692 0.5396
vn -0.5424 0.0721 -0.8370
vn 0.8443 -0.0000 -0.5358
vn 0.5477 -0.0000 0.8367
vn -0.8446 -0.0000 0.5354
vn -0.5482 -0.0000 -0.8364
vn 0.8490 0.1191 -0.5147
vn 0.5592 0.1269 0.8193
vn -0.8391 -0.0692 0.5396
vn -0.5424 -0.0721 -0.8370
vn 0.9817 0.0710 0.1768
vn -0.0617 -0.8239 0.5633
vn -0.9806 -0.0326 -0.1935
vn 0.0418 0.8440 -0.5347
vn 0.9775 0.0666 0.2003
vn -0.0795 -0.7620 0.6427
vn -0.9698 -0.0895 -0.2271
vn 0.0788 0.7649 -0.6393
vn 0.9333 0.1690 0.3168
vn -0.1112 -0.7888 0.6046
vn -0.8726 -0.2601 -0.4133
vn 0.0402 0.7625 -0.6457
vn 0.9900 -0.0815 -0.1154
vn -0.0334 -0.7982 0.6015
vn -0.9718 0.1170 0.2047
vn -0.0338 0.8126 -0.5818
vn 0.9998 -0.0031 0.0189
vn -0.0035 -0.8904 0.4552
vn -0.9998 -0.0088 0.0196
vn 0.0038 0.8843 -0.4669
vn 0.6839 -0.0000 0.7296
vn -0.0387 0.9984 -0.0405
vn -0.6943 -0.0000 -0.7196
vn -0.0387 -0.9984 -0.0405
vn 0.6172 0.5393 -0.5729
vn 0.3163 0.5662 0.7612
vn -0.5888 -0.5262 0.6135
vn -0.2635 -0.5656 -0.7814
vn 0.5445 0.5682 -0.6170
vn 0.1149 0.6472 0.7536
vn -0.6297 -0.5035 0.5916
vn -0.1475 -0.6662 -0.7311
vn -0.8490 -0.1191 -0.5147
vn -0.5592 -0.1269 0.8193
vn 0.8391 0.0692 0.5396
vn 0.5424 0.0721 -0.8370
vn -0.8443 -0.0000 -0.5358
vn -0.5477 -0.0000 0.8367
vn 0.8446 -0.0000 0.5354
vn 0.5482 -0.0000 -0.8364
vn -0.8490 0.1191 -0.5147
vn -0.5592 0.1269 0.8193
vn 0.8391 -0.0692 0.5396
vn 0.5424 -0.0721 -0.8370
vn 0.9900 0.0815 -0.1154
vn -0.0334 0.7982 0.6015
vn -0.9718 -0.1170 0.2047
vn -0.0338 -0.8126 -0.5818
vn 0.9998 0.0031 0.0189
vn -0.0035 0.8904 0.4552
vn -0.9998 0.0088 0.0196
vn 0.0038 -0.8843 -0.4669
vn -0.0559 0.5952 0.8016
vn 0.0258 -0.8228 0.5677
vn 0.2233 -0.5814 -0.7824
vn -0.0018 0.7923 -0.6102
vn 0.0167 0.5934 0.8047
vn 0.0026 -0.8059 0.5920
vn 0.0146 -0.5933 -0.8048
vn 0.0027 0.8061 -0.5918
vn -0.0361 -0.0000 0.9993
vn 0.0074 0.9999 -0.0150
vn 0.1363 -0.0000 -0.9907
vn 0.0074 -0.9999 -0.0150
vn 0.0055 -0.0000 1.0000
vn 0.0008 1.0000 -0.0000
vn 0.0050 -0.0000 -1.0000
vn 0.0008 -1.0000 -0.0000
vn 0.0361 -0.0000 0.9993
vn -0.0074 0.9999 -0.0150
vn -0.1363 -0.0000 -0.9907
vn -0.0074 -0.9999 -0.0150
vn -0.0055 -0.0000 1.0000
vn -0.0008 1.0000 -0.0000
vn -0.0050 -0.0000 -1.0000
vn -0.0008 -1.0000 -0.0000
vn 0.0559 0.5952 0.8016
vn -0.0258 -0.8228 0.5677
vn -0.2233 -0.5814 -0.7824
vn 0.0018 0.7923 -0.6102
vn -0.0167 0.5934 0.8047
vn -0.0026 -0.8059 0.5920
vn -0.0146 -0.5933 -0.8048
vn -0.0027 0.8061 -0.5918
s 1
f 105//97 234//216 697//635 233//215
f 234//216 106//98 235//217 697//635
f 697//635 235//217 2//2 236//218
f 233//215 697//635 236//218 1//1
f 106//98 237//219 698//636 235//217
f 237//219 107//99 238//220 698//636
f 698//636 238//220 3//3 239//221
f 235//217 698//636 239//221 2//2
f 107//99 240//222 699//637 238//220
f 240//222 108//100 241//223 699//637
f 699//637 241//223 4//4 242//224
f 238//220 699//637 242//224 3//3
f 108//100 243//225 700//638 241//223
f 243//225 105//97 233//215 700//638
f 700//638 233//215 1//1 244//226
f 241//223 700//638 244//226 4//4
f 109//101 246//228 701//639 245//227
f 246//228 110//102 247//229 701//639
f 701//639 247//229 106//98 234//216
f 245//227 701//639 234//216 105//97
f 110//102 248//230 702//640 247//229
f 248//230 111//103 249//231 702//640
f 702//640 249//231 107//99 237//219
f 247//229 702//640 237//219 106//98
f 111//103 250//232 703//641 249//231
f 250//232 112//104 251//233 703//641
f 703//641 251//233 108//100 240//222
f 249//231 703//641 240//222 107//99
f 112//104 252//234 704//642 251//233
f 252//234 109//101 245//227 704//642
f 704//642 245//227 105//97 243//225
f 251//233 704//642 243//225 108//100
f 5//5 254//236 705//643 253//235
f 254//236 6//6 255//237 705//643
f 705//643 255//237 110//102 246//228
f 253//235 705//643 246//228 109//101
f 6//6 256//238 706//644 255//237
f 256//238 7//7 257//239 706//644
f 706//644 257//239 111//103 248//230
f 255//237 706//644 248//230 110//102
f 7//7 258//240 707//645 257//239
f 258//240 8//8 259//241 707//645
f 707//645 259//241 112//104 250//232
f 257//239 707//645 250//232 111//103
f 8//8 260//242 708//646 259//241
f 260//242 5//5 253//235 708//646
f 708//646 253//235 109//101 252//234
f 259//241 708//646 252//234 112//104
f 113//105 262//244 709//647 261//243
f 262//244 114//106 263//245 709//647
f 709//647 263//245 10//10 264//246
f 261//243 709//647 264//246 9//9
f 114//106 265//247 710//648 263//245
f 265//247 115//107 266//248 710//648
f 710//648 266//248 11//11 267//249
f 263//245 710//648 267//249 10//10
f 115//107 268//250 711//649 266//248
f 268//250 116//108 269//251 711//649
f 711//649 269//251 12//12 270//252
f 266//248 711//649 270//252 11//11
f 116//108 271//253 712//650 269//251
f 271//253 113//105 261//243 712//650
f 712//650 261//243 9//9 272//254
f 269//251 712//650 272//254 12//12
f 13//13 274//256 713//651 273//255
f 274//256 14//14 275//257 713//651
f 713//651 275//257 114//106 262//244
f 273//255 713//651 262//244 113//105
f 14//14 276//258 714//652 275//257
f 276//258 15//15 277//259 714//652
f 714//652 277//259 115//107 265//247
f 275//257 714//652 265//247 114//106
f 15//15 278//260 715//653 277//259
f 278//260 16//16 279//261 715//653
f 715//653 279//261 116//108 268//250
f 277//259 715//653 268//250 115//107
f 16//16 280//262 716//654 279//261
f 280//262 13//13 273//255 716//654
f 716//654 273//255 113//105 271//253
f 279//261 716//654 271//253 116//108
f 117//109 282//264 717//655 281//263
f 282//264 118//110 283//265 717//655
f 717//655 283//265 30//26 284//266
f 281//263 717//655 284//266 29//25
f 118//110 285//267 718//656 283//265
f 285//267 119//111 286//268 718//656
f 718//656 286//268 31//27 287//269
f 283//265 718//656 287//269 30//26
f 119//111 288//270 719//657 286//268
f 288//270 120//112 289//271 719//657
f 719//657 289//271 32//28 290//272
f 286//268 719//657 290//272 31//27
f 120//112 291//273 720//658 289//271
f 291//273 117//109 281//263 720//658
f 720//658 281//263 29//25 292//274
f 289//271 720//658 292//274 32//28
f 1//1 236//218 721//659 293//275
f 236//218 2//2 294//276 721//659
f 721//659 294//276 118//110 282//264
f 293//275 721//659 282//264 117//109
f 2//2 239//221 722//660 294//276
f 239//221 3//3 295//277 722//660
f 722//660 295//277 119//111 285//267
f 294//276 722//660 285//267 118//110
f 3//3 242//224 723//661 295//277
f 242//224 4//4 296//278 723//661
f 723//661 296//278 120//112 288//270
f 295//277 723//661 288//270 119//111
f 4//4 244//226 724//662 296//278
f 244//226 1//1 293//275 724//662
f 724//662 293//275 117//109 291//273
f 296//278 724//662 291//273 120//112
f 121//113 298//280 725//663 297//279
f 298//280 122//114 299//281 725//663
f 725//663 299//281 6//6 254//236
f 297//279 725//663 254//236 5//5
f 122//114 300//282 726//664 299//281
f 300//282 123//115 301//283 726//664
f 726//664 301//283 7//7 256//238
f 299//281 726//664 256//238 6//6
f 123//115 302//284 727//665 301//283
f 302//284 124//116 303//285 727//665
f 727//665 303//285 8//8 258//240
f 301//283 727//665 258//240 7//7
f 124//116 304//286 728//666 303//285
f 304//286 121//113 297//279 728//666
f 728//666 297//279 5//5 260//242
f 303//285 728//666 260//242 8//8
f 125//117 306//288 729//667 305//287
f 306//288 126//118 307//289 729//667
f 729//667 307//289 122//114 298//280
f 305//287 729//667 298//280 121//113
f 126//118 308//290 730//668 307//289
f 308//290 127//119 309//291 730//668
f 730//668 309//291 123//115 300//282
f 307//289 730//668 300//282 122//114
f 127//119 310//292 731//669 309//291
f 310//292 128//120 311//293 731//669
f 731//669 311//293 124//116 302//284
f 309//291 731//669 302//284 123//115
f 128//120 312//294 732//670 311//293
f 312//294 125//117 305//287 732//670
f 732//670 305//287 121//113 304//286
f 311//293 732//670 304//286 124//116
f 21//21 314//296 733//671 313//295
f 314//296 22//22 315//297 733//671
f 733//671 315//297 126//118 306//288
f 313//295 733//671 306//288 125//117
f 22//22 316//298 734//672 315//297
f 316//298 23//23 317//299 734//672
f 734//672 317//299 127//119 308//290
f 315//297 734//672 308//290 126//118
f 23//23 318//300 735//673 317//299
f 318//300 24//24 319//301 735//673
f 735//673 319//301 128//120 310//292
f 317//299 735//673 310//292 127//119
f 24//24 320//302 736//674 319//301
f 320//302 21//21 313//295 736//674
f 736//674 313//295 125//117 312//294
f 319//301 736//674 312//294 128//120
f 25//4 322//224 737//637 321//223
f 322//224 26//3 323//220 737//637
f 737//637 323//220 130//122 324//303
f 321//223 737//637 324//303 129//121
f 26//3 325//221 738//636 323//220
f 325//221 27//2 326//217 738//636
f 738//636 326//217 131//123 327//304
f 323//220 738//636 327//304 130//122
f 27//2 328//218 739//635 326//217
f 328//218 28//1 329//215 739//635
f 739//635 329//215 132//124 330//305
f 326//217 739//635 330//305 131//123
f 28//1 331//226 740//638 329//215
f 331//226 25//4 321//223 740//638
f 740//638 321//223 129//121 332//306
f 329//215 740//638 332//306 132//124
f 129//121 324//303 741//675 333//307
f 324//303 130//122 334//308 741//675
f 741//675 334//308 134//126 335//309
f 333//307 741//675 335//309 133//125
f 130//122 327//304 742//676 334//308
f 327//304 131//123 336//310 742//676
f 742//676 336//310 135//127 337//311
f 334//308 742//676 337//311 134//126
f 131//123 330//305 743//677 336//310
f 330//305 132//124 338//312 743//677
f 743//677 338//312 136//128 339//313
f 336//310 743//677 339//313 135//127
f 132//124 332//306 744//678 338//312
f 332//306 129//121 333//307 744//678
f 744//678 333//307 133//125 340//314
f 338//312 744//678 340//314 136//128
f 133//125 335//309 745//679 341//315
f 335//309 134//126 342//316 745//679
f 745//679 342//316 50//46 343//317
f 341//315 745//679 343//317 49//45
f 134//126 337//311 746//680 342//316
f 337//311 135//127 344//318 746//680
f 746//680 344//318 51//47 345//319
f 342//316 746//680 345//319 50//46
f 135//127 339//313 747//681 344//318
f 339//313 136//128 346//320 747//681
f 747//681 346//320 52//48 347//321
f 344//318 747//681 347//321 51//47
f 136//128 340//314 748//682 346//320
f 340//314 133//125 341//315 748//682
f 748//682 341//315 49//45 348//322
f 346//320 748//682 348//322 52//48
f 137//129 350//324 749//683 349//323
f 350//324 138//130 351//325 749//683
f 749//683 351//325 14//14 274//256
f 349//323 749//683 274//256 13//13
f 138//130 352//326 750//684 351//325
f 352//326 139//131 353//327 750//684
f 750//684 353//327 15//15 276//258
f 351//325 750//684 276//258 14//14
f 139//131 354//328 751//685 353//327
f 354//328 140//132 355//329 751//685
f 751//685 355//329 16//16 278//260
f 353//327 751//685 278//260 15//15
f 140//132 356//330 752//686 355//329
f 356//330 137//129 349//323 752//686
f 752//686 349//323 13//13 280//262
f 355//329 752//686 280//262 16//16
f 29//25 284//266 753//687 357//331
f 284//266 30//26 358//332 753//687
f 753//687 358//332 138//130 350//324
f 357//331 753//687 350//324 137//129
f 30//26 287//269 754//688 358//332
f 287//269 31//27 359//333 754//688
f 754//688 359//333 139//131 352//326
f 358//332 754//688 352//326 138//130
f 31//27 290//272 755//689 359//333
f 290//272 32//28 360//334 755//689
f 755//689 360//334 140//132 354//328
f 359//333 755//689 354//328 139//131
f 32//28 292//274 756//690 360//334
f 292//274 29//25 357//331 756//690
f 756//690 357//331 137//129 356//330
f 360//334 756//690 356//330 140//132
f 17//17 362//336 757//691 361//335
f 362//336 18//18 363//337 757//691
f 757//691 363//337 142//134 364//338
f 361//335 757//691 364//338 141//133
f 18//18 365//339 758//692 363//337
f 365//339 19//19 366//340 758//692
f 758//692 366//340 143//135 367//341
f 363//337 758//692 367//341 142//134
f 19//19 368//342 759//693 366//340
f 368//342 20//20 369//343 759//693
f 759//693 369//343 144//136 370//344
f 366//340 759//693 370//344 143//135
f 20//20 371//345 760//694 369//343
f 371//345 17//17 361//335 760//694
f 760//694 361//335 141//133 372//346
f 369//343 760//694 372//346 144//136
f 141//133 364//338 761//695 373//347
f 364//338 142//134 374//348 761//695
f 761//695 374//348 146//138 375//349
f 373//347 761//695 375//349 145//137
f 142//134 367//341 762//696 374//348
f 367//341 143//135 376//350 762//696
f 762//696 376//350 147//139 377//351
f 374//348 762//696 377//351 146//138
f 143//135 370//344 763//697 376//350
f 370//344 144//136 378//352 763//697
f 763//697 378//352 148//140 379//353
f 376//350 763//697 379//353 147//139
f 144//136 372//346 764//698 378//352
f 372//346 141//133 373//347 764//698
f 764//698 373//347 145//137 380//354
f 378//352 764//698 380//354 148//140
f 145//137 375//349 765//699 381//355
f 375//349 146//138 382//356 765//699
f 765//699 382//356 34//30 383//357
f 381//355 765//699 383//357 33//29
f 146//138 377//351 766//700 382//356
f 377//351 147//139 384//358 766//700
f 766//700 384//358 35//31 385//359
f 382//356 766//700 385//359 34//30
f 147//139 379//353 767//701 384//358
f 379//353 148//140 386//360 767//701
f 767//701 386//360 36//32 387//361
f 384//358 767//701 387//361 35//31
f 148//140 380//354 768//702 386//360
f 380//354 145//137 381//355 768//702
f 768//702 381//355 33//29 388//362
f 386//360 768//702 388//362 36//32
f 61//57 390//364 769//703 389//363
f 390//364 62//58 391//365 769//703
f 769//703 391//365 150//142 392//366
f 389//363 769//703 392//366 149//141
f 62//58 393//367 770//704 391//365
f 393//367 63//59 394//368 770//704
f 770//704 394//368 151//143 395//369
f 391//365 770//704 395//369 150//142
f 63//59 396//370 771//705 394//368
f 396//370 64//60 397//371 771//705
f 771//705 397//371 152//144 398//372
f 394//368 771//705 398//372 151//143
f 64//60 399//373 772//706 397//371
f 399//373 61//57 389//363 772//706
f 772//706 389//363 149//141 400//374
f 397//371 772//706 400//374 152//144
f 149//141 392//366 773//707 401//375
f 392//366 150//142 402//376 773//707
f 773//707 402//376 18//18 362//336
f 401//375 773//707 362//336 17//17
f 150//142 395//369 774//708 402//376
f 395//369 151//143 403//377 774//708
f 774//708 403//377 19//19 365//339
f 402//376 774//708 365//339 18//18
f 151//143 398//372 775//709 403//377
f 398//372 152//144 404//378 775//709
f 775//709 404//378 20//20 368//342
f 403//377 775//709 368//342 19//19
f 152//144 400//374 776//710 404//378
f 400//374 149//141 401//375 776//710
f 776//710 401//375 17//17 371//345
f 404//378 776//710 371//345 20//20
f 153//145 406//344 777//693 405//343
f 406//344 154//135 407//340 777//693
f 777//693 407//340 66//19 408//342
f 405//343 777//693 408//342 65//20
f 154//135 409//341 778//692 407//340
f 409//341 155//134 410//337 778//692
f 778//692 410//337 67//18 411//339
f 407//340 778//692 411//339 66//19
f 155//134 412//338 779//691 410//337
f 412//338 156//146 413//335 779//691
f 779//691 413//335 68//17 414//336
f 410//337 779//691 414//336 67//18
f 156//146 415//346 780//694 413//335
f 415//346 153//145 405//343 780//694
f 780//694 405//343 65//20 416//345
f 413//335 780//694 416//345 68//17
f 157//147 418//380 781//711 417//379
f 418//380 158//148 419//381 781//711
f 781//711 419//381 154//135 406//344
f 417//379 781//711 406//344 153//145
f 158//148 420//382 782//696 419//381
f 420//382 159//149 421//383 782//696
f 782//696 421//383 155//134 409//341
f 419//381 782//696 409//341 154//135
f 159//149 422//384 783//712 421//383
f 422//384 160//150 423//385 783//712
f 783//712 423//385 156//146 412//338
f 421//383 783//712 412//338 155//134
f 160//150 424//386 784//698 423//385
f 424//386 157//147 417//379 784//698
f 784//698 417//379 153//145 415//346
f 423//385 784//698 415//346 156//146
f 77//69 426//388 785//713 425//387
f 426//388 78//70 427//389 785//713
f 785//713 427//389 158//148 418//380
f 425//387 785//713 418//380 157//147
f 78//70 428//390 786//714 427//389
f 428//390 79//71 429//391 786//714
f 786//714 429//391 159//149 420//382
f 427//389 786//714 420//382 158//148
f 79//71 430//392 787//715 429//391
f 430//392 80//72 431//393 787//715
f 787//715 431//393 160//150 422//384
f 429//391 787//715 422//384 159//149
f 80//72 432//394 788//716 431//393
f 432//394 77//69 425//387 788//716
f 788//716 425//387 157//147 424//386
f 431//393 788//716 424//386 160//150
f 33//29 383//357 789//717 433//395
f 383//357 34//30 434//396 789//717
f 789//717 434//396 46//42 435//397
f 433//395 789//717 435//397 45//41
f 34//30 385//359 790//718 434//396
f 385//359 35//31 436//398 790//718
f 790//718 436//398 47//43 437//399
f 434//396 790//718 437//399 46//42
f 35//31 387//361 791//719 436//398
f 387//361 36//32 438//400 791//719
f 791//719 438//400 48//44 439//401
f 436//398 791//719 439//401 47//43
f 36//32 388//362 792//720 438//400
f 388//362 33//29 433//395 792//720
f 792//720 433//395 45//41 440//402
f 438//400 792//720 440//402 48//44
f 37//33 442//404 793//721 441//403
f 442//404 38//34 443//405 793//721
f 793//721 443//405 162//152 444//406
f 441//403 793//721 444//406 161//151
f 38//34 445//407 794//722 443//405
f 445//407 39//35 446//408 794//722
f 794//722 446//408 163//153 447//409
f 443//405 794//722 447//409 162//152
f 39//35 448//410 795//723 446//408
f 448//410 40//36 449//411 795//723
f 795//723 449//411 164//154 450//412
f 446//408 795//723 450//412 163//153
f 40//36 451//413 796//724 449//411
f 451//413 37//33 441//403 796//724
f 796//724 441//403 161//151 452//414
f 449//411 796//724 452//414 164//154
f 161//151 444//406 797//725 453//415
f 444//406 162//152 454//416 797//725
f 797//725 454//416 42//38 455//417
f 453//415 797//725 455//417 41//37
f 162//152 447//409 798//726 454//416
f 447//409 163//153 456//418 798//726
f 798//726 456//418 43//39 457//419
f 454//416 798//726 457//419 42//38
f 163//153 450//412 799//727 456//418
f 450//412 164//154 458//420 799//727
f 799//727 458//420 44//40 459//421
f 456//418 799//727 459//421 43//39
f 164//154 452//414 800//728 458//420
f 452//414 161//151 453//415 800//728
f 800//728 453//415 41//37 460//422
f 458//420 800//728 460//422 44//40
f 53//49 462//424 801//729 461//423
f 462//424 54//50 463//425 801//729
f 801//729 463//425 166//156 464//426
f 461//423 801//729 464//426 165//155
f 54//50 465//427 802//730 463//425
f 465//427 55//51 466//428 802//730
f 802//730 466//428 167//157 467//429
f 463//425 802//730 467//429 166//156
f 55//51 468//430 803//731 466//428
f 468//430 56//52 469//431 803//731
f 803//731 469//431 168//158 470//432
f 466//428 803//731 470//432 167//157
f 56//52 471//433 804//732 469//431
f 471//433 53//49 461//423 804//732
f 804//732 461//423 165//155 472//434
f 469//431 804//732 472//434 168//158
f 165//155 464//426 805//733 473//435
f 464//426 166//156 474//436 805//733
f 805//733 474//436 58//54 475//437
f 473//435 805//733 475//437 57//53
f 166//156 467//429 806//734 474//436
f 467//429 167//157 476//438 806//734
f 806//734 476//438 59//55 477//439
f 474//436 806//734 477//439 58//54
f 167//157 470//432 807//735 476//438
f 470//432 168//158 478//440 807//735
f 807//735 478//440 60//56 479//441
f 476//438 807//735 479//441 59//55
f 168//158 472//434 808//736 478//440
f 472//434 165//155 473//435 808//736
f 808//736 473//435 57//53 480//442
f 478//440 808//736 480//442 60//56
f 41//37 455//417 809//737 481//443
f 455//417 42//38 482//444 809//737
f 809//737 482//444 170//160 483//445
f 481//443 809//737 483//445 169//159
f 42//38 457//419 810//738 482//444
f 457//419 43//39 484//446 810//738
f 810//738 484//446 171//161 485//447
f 482//444 810//738 485//447 170//160
f 43//39 459//421 811//739 484//446
f 459//421 44//40 486//448 811//739
f 811//739 486//448 172//162 487//449
f 484//446 811//739 487//449 171//161
f 44//40 460//422 812//740 486//448
f 460//422 41//37 481//443 812//740
f 812//740 481//443 169//159 488//450
f 486//448 812//740 488//450 172//162
f 169//159 483//445 813//741 489//451
f 483//445 170//160 490//452 813//741
f 813//741 490//452 62//58 390//364
f 489//451 813//741 390//364 61//57
f 170//160 485//447 814//742 490//452
f 485//447 171//161 491//453 814//742
f 814//742 491//453 63//59 393//367
f 490//452 814//742 393//367 62//58
f 171//161 487//449 815//743 491//453
f 487//449 172//162 492//454 815//743
f 815//743 492//454 64//60 396//370
f 491//453 815//743 396//370 63//59
f 172//162 488//450 816//744 492//454
f 488//450 169//159 489//451 816//744
f 816//744 489//451 61//57 399//373
f 492//454 816//744 399//373 64//60
f 173//163 494//456 817//745 493//455
f 494//456 174//164 495//457 817//745
f 817//745 495//457 54//50 462//424
f 493//455 817//745 462//424 53//49
f 174//164 496//458 818//746 495//457
f 496//458 175//165 497//459 818//746
f 818//746 497//459 55//51 465//427
f 495//457 818//746 465//427 54//50
f 175//165 498//460 819//747 497//459
f 498//460 176//166 499//461 819//747
f 819//747 499//461 56//52 468//430
f 497//459 819//747 468//430 55//51
f 176//166 500//462 820//748 499//461
f 500//462 173//163 493//455 820//748
f 820//748 493//455 53//49 471//433
f 499//461 820//748 471//433 56//52
f 177//167 502//464 821//749 501//463
f 502//464 178//168 503//465 821//749
f 821//749 503//465 174//164 494//456
f 501//463 821//749 494//456 173//163
f 178//168 504//466 822//750 503//465
f 504//466 179//169 505//467 822//750
f 822//750 505//467 175//165 496//458
f 503//465 822//750 496//458 174//164
f 179//169 506//468 823//751 505//467
f 506//468 180//170 507//469 823//751
f 823//751 507//469 176//166 498//460
f 505//467 823//751 498//460 175//165
f 180//170 508//470 824//752 507//469
f 508//470 177//167 501//463 824//752
f 824//752 501//463 173//163 500//462
f 507//469 824//752 500//462 176//166
f 81//73 510//472 825//753 509//471
f 510//472 82//74 511//473 825//753
f 825//753 511//473 178//168 502//464
f 509//471 825//753 502//464 177//167
f 82//74 512//474 826//754 511//473
f 512//474 83//75 513//475 826//754
f 826//754 513//475 179//169 504//466
f 511//473 826//754 504//466 178//168
f 83//75 514//476 827//755 513//475
f 514//476 84//76 515//477 827//755
f 827//755 515//477 180//170 506//468
f 513//475 827//755 506//468 179//169
f 84//76 516//478 828//756 515//477
f 516//478 81//73 509//471 828//756
f 828//756 509//471 177//167 508//470
f 515//477 828//756 508//470 180//170
f 49//45 343//317 829//757 517//479
f 343//317 50//46 518//480 829//757
f 829//757 518//480 182//172 519//481
f 517//479 829//757 519//481 181//171
f 50//46 345//319 830//758 518//480
f 345//319 51//47 520//482 830//758
f 830//758 520//482 183//173 521//483
f 518//480 830//758 521//483 182//172
f 51//47 347//321 831//759 520//482
f 347//321 52//48 522//484 831//759
f 831//759 522//484 184//174 523//485
f 520//482 831//759 523//485 183//173
f 52//48 348//322 832//760 522//484
f 348//322 49//45 517//479 832//760
f 832//760 517//479 181//171 524//486
f 522//484 832//760 524//486 184//174
f 181//171 519//481 833//761 525//487
f 519//481 182//172 526//488 833//761
f 833//761 526//488 186//176 527//489
f 525//487 833//761 527//489 185//175
f 182//172 521//483 834//762 526//488
f 521//483 183//173 528//490 834//762
f 834//762 528//490 187//177 529//491
f 526//488 834//762 529//491 186//176
f 183//173 523//485 835//763 528//490
f 523//485 184//174 530//492 835//763
f 835//763 530//492 188//178 531//493
f 528//490 835//763 531//493 187//177
f 184//174 524//486 836//764 530//492
f 524//486 181//171 525//487 836//764
f 836//764 525//487 185//175 532//494
f 530//492 836//764 532//494 188//178
f 185//175 527//489 837//765 533//495
f 527//489 186//176 534//496 837//765
f 837//765 534//496 70//62 535//497
f 533//495 837//765 535//497 69//61
f 186//176 529//491 838//766 534//496
f 529//491 187//177 536//498 838//766
f 838//766 536//498 71//63 537//499
f 534//496 838//766 537//499 70//62
f 187//177 531//493 839//767 536//498
f 531//493 188//178 538//500 839//767
f 839//767 538//500 72//64 539//501
f 536//498 839//767 539//501 71//63
f 188//178 532//494 840//768 538//500
f 532//494 185//175 533//495 840//768
f 840//768 533//495 69//61 540//502
f 538//500 840//768 540//502 72//64
f 57//53 475//437 841//769 541//503
f 475//437 58//54 542//504 841//769
f 841//769 542//504 190//180 543//505
f 541//503 841//769 543//505 189//179
f 58//54 477//439 842//770 542//504
f 477//439 59//55 544//506 842//770
f 842//770 544//506 191//181 545//507
f 542//504 842//770 545//507 190//180
f 59//55 479//441 843//771 544//506
f 479//441 60//56 546//508 843//771
f 843//771 546//508 192//182 547//509
f 544//506 843//771 547//509 191//181
f 60//56 480//442 844//772 546//508
f 480//442 57//53 541//503 844//772
f 844//772 541//503 189//179 548//510
f 546//508 844//772 548//510 192//182
f 189//179 543//505 845//773 549//511
f 543//505 190//180 550//512 845//773
f 845//773 550//512 74//66 551//513
f 549//511 845//773 551//513 73//65
f 190//180 545//507 846//774 550//512
f 545//507 191//181 552//514 846//774
f 846//774 552//514 75//67 553//515
f 550//512 846//774 553//515 74//66
f 191//181 547//509 847//775 552//514
f 547//509 192//182 554//516 847//775
f 847//775 554//516 76//68 555//517
f 552//514 847//775 555//517 75//67
f 192//182 548//510 848//776 554//516
f 548//510 189//179 549//511 848//776
f 848//776 549//511 73//65 556//518
f 554//516 848//776 556//518 76//68
f 89//81 558//520 849//777 557//519
f 558//520 90//82 559//521 849//777
f 849//777 559//521 78//70 426//388
f 557//519 849//777 426//388 77//69
f 90//82 560//522 850//778 559//521
f 560//522 91//83 561//523 850//778
f 850//778 561//523 79//71 428//390
f 559//521 850//778 428//390 78//70
f 91//83 562//524 851//779 561//523
f 562//524 92//84 563//525 851//779
f 851//779 563//525 80//72 430//392
f 561//523 851//779 430//392 79//71
f 92//84 564//526 852//780 563//525
f 564//526 89//81 557//519 852//780
f 852//780 557//519 77//69 432//394
f 563//525 852//780 432//394 80//72
f 193//183 566//528 853//781 565//527
f 566//528 194//184 567//529 853//781
f 853//781 567//529 82//74 510//472
f 565//527 853//781 510//472 81//73
f 194//184 568//530 854//782 567//529
f 568//530 195//185 569//531 854//782
f 854//782 569//531 83//75 512//474
f 567//529 854//782 512//474 82//74
f 195//185 570//532 855//783 569//531
f 570//532 196//186 571//533 855//783
f 855//783 571//533 84//76 514//476
f 569//531 855//783 514//476 83//75
f 196//186 572//534 856//784 571//533
f 572//534 193//183 565//527 856//784
f 856//784 565//527 81//73 516//478
f 571//533 856//784 516//478 84//76
f 85//77 574//536 857//785 573//535
f 574//536 86//78 575//537 857//785
f 857//785 575//537 194//184 566//528
f 573//535 857//785 566//528 193//183
f 86//78 576//538 858//786 575//537
f 576//538 87//79 577//539 858//786
f 858//786 577//539 195//185 568//530
f 575//537 858//786 568//530 194//184
f 87//79 578//540 859//787 577//539
f 578//540 88//80 579//541 859//787
f 859//787 579//541 196//186 570//532
f 577//539 859//787 570//532 195//185
f 88//80 580//542 860//788 579//541
f 580//542 85//77 573//535 860//788
f 860//788 573//535 193//183 572//534
f 579//541 860//788 572//534 196//186
f 9//9 264//246 861//789 581//543
f 264//246 10//10 582//544 861//789
f 861//789 582//544 198//188 583//545
f 581//543 861//789 583//545 197//187
f 10//10 267//249 862//790 582//544
f 267//249 11//11 584//546 862//790
f 862//790 584//546 199//189 585//547
f 582//544 862//790 585//547 198//188
f 11//11 270//252 863//791 584//546
f 270//252 12//12 586//548 863//791
f 863//791 586//548 200//190 587//549
f 584//546 863//791 587//549 199//189
f 12//12 272//254 864//792 586//548
f 272//254 9//9 581//543 864//792
f 864//792 581//543 197//187 588//550
f 586//548 864//792 588//550 200//190
f 197//187 583//545 865//793 589//551
f 583//545 198//188 590//552 865//793
f 865//793 590//552 202//192 591//553
f 589//551 865//793 591//553 201//191
f 198//188 585//547 866//794 590//552
f 585//547 199//189 592//554 866//794
f 866//794 592//554 203//193 593//555
f 590//552 866//794 593//555 202//192
f 199//189 587//549 867//795 592//554
f 587//549 200//190 594//556 867//795
f 867//795 594//556 204//194 595//557
f 592//554 867//795 595//557 203//193
f 200//190 588//550 868//796 594//556
f 588//550 197//187 589//551 868//796
f 868//796 589//551 201//191 596//558
f 594//556 868//796 596//558 204//194
f 201//191 591//553 869//797 597//559
f 591//553 202//192 598//560 869//797
f 869//797 598//560 38//34 442//404
f 597//559 869//797 442//404 37//33
f 202//192 593//555 870//798 598//560
f 593//555 203//193 599//561 870//798
f 870//798 599//561 39//35 445//407
f 598//560 870//798 445//407 38//34
f 203//193 595//557 871//799 599//561
f 595//557 204//194 600//562 871//799
f 871//799 600//562 40//36 448//410
f 599//561 871//799 448//410 39//35
f 204//194 596//558 872//800 600//562
f 596//558 201//191 597//559 872//800
f 872//800 597//559 37//33 451//413
f 600//562 872//800 451//413 40//36
f 205//195 602//564 873//801 601//563
f 602//564 206//196 603//565 873//801
f 873//801 603//565 86//78 574//536
f 601//563 873//801 574//536 85//77
f 206//196 604//566 874//802 603//565
f 604//566 207//197 605//567 874//802
f 874//802 605//567 87//79 576//538
f 603//565 874//802 576//538 86//78
f 207//197 606//568 875//803 605//567
f 606//568 208//198 607//569 875//803
f 875//803 607//569 88//80 578//540
f 605//567 875//803 578//540 87//79
f 208//198 608//570 876//804 607//569
f 608//570 205//195 601//563 876//804
f 876//804 601//563 85//77 580//542
f 607//569 876//804 580//542 88//80
f 93//85 610//572 877//805 609//571
f 610//572 94//86 611//573 877//805
f 877//805 611//573 206//196 602//564
f 609//571 877//805 602//564 205//195
f 94//86 612//574 878//806 611//573
f 612//574 95//87 613//575 878//806
f 878//806 613//575 207//197 604//566
f 611//573 878//806 604//566 206//196
f 95//87 614//576 879//807 613//575
f 614//576 96//88 615//577 879//807
f 879//807 615//577 208//198 606//568
f 613//575 879//807 606//568 207//197
f 96//88 616//578 880//808 615//577
f 616//578 93//85 609//571 880//808
f 880//808 609//571 205//195 608//570
f 615//577 880//808 608//570 208//198
f 209//144 618//372 881//705 617//371
f 618//372 210//143 619//368 881//705
f 881//705 619//368 94//86 610//572
f 617//371 881//705 610//572 93//85
f 210//143 620//369 882//704 619//368
f 620//369 211//142 621//365 882//704
f 882//704 621//365 95//87 612//574
f 619//368 882//704 612//574 94//86
f 211//142 622//366 883//703 621//365
f 622//366 212//141 623//363 883//703
f 883//703 623//363 96//88 614//576
f 621//365 883//703 614//576 95//87
f 212//141 624//374 884//706 623//363
f 624//374 209//144 617//371 884//706
f 884//706 617//371 93//85 616//578
f 623//363 884//706 616//578 96//88
f 65//20 408//342 885//709 625//378
f 408//342 66//19 626//377 885//709
f 885//709 626//377 210//143 618//372
f 625//378 885//709 618//372 209//144
f 66//19 411//339 886//708 626//377
f 411//339 67//18 627//376 886//708
f 886//708 627//376 211//142 620//369
f 626//377 886//708 620//369 210//143
f 67//18 414//336 887//707 627//376
f 414//336 68//17 628//375 887//707
f 887//707 628//375 212//141 622//366
f 627//376 887//707 622//366 211//142
f 68//17 416//345 888//710 628//375
f 416//345 65//20 625//378 888//710
f 888//710 625//378 209//144 624//374
f 628//375 888//710 624//374 212//141
f 73//65 551//513 889//657 629//271
f 551//513 74//66 630//268 889//657
f 889//657 630//268 214//111 631//270
f 629//271 889//657 631//270 213//112
f 74//66 553//515 890//656 630//268
f 553//515 75//67 632//265 890//656
f 890//656 632//265 215//110 633//267
f 630//268 890//656 633//267 214//111
f 75//67 555//517 891//655 632//265
f 555//517 76//68 634//263 891//655
f 891//655 634//263 216//109 635//264
f 632//265 891//655 635//264 215//110
f 76//68 556//518 892//658 634//263
f 556//518 73//65 629//271 892//658
f 892//658 629//271 213//112 636//273
f 634//263 892//658 636//273 216//109
f 213//112 631//270 893//661 637//278
f 631//270 214//111 638//277 893//661
f 893//661 638//277 26//3 322//224
f 637//278 893//661 322//224 25//4
f 214//111 633//267 894//660 638//277
f 633//267 215//110 639//276 894//660
f 894//660 639//276 27//2 325//221
f 638//277 894//660 325//221 26//3
f 215//110 635//264 895//659 639//276
f 635//264 216//109 640//275 895//659
f 895//659 640//275 28//1 328//218
f 639//276 895//659 328//218 27//2
f 216//109 636//273 896//662 640//275
f 636//273 213//112 637//278 896//662
f 896//662 637//278 25//4 331//226
f 640//275 896//662 331//226 28//1
f 217//199 642//580 897//809 641//579
f 642//580 218//200 643//581 897//809
f 897//809 643//581 22//22 314//296
f 641//579 897//809 314//296 21//21
f 218//200 644//582 898//810 643//581
f 644//582 219//201 645//583 898//810
f 898//810 645//583 23//23 316//298
f 643//581 898//810 316//298 22//22
f 219//201 646//584 899//811 645//583
f 646//584 220//202 647//585 899//811
f 899//811 647//585 24//24 318//300
f 645//583 899//811 318//300 23//23
f 220//202 648//586 900//812 647//585
f 648//586 217//199 641//579 900//812
f 900//812 641//579 21//21 320//302
f 647//585 900//812 320//302 24//24
f 97//89 650//588 901//813 649//587
f 650//588 98//90 651//589 901//813
f 901//813 651//589 218//200 642//580
f 649//587 901//813 642//580 217//199
f 98//90 652//590 902//814 651//589
f 652//590 99//91 653//591 902//814
f 902//814 653//591 219//201 644//582
f 651//589 902//814 644//582 218//200
f 99//91 654//592 903//815 653//591
f 654//592 100//92 655//593 903//815
f 903//815 655//593 220//202 646//584
f 653//591 903//815 646//584 219//201
f 100//92 656//594 904//816 655//593
f 656//594 97//89 649//587 904//816
f 904//816 649//587 217//199 648//586
f 655//593 904//816 648//586 220//202
f 45//41 435//397 905//817 657//595
f 435//397 46//42 658//596 905//817
f 905//817 658//596 222//204 659//597
f 657//595 905//817 659//597 221//203
f 46//42 437//399 906//818 658//596
f 437//399 47//43 660//598 906//818
f 906//818 660//598 223//205 661//599
f 658//596 906//818 661//599 222//204
f 47//43 439//401 907//819 660//598
f 439//401 48//44 662//600 907//819
f 907//819 662//600 224//206 663//601
f 660//598 907//819 663//601 223//205
f 48//44 440//402 908//820 662//600
f 440//402 45//41 657//595 908//820
f 908//820 657//595 221//203 664//602
f 662//600 908//820 664//602 224//206
f 221//203 659//597 909//821 665//603
f 659//597 222//204 666//604 909//821
f 909//821 666//604 102//94 667//605
f 665//603 909//821 667//605 101//93
f 222//204 661//599 910//822 666//604
f 661//599 223//205 668//606 910//822
f 910//822 668//606 103//95 669//607
f 666//604 910//822 669//607 102//94
f 223//205 663//601 911//823 668//606
f 663//601 224//206 670//608 911//823
f 911//823 670//608 104//96 671//609
f 668//606 911//823 671//609 103//95
f 224//206 664//602 912//824 670//608
f 664//602 221//203 665//603 912//824
f 912//824 665//603 101//93 672//610
f 670//608 912//824 672//610 104//96
f 225//207 674//612 913//825 673//611
f 674//612 226//208 675//613 913//825
f 913//825 675//613 90//82 558//520
f 673//611 913//825 558//520 89//81
f 226//208 676//614 914//826 675//613
f 676//614 227//209 677//615 914//826
f 914//826 677//615 91//83 560//522
f 675//613 914//826 560//522 90//82
f 227//209 678//616 915//827 677//615
f 678//616 228//210 679//617 915//827
f 915//827 679//617 92//84 562//524
f 677//615 915//827 562//524 91//83
f 228//210 680//618 916//828 679//617
f 680//618 225//207 673//611 916//828
f 916//828 673//611 89//81 564//526
f 679//617 916//828 564//526 92//84
f 101//93 667//605 917//829 681//619
f 667//605 102//94 682//620 917//829
f 917//829 682//620 226//208 674//612
f 681//619 917//829 674//612 225//207
f 102//94 669//607 918//830 682//620
f 669//607 103//95 683//621 918//830
f 918//830 683//621 227//209 676//614
f 682//620 918//830 676//614 226//208
f 103//95 671//609 919//831 683//621
f 671//609 104//96 684//622 919//831
f 919//831 684//622 228//210 678//616
f 683//621 919//831 678//616 227//209
f 104//96 672//610 920//832 684//622
f 672//610 101//93 681//619 920//832
f 920//832 681//619 225//207 680//618
f 684//622 920//832 680//618 228//210
f 69//61 535//497 921//833 685//623
f 535//497 70//62 686//624 921//833
f 921//833 686//624 230//212 687//625
f 685//623 921//833 687//625 229//211
f 70//62 537//499 922//834 686//624
f 537//499 71//63 688//626 922//834
f 922//834 688//626 231//213 689//627
f 686//624 922//834 689//627 230//212
f 71//63 539//501 923//835 688//626
f 539//501 72//64 690//628 923//835
f 923//835 690//628 232//214 691//629
f 688//626 923//835 691//629 231//213
f 72//64 540//502 924//836 690//628
f 540//502 69//61 685//623 924//836
f 924//836 685//623 229//211 692//630
f 690//628 924//836 692//630 232//214
f 229//211 687//625 925//837 693//631
f 687//625 230//212 694//632 925//837
f 925//837 694//632 98//90 650//588
f 693//631 925//837 650//588 97//89
f 230//212 689//627 926//838 694//632
f 689//627 231//213 695//633 926//838
f 926//838 695//633 99//91 652//590
f 694//632 926//838 652//590 98//90
f 231//213 691//629 927//839 695//633
f 691//629 232//214 696//634 927//839
f 927//839 696//634 100//92 654//592
f 695//633 927//839 654//592 99//91
f 232//214 692//630 928//840 696//634
f 692//630 229//211 693//631 928//840
f 928//840 693//631 97//89 656//594
f 696//634 928//840 656//594 100//92
