# Blender 5.1.0
# www.blender.org
mtllib Lights.mtl
o Cube.006
v -0.432724 1.288990 -0.839769
v -0.443853 1.387756 -0.839769
v -0.399897 1.195176 -0.839769
v -0.347018 1.111019 -0.839769
v -0.276738 1.040739 -0.839769
v -0.192580 0.987859 -0.839769
v -0.098766 0.955032 -0.839769
v 0.000000 0.943904 -0.839769
v 0.098766 0.955032 -0.839769
v 0.192580 0.987859 -0.839769
v 0.276738 1.040739 -0.839769
v 0.347018 1.111019 -0.839769
v 0.399897 1.195176 -0.839769
v 0.432724 1.288990 -0.839769
v 0.443852 1.387757 -0.839769
v -0.432724 1.486523 -0.839769
v -0.399897 1.580337 -0.839769
v -0.347018 1.664494 -0.839769
v -0.276738 1.734775 -0.839769
v -0.192581 1.787654 -0.839769
v -0.098767 1.820481 -0.839769
v -0.000000 1.831609 -0.839769
v 0.098766 1.820481 -0.839769
v 0.192580 1.787654 -0.839769
v 0.276737 1.734775 -0.839769
v 0.347018 1.664494 -0.839769
v 0.399897 1.580337 -0.839769
v 0.432724 1.486523 -0.839769
v -0.715796 1.224381 -0.743985
v -0.734204 1.387756 -0.743985
v -0.661495 1.069197 -0.743985
v -0.574024 0.929988 -0.743985
v -0.457769 0.813733 -0.743985
v -0.318559 0.726261 -0.743985
v -0.163376 0.671960 -0.743985
v 0.000000 0.653552 -0.743985
v 0.163376 0.671960 -0.743985
v 0.318559 0.726262 -0.743985
v 0.457769 0.813733 -0.743985
v 0.574024 0.929988 -0.743985
v 0.661495 1.069197 -0.743985
v 0.715796 1.224381 -0.743985
v 0.734204 1.387757 -0.743985
v -0.715796 1.551132 -0.743985
v -0.661495 1.706316 -0.743985
v -0.574024 1.845526 -0.743985
v -0.457769 1.961781 -0.743985
v -0.318559 2.049252 -0.743985
v -0.163376 2.103553 -0.743985
v -0.000000 2.121961 -0.743985
v 0.163376 2.103553 -0.743985
v 0.318559 2.049252 -0.743985
v 0.457769 1.961781 -0.743985
v 0.574024 1.845526 -0.743985
v 0.661495 1.706316 -0.743985
v 0.715796 1.551133 -0.743985
vn -0.1654 -0.0378 -0.9855
vn -0.1697 -0.0000 -0.9855
vn -0.1529 -0.0736 -0.9855
vn -0.1326 -0.1058 -0.9855
vn -0.1058 -0.1326 -0.9855
vn -0.0736 -0.1529 -0.9855
vn -0.0378 -0.1654 -0.9855
vn -0.0000 -0.1697 -0.9855
vn 0.0378 -0.1654 -0.9855
vn 0.0736 -0.1529 -0.9855
vn 0.1058 -0.1326 -0.9855
vn 0.1326 -0.1058 -0.9855
vn 0.1529 -0.0736 -0.9855
vn 0.1654 -0.0378 -0.9855
vn 0.1697 -0.0000 -0.9855
vn -0.1654 0.0378 -0.9855
vn -0.1529 0.0736 -0.9855
vn -0.1326 0.1058 -0.9855
vn -0.1058 0.1326 -0.9855
vn -0.0736 0.1529 -0.9855
vn -0.0378 0.1654 -0.9855
vn -0.0000 0.1697 -0.9855
vn 0.0378 0.1654 -0.9855
vn 0.0736 0.1529 -0.9855
vn 0.1058 0.1326 -0.9855
vn 0.1326 0.1058 -0.9855
vn 0.1529 0.0736 -0.9855
vn 0.1654 0.0378 -0.9855
vn -0.3054 -0.0697 -0.9497
vn -0.3133 -0.0000 -0.9497
vn -0.2823 -0.1359 -0.9497
vn -0.2449 -0.1953 -0.9497
vn -0.1953 -0.2449 -0.9497
vn -0.1359 -0.2823 -0.9497
vn -0.0697 -0.3054 -0.9497
vn -0.0000 -0.3133 -0.9497
vn 0.0697 -0.3054 -0.9497
vn 0.1359 -0.2823 -0.9497
vn 0.1953 -0.2449 -0.9497
vn 0.2449 -0.1953 -0.9497
vn 0.2823 -0.1359 -0.9497
vn 0.3054 -0.0697 -0.9497
vn 0.3133 -0.0000 -0.9497
vn -0.3054 0.0697 -0.9497
vn -0.2823 0.1359 -0.9497
vn -0.2449 0.1953 -0.9497
vn -0.1953 0.2449 -0.9497
vn -0.1359 0.2823 -0.9497
vn -0.0697 0.3054 -0.9497
vn -0.0000 0.3133 -0.9497
vn 0.0697 0.3054 -0.9497
vn 0.1359 0.2823 -0.9497
vn 0.1953 0.2449 -0.9497
vn 0.2449 0.1953 -0.9497
vn 0.2823 0.1359 -0.9497
vn 0.3054 0.0697 -0.9497
vt 0.722242 0.322764
vt 0.867624 0.206823
vt 0.923645 0.295978
vt 0.756108 0.376661
vt 0.222866 0.436749
vt 0.041575 0.395373
vt 0.076351 0.295987
vt 0.243889 0.376667
vt 0.277754 0.322769
vt 0.132370 0.206831
vt 0.206823 0.132376
vt 0.322764 0.277758
vt 0.376661 0.243892
vt 0.295978 0.076355
vt 0.395363 0.041578
vt 0.436743 0.222867
vt 0.499997 0.215740
vt 0.499995 0.029787
vt 0.604627 0.041575
vt 0.563251 0.222866
vt 0.623333 0.243889
vt 0.704013 0.076351
vt 0.793169 0.132370
vt 0.677231 0.277754
vt 0.777133 0.436743
vt 0.958422 0.395363
vt 0.970213 0.499995
vt 0.784260 0.499997
vt 0.215740 0.500003
vt 0.222867 0.563257
vt 0.041578 0.604637
vt 0.029787 0.500005
vt 0.243892 0.623339
vt 0.076355 0.704022
vt 0.277758 0.677236
vt 0.132376 0.793177
vt 0.322769 0.722246
vt 0.206831 0.867630
vt 0.376667 0.756111
vt 0.295987 0.923649
vt 0.436749 0.777134
vt 0.395373 0.958425
vt 0.500003 0.784260
vt 0.500005 0.970213
vt 0.563257 0.777133
vt 0.604637 0.958422
vt 0.623339 0.756108
vt 0.704022 0.923645
vt 0.677236 0.722242
vt 0.793177 0.867624
vt 0.722245 0.677231
vt 0.867630 0.793169
vt 0.756111 0.623333
vt 0.923649 0.704013
vt 0.777134 0.563251
vt 0.958425 0.604627
s 1
usemtl 
f 26/1/26 54/2/54 55/3/55 27/4/27
f 16/5/16 44/6/44 45/7/45 17/8/17
f 18/9/18 46/10/46 47/11/47 19/12/19
f 20/13/20 48/14/48 49/15/49 21/16/21
f 22/17/22 50/18/50 51/19/51 23/20/23
f 24/21/24 52/22/52 53/23/53 25/24/25
f 28/25/28 56/26/56 43/27/43 15/28/15
f 2/29/2 1/30/1 29/31/29 30/32/30
f 1/30/1 3/33/3 31/34/31 29/31/29
f 3/33/3 4/35/4 32/36/32 31/34/31
f 4/35/4 5/37/5 33/38/33 32/36/32
f 5/37/5 6/39/6 34/40/34 33/38/33
f 6/39/6 7/41/7 35/42/35 34/40/34
f 7/41/7 8/43/8 36/44/36 35/42/35
f 8/43/8 9/45/9 37/46/37 36/44/36
f 9/45/9 10/47/10 38/48/38 37/46/37
f 10/47/10 11/49/11 39/50/39 38/48/38
f 11/49/11 12/51/12 40/52/40 39/50/39
f 12/51/12 13/53/13 41/54/41 40/52/40
f 13/53/13 14/55/14 42/56/42 41/54/41
f 14/55/14 15/28/15 43/27/43 42/56/42
f 2/29/2 30/32/30 44/6/44 16/5/16
f 17/8/17 45/7/45 46/10/46 18/9/18
f 19/12/19 47/11/47 48/14/48 20/13/20
f 21/16/21 49/15/49 50/18/50 22/17/22
f 23/20/23 51/19/51 52/22/52 24/21/24
f 25/24/25 53/23/53 54/2/54 26/1/26
f 27/4/27 55/3/55 56/26/56 28/25/28
f 1/30/1 2/29/2 15/28/15 14/55/14 13/53/13 12/51/12 11/49/11 10/47/10 9/45/9 8/43/8 7/41/7 6/39/6 5/37/5 4/35/4 3/33/3
f 16/5/16 17/8/17 18/9/18 19/12/19 20/13/20 21/16/21 22/17/22 23/20/23 24/21/24 25/24/25 26/1/26 27/4/27 28/25/28 15/28/15 2/29/2
