# Blender 5.1.0
# www.blender.org
mtllib Lights.mtl
o Cube.008
v -0.239418 0.239418 0.239418
v -0.239418 0.239418 -0.239418
v 0.239418 0.239418 0.239418
v 0.239418 0.239418 -0.239418
v -0.275351 -0.142570 0.275351
v -0.288543 -0.073816 0.288543
v -0.293225 -0.000000 0.293225
v -0.288543 0.073816 0.288543
v -0.275351 0.142570 0.275351
v -0.256552 0.200809 0.256552
v -0.256552 0.256552 0.200809
v -0.275351 0.275351 0.142570
v -0.288543 0.288543 0.073816
v -0.293225 0.293225 -0.000000
v -0.288543 0.288543 -0.073816
v -0.275351 0.275351 -0.142570
v -0.256552 0.256552 -0.200810
v -0.256552 0.200809 -0.256552
v -0.275351 0.142570 -0.275351
v -0.288543 0.073816 -0.288543
v -0.293225 -0.000000 -0.293225
v -0.288543 -0.073816 -0.288543
v -0.275351 -0.142570 -0.275351
v -0.200809 0.256552 -0.256552
v -0.142570 0.275351 -0.275351
v -0.073816 0.288543 -0.288543
v 0.000000 0.293225 -0.293225
v 0.073816 0.288543 -0.288543
v 0.142570 0.275351 -0.275351
v 0.200809 0.256552 -0.256552
v 0.256552 0.200809 -0.256552
v 0.275351 0.142570 -0.275351
v 0.288543 0.073816 -0.288543
v 0.293225 -0.000000 -0.293226
v 0.288543 -0.073816 -0.288543
v 0.275351 -0.142570 -0.275351
v 0.256552 0.256552 -0.200809
v 0.275351 0.275351 -0.142570
v 0.288543 0.288543 -0.073816
v 0.293225 0.293225 -0.000000
v 0.288543 0.288543 0.073816
v 0.275351 0.275351 0.142570
v 0.256552 0.256552 0.200809
v 0.256552 0.200809 0.256552
v 0.275351 0.142570 0.275351
v 0.288543 0.073816 0.288543
v 0.293225 -0.000000 0.293225
v 0.288543 -0.073816 0.288543
v 0.275351 -0.142570 0.275351
v 0.200809 0.256552 0.256552
v 0.142570 0.275351 0.275351
v 0.073816 0.288543 0.288543
v 0.000000 0.293225 0.293225
v -0.073816 0.288543 0.288543
v -0.142570 0.275351 0.275351
v -0.200809 0.256552 0.256552
v -0.320115 -0.146039 0.219458
v -0.337252 -0.075416 0.229207
v -0.343087 -0.000000 0.232924
v -0.337252 0.075416 0.229207
v -0.320115 0.146039 0.219458
v -0.293192 0.207365 0.207365
v -0.353492 -0.153307 0.153307
v -0.374415 -0.078892 0.159849
v -0.381494 -0.000000 0.162556
v -0.374415 0.078892 0.159849
v -0.353492 0.153307 0.153307
v -0.320115 0.219458 0.146039
v -0.374415 -0.159849 0.078892
v -0.398031 -0.082262 0.082262
v -0.406140 0.000000 0.083740
v -0.398031 0.082262 0.082262
v -0.374415 0.159849 0.078892
v -0.337252 0.229207 0.075416
v -0.381494 -0.162556 -0.000000
v -0.406140 -0.083740 -0.000000
v -0.414683 0.000000 -0.000000
v -0.406140 0.083740 -0.000000
v -0.381494 0.162556 -0.000000
v -0.343087 0.232924 -0.000000
v -0.374415 -0.159849 -0.078892
v -0.398031 -0.082262 -0.082262
v -0.406140 0.000000 -0.083740
v -0.398031 0.082262 -0.082262
v -0.374415 0.159849 -0.078892
v -0.337252 0.229207 -0.075416
v -0.353492 -0.153307 -0.153307
v -0.374415 -0.078892 -0.159849
v -0.381494 0.000000 -0.162556
v -0.374415 0.078892 -0.159849
v -0.353492 0.153307 -0.153307
v -0.320115 0.219457 -0.146039
v -0.320115 -0.146039 -0.219458
v -0.337252 -0.075416 -0.229207
v -0.343087 0.000000 -0.232924
v -0.337252 0.075416 -0.229207
v -0.320115 0.146039 -0.219458
v -0.293192 0.207365 -0.207365
v -0.219457 -0.146039 -0.320115
v -0.229207 -0.075416 -0.337252
v -0.232924 -0.000000 -0.343087
v -0.229207 0.075416 -0.337252
v -0.219457 0.146039 -0.320115
v -0.207365 0.207365 -0.293192
v -0.153307 -0.153307 -0.353492
v -0.159849 -0.078892 -0.374415
v -0.162556 -0.000000 -0.381494
v -0.159849 0.078892 -0.374415
v -0.153307 0.153307 -0.353492
v -0.146039 0.219458 -0.320115
v -0.078892 -0.159849 -0.374415
v -0.082262 -0.082262 -0.398031
v -0.083740 -0.000000 -0.406140
v -0.082262 0.082262 -0.398031
v -0.078892 0.159849 -0.374415
v -0.075416 0.229207 -0.337252
v 0.000000 -0.162556 -0.381494
v 0.000000 -0.083740 -0.406140
v 0.000000 0.000000 -0.414683
v 0.000000 0.083740 -0.406140
v 0.000000 0.162556 -0.381494
v 0.000000 0.232924 -0.343087
v 0.078892 -0.159849 -0.374415
v 0.082262 -0.082262 -0.398031
v 0.083740 0.000000 -0.406140
v 0.082262 0.082262 -0.398031
v 0.078892 0.159849 -0.374415
v 0.075416 0.229207 -0.337252
v 0.153307 -0.153307 -0.353492
v 0.159849 -0.078892 -0.374415
v 0.162556 0.000000 -0.381494
v 0.159849 0.078892 -0.374415
v 0.153307 0.153307 -0.353492
v 0.146039 0.219457 -0.320115
v 0.219457 -0.146039 -0.320115
v 0.229207 -0.075416 -0.337252
v 0.232924 0.000000 -0.343087
v 0.229207 0.075416 -0.337252
v 0.219457 0.146039 -0.320115
v 0.207365 0.207365 -0.293192
v 0.320115 -0.146039 -0.219458
v 0.337252 -0.075416 -0.229207
v 0.343087 -0.000000 -0.232924
v 0.337252 0.075416 -0.229207
v 0.320115 0.146039 -0.219458
v 0.293192 0.207365 -0.207365
v 0.353492 -0.153307 -0.153307
v 0.374415 -0.078892 -0.159849
v 0.381494 -0.000000 -0.162556
v 0.374415 0.078892 -0.159849
v 0.353492 0.153307 -0.153307
v 0.320115 0.219458 -0.146039
v 0.374415 -0.159849 -0.078892
v 0.398031 -0.082262 -0.082262
v 0.406140 -0.000000 -0.083740
v 0.398031 0.082262 -0.082262
v 0.374415 0.159849 -0.078892
v 0.337252 0.229207 -0.075416
v 0.381494 -0.162556 -0.000000
v 0.406140 -0.083740 -0.000000
v 0.414683 0.000000 -0.000000
v 0.406140 0.083740 -0.000000
v 0.381494 0.162556 -0.000000
v 0.343087 0.232924 -0.000000
v 0.374415 -0.159849 0.078892
v 0.398031 -0.082262 0.082262
v 0.406140 0.000000 0.083740
v 0.398031 0.082262 0.082262
v 0.374415 0.159849 0.078892
v 0.337252 0.229207 0.075416
v 0.353492 -0.153307 0.153307
v 0.374415 -0.078892 0.159849
v 0.381494 0.000000 0.162556
v 0.374415 0.078892 0.159849
v 0.353492 0.153307 0.153307
v 0.320115 0.219457 0.146039
v 0.320115 -0.146039 0.219458
v 0.337252 -0.075416 0.229207
v 0.343087 0.000000 0.232924
v 0.337252 0.075416 0.229207
v 0.320115 0.146039 0.219457
v 0.293192 0.207365 0.207365
v 0.219457 -0.146039 0.320115
v 0.229207 -0.075416 0.337252
v 0.232924 -0.000000 0.343087
v 0.229207 0.075416 0.337252
v 0.219457 0.146039 0.320115
v 0.207365 0.207365 0.293192
v 0.153307 -0.153307 0.353492
v 0.159849 -0.078892 0.374415
v 0.162556 -0.000000 0.381494
v 0.159849 0.078892 0.374415
v 0.153307 0.153307 0.353492
v 0.146039 0.219458 0.320115
v 0.078892 -0.159849 0.374415
v 0.082262 -0.082262 0.398031
v 0.083740 -0.000000 0.406140
v 0.082262 0.082262 0.398031
v 0.078892 0.159849 0.374415
v 0.075416 0.229207 0.337252
v -0.000000 -0.162556 0.381494
v -0.000000 -0.083740 0.406140
v 0.000000 0.000000 0.414683
v 0.000000 0.083740 0.406140
v 0.000000 0.162556 0.381494
v 0.000000 0.232924 0.343087
v -0.078892 -0.159849 0.374415
v -0.082262 -0.082262 0.398031
v -0.083740 0.000000 0.406140
v -0.082262 0.082262 0.398031
v -0.078892 0.159849 0.374415
v -0.075416 0.229207 0.337252
v -0.153307 -0.153307 0.353492
v -0.159849 -0.078892 0.374415
v -0.162556 0.000000 0.381494
v -0.159849 0.078892 0.374415
v -0.153307 0.153307 0.353492
v -0.146039 0.219457 0.320115
v -0.219457 -0.146039 0.320115
v -0.229207 -0.075416 0.337252
v -0.232924 0.000000 0.343087
v -0.229207 0.075416 0.337252
v -0.219457 0.146039 0.320115
v -0.207365 0.207365 0.293192
v 0.207365 0.293192 -0.207365
v 0.146039 0.320115 -0.219458
v 0.075416 0.337252 -0.229207
v 0.000000 0.343087 -0.232924
v -0.075416 0.337252 -0.229207
v -0.146039 0.320115 -0.219458
v -0.207365 0.293192 -0.207365
v 0.219458 0.320115 -0.146039
v 0.153307 0.353492 -0.153307
v 0.078892 0.374415 -0.159849
v 0.000000 0.381494 -0.162556
v -0.078892 0.374415 -0.159849
v -0.153307 0.353492 -0.153307
v -0.219457 0.320115 -0.146039
v 0.229207 0.337252 -0.075416
v 0.159849 0.374415 -0.078892
v 0.082262 0.398031 -0.082262
v 0.000000 0.406140 -0.083740
v -0.082262 0.398031 -0.082262
v -0.159849 0.374415 -0.078892
v -0.229207 0.337252 -0.075416
v 0.232924 0.343087 -0.000000
v 0.162556 0.381494 -0.000000
v 0.083740 0.406140 -0.000000
v 0.000000 0.414683 -0.000000
v -0.083740 0.406140 -0.000000
v -0.162556 0.381494 -0.000000
v -0.232924 0.343087 -0.000000
v 0.229207 0.337252 0.075416
v 0.159849 0.374415 0.078892
v 0.082262 0.398031 0.082262
v -0.000000 0.406140 0.083740
v -0.082262 0.398031 0.082262
v -0.159849 0.374415 0.078892
v -0.229207 0.337252 0.075416
v 0.219457 0.320115 0.146039
v 0.153307 0.353492 0.153307
v 0.078892 0.374415 0.159849
v -0.000000 0.381494 0.162556
v -0.078892 0.374415 0.159849
v -0.153307 0.353492 0.153307
v -0.219457 0.320115 0.146039
v 0.207365 0.293192 0.207365
v 0.146039 0.320115 0.219457
v 0.075416 0.337252 0.229207
v 0.000000 0.343087 0.232924
v -0.075416 0.337252 0.229207
v -0.146039 0.320115 0.219458
v -0.207365 0.293192 0.207365
v -0.258754 -0.193987 0.258754
v -0.258754 -0.193987 -0.258754
v 0.258754 -0.193987 -0.258754
v 0.258754 -0.193987 0.258754
v -0.299066 -0.193987 0.210003
v -0.332966 -0.193987 0.148837
v -0.356124 -0.193987 0.077181
v -0.364339 -0.193987 -0.000000
v -0.356124 -0.193987 -0.077181
v -0.332966 -0.193987 -0.148837
v -0.299066 -0.193987 -0.210003
v -0.210003 -0.193987 -0.299066
v -0.148837 -0.193987 -0.332966
v -0.077181 -0.193987 -0.356124
v 0.000000 -0.193987 -0.364339
v 0.077181 -0.193987 -0.356124
v 0.148837 -0.193987 -0.332966
v 0.210003 -0.193987 -0.299066
v 0.299066 -0.193987 -0.210003
v 0.332966 -0.193987 -0.148837
v 0.356124 -0.193987 -0.077181
v 0.364339 -0.193987 -0.000000
v 0.356124 -0.193987 0.077181
v 0.332966 -0.193987 0.148837
v 0.299066 -0.193987 0.210003
v 0.210003 -0.193987 0.299066
v 0.148837 -0.193987 0.332966
v 0.077181 -0.193987 0.356124
v -0.000000 -0.193987 0.364339
v -0.077181 -0.193987 0.356124
v -0.148837 -0.193987 0.332966
v -0.210003 -0.193987 0.299066
v -0.165818 -0.311010 0.165818
v -0.165818 -0.311010 -0.165818
v 0.165818 -0.311010 -0.165818
v 0.165818 -0.311010 0.165818
v -0.191650 -0.311010 0.134576
v -0.213375 -0.311010 0.095379
v -0.228215 -0.311010 0.049460
v -0.233480 -0.311010 -0.000000
v -0.228215 -0.311010 -0.049460
v -0.213375 -0.311010 -0.095379
v -0.191650 -0.311010 -0.134576
v -0.134576 -0.311010 -0.191650
v -0.095379 -0.311010 -0.213375
v -0.049460 -0.311010 -0.228215
v 0.000000 -0.311010 -0.233480
v 0.049460 -0.311010 -0.228215
v 0.095379 -0.311010 -0.213375
v 0.134576 -0.311010 -0.191650
v 0.191650 -0.311010 -0.134576
v 0.213375 -0.311010 -0.095379
v 0.228215 -0.311010 -0.049460
v 0.233480 -0.311010 -0.000000
v 0.228215 -0.311010 0.049460
v 0.213375 -0.311010 0.095379
v 0.191650 -0.311010 0.134576
v 0.134576 -0.311010 0.191650
v 0.095379 -0.311010 0.213375
v 0.049460 -0.311010 0.228215
v -0.000000 -0.311010 0.233480
v -0.049460 -0.311010 0.228215
v -0.095379 -0.311010 0.213375
v -0.134576 -0.311010 0.191650
v -0.165818 -0.852944 0.165818
v -0.165818 -0.852944 -0.165818
v 0.165818 -0.852944 -0.165818
v 0.165818 -0.852944 0.165818
v -0.191650 -0.852944 0.134576
v -0.213375 -0.852944 0.095379
v -0.228215 -0.852944 0.049460
v -0.233480 -0.852944 -0.000000
v -0.228215 -0.852944 -0.049460
v -0.213375 -0.852944 -0.095379
v -0.191650 -0.852944 -0.134576
v -0.134576 -0.852944 -0.191650
v -0.095379 -0.852944 -0.213375
v -0.049460 -0.852944 -0.228215
v 0.000000 -0.852944 -0.233480
v 0.049460 -0.852944 -0.228215
v 0.095379 -0.852944 -0.213375
v 0.134576 -0.852944 -0.191650
v 0.191650 -0.852944 -0.134576
v 0.213375 -0.852944 -0.095379
v 0.228215 -0.852944 -0.049460
v 0.233480 -0.852944 -0.000000
v 0.228215 -0.852944 0.049460
v 0.213375 -0.852944 0.095379
v 0.191650 -0.852944 0.134576
v 0.134576 -0.852944 0.191650
v 0.095379 -0.852944 0.213375
v 0.049460 -0.852944 0.228215
v -0.000000 -0.852944 0.233480
v -0.049460 -0.852944 0.228215
v -0.095379 -0.852944 0.213375
v -0.134576 -0.852944 0.191650
vn -0.7421 -0.4281 0.5158
vn -0.7754 -0.3473 0.5274
vn -0.8551 -0.3660 0.3672
vn -0.8158 -0.4499 0.3634
vn -0.8151 -0.1797 0.5507
vn -0.9046 -0.1882 0.3824
vn -0.8288 -0.0000 0.5595
vn -0.9213 -0.0000 0.3888
vn -0.8151 0.1797 0.5507
vn -0.9046 0.1882 0.3824
vn -0.7756 0.3476 0.5269
vn -0.8554 0.3663 0.3663
vn -0.7150 0.4944 0.4944
vn -0.7756 0.5269 0.3476
vn -0.9045 -0.3823 0.1890
vn -0.8625 -0.4697 0.1885
vn -0.9607 -0.1963 0.1963
vn -0.9799 -0.0000 0.1996
vn -0.9607 0.1963 0.1963
vn -0.9046 0.3824 0.1882
vn -0.8151 0.5507 0.1797
vn -0.9213 -0.3888 -0.0000
vn -0.8787 -0.4775 -0.0000
vn -0.9799 -0.1996 -0.0000
vn -1.0000 -0.0000 -0.0000
vn -0.9799 0.1996 -0.0000
vn -0.9213 0.3888 -0.0000
vn -0.8288 0.5595 -0.0000
vn -0.9045 -0.3823 -0.1890
vn -0.8625 -0.4697 -0.1885
vn -0.9607 -0.1963 -0.1963
vn -0.9799 -0.0000 -0.1996
vn -0.9607 0.1963 -0.1963
vn -0.9046 0.3824 -0.1882
vn -0.8151 0.5507 -0.1797
vn -0.8551 -0.3660 -0.3672
vn -0.8158 -0.4499 -0.3634
vn -0.9046 -0.1882 -0.3824
vn -0.9213 -0.0000 -0.3888
vn -0.9046 0.1882 -0.3824
vn -0.8554 0.3663 -0.3663
vn -0.7756 0.5269 -0.3476
vn -0.7754 -0.3473 -0.5274
vn -0.7421 -0.4281 -0.5158
vn -0.8151 -0.1797 -0.5507
vn -0.8288 -0.0000 -0.5595
vn -0.8151 0.1797 -0.5507
vn -0.7756 0.3476 -0.5269
vn -0.7150 0.4944 -0.4944
vn -0.6422 -0.4185 0.6422
vn -0.6654 -0.3384 0.6654
vn -0.6961 -0.1758 0.6961
vn -0.7071 -0.0000 0.7071
vn -0.6961 0.1758 0.6961
vn -0.6654 0.3385 0.6654
vn -0.6222 0.4752 0.6222
vn -0.5774 0.5774 0.5773
vn -0.6222 0.6222 0.4752
vn -0.6654 0.6654 0.3385
vn -0.6961 0.6961 0.1758
vn -0.7071 0.7071 -0.0000
vn -0.6961 0.6961 -0.1758
vn -0.6654 0.6654 -0.3385
vn -0.6222 0.6222 -0.4752
vn -0.5773 0.5774 -0.5774
vn -0.6222 0.4752 -0.6222
vn -0.6654 0.3385 -0.6654
vn -0.6961 0.1758 -0.6961
vn -0.7071 -0.0000 -0.7071
vn -0.6961 -0.1758 -0.6961
vn -0.6654 -0.3384 -0.6654
vn -0.6422 -0.4185 -0.6422
vn -0.5158 -0.4281 -0.7421
vn -0.5274 -0.3473 -0.7754
vn -0.3672 -0.3660 -0.8551
vn -0.3634 -0.4499 -0.8158
vn -0.5507 -0.1797 -0.8151
vn -0.3824 -0.1882 -0.9046
vn -0.5595 -0.0000 -0.8288
vn -0.3888 -0.0000 -0.9213
vn -0.5507 0.1797 -0.8151
vn -0.3824 0.1882 -0.9046
vn -0.5269 0.3476 -0.7756
vn -0.3663 0.3663 -0.8554
vn -0.4944 0.4944 -0.7150
vn -0.3476 0.5269 -0.7756
vn -0.1890 -0.3823 -0.9045
vn -0.1885 -0.4697 -0.8625
vn -0.1963 -0.1963 -0.9607
vn -0.1996 -0.0000 -0.9799
vn -0.1963 0.1963 -0.9607
vn -0.1882 0.3824 -0.9046
vn -0.1797 0.5507 -0.8151
vn -0.0000 -0.3888 -0.9213
vn -0.0000 -0.4775 -0.8787
vn -0.0000 -0.1996 -0.9799
vn -0.0000 -0.0000 -1.0000
vn -0.0000 0.1996 -0.9799
vn -0.0000 0.3888 -0.9213
vn -0.0000 0.5595 -0.8288
vn 0.1890 -0.3823 -0.9045
vn 0.1885 -0.4697 -0.8625
vn 0.1963 -0.1963 -0.9607
vn 0.1996 -0.0000 -0.9799
vn 0.1963 0.1963 -0.9607
vn 0.1882 0.3824 -0.9046
vn 0.1797 0.5507 -0.8151
vn 0.3672 -0.3660 -0.8551
vn 0.3634 -0.4499 -0.8158
vn 0.3824 -0.1882 -0.9046
vn 0.3888 -0.0000 -0.9213
vn 0.3824 0.1882 -0.9046
vn 0.3663 0.3663 -0.8554
vn 0.3476 0.5269 -0.7756
vn 0.5274 -0.3473 -0.7754
vn 0.5158 -0.4281 -0.7421
vn 0.5507 -0.1797 -0.8151
vn 0.5595 -0.0000 -0.8288
vn 0.5507 0.1797 -0.8151
vn 0.5269 0.3476 -0.7756
vn 0.4944 0.4944 -0.7150
vn -0.4752 0.6222 -0.6222
vn -0.3385 0.6654 -0.6654
vn -0.1758 0.6961 -0.6961
vn -0.0000 0.7071 -0.7071
vn 0.1758 0.6961 -0.6961
vn 0.3385 0.6654 -0.6654
vn 0.4752 0.6222 -0.6222
vn 0.5774 0.5774 -0.5774
vn 0.6222 0.4752 -0.6222
vn 0.6654 0.3385 -0.6654
vn 0.6961 0.1758 -0.6961
vn 0.7071 -0.0000 -0.7071
vn 0.6961 -0.1758 -0.6961
vn 0.6654 -0.3384 -0.6654
vn 0.6422 -0.4185 -0.6422
vn 0.7421 -0.4281 -0.5158
vn 0.7754 -0.3473 -0.5274
vn 0.8551 -0.3660 -0.3672
vn 0.8158 -0.4499 -0.3634
vn 0.8151 -0.1797 -0.5507
vn 0.9046 -0.1882 -0.3824
vn 0.8288 -0.0000 -0.5595
vn 0.9213 -0.0000 -0.3888
vn 0.8151 0.1797 -0.5507
vn 0.9046 0.1882 -0.3824
vn 0.7756 0.3476 -0.5269
vn 0.8554 0.3663 -0.3663
vn 0.7150 0.4944 -0.4944
vn 0.7756 0.5269 -0.3476
vn 0.9045 -0.3823 -0.1890
vn 0.8625 -0.4697 -0.1885
vn 0.9607 -0.1963 -0.1963
vn 0.9799 -0.0000 -0.1996
vn 0.9607 0.1963 -0.1963
vn 0.9046 0.3824 -0.1882
vn 0.8151 0.5507 -0.1797
vn 0.9213 -0.3888 -0.0000
vn 0.8787 -0.4775 -0.0000
vn 0.9799 -0.1996 -0.0000
vn 1.0000 -0.0000 -0.0000
vn 0.9799 0.1996 -0.0000
vn 0.9213 0.3888 -0.0000
vn 0.8288 0.5595 -0.0000
vn 0.9045 -0.3823 0.1890
vn 0.8625 -0.4697 0.1885
vn 0.9607 -0.1963 0.1963
vn 0.9799 -0.0000 0.1996
vn 0.9607 0.1963 0.1963
vn 0.9046 0.3824 0.1882
vn 0.8151 0.5507 0.1797
vn 0.8551 -0.3660 0.3672
vn 0.8158 -0.4499 0.3634
vn 0.9046 -0.1882 0.3824
vn 0.9213 -0.0000 0.3888
vn 0.9046 0.1882 0.3824
vn 0.8554 0.3663 0.3663
vn 0.7756 0.5269 0.3476
vn 0.7754 -0.3473 0.5274
vn 0.7421 -0.4281 0.5158
vn 0.8151 -0.1797 0.5507
vn 0.8288 -0.0000 0.5595
vn 0.8151 0.1797 0.5507
vn 0.7756 0.3476 0.5269
vn 0.7150 0.4944 0.4944
vn 0.6222 0.6222 -0.4752
vn 0.6654 0.6654 -0.3385
vn 0.6961 0.6961 -0.1758
vn 0.7071 0.7071 -0.0000
vn 0.6961 0.6961 0.1758
vn 0.6654 0.6654 0.3385
vn 0.6222 0.6222 0.4752
vn 0.5774 0.5774 0.5774
vn 0.6222 0.4752 0.6222
vn 0.6654 0.3385 0.6654
vn 0.6961 0.1758 0.6961
vn 0.7071 -0.0000 0.7071
vn 0.6961 -0.1758 0.6961
vn 0.6654 -0.3384 0.6654
vn 0.6422 -0.4185 0.6422
vn 0.5158 -0.4281 0.7421
vn 0.5274 -0.3473 0.7754
vn 0.3672 -0.3660 0.8551
vn 0.3634 -0.4499 0.8158
vn 0.5507 -0.1797 0.8151
vn 0.3824 -0.1882 0.9046
vn 0.5595 -0.0000 0.8288
vn 0.3888 -0.0000 0.9213
vn 0.5507 0.1797 0.8151
vn 0.3824 0.1882 0.9046
vn 0.5269 0.3476 0.7756
vn 0.3663 0.3663 0.8554
vn 0.4944 0.4944 0.7150
vn 0.3476 0.5269 0.7756
vn 0.1890 -0.3823 0.9045
vn 0.1885 -0.4697 0.8625
vn 0.1963 -0.1963 0.9607
vn 0.1996 -0.0000 0.9799
vn 0.1963 0.1963 0.9607
vn 0.1882 0.3824 0.9046
vn 0.1797 0.5507 0.8151
vn -0.0000 -0.3888 0.9213
vn -0.0000 -0.4775 0.8787
vn -0.0000 -0.1996 0.9799
vn -0.0000 -0.0000 1.0000
vn -0.0000 0.1996 0.9799
vn -0.0000 0.3888 0.9213
vn -0.0000 0.5595 0.8288
vn -0.1890 -0.3823 0.9045
vn -0.1885 -0.4697 0.8625
vn -0.1963 -0.1963 0.9607
vn -0.1996 -0.0000 0.9799
vn -0.1963 0.1963 0.9607
vn -0.1882 0.3824 0.9046
vn -0.1797 0.5507 0.8151
vn -0.3672 -0.3660 0.8551
vn -0.3634 -0.4499 0.8158
vn -0.3824 -0.1882 0.9046
vn -0.3888 -0.0000 0.9213
vn -0.3824 0.1882 0.9046
vn -0.3663 0.3663 0.8554
vn -0.3476 0.5269 0.7756
vn -0.5274 -0.3473 0.7754
vn -0.5158 -0.4281 0.7421
vn -0.5507 -0.1797 0.8151
vn -0.5595 -0.0000 0.8288
vn -0.5507 0.1797 0.8151
vn -0.5269 0.3476 0.7756
vn -0.4944 0.4944 0.7150
vn 0.4752 0.6222 0.6222
vn 0.3385 0.6654 0.6654
vn 0.1758 0.6961 0.6961
vn -0.0000 0.7071 0.7071
vn -0.1758 0.6961 0.6961
vn -0.3385 0.6654 0.6654
vn -0.4752 0.6222 0.6222
vn 0.4944 0.7150 -0.4944
vn 0.3476 0.7756 -0.5269
vn 0.3663 0.8554 -0.3663
vn 0.5269 0.7756 -0.3476
vn 0.1797 0.8151 -0.5507
vn 0.1882 0.9046 -0.3824
vn -0.0000 0.8288 -0.5595
vn -0.0000 0.9213 -0.3888
vn -0.1797 0.8151 -0.5507
vn -0.1882 0.9046 -0.3824
vn -0.3476 0.7756 -0.5269
vn -0.3663 0.8554 -0.3663
vn -0.4944 0.7150 -0.4944
vn -0.5269 0.7756 -0.3476
vn 0.3824 0.9046 -0.1882
vn 0.5507 0.8151 -0.1797
vn 0.1963 0.9607 -0.1963
vn -0.0000 0.9799 -0.1996
vn -0.1963 0.9607 -0.1963
vn -0.3824 0.9046 -0.1882
vn -0.5507 0.8151 -0.1797
vn 0.3888 0.9213 -0.0000
vn 0.5595 0.8288 -0.0000
vn 0.1996 0.9799 -0.0000
vn -0.0000 1.0000 -0.0000
vn -0.1996 0.9799 -0.0000
vn -0.3888 0.9213 -0.0000
vn -0.5595 0.8288 -0.0000
vn 0.3824 0.9046 0.1882
vn 0.5507 0.8151 0.1797
vn 0.1963 0.9607 0.1963
vn -0.0000 0.9799 0.1996
vn -0.1963 0.9607 0.1963
vn -0.3824 0.9046 0.1882
vn -0.5507 0.8151 0.1797
vn 0.3663 0.8554 0.3663
vn 0.5269 0.7756 0.3476
vn 0.1882 0.9046 0.3824
vn -0.0000 0.9213 0.3888
vn -0.1882 0.9046 0.3824
vn -0.3663 0.8554 0.3663
vn -0.5269 0.7756 0.3476
vn 0.3476 0.7756 0.5269
vn 0.4944 0.7150 0.4944
vn 0.1797 0.8151 0.5507
vn -0.0000 0.8288 0.5595
vn -0.1797 0.8151 0.5507
vn -0.3476 0.7756 0.5269
vn -0.4944 0.7150 0.4944
vn -0.6111 -0.7457 0.2655
vn -0.6520 -0.7455 0.1386
vn -0.6520 -0.7455 0.1384
vn -0.6113 -0.7457 0.2648
vn 0.6520 -0.7455 -0.1386
vn 0.6666 -0.7454 -0.0000
vn 0.6520 -0.7455 -0.1384
vn -0.5496 -0.7464 0.3753
vn -0.5501 -0.7464 0.3746
vn 0.6111 -0.7457 -0.2655
vn 0.6113 -0.7457 -0.2648
vn 0.5496 -0.7464 0.3753
vn 0.4702 -0.7469 0.4702
vn 0.5501 -0.7464 0.3746
vn 0.5496 -0.7464 -0.3753
vn 0.5501 -0.7464 -0.3746
vn 0.3753 -0.7464 0.5496
vn 0.3746 -0.7464 0.5501
vn 0.2655 -0.7457 -0.6111
vn 0.3753 -0.7464 -0.5496
vn 0.3746 -0.7464 -0.5501
vn 0.2648 -0.7457 -0.6113
vn 0.4702 -0.7469 -0.4702
vn 0.1386 -0.7455 -0.6520
vn 0.1384 -0.7455 -0.6520
vn -0.2655 -0.7457 0.6111
vn -0.3753 -0.7464 0.5496
vn -0.3746 -0.7464 0.5501
vn -0.2648 -0.7457 0.6113
vn -0.0000 -0.7454 -0.6666
vn -0.1386 -0.7455 0.6520
vn -0.1384 -0.7455 0.6520
vn -0.5496 -0.7464 -0.3753
vn -0.4702 -0.7469 -0.4702
vn -0.5501 -0.7464 -0.3746
vn -0.1386 -0.7455 -0.6520
vn -0.1384 -0.7455 -0.6520
vn -0.0000 -0.7454 0.6666
vn -0.3753 -0.7464 -0.5496
vn -0.3746 -0.7464 -0.5501
vn -0.2655 -0.7457 -0.6111
vn -0.2648 -0.7457 -0.6113
vn 0.1386 -0.7455 0.6520
vn 0.1384 -0.7455 0.6520
vn -0.4702 -0.7469 0.4702
vn 0.2655 -0.7457 0.6111
vn 0.2648 -0.7457 0.6113
vn -0.6111 -0.7457 -0.2655
vn -0.6113 -0.7457 -0.2648
vn -0.6520 -0.7455 -0.1386
vn -0.6520 -0.7455 -0.1384
vn 0.6111 -0.7457 0.2655
vn 0.6113 -0.7457 0.2648
vn -0.6666 -0.7454 -0.0000
vn 0.6520 -0.7455 0.1386
vn 0.6520 -0.7455 0.1384
vn 0.8262 -0.0000 0.5634
vn 0.8262 -0.0000 -0.5634
vn 0.9174 -0.0000 -0.3980
vn 0.5634 -0.0000 0.8262
vn 0.3980 -0.0000 -0.9174
vn 0.5634 -0.0000 -0.8262
vn 0.2078 -0.0000 -0.9782
vn -0.3980 -0.0000 0.9174
vn -0.5634 -0.0000 0.8262
vn -0.2078 -0.0000 0.9782
vn -0.8262 -0.0000 -0.5634
vn -0.2078 -0.0000 -0.9782
vn -0.5634 -0.0000 -0.8262
vn -0.3980 -0.0000 -0.9174
vn 0.2078 -0.0000 0.9782
vn -0.8262 -0.0000 0.5634
vn 0.3980 -0.0000 0.9174
vn -0.9174 -0.0000 -0.3980
vn -0.9782 -0.0000 -0.2078
vn 0.9174 -0.0000 0.3980
vn 0.9782 -0.0000 0.2078
vn -0.9782 -0.0000 0.2078
vn -0.9174 -0.0000 0.3980
vn 0.9782 -0.0000 -0.2078
vt 0.413067 0.031250
vt 0.437500 0.031250
vt 0.437500 0.062500
vt 0.418283 0.062500
vt 0.468750 0.031250
vt 0.468750 0.062500
vt 0.500000 0.031250
vt 0.500000 0.062500
vt 0.531250 0.031250
vt 0.531250 0.062500
vt 0.562500 0.031250
vt 0.562500 0.062500
vt 0.593750 0.031250
vt 0.593750 0.062500
vt 0.437500 0.093750
vt 0.422119 0.093750
vt 0.468750 0.093750
vt 0.500000 0.093750
vt 0.531250 0.093750
vt 0.562500 0.093750
vt 0.593750 0.093750
vt 0.437500 0.125000
vt 0.423542 0.125000
vt 0.468750 0.125000
vt 0.500000 0.125000
vt 0.531250 0.125000
vt 0.562500 0.125000
vt 0.593750 0.125000
vt 0.437500 0.156250
vt 0.422119 0.156250
vt 0.468750 0.156250
vt 0.500000 0.156250
vt 0.531250 0.156250
vt 0.562500 0.156250
vt 0.593750 0.156250
vt 0.437500 0.187500
vt 0.418283 0.187500
vt 0.468750 0.187500
vt 0.500000 0.187500
vt 0.531250 0.187500
vt 0.562500 0.187500
vt 0.593750 0.187500
vt 0.437500 0.218750
vt 0.413067 0.218750
vt 0.468750 0.218750
vt 0.500000 0.218750
vt 0.531250 0.218750
vt 0.562500 0.218750
vt 0.593750 0.218750
vt 0.409911 0.000000
vt 0.437500 0.000000
vt 0.468750 0.000000
vt 0.500000 0.000000
vt 0.531250 0.000000
vt 0.562500 0.000000
vt 0.593750 0.000000
vt 0.625000 0.000000
vt 0.625000 0.031250
vt 0.625000 0.062500
vt 0.625000 0.093750
vt 0.625000 0.125000
vt 0.625000 0.156250
vt 0.625000 0.187500
vt 0.625000 0.218750
vt 0.625000 0.250000
vt 0.593750 0.250000
vt 0.562500 0.250000
vt 0.531250 0.250000
vt 0.500000 0.250000
vt 0.468750 0.250000
vt 0.437500 0.250000
vt 0.409911 0.250000
vt 0.413067 0.281250
vt 0.437500 0.281250
vt 0.437500 0.312500
vt 0.418283 0.312500
vt 0.468750 0.281250
vt 0.468750 0.312500
vt 0.500000 0.281250
vt 0.500000 0.312500
vt 0.531250 0.281250
vt 0.531250 0.312500
vt 0.562500 0.281250
vt 0.562500 0.312500
vt 0.593750 0.281250
vt 0.593750 0.312500
vt 0.437500 0.343750
vt 0.422119 0.343750
vt 0.468750 0.343750
vt 0.500000 0.343750
vt 0.531250 0.343750
vt 0.562500 0.343750
vt 0.593750 0.343750
vt 0.437500 0.375000
vt 0.423542 0.375000
vt 0.468750 0.375000
vt 0.500000 0.375000
vt 0.531250 0.375000
vt 0.562500 0.375000
vt 0.593750 0.375000
vt 0.437500 0.406250
vt 0.422119 0.406250
vt 0.468750 0.406250
vt 0.500000 0.406250
vt 0.531250 0.406250
vt 0.562500 0.406250
vt 0.593750 0.406250
vt 0.437500 0.437500
vt 0.418283 0.437500
vt 0.468750 0.437500
vt 0.500000 0.437500
vt 0.531250 0.437500
vt 0.562500 0.437500
vt 0.593750 0.437500
vt 0.437500 0.468750
vt 0.413067 0.468750
vt 0.468750 0.468750
vt 0.500000 0.468750
vt 0.531250 0.468750
vt 0.562500 0.468750
vt 0.593750 0.468750
vt 0.625000 0.281250
vt 0.625000 0.312500
vt 0.625000 0.343750
vt 0.625000 0.375000
vt 0.625000 0.406250
vt 0.625000 0.437500
vt 0.625000 0.468750
vt 0.625000 0.500000
vt 0.593750 0.500000
vt 0.562500 0.500000
vt 0.531250 0.500000
vt 0.500000 0.500000
vt 0.468750 0.500000
vt 0.437500 0.500000
vt 0.409911 0.500000
vt 0.413067 0.531250
vt 0.437500 0.531250
vt 0.437500 0.562500
vt 0.418283 0.562500
vt 0.468750 0.531250
vt 0.468750 0.562500
vt 0.500000 0.531250
vt 0.500000 0.562500
vt 0.531250 0.531250
vt 0.531250 0.562500
vt 0.562500 0.531250
vt 0.562500 0.562500
vt 0.593750 0.531250
vt 0.593750 0.562500
vt 0.437500 0.593750
vt 0.422119 0.593750
vt 0.468750 0.593750
vt 0.500000 0.593750
vt 0.531250 0.593750
vt 0.562500 0.593750
vt 0.593750 0.593750
vt 0.437500 0.625000
vt 0.423542 0.625000
vt 0.468750 0.625000
vt 0.500000 0.625000
vt 0.531250 0.625000
vt 0.562500 0.625000
vt 0.593750 0.625000
vt 0.437500 0.656250
vt 0.422119 0.656250
vt 0.468750 0.656250
vt 0.500000 0.656250
vt 0.531250 0.656250
vt 0.562500 0.656250
vt 0.593750 0.656250
vt 0.437500 0.687500
vt 0.418283 0.687500
vt 0.468750 0.687500
vt 0.500000 0.687500
vt 0.531250 0.687500
vt 0.562500 0.687500
vt 0.593750 0.687500
vt 0.437500 0.718750
vt 0.413067 0.718750
vt 0.468750 0.718750
vt 0.500000 0.718750
vt 0.531250 0.718750
vt 0.562500 0.718750
vt 0.593750 0.718750
vt 0.625000 0.531250
vt 0.625000 0.562500
vt 0.625000 0.593750
vt 0.625000 0.625000
vt 0.625000 0.656250
vt 0.625000 0.687500
vt 0.625000 0.718750
vt 0.625000 0.750000
vt 0.593750 0.750000
vt 0.562500 0.750000
vt 0.531250 0.750000
vt 0.500000 0.750000
vt 0.468750 0.750000
vt 0.437500 0.750000
vt 0.409911 0.750000
vt 0.413067 0.781250
vt 0.437500 0.781250
vt 0.437500 0.812500
vt 0.418283 0.812500
vt 0.468750 0.781250
vt 0.468750 0.812500
vt 0.500000 0.781250
vt 0.500000 0.812500
vt 0.531250 0.781250
vt 0.531250 0.812500
vt 0.562500 0.781250
vt 0.562500 0.812500
vt 0.593750 0.781250
vt 0.593750 0.812500
vt 0.437500 0.843750
vt 0.422119 0.843750
vt 0.468750 0.843750
vt 0.500000 0.843750
vt 0.531250 0.843750
vt 0.562500 0.843750
vt 0.593750 0.843750
vt 0.437500 0.875000
vt 0.423542 0.875000
vt 0.468750 0.875000
vt 0.500000 0.875000
vt 0.531250 0.875000
vt 0.562500 0.875000
vt 0.593750 0.875000
vt 0.437500 0.906250
vt 0.422119 0.906250
vt 0.468750 0.906250
vt 0.500000 0.906250
vt 0.531250 0.906250
vt 0.562500 0.906250
vt 0.593750 0.906250
vt 0.437500 0.937500
vt 0.418283 0.937500
vt 0.468750 0.937500
vt 0.500000 0.937500
vt 0.531250 0.937500
vt 0.562500 0.937500
vt 0.593750 0.937500
vt 0.437500 0.968750
vt 0.413067 0.968750
vt 0.468750 0.968750
vt 0.500000 0.968750
vt 0.531250 0.968750
vt 0.562500 0.968750
vt 0.593750 0.968750
vt 0.625000 0.781250
vt 0.625000 0.812500
vt 0.625000 0.843750
vt 0.625000 0.875000
vt 0.625000 0.906250
vt 0.625000 0.937500
vt 0.625000 0.968750
vt 0.625000 1.000000
vt 0.593750 1.000000
vt 0.562500 1.000000
vt 0.531250 1.000000
vt 0.500000 1.000000
vt 0.468750 1.000000
vt 0.437500 1.000000
vt 0.409911 1.000000
vt 0.656250 0.531250
vt 0.687500 0.531250
vt 0.687500 0.562500
vt 0.656250 0.562500
vt 0.718750 0.531250
vt 0.718750 0.562500
vt 0.750000 0.531250
vt 0.750000 0.562500
vt 0.781250 0.531250
vt 0.781250 0.562500
vt 0.812500 0.531250
vt 0.812500 0.562500
vt 0.843750 0.531250
vt 0.843750 0.562500
vt 0.687500 0.593750
vt 0.656250 0.593750
vt 0.718750 0.593750
vt 0.750000 0.593750
vt 0.781250 0.593750
vt 0.812500 0.593750
vt 0.843750 0.593750
vt 0.687500 0.625000
vt 0.656250 0.625000
vt 0.718750 0.625000
vt 0.750000 0.625000
vt 0.781250 0.625000
vt 0.812500 0.625000
vt 0.843750 0.625000
vt 0.687500 0.656250
vt 0.656250 0.656250
vt 0.718750 0.656250
vt 0.750000 0.656250
vt 0.781250 0.656250
vt 0.812500 0.656250
vt 0.843750 0.656250
vt 0.687500 0.687500
vt 0.656250 0.687500
vt 0.718750 0.687500
vt 0.750000 0.687500
vt 0.781250 0.687500
vt 0.812500 0.687500
vt 0.843750 0.687500
vt 0.687500 0.718750
vt 0.656250 0.718750
vt 0.718750 0.718750
vt 0.750000 0.718750
vt 0.781250 0.718750
vt 0.812500 0.718750
vt 0.843750 0.718750
vt 0.656250 0.500000
vt 0.687500 0.500000
vt 0.718750 0.500000
vt 0.750000 0.500000
vt 0.781250 0.500000
vt 0.812500 0.500000
vt 0.843750 0.500000
vt 0.875000 0.500000
vt 0.875000 0.531250
vt 0.875000 0.562500
vt 0.875000 0.593750
vt 0.875000 0.625000
vt 0.875000 0.656250
vt 0.875000 0.687500
vt 0.875000 0.718750
vt 0.875000 0.750000
vt 0.843750 0.750000
vt 0.812500 0.750000
vt 0.781250 0.750000
vt 0.750000 0.750000
vt 0.718750 0.750000
vt 0.687500 0.750000
vt 0.656250 0.750000
s 1
f 278/1/1 57/2/2 63/3/3 279/4/4
f 57/2/2 58/5/5 64/6/6 63/3/3
f 58/5/5 59/7/7 65/8/8 64/6/6
f 59/7/7 60/9/9 66/10/10 65/8/8
f 60/9/9 61/11/11 67/12/12 66/10/10
f 61/11/11 62/13/13 68/14/14 67/12/12
f 279/4/4 63/3/3 69/15/15 280/16/16
f 63/3/3 64/6/6 70/17/17 69/15/15
f 64/6/6 65/8/8 71/18/18 70/17/17
f 65/8/8 66/10/10 72/19/19 71/18/18
f 66/10/10 67/12/12 73/20/20 72/19/19
f 67/12/12 68/14/14 74/21/21 73/20/20
f 280/16/16 69/15/15 75/22/22 281/23/23
f 69/15/15 70/17/17 76/24/24 75/22/22
f 70/17/17 71/18/18 77/25/25 76/24/24
f 71/18/18 72/19/19 78/26/26 77/25/25
f 72/19/19 73/20/20 79/27/27 78/26/26
f 73/20/20 74/21/21 80/28/28 79/27/27
f 281/23/23 75/22/22 81/29/29 282/30/30
f 75/22/22 76/24/24 82/31/31 81/29/29
f 76/24/24 77/25/25 83/32/32 82/31/31
f 77/25/25 78/26/26 84/33/33 83/32/32
f 78/26/26 79/27/27 85/34/34 84/33/33
f 79/27/27 80/28/28 86/35/35 85/34/34
f 282/30/30 81/29/29 87/36/36 283/37/37
f 81/29/29 82/31/31 88/38/38 87/36/36
f 82/31/31 83/32/32 89/39/39 88/38/38
f 83/32/32 84/33/33 90/40/40 89/39/39
f 84/33/33 85/34/34 91/41/41 90/40/40
f 85/34/34 86/35/35 92/42/42 91/41/41
f 283/37/37 87/36/36 93/43/43 284/44/44
f 87/36/36 88/38/38 94/45/45 93/43/43
f 88/38/38 89/39/39 95/46/46 94/45/45
f 89/39/39 90/40/40 96/47/47 95/46/46
f 90/40/40 91/41/41 97/48/48 96/47/47
f 91/41/41 92/42/42 98/49/49 97/48/48
f 274/50/50 5/51/51 57/2/2 278/1/1
f 5/51/51 6/52/52 58/5/5 57/2/2
f 6/52/52 7/53/53 59/7/7 58/5/5
f 7/53/53 8/54/54 60/9/9 59/7/7
f 8/54/54 9/55/55 61/11/11 60/9/9
f 9/55/55 10/56/56 62/13/13 61/11/11
f 10/56/56 1/57/57 11/58/58 62/13/13
f 62/13/13 11/58/58 12/59/59 68/14/14
f 68/14/14 12/59/59 13/60/60 74/21/21
f 74/21/21 13/60/60 14/61/61 80/28/28
f 80/28/28 14/61/61 15/62/62 86/35/35
f 86/35/35 15/62/62 16/63/63 92/42/42
f 92/42/42 16/63/63 17/64/64 98/49/49
f 98/49/49 17/64/64 2/65/65 18/66/66
f 97/48/48 98/49/49 18/66/66 19/67/67
f 96/47/47 97/48/48 19/67/67 20/68/68
f 95/46/46 96/47/47 20/68/68 21/69/69
f 94/45/45 95/46/46 21/69/69 22/70/70
f 93/43/43 94/45/45 22/70/70 23/71/71
f 284/44/44 93/43/43 23/71/71 275/72/72
f 285/73/73 99/74/74 105/75/75 286/76/76
f 99/74/74 100/77/77 106/78/78 105/75/75
f 100/77/77 101/79/79 107/80/80 106/78/78
f 101/79/79 102/81/81 108/82/82 107/80/80
f 102/81/81 103/83/83 109/84/84 108/82/82
f 103/83/83 104/85/85 110/86/86 109/84/84
f 286/76/76 105/75/75 111/87/87 287/88/88
f 105/75/75 106/78/78 112/89/89 111/87/87
f 106/78/78 107/80/80 113/90/90 112/89/89
f 107/80/80 108/82/82 114/91/91 113/90/90
f 108/82/82 109/84/84 115/92/92 114/91/91
f 109/84/84 110/86/86 116/93/93 115/92/92
f 287/88/88 111/87/87 117/94/94 288/95/95
f 111/87/87 112/89/89 118/96/96 117/94/94
f 112/89/89 113/90/90 119/97/97 118/96/96
f 113/90/90 114/91/91 120/98/98 119/97/97
f 114/91/91 115/92/92 121/99/99 120/98/98
f 115/92/92 116/93/93 122/100/100 121/99/99
f 288/95/95 117/94/94 123/101/101 289/102/102
f 117/94/94 118/96/96 124/103/103 123/101/101
f 118/96/96 119/97/97 125/104/104 124/103/103
f 119/97/97 120/98/98 126/105/105 125/104/104
f 120/98/98 121/99/99 127/106/106 126/105/105
f 121/99/99 122/100/100 128/107/107 127/106/106
f 289/102/102 123/101/101 129/108/108 290/109/109
f 123/101/101 124/103/103 130/110/110 129/108/108
f 124/103/103 125/104/104 131/111/111 130/110/110
f 125/104/104 126/105/105 132/112/112 131/111/111
f 126/105/105 127/106/106 133/113/113 132/112/112
f 127/106/106 128/107/107 134/114/114 133/113/113
f 290/109/109 129/108/108 135/115/115 291/116/116
f 129/108/108 130/110/110 136/117/117 135/115/115
f 130/110/110 131/111/111 137/118/118 136/117/117
f 131/111/111 132/112/112 138/119/119 137/118/118
f 132/112/112 133/113/113 139/120/120 138/119/119
f 133/113/113 134/114/114 140/121/121 139/120/120
f 275/72/72 23/71/71 99/74/74 285/73/73
f 23/71/71 22/70/70 100/77/77 99/74/74
f 22/70/70 21/69/69 101/79/79 100/77/77
f 21/69/69 20/68/68 102/81/81 101/79/79
f 20/68/68 19/67/67 103/83/83 102/81/81
f 19/67/67 18/66/66 104/85/85 103/83/83
f 18/66/66 2/65/65 24/122/122 104/85/85
f 104/85/85 24/122/122 25/123/123 110/86/86
f 110/86/86 25/123/123 26/124/124 116/93/93
f 116/93/93 26/124/124 27/125/125 122/100/100
f 122/100/100 27/125/125 28/126/126 128/107/107
f 128/107/107 28/126/126 29/127/127 134/114/114
f 134/114/114 29/127/127 30/128/128 140/121/121
f 140/121/121 30/128/128 4/129/129 31/130/130
f 139/120/120 140/121/121 31/130/130 32/131/131
f 138/119/119 139/120/120 32/131/131 33/132/132
f 137/118/118 138/119/119 33/132/132 34/133/133
f 136/117/117 137/118/118 34/133/133 35/134/134
f 135/115/115 136/117/117 35/134/134 36/135/135
f 291/116/116 135/115/115 36/135/135 276/136/136
f 292/137/137 141/138/138 147/139/139 293/140/140
f 141/138/138 142/141/141 148/142/142 147/139/139
f 142/141/141 143/143/143 149/144/144 148/142/142
f 143/143/143 144/145/145 150/146/146 149/144/144
f 144/145/145 145/147/147 151/148/148 150/146/146
f 145/147/147 146/149/149 152/150/150 151/148/148
f 293/140/140 147/139/139 153/151/151 294/152/152
f 147/139/139 148/142/142 154/153/153 153/151/151
f 148/142/142 149/144/144 155/154/154 154/153/153
f 149/144/144 150/146/146 156/155/155 155/154/154
f 150/146/146 151/148/148 157/156/156 156/155/155
f 151/148/148 152/150/150 158/157/157 157/156/156
f 294/152/152 153/151/151 159/158/158 295/159/159
f 153/151/151 154/153/153 160/160/160 159/158/158
f 154/153/153 155/154/154 161/161/161 160/160/160
f 155/154/154 156/155/155 162/162/162 161/161/161
f 156/155/155 157/156/156 163/163/163 162/162/162
f 157/156/156 158/157/157 164/164/164 163/163/163
f 295/159/159 159/158/158 165/165/165 296/166/166
f 159/158/158 160/160/160 166/167/167 165/165/165
f 160/160/160 161/161/161 167/168/168 166/167/167
f 161/161/161 162/162/162 168/169/169 167/168/168
f 162/162/162 163/163/163 169/170/170 168/169/169
f 163/163/163 164/164/164 170/171/171 169/170/170
f 296/166/166 165/165/165 171/172/172 297/173/173
f 165/165/165 166/167/167 172/174/174 171/172/172
f 166/167/167 167/168/168 173/175/175 172/174/174
f 167/168/168 168/169/169 174/176/176 173/175/175
f 168/169/169 169/170/170 175/177/177 174/176/176
f 169/170/170 170/171/171 176/178/178 175/177/177
f 297/173/173 171/172/172 177/179/179 298/180/180
f 171/172/172 172/174/174 178/181/181 177/179/179
f 172/174/174 173/175/175 179/182/182 178/181/181
f 173/175/175 174/176/176 180/183/183 179/182/182
f 174/176/176 175/177/177 181/184/184 180/183/183
f 175/177/177 176/178/178 182/185/185 181/184/184
f 276/136/136 36/135/135 141/138/138 292/137/137
f 36/135/135 35/134/134 142/141/141 141/138/138
f 35/134/134 34/133/133 143/143/143 142/141/141
f 34/133/133 33/132/132 144/145/145 143/143/143
f 33/132/132 32/131/131 145/147/147 144/145/145
f 32/131/131 31/130/130 146/149/149 145/147/147
f 31/130/130 4/129/129 37/186/186 146/149/149
f 146/149/149 37/186/186 38/187/187 152/150/150
f 152/150/150 38/187/187 39/188/188 158/157/157
f 158/157/157 39/188/188 40/189/189 164/164/164
f 164/164/164 40/189/189 41/190/190 170/171/171
f 170/171/171 41/190/190 42/191/191 176/178/178
f 176/178/178 42/191/191 43/192/192 182/185/185
f 182/185/185 43/192/192 3/193/193 44/194/194
f 181/184/184 182/185/185 44/194/194 45/195/195
f 180/183/183 181/184/184 45/195/195 46/196/196
f 179/182/182 180/183/183 46/196/196 47/197/197
f 178/181/181 179/182/182 47/197/197 48/198/198
f 177/179/179 178/181/181 48/198/198 49/199/199
f 298/180/180 177/179/179 49/199/199 277/200/200
f 299/201/201 183/202/202 189/203/203 300/204/204
f 183/202/202 184/205/205 190/206/206 189/203/203
f 184/205/205 185/207/207 191/208/208 190/206/206
f 185/207/207 186/209/209 192/210/210 191/208/208
f 186/209/209 187/211/211 193/212/212 192/210/210
f 187/211/211 188/213/213 194/214/214 193/212/212
f 300/204/204 189/203/203 195/215/215 301/216/216
f 189/203/203 190/206/206 196/217/217 195/215/215
f 190/206/206 191/208/208 197/218/218 196/217/217
f 191/208/208 192/210/210 198/219/219 197/218/218
f 192/210/210 193/212/212 199/220/220 198/219/219
f 193/212/212 194/214/214 200/221/221 199/220/220
f 301/216/216 195/215/215 201/222/222 302/223/223
f 195/215/215 196/217/217 202/224/224 201/222/222
f 196/217/217 197/218/218 203/225/225 202/224/224
f 197/218/218 198/219/219 204/226/226 203/225/225
f 198/219/219 199/220/220 205/227/227 204/226/226
f 199/220/220 200/221/221 206/228/228 205/227/227
f 302/223/223 201/222/222 207/229/229 303/230/230
f 201/222/222 202/224/224 208/231/231 207/229/229
f 202/224/224 203/225/225 209/232/232 208/231/231
f 203/225/225 204/226/226 210/233/233 209/232/232
f 204/226/226 205/227/227 211/234/234 210/233/233
f 205/227/227 206/228/228 212/235/235 211/234/234
f 303/230/230 207/229/229 213/236/236 304/237/237
f 207/229/229 208/231/231 214/238/238 213/236/236
f 208/231/231 209/232/232 215/239/239 214/238/238
f 209/232/232 210/233/233 216/240/240 215/239/239
f 210/233/233 211/234/234 217/241/241 216/240/240
f 211/234/234 212/235/235 218/242/242 217/241/241
f 304/237/237 213/236/236 219/243/243 305/244/244
f 213/236/236 214/238/238 220/245/245 219/243/243
f 214/238/238 215/239/239 221/246/246 220/245/245
f 215/239/239 216/240/240 222/247/247 221/246/246
f 216/240/240 217/241/241 223/248/248 222/247/247
f 217/241/241 218/242/242 224/249/249 223/248/248
f 277/200/200 49/199/199 183/202/202 299/201/201
f 49/199/199 48/198/198 184/205/205 183/202/202
f 48/198/198 47/197/197 185/207/207 184/205/205
f 47/197/197 46/196/196 186/209/209 185/207/207
f 46/196/196 45/195/195 187/211/211 186/209/209
f 45/195/195 44/194/194 188/213/213 187/211/211
f 44/194/194 3/193/193 50/250/250 188/213/213
f 188/213/213 50/250/250 51/251/251 194/214/214
f 194/214/214 51/251/251 52/252/252 200/221/221
f 200/221/221 52/252/252 53/253/253 206/228/228
f 206/228/228 53/253/253 54/254/254 212/235/235
f 212/235/235 54/254/254 55/255/255 218/242/242
f 218/242/242 55/255/255 56/256/256 224/249/249
f 224/249/249 56/256/256 1/257/57 10/258/56
f 223/248/248 224/249/249 10/258/56 9/259/55
f 222/247/247 223/248/248 9/259/55 8/260/54
f 221/246/246 222/247/247 8/260/54 7/261/53
f 220/245/245 221/246/246 7/261/53 6/262/52
f 219/243/243 220/245/245 6/262/52 5/263/51
f 305/244/244 219/243/243 5/263/51 274/264/50
f 225/265/257 226/266/258 233/267/259 232/268/260
f 226/266/258 227/269/261 234/270/262 233/267/259
f 227/269/261 228/271/263 235/272/264 234/270/262
f 228/271/263 229/273/265 236/274/266 235/272/264
f 229/273/265 230/275/267 237/276/268 236/274/266
f 230/275/267 231/277/269 238/278/270 237/276/268
f 232/268/260 233/267/259 240/279/271 239/280/272
f 233/267/259 234/270/262 241/281/273 240/279/271
f 234/270/262 235/272/264 242/282/274 241/281/273
f 235/272/264 236/274/266 243/283/275 242/282/274
f 236/274/266 237/276/268 244/284/276 243/283/275
f 237/276/268 238/278/270 245/285/277 244/284/276
f 239/280/272 240/279/271 247/286/278 246/287/279
f 240/279/271 241/281/273 248/288/280 247/286/278
f 241/281/273 242/282/274 249/289/281 248/288/280
f 242/282/274 243/283/275 250/290/282 249/289/281
f 243/283/275 244/284/276 251/291/283 250/290/282
f 244/284/276 245/285/277 252/292/284 251/291/283
f 246/287/279 247/286/278 254/293/285 253/294/286
f 247/286/278 248/288/280 255/295/287 254/293/285
f 248/288/280 249/289/281 256/296/288 255/295/287
f 249/289/281 250/290/282 257/297/289 256/296/288
f 250/290/282 251/291/283 258/298/290 257/297/289
f 251/291/283 252/292/284 259/299/291 258/298/290
f 253/294/286 254/293/285 261/300/292 260/301/293
f 254/293/285 255/295/287 262/302/294 261/300/292
f 255/295/287 256/296/288 263/303/295 262/302/294
f 256/296/288 257/297/289 264/304/296 263/303/295
f 257/297/289 258/298/290 265/305/297 264/304/296
f 258/298/290 259/299/291 266/306/298 265/305/297
f 260/301/293 261/300/292 268/307/299 267/308/300
f 261/300/292 262/302/294 269/309/301 268/307/299
f 262/302/294 263/303/295 270/310/302 269/309/301
f 263/303/295 264/304/296 271/311/303 270/310/302
f 264/304/296 265/305/297 272/312/304 271/311/303
f 265/305/297 266/306/298 273/313/305 272/312/304
f 4/129/129 30/314/128 225/265/257 37/186/186
f 30/314/128 29/315/127 226/266/258 225/265/257
f 29/315/127 28/316/126 227/269/261 226/266/258
f 28/316/126 27/317/125 228/271/263 227/269/261
f 27/317/125 26/318/124 229/273/265 228/271/263
f 26/318/124 25/319/123 230/275/267 229/273/265
f 25/319/123 24/320/122 231/277/269 230/275/267
f 24/320/122 2/321/65 17/322/64 231/277/269
f 231/277/269 17/322/64 16/323/63 238/278/270
f 238/278/270 16/323/63 15/324/62 245/285/277
f 245/285/277 15/324/62 14/325/61 252/292/284
f 252/292/284 14/325/61 13/326/60 259/299/291
f 259/299/291 13/326/60 12/327/59 266/306/298
f 266/306/298 12/327/59 11/328/58 273/313/305
f 273/313/305 11/328/58 1/329/57 56/330/256
f 272/312/304 273/313/305 56/330/256 55/331/255
f 271/311/303 272/312/304 55/331/255 54/332/254
f 270/310/302 271/311/303 54/332/254 53/333/253
f 269/309/301 270/310/302 53/333/253 52/334/252
f 268/307/299 269/309/301 52/334/252 51/335/251
f 267/308/300 268/307/299 51/335/251 50/336/250
f 43/192/192 267/308/300 50/336/250 3/193/193
f 42/191/191 260/301/293 267/308/300 43/192/192
f 41/190/190 253/294/286 260/301/293 42/191/191
f 40/189/189 246/287/279 253/294/286 41/190/190
f 39/188/188 239/280/272 246/287/279 40/189/189
f 38/187/187 232/268/260 239/280/272 39/188/188
f 37/186/186 225/265/257 232/268/260 38/187/187
f 279/4/306 280/16/307 312/16/308 311/4/309
f 294/152/310 295/159/311 327/159/311 326/152/312
f 278/1/313 279/4/306 311/4/309 310/1/314
f 293/140/315 294/152/310 326/152/312 325/140/316
f 298/180/317 277/200/318 309/200/318 330/180/319
f 292/137/320 293/140/315 325/140/316 324/137/321
f 277/200/318 299/201/322 331/201/323 309/200/318
f 290/109/324 291/116/325 323/116/326 322/109/327
f 291/116/325 276/136/328 308/136/328 323/116/326
f 289/102/329 290/109/324 322/109/327 321/102/330
f 304/237/331 305/244/332 337/244/333 336/237/334
f 276/136/328 292/137/320 324/137/321 308/136/328
f 288/95/335 289/102/329 321/102/330 320/95/335
f 303/230/336 304/237/331 336/237/334 335/230/337
f 284/44/338 275/72/339 307/72/339 316/44/340
f 287/88/341 288/95/335 320/95/335 319/88/342
f 302/223/343 303/230/336 335/230/337 334/223/343
f 275/72/339 285/73/344 317/73/345 307/72/339
f 286/76/346 287/88/341 319/88/342 318/76/347
f 301/216/348 302/223/343 334/223/343 333/216/349
f 274/50/350 278/1/313 310/1/314 306/50/350
f 285/73/344 286/76/346 318/76/347 317/73/345
f 300/204/351 301/216/348 333/216/349 332/204/352
f 305/244/332 274/264/350 306/264/350 337/244/333
f 283/37/353 284/44/338 316/44/340 315/37/354
f 299/201/322 300/204/351 332/204/352 331/201/323
f 282/30/355 283/37/353 315/37/354 314/30/356
f 297/173/357 298/180/317 330/180/319 329/173/358
f 281/23/359 282/30/355 314/30/356 313/23/359
f 296/166/360 297/173/357 329/173/358 328/166/361
f 280/16/307 281/23/359 313/23/359 312/16/308
f 295/159/311 296/166/360 328/166/361 327/159/311
f 330/180/362 309/200/197 341/200/197 362/180/362
f 324/137/363 325/140/364 357/140/364 356/137/363
f 309/200/197 331/201/365 363/201/365 341/200/197
f 322/109/366 323/116/367 355/116/367 354/109/366
f 323/116/367 308/136/133 340/136/133 355/116/367
f 321/102/368 322/109/366 354/109/366 353/102/368
f 336/237/369 337/244/370 369/244/370 368/237/369
f 308/136/133 324/137/363 356/137/363 340/136/133
f 320/95/97 321/102/368 353/102/368 352/95/97
f 335/230/371 336/237/369 368/237/369 367/230/371
f 316/44/372 307/72/69 339/72/69 348/44/372
f 319/88/373 320/95/97 352/95/97 351/88/373
f 334/223/225 335/230/371 367/230/371 366/223/225
f 307/72/69 317/73/374 349/73/374 339/72/69
f 318/76/375 319/88/373 351/88/373 350/76/375
f 333/216/376 334/223/225 366/223/225 365/216/376
f 306/50/53 310/1/377 342/1/377 338/50/53
f 317/73/374 318/76/375 350/76/375 349/73/374
f 332/204/378 333/216/376 365/216/376 364/204/378
f 337/244/370 306/264/53 338/264/53 369/244/370
f 315/37/379 316/44/372 348/44/372 347/37/379
f 331/201/365 332/204/378 364/204/378 363/201/365
f 314/30/380 315/37/379 347/37/379 346/30/380
f 329/173/381 330/180/362 362/180/362 361/173/381
f 313/23/25 314/30/380 346/30/380 345/23/25
f 328/166/382 329/173/381 361/173/381 360/166/382
f 312/16/383 313/23/25 345/23/25 344/16/383
f 327/159/161 328/166/382 360/166/382 359/159/161
f 311/4/384 312/16/383 344/16/383 343/4/384
f 326/152/385 327/159/161 359/159/161 358/152/385
f 310/1/377 311/4/384 343/4/384 342/1/377
f 325/140/364 326/152/385 358/152/385 357/140/364
