# Blender 5.1.1
# www.blender.org
mtllib Lights.mtl
o Text
v 1.287509 0.554586 -0.417134
v 1.287509 0.554586 0.558848
v 1.077196 0.554586 0.558848
v 1.077196 0.554586 -0.417134
v 0.689432 0.554586 -0.417134
v 0.689432 0.554586 -0.611016
v 1.675273 0.554586 -0.611016
v 1.675273 0.554586 -0.417134
v 0.375607 0.554586 0.558848
v 0.375607 0.554586 -0.611016
v 0.585919 0.554586 -0.611016
v 0.585919 0.554586 0.558848
v 0.324352 0.554586 0.558848
v 0.066573 0.554586 0.558848
v -0.303102 0.554586 0.109501
v -0.677557 0.554586 0.558848
v -0.937227 0.554586 0.558848
v -0.433614 0.554586 -0.045830
v -0.902599 0.554586 -0.611016
v -0.642962 0.554586 -0.611016
v -0.303025 0.554586 -0.198009
v 0.035324 0.554586 -0.611016
v 0.293229 0.554586 -0.611016
v -0.174080 0.554586 -0.045778
v -1.400549 0.554586 -0.417134
v -1.400549 0.554586 -0.127954
v -0.942133 0.554586 -0.127954
v -0.942133 0.554586 0.065928
v -1.400549 0.554586 0.065928
v -1.400549 0.554586 0.364966
v -0.910915 0.554586 0.364966
v -0.910915 0.554586 0.558848
v -1.610862 0.554586 0.558848
v -1.610862 0.554586 -0.611016
v -0.925703 0.554586 -0.611016
v -0.925703 0.554586 -0.417134
v 1.287509 0.445216 -0.417134
v 1.287509 0.445216 0.558848
v 1.077196 0.445216 0.558848
v 1.077196 0.445216 -0.417134
v 0.689432 0.445216 -0.417134
v 0.689432 0.445216 -0.611016
v 1.675273 0.445216 -0.611016
v 1.675273 0.445216 -0.417134
v 0.375607 0.445216 0.558848
v 0.375607 0.445216 -0.611016
v 0.585919 0.445216 -0.611016
v 0.585919 0.445216 0.558848
v 0.324352 0.445216 0.558848
v 0.066573 0.445216 0.558848
v -0.303102 0.445216 0.109501
v -0.677557 0.445216 0.558848
v -0.937227 0.445216 0.558848
v -0.433614 0.445216 -0.045830
v -0.902599 0.445216 -0.611016
v -0.642962 0.445216 -0.611016
v -0.303025 0.445216 -0.198009
v 0.035324 0.445216 -0.611016
v 0.293229 0.445216 -0.611016
v -0.174080 0.445216 -0.045778
v -1.400549 0.445216 -0.417134
v -1.400549 0.445216 -0.127954
v -0.942133 0.445216 -0.127954
v -0.942133 0.445216 0.065928
v -1.400549 0.445216 0.065928
v -1.400549 0.445216 0.364966
v -0.910915 0.445216 0.364966
v -0.910915 0.445216 0.558848
v -1.610862 0.445216 0.558848
v -1.610862 0.445216 -0.611016
v -0.925703 0.445216 -0.611016
v -0.925703 0.445216 -0.417134
vn -0.0000 1.0000 -0.0000
vn -0.0000 -1.0000 -0.0000
vn 1.0000 -0.0000 -0.0000
vn -0.0000 -0.0000 -1.0000
vn -0.0000 -0.0000 1.0000
vn -1.0000 -0.0000 -0.0000
vn -0.7722 -0.0000 0.6353
vn 0.7682 -0.0000 0.6402
vn -0.7684 -0.0000 -0.6400
vn -0.7696 -0.0000 0.6386
vn 0.7721 -0.0000 -0.6355
vn -0.7736 -0.0000 -0.6337
vn 0.7707 -0.0000 0.6372
vn 0.7716 -0.0000 -0.6361
vt 0.714286 0.000000
vt 0.571429 0.000000
vt 0.428571 0.000000
vt 1.000000 0.000000
vt 0.857143 0.000000
vt 0.000000 0.000000
vt 0.285714 0.000000
vt 0.142857 0.000000
vt 0.333333 0.000000
vt 0.666667 0.000000
vt 0.181818 0.000000
vt 0.454545 0.000000
vt 0.272727 0.000000
vt 0.363636 0.000000
vt 0.636364 0.000000
vt 0.545455 0.000000
vt 0.727273 0.000000
vt 0.818182 0.000000
vt 0.090909 0.000000
vt 0.909091 0.000000
vt 0.000000 1.000000
vt 0.083333 1.000000
vt 0.083333 0.000000
vt 0.166667 1.000000
vt 0.166667 0.000000
vt 0.250000 1.000000
vt 0.250000 0.000000
vt 0.333333 1.000000
vt 0.416667 1.000000
vt 0.416667 0.000000
vt 0.500000 1.000000
vt 0.500000 0.000000
vt 0.583333 1.000000
vt 0.583333 0.000000
vt 0.666667 1.000000
vt 0.750000 1.000000
vt 0.750000 0.000000
vt 0.833333 1.000000
vt 0.833333 0.000000
vt 0.916667 1.000000
vt 0.916667 0.000000
vt 1.000000 1.000000
vt 0.125000 1.000000
vt 0.125000 0.000000
vt 0.375000 1.000000
vt 0.375000 0.000000
vt 0.625000 1.000000
vt 0.625000 0.000000
vt 0.875000 1.000000
vt 0.875000 0.000000
s 1
f 6/1/1 5/2/1 4/3/1
f 8/4/1 7/5/1 1/6/1
f 4/3/1 3/7/1 2/8/1
f 2/8/1 1/6/1 4/3/1
f 1/6/1 7/5/1 4/3/1
f 6/1/1 4/3/1 7/5/1
f 10/9/1 9/6/1 12/4/1
f 12/4/1 11/10/1 10/9/1
f 15/11/1 18/12/1 16/13/1
f 17/14/1 16/13/1 18/12/1
f 18/12/1 20/15/1 19/16/1
f 21/17/1 24/4/1 22/18/1
f 14/19/1 13/6/1 24/4/1
f 22/18/1 24/4/1 23/20/1
f 14/19/1 24/4/1 15/11/1
f 18/12/1 15/11/1 24/4/1
f 24/4/1 21/17/1 18/12/1
f 20/15/1 18/12/1 21/17/1
f 33/17/1 30/12/1 29/14/1
f 34/18/1 33/17/1 29/14/1
f 29/14/1 26/19/1 34/18/1
f 26/19/1 25/6/1 34/18/1
f 30/12/1 33/17/1 32/15/1
f 32/15/1 31/16/1 30/12/1
f 26/19/1 29/14/1 28/13/1
f 28/13/1 27/11/1 26/19/1
f 36/4/1 35/20/1 25/6/1
f 34/18/1 25/6/1 35/20/1
f 42/1/2 40/3/2 41/2/2
f 44/4/2 37/6/2 43/5/2
f 40/3/2 38/8/2 39/7/2
f 38/8/2 40/3/2 37/6/2
f 37/6/2 40/3/2 43/5/2
f 42/1/2 43/5/2 40/3/2
f 46/9/2 48/4/2 45/6/2
f 48/4/2 46/9/2 47/10/2
f 51/11/2 52/13/2 54/12/2
f 53/14/2 54/12/2 52/13/2
f 54/12/2 55/16/2 56/15/2
f 57/17/2 58/18/2 60/4/2
f 50/19/2 60/4/2 49/6/2
f 58/18/2 59/20/2 60/4/2
f 50/19/2 51/11/2 60/4/2
f 54/12/2 60/4/2 51/11/2
f 60/4/2 54/12/2 57/17/2
f 56/15/2 57/17/2 54/12/2
f 69/17/2 65/14/2 66/12/2
f 70/18/2 65/14/2 69/17/2
f 65/14/2 70/18/2 62/19/2
f 62/19/2 70/18/2 61/6/2
f 66/12/2 68/15/2 69/17/2
f 68/15/2 66/12/2 67/16/2
f 62/19/2 64/13/2 65/14/2
f 64/13/2 62/19/2 63/11/2
f 72/4/2 61/6/2 71/20/2
f 70/18/2 71/20/2 61/6/2
f 25/21/3 26/22/3 62/23/3 61/6/3
f 26/22/4 27/24/4 63/25/4 62/23/4
f 27/24/3 28/26/3 64/27/3 63/25/3
f 28/26/5 29/28/5 65/9/5 64/27/5
f 29/28/3 30/29/3 66/30/3 65/9/3
f 30/29/4 31/31/4 67/32/4 66/30/4
f 31/31/3 32/33/3 68/34/3 67/32/3
f 32/33/5 33/35/5 69/10/5 68/34/5
f 33/35/6 34/36/6 70/37/6 69/10/6
f 34/36/4 35/38/4 71/39/4 70/37/4
f 35/38/3 36/40/3 72/41/3 71/39/3
f 36/40/5 25/42/5 61/4/5 72/41/5
f 13/21/5 14/22/5 50/23/5 49/6/5
f 14/22/7 15/24/7 51/25/7 50/23/7
f 15/24/8 16/26/8 52/27/8 51/25/8
f 16/26/5 17/28/5 53/9/5 52/27/5
f 17/28/9 18/29/9 54/30/9 53/9/9
f 18/29/10 19/31/10 55/32/10 54/30/10
f 19/31/4 20/33/4 56/34/4 55/32/4
f 20/33/11 21/35/11 57/10/11 56/34/11
f 21/35/12 22/36/12 58/37/12 57/10/12
f 22/36/4 23/38/4 59/39/4 58/37/4
f 23/38/13 24/40/13 60/41/13 59/39/13
f 24/40/14 13/42/14 49/4/14 60/41/14
f 9/21/6 10/26/6 46/27/6 45/6/6
f 10/26/4 11/31/4 47/32/4 46/27/4
f 11/31/3 12/36/3 48/37/3 47/32/3
f 12/36/5 9/42/5 45/4/5 48/37/5
f 1/21/3 2/43/3 38/44/3 37/6/3
f 2/43/5 3/26/5 39/27/5 38/44/5
f 3/26/6 4/45/6 40/46/6 39/27/6
f 4/45/5 5/31/5 41/32/5 40/46/5
f 5/31/6 6/47/6 42/48/6 41/32/6
f 6/47/4 7/36/4 43/37/4 42/48/4
f 7/36/3 8/49/3 44/50/3 43/37/3
f 8/49/5 1/42/5 37/4/5 44/50/5
